%TF.GenerationSoftware,KiCad,Pcbnew,9.0.2*%
%TF.CreationDate,2025-08-16T18:35:03-07:00*%
%TF.ProjectId,Transmitter,5472616e-736d-4697-9474-65722e6b6963,rev?*%
%TF.SameCoordinates,Original*%
%TF.FileFunction,Copper,L1,Top*%
%TF.FilePolarity,Positive*%
%FSLAX46Y46*%
G04 Gerber Fmt 4.6, Leading zero omitted, Abs format (unit mm)*
G04 Created by KiCad (PCBNEW 9.0.2) date 2025-08-16 18:35:03*
%MOMM*%
%LPD*%
G01*
G04 APERTURE LIST*
G04 Aperture macros list*
%AMRoundRect*
0 Rectangle with rounded corners*
0 $1 Rounding radius*
0 $2 $3 $4 $5 $6 $7 $8 $9 X,Y pos of 4 corners*
0 Add a 4 corners polygon primitive as box body*
4,1,4,$2,$3,$4,$5,$6,$7,$8,$9,$2,$3,0*
0 Add four circle primitives for the rounded corners*
1,1,$1+$1,$2,$3*
1,1,$1+$1,$4,$5*
1,1,$1+$1,$6,$7*
1,1,$1+$1,$8,$9*
0 Add four rect primitives between the rounded corners*
20,1,$1+$1,$2,$3,$4,$5,0*
20,1,$1+$1,$4,$5,$6,$7,0*
20,1,$1+$1,$6,$7,$8,$9,0*
20,1,$1+$1,$8,$9,$2,$3,0*%
G04 Aperture macros list end*
%TA.AperFunction,SMDPad,CuDef*%
%ADD10RoundRect,0.218750X0.218750X0.256250X-0.218750X0.256250X-0.218750X-0.256250X0.218750X-0.256250X0*%
%TD*%
%TA.AperFunction,SMDPad,CuDef*%
%ADD11RoundRect,0.073750X-0.651250X-0.221250X0.651250X-0.221250X0.651250X0.221250X-0.651250X0.221250X0*%
%TD*%
%TA.AperFunction,SMDPad,CuDef*%
%ADD12RoundRect,0.250000X-0.625000X0.312500X-0.625000X-0.312500X0.625000X-0.312500X0.625000X0.312500X0*%
%TD*%
%TA.AperFunction,SMDPad,CuDef*%
%ADD13RoundRect,0.250000X-0.312500X-0.625000X0.312500X-0.625000X0.312500X0.625000X-0.312500X0.625000X0*%
%TD*%
%TA.AperFunction,SMDPad,CuDef*%
%ADD14RoundRect,0.250000X0.312500X0.625000X-0.312500X0.625000X-0.312500X-0.625000X0.312500X-0.625000X0*%
%TD*%
%TA.AperFunction,SMDPad,CuDef*%
%ADD15RoundRect,0.225000X-0.225000X-0.250000X0.225000X-0.250000X0.225000X0.250000X-0.225000X0.250000X0*%
%TD*%
%TA.AperFunction,SMDPad,CuDef*%
%ADD16RoundRect,0.225000X0.250000X-0.225000X0.250000X0.225000X-0.250000X0.225000X-0.250000X-0.225000X0*%
%TD*%
%TA.AperFunction,SMDPad,CuDef*%
%ADD17RoundRect,0.225000X0.225000X0.250000X-0.225000X0.250000X-0.225000X-0.250000X0.225000X-0.250000X0*%
%TD*%
%TA.AperFunction,SMDPad,CuDef*%
%ADD18RoundRect,0.140000X0.170000X-0.140000X0.170000X0.140000X-0.170000X0.140000X-0.170000X-0.140000X0*%
%TD*%
%TA.AperFunction,SMDPad,CuDef*%
%ADD19RoundRect,0.140000X0.140000X0.170000X-0.140000X0.170000X-0.140000X-0.170000X0.140000X-0.170000X0*%
%TD*%
%TA.AperFunction,SMDPad,CuDef*%
%ADD20R,2.000000X2.500000*%
%TD*%
%TA.AperFunction,SMDPad,CuDef*%
%ADD21R,6.000000X5.500000*%
%TD*%
%TA.AperFunction,SMDPad,CuDef*%
%ADD22RoundRect,0.225000X-0.250000X0.225000X-0.250000X-0.225000X0.250000X-0.225000X0.250000X0.225000X0*%
%TD*%
%TA.AperFunction,SMDPad,CuDef*%
%ADD23RoundRect,0.200000X-0.275000X0.200000X-0.275000X-0.200000X0.275000X-0.200000X0.275000X0.200000X0*%
%TD*%
%TA.AperFunction,ComponentPad*%
%ADD24C,1.828800*%
%TD*%
%TA.AperFunction,SMDPad,CuDef*%
%ADD25RoundRect,0.135000X-0.185000X0.135000X-0.185000X-0.135000X0.185000X-0.135000X0.185000X0.135000X0*%
%TD*%
%TA.AperFunction,ComponentPad*%
%ADD26C,2.362200*%
%TD*%
%TA.AperFunction,SMDPad,CuDef*%
%ADD27RoundRect,0.135000X0.185000X-0.135000X0.185000X0.135000X-0.185000X0.135000X-0.185000X-0.135000X0*%
%TD*%
%TA.AperFunction,ComponentPad*%
%ADD28C,1.524000*%
%TD*%
%TA.AperFunction,SMDPad,CuDef*%
%ADD29RoundRect,0.200000X-0.200000X-0.275000X0.200000X-0.275000X0.200000X0.275000X-0.200000X0.275000X0*%
%TD*%
%TA.AperFunction,ComponentPad*%
%ADD30R,1.700000X1.700000*%
%TD*%
%TA.AperFunction,ComponentPad*%
%ADD31C,1.700000*%
%TD*%
%TA.AperFunction,SMDPad,CuDef*%
%ADD32RoundRect,0.075000X-0.700000X-0.075000X0.700000X-0.075000X0.700000X0.075000X-0.700000X0.075000X0*%
%TD*%
%TA.AperFunction,SMDPad,CuDef*%
%ADD33RoundRect,0.075000X-0.075000X-0.700000X0.075000X-0.700000X0.075000X0.700000X-0.075000X0.700000X0*%
%TD*%
%TA.AperFunction,SMDPad,CuDef*%
%ADD34RoundRect,0.250000X0.275000X0.700000X-0.275000X0.700000X-0.275000X-0.700000X0.275000X-0.700000X0*%
%TD*%
%TA.AperFunction,SMDPad,CuDef*%
%ADD35RoundRect,0.150000X-0.512500X-0.150000X0.512500X-0.150000X0.512500X0.150000X-0.512500X0.150000X0*%
%TD*%
%TA.AperFunction,SMDPad,CuDef*%
%ADD36RoundRect,0.135000X0.135000X0.185000X-0.135000X0.185000X-0.135000X-0.185000X0.135000X-0.185000X0*%
%TD*%
%TA.AperFunction,SMDPad,CuDef*%
%ADD37R,1.900000X5.100000*%
%TD*%
%TA.AperFunction,ComponentPad*%
%ADD38C,1.270000*%
%TD*%
%TA.AperFunction,SMDPad,CuDef*%
%ADD39R,0.254000X0.304800*%
%TD*%
%TA.AperFunction,SMDPad,CuDef*%
%ADD40R,0.304800X0.152400*%
%TD*%
%TA.AperFunction,SMDPad,CuDef*%
%ADD41R,0.304800X0.457200*%
%TD*%
%TA.AperFunction,SMDPad,CuDef*%
%ADD42R,0.457200X0.304800*%
%TD*%
%TA.AperFunction,SMDPad,CuDef*%
%ADD43R,1.574800X1.050000*%
%TD*%
%TA.AperFunction,SMDPad,CuDef*%
%ADD44C,0.127000*%
%TD*%
%TA.AperFunction,SMDPad,CuDef*%
%ADD45R,0.580009X0.380009*%
%TD*%
%TA.AperFunction,ComponentPad*%
%ADD46C,1.574800*%
%TD*%
%TA.AperFunction,ViaPad*%
%ADD47C,0.500000*%
%TD*%
%TA.AperFunction,ViaPad*%
%ADD48C,1.000000*%
%TD*%
%TA.AperFunction,ViaPad*%
%ADD49C,4.000000*%
%TD*%
%TA.AperFunction,Conductor*%
%ADD50C,0.300000*%
%TD*%
%TA.AperFunction,Conductor*%
%ADD51C,0.500000*%
%TD*%
%TA.AperFunction,Conductor*%
%ADD52C,2.000000*%
%TD*%
%TA.AperFunction,Conductor*%
%ADD53C,0.200000*%
%TD*%
G04 APERTURE END LIST*
D10*
%TO.P,R20,1*%
%TO.N,GND*%
X116887500Y-93960000D03*
%TO.P,R20,2*%
%TO.N,Net-(D1-K)*%
X115312500Y-93960000D03*
%TD*%
%TO.P,D1,1,K*%
%TO.N,Net-(D1-K)*%
X113834500Y-93955000D03*
%TO.P,D1,2,A*%
%TO.N,Net-(D1-A)*%
X112259500Y-93955000D03*
%TD*%
D11*
%TO.P,U4,6,VBST*%
%TO.N,Vbst*%
X118400000Y-72100000D03*
%TO.P,U4,5,EN*%
%TO.N,Net-(U4-EN)*%
X118400000Y-73050000D03*
%TO.P,U4,4,VFB*%
%TO.N,Net-(U4-VFB)*%
X118400000Y-74000000D03*
%TO.P,U4,3,VIN*%
%TO.N,Vbatt*%
X116090000Y-74000000D03*
%TO.P,U4,2,SW*%
%TO.N,Net-(U4-SW)*%
X116090000Y-73050000D03*
%TO.P,U4,1,GND*%
%TO.N,GND*%
X116090000Y-72100000D03*
%TD*%
D12*
%TO.P,R16,1*%
%TO.N,Vdd*%
X110060000Y-61685000D03*
%TO.P,R16,2*%
%TO.N,Net-(U5-MODE2)*%
X110060000Y-64610000D03*
%TD*%
%TO.P,R15,1*%
%TO.N,Vdd*%
X107750000Y-61690000D03*
%TO.P,R15,2*%
%TO.N,Net-(U5-MODE1)*%
X107750000Y-64615000D03*
%TD*%
D13*
%TO.P,R13,1*%
%TO.N,Vfb*%
X93162500Y-73650000D03*
%TO.P,R13,2*%
%TO.N,Vdc*%
X96087500Y-73650000D03*
%TD*%
D14*
%TO.P,R11,1*%
%TO.N,+5V*%
X123192500Y-75160000D03*
%TO.P,R11,2*%
%TO.N,Net-(U4-VFB)*%
X120267500Y-75160000D03*
%TD*%
D15*
%TO.P,C11,2*%
%TO.N,GND*%
X124930000Y-81370000D03*
%TO.P,C11,1*%
%TO.N,Net-(U4-SW)*%
X123380000Y-81370000D03*
%TD*%
%TO.P,C12,1*%
%TO.N,Net-(U4-SW)*%
X123360000Y-82900000D03*
%TO.P,C12,2*%
%TO.N,GND*%
X124910000Y-82900000D03*
%TD*%
D16*
%TO.P,C6,1*%
%TO.N,Vbatt*%
X114300000Y-76730000D03*
%TO.P,C6,2*%
%TO.N,GND*%
X114300000Y-75180000D03*
%TD*%
%TO.P,C5,1*%
%TO.N,Vbatt*%
X112790000Y-76730000D03*
%TO.P,C5,2*%
%TO.N,GND*%
X112790000Y-75180000D03*
%TD*%
D17*
%TO.P,C1,1*%
%TO.N,+3.3V*%
X123335000Y-105326000D03*
%TO.P,C1,2*%
%TO.N,GND*%
X121785000Y-105326000D03*
%TD*%
D18*
%TO.P,C3,1*%
%TO.N,Vbatt*%
X117820000Y-110220000D03*
%TO.P,C3,2*%
%TO.N,V_in*%
X117820000Y-109260000D03*
%TD*%
D19*
%TO.P,C13,1*%
%TO.N,+5V*%
X119400000Y-70600000D03*
%TO.P,C13,2*%
%TO.N,Vbst*%
X118440000Y-70600000D03*
%TD*%
D20*
%TO.P,Q5,1,G*%
%TO.N,S3*%
X113300000Y-50500000D03*
D21*
%TO.P,Q5,2,D*%
%TO.N,Vdc*%
X111000000Y-57000000D03*
D20*
%TO.P,Q5,3,S*%
%TO.N,LoadB*%
X108700000Y-50500000D03*
%TD*%
D22*
%TO.P,C9,1*%
%TO.N,LoadB*%
X116200000Y-39425000D03*
%TO.P,C9,2*%
%TO.N,GND*%
X116200000Y-40975000D03*
%TD*%
D23*
%TO.P,R19,1*%
%TO.N,+5V*%
X112000000Y-65350000D03*
%TO.P,R19,2*%
%TO.N,Net-(U5-EN)*%
X112000000Y-67000000D03*
%TD*%
D24*
%TO.P,J6,1,1*%
%TO.N,Vbatt*%
X117800000Y-119556100D03*
%TO.P,J6,2,2*%
X117800000Y-114476100D03*
%TD*%
D15*
%TO.P,C19,1*%
%TO.N,Vdd*%
X113950000Y-66000000D03*
%TO.P,C19,2*%
%TO.N,GND*%
X115500000Y-66000000D03*
%TD*%
D20*
%TO.P,Q6,1,G*%
%TO.N,S4*%
X108700000Y-43300000D03*
D21*
%TO.P,Q6,2,D*%
%TO.N,LoadB*%
X111000000Y-36800000D03*
D20*
%TO.P,Q6,3,S*%
%TO.N,GND*%
X113300000Y-43300000D03*
%TD*%
D22*
%TO.P,C8,1*%
%TO.N,LoadA*%
X104700000Y-39950000D03*
%TO.P,C8,2*%
%TO.N,GND*%
X104700000Y-41500000D03*
%TD*%
D24*
%TO.P,J7,1,1*%
%TO.N,GND*%
X122200000Y-119600000D03*
%TO.P,J7,2,2*%
X122200000Y-114520000D03*
%TD*%
D25*
%TO.P,R1,1*%
%TO.N,+3.3V*%
X121730000Y-93080000D03*
%TO.P,R1,2*%
%TO.N,NRST*%
X121730000Y-94100000D03*
%TD*%
D20*
%TO.P,Q3,1,G*%
%TO.N,S2*%
X97200000Y-43500000D03*
D21*
%TO.P,Q3,2,D*%
%TO.N,LoadA*%
X99500000Y-37000000D03*
D20*
%TO.P,Q3,3,S*%
%TO.N,GND*%
X101800000Y-43500000D03*
%TD*%
D24*
%TO.P,J2,1,1*%
%TO.N,LoadA*%
X99480000Y-31370000D03*
%TO.P,J2,2,2*%
X99480000Y-26290000D03*
%TD*%
D26*
%TO.P,U1,1,1*%
%TO.N,Vbatt*%
X113300000Y-110221100D03*
%TO.P,U1,2,2*%
%TO.N,V_in*%
X113300000Y-105395100D03*
%TO.P,U1,3,3*%
%TO.N,unconnected-(U1-Pad3)*%
X113300000Y-100569100D03*
%TD*%
D19*
%TO.P,C2,1*%
%TO.N,+3.3V*%
X123060000Y-103826000D03*
%TO.P,C2,2*%
%TO.N,GND*%
X122100000Y-103826000D03*
%TD*%
D27*
%TO.P,R3,1*%
%TO.N,Net-(U2-BOOT0)*%
X101200000Y-84140000D03*
%TO.P,R3,2*%
%TO.N,GND*%
X101200000Y-83120000D03*
%TD*%
D24*
%TO.P,J9,1,1*%
%TO.N,Vdc*%
X91473900Y-65868550D03*
%TO.P,J9,2,2*%
X96553900Y-65868550D03*
%TD*%
D27*
%TO.P,R4,1*%
%TO.N,S1*%
X101990000Y-47510000D03*
%TO.P,R4,2*%
%TO.N,GND*%
X101990000Y-46490000D03*
%TD*%
D28*
%TO.P,J1,1,1*%
%TO.N,+3.3V*%
X102900000Y-118900000D03*
%TO.P,J1,2,2*%
%TO.N,GND*%
X102900000Y-116360000D03*
%TO.P,J1,3,3*%
%TO.N,SPI1_CSN*%
X100360000Y-118900000D03*
%TO.P,J1,4,4*%
%TO.N,NRF_CE*%
X100360000Y-116360000D03*
%TO.P,J1,5,5*%
%TO.N,SPI1_MOSI*%
X97820000Y-118900000D03*
%TO.P,J1,6,6*%
%TO.N,SPI1_SCK*%
X97820000Y-116360000D03*
%TO.P,J1,7,7*%
%TO.N,NRF_IRQ*%
X95280000Y-118900000D03*
%TO.P,J1,8,8*%
%TO.N,SPI1_MISO*%
X95280000Y-116360000D03*
%TD*%
D29*
%TO.P,R17,1*%
%TO.N,Pgood*%
X112000000Y-71000000D03*
%TO.P,R17,2*%
%TO.N,Vdd*%
X113650000Y-71000000D03*
%TD*%
D30*
%TO.P,J12,1,Pin_1*%
%TO.N,+5V*%
X106600000Y-119000000D03*
D31*
%TO.P,J12,2,Pin_2*%
%TO.N,GND*%
X106600000Y-116460000D03*
%TO.P,J12,3,Pin_3*%
%TO.N,LElevator*%
X106600000Y-113920000D03*
%TD*%
D32*
%TO.P,U2,1,VDD*%
%TO.N,+3.3V*%
X99150000Y-88000000D03*
%TO.P,U2,2,PC13*%
%TO.N,LFlap*%
X99150000Y-88500000D03*
%TO.P,U2,3,PC14*%
%TO.N,unconnected-(U2-PC14-Pad3)*%
X99150000Y-89000000D03*
%TO.P,U2,4,PC15*%
%TO.N,unconnected-(U2-PC15-Pad4)*%
X99150000Y-89500000D03*
%TO.P,U2,5,PF0*%
%TO.N,unconnected-(U2-PF0-Pad5)*%
X99150000Y-90000000D03*
%TO.P,U2,6,PF1*%
%TO.N,unconnected-(U2-PF1-Pad6)*%
X99150000Y-90500000D03*
%TO.P,U2,7,NRST*%
%TO.N,NRST*%
X99150000Y-91000000D03*
%TO.P,U2,8,PC0*%
%TO.N,unconnected-(U2-PC0-Pad8)*%
X99150000Y-91500000D03*
%TO.P,U2,9,PC1*%
%TO.N,unconnected-(U2-PC1-Pad9)*%
X99150000Y-92000000D03*
%TO.P,U2,10,PC2*%
%TO.N,unconnected-(U2-PC2-Pad10)*%
X99150000Y-92500000D03*
%TO.P,U2,11,PC3*%
%TO.N,unconnected-(U2-PC3-Pad11)*%
X99150000Y-93000000D03*
%TO.P,U2,12,VSSA*%
%TO.N,GND*%
X99150000Y-93500000D03*
%TO.P,U2,13,VDDA*%
%TO.N,+3.3V*%
X99150000Y-94000000D03*
%TO.P,U2,14,PA0*%
%TO.N,Sw_1*%
X99150000Y-94500000D03*
%TO.P,U2,15,PA1*%
%TO.N,Sw_2*%
X99150000Y-95000000D03*
%TO.P,U2,16,PA2*%
%TO.N,NRF_IRQ*%
X99150000Y-95500000D03*
D33*
%TO.P,U2,17,PA3*%
%TO.N,SPI1_CSN*%
X101075000Y-97425000D03*
%TO.P,U2,18,PF4*%
%TO.N,unconnected-(U2-PF4-Pad18)*%
X101575000Y-97425000D03*
%TO.P,U2,19,PF5*%
%TO.N,unconnected-(U2-PF5-Pad19)*%
X102075000Y-97425000D03*
%TO.P,U2,20,PA4*%
%TO.N,SPI1_SCK*%
X102575000Y-97425000D03*
%TO.P,U2,21,PA5*%
%TO.N,SPI1_MISO*%
X103075000Y-97425000D03*
%TO.P,U2,22,PA6*%
%TO.N,SPI1_MOSI*%
X103575000Y-97425000D03*
%TO.P,U2,23,PA7*%
%TO.N,NRF_CE*%
X104075000Y-97425000D03*
%TO.P,U2,24,PC4*%
%TO.N,unconnected-(U2-PC4-Pad24)*%
X104575000Y-97425000D03*
%TO.P,U2,25,PC5*%
%TO.N,unconnected-(U2-PC5-Pad25)*%
X105075000Y-97425000D03*
%TO.P,U2,26,PB0*%
%TO.N,unconnected-(U2-PB0-Pad26)*%
X105575000Y-97425000D03*
%TO.P,U2,27,PB1*%
%TO.N,unconnected-(U2-PB1-Pad27)*%
X106075000Y-97425000D03*
%TO.P,U2,28,PB2*%
%TO.N,LElevator*%
X106575000Y-97425000D03*
%TO.P,U2,29,PB10*%
%TO.N,Rudder*%
X107075000Y-97425000D03*
%TO.P,U2,30,PB11*%
%TO.N,RElevator*%
X107575000Y-97425000D03*
%TO.P,U2,31,VSS*%
%TO.N,GND*%
X108075000Y-97425000D03*
%TO.P,U2,32,VDD*%
%TO.N,+3.3V*%
X108575000Y-97425000D03*
D32*
%TO.P,U2,33,PB12*%
%TO.N,Net-(D1-A)*%
X110500000Y-95500000D03*
%TO.P,U2,34,PB13*%
%TO.N,unconnected-(U2-PB13-Pad34)*%
X110500000Y-95000000D03*
%TO.P,U2,35,PB14*%
%TO.N,unconnected-(U2-PB14-Pad35)*%
X110500000Y-94500000D03*
%TO.P,U2,36,PB15*%
%TO.N,unconnected-(U2-PB15-Pad36)*%
X110500000Y-94000000D03*
%TO.P,U2,37,PC6*%
%TO.N,unconnected-(U2-PC6-Pad37)*%
X110500000Y-93500000D03*
%TO.P,U2,38,PC7*%
%TO.N,unconnected-(U2-PC7-Pad38)*%
X110500000Y-93000000D03*
%TO.P,U2,39,PC8*%
%TO.N,unconnected-(U2-PC8-Pad39)*%
X110500000Y-92500000D03*
%TO.P,U2,40,PC9*%
%TO.N,unconnected-(U2-PC9-Pad40)*%
X110500000Y-92000000D03*
%TO.P,U2,41,PA8*%
%TO.N,unconnected-(U2-PA8-Pad41)*%
X110500000Y-91500000D03*
%TO.P,U2,42,PA9*%
%TO.N,unconnected-(U2-PA9-Pad42)*%
X110500000Y-91000000D03*
%TO.P,U2,43,PA10*%
%TO.N,unconnected-(U2-PA10-Pad43)*%
X110500000Y-90500000D03*
%TO.P,U2,44,PA11*%
%TO.N,unconnected-(U2-PA11-Pad44)*%
X110500000Y-90000000D03*
%TO.P,U2,45,PA12*%
%TO.N,SWDIO*%
X110500000Y-89500000D03*
%TO.P,U2,46,PA13*%
%TO.N,SWCLK*%
X110500000Y-89000000D03*
%TO.P,U2,47,PF6*%
%TO.N,unconnected-(U2-PF6-Pad47)*%
X110500000Y-88500000D03*
%TO.P,U2,48,PF7*%
%TO.N,RFlap*%
X110500000Y-88000000D03*
D33*
%TO.P,U2,49,PA14*%
%TO.N,unconnected-(U2-PA14-Pad49)*%
X108575000Y-86075000D03*
%TO.P,U2,50,PA15*%
%TO.N,unconnected-(U2-PA15-Pad50)*%
X108075000Y-86075000D03*
%TO.P,U2,51,PC10*%
%TO.N,unconnected-(U2-PC10-Pad51)*%
X107575000Y-86075000D03*
%TO.P,U2,52,PC11*%
%TO.N,S6*%
X107075000Y-86075000D03*
%TO.P,U2,53,PC12*%
%TO.N,unconnected-(U2-PC12-Pad53)*%
X106575000Y-86075000D03*
%TO.P,U2,54,PD2*%
%TO.N,S5*%
X106075000Y-86075000D03*
%TO.P,U2,55,PB3*%
%TO.N,S4*%
X105575000Y-86075000D03*
%TO.P,U2,56,PB4*%
%TO.N,S3*%
X105075000Y-86075000D03*
%TO.P,U2,57,PB5*%
%TO.N,S2*%
X104575000Y-86075000D03*
%TO.P,U2,58,PB6*%
%TO.N,S1*%
X104075000Y-86075000D03*
%TO.P,U2,59,PB7*%
%TO.N,unconnected-(U2-PB7-Pad59)*%
X103575000Y-86075000D03*
%TO.P,U2,60,BOOT0*%
%TO.N,Net-(U2-BOOT0)*%
X103075000Y-86075000D03*
%TO.P,U2,61,PB8*%
%TO.N,unconnected-(U2-PB8-Pad61)*%
X102575000Y-86075000D03*
%TO.P,U2,62,PB9*%
%TO.N,unconnected-(U2-PB9-Pad62)*%
X102075000Y-86075000D03*
%TO.P,U2,63,VSS*%
%TO.N,GND*%
X101575000Y-86075000D03*
%TO.P,U2,64,VDD*%
%TO.N,+3.3V*%
X101075000Y-86075000D03*
%TD*%
D34*
%TO.P,L2,1,1*%
%TO.N,Vdc*%
X111150000Y-75500000D03*
%TO.P,L2,2,2*%
%TO.N,LBefore*%
X108000000Y-75500000D03*
%TD*%
D24*
%TO.P,J4,1,1*%
%TO.N,LoadB*%
X111120000Y-31380000D03*
%TO.P,J4,2,2*%
X111120000Y-26300000D03*
%TD*%
%TO.P,J8,1,1*%
%TO.N,Vbatt*%
X91453900Y-70378550D03*
%TO.P,J8,2,2*%
X96533900Y-70378550D03*
%TD*%
D30*
%TO.P,J14,1,Pin_1*%
%TO.N,+5V*%
X110200000Y-119000000D03*
D31*
%TO.P,J14,2,Pin_2*%
%TO.N,GND*%
X110200000Y-116460000D03*
%TO.P,J14,3,Pin_3*%
%TO.N,Rudder*%
X110200000Y-113920000D03*
%TD*%
D20*
%TO.P,Q9,1,G*%
%TO.N,S5*%
X124800000Y-50500000D03*
D21*
%TO.P,Q9,2,D*%
%TO.N,Vdc*%
X122500000Y-57000000D03*
D20*
%TO.P,Q9,3,S*%
%TO.N,LoadC*%
X120200000Y-50500000D03*
%TD*%
D35*
%TO.P,U3,1,IN*%
%TO.N,V_in*%
X120525000Y-106930000D03*
%TO.P,U3,2,GND*%
%TO.N,GND*%
X120525000Y-107880000D03*
%TO.P,U3,3,EN*%
%TO.N,V_in*%
X120525000Y-108830000D03*
%TO.P,U3,4,BP*%
%TO.N,unconnected-(U3-BP-Pad4)*%
X122800000Y-108830000D03*
%TO.P,U3,5,OUT*%
%TO.N,+3.3V*%
X122800000Y-106930000D03*
%TD*%
D30*
%TO.P,J13,1,Pin_1*%
%TO.N,+5V*%
X113800000Y-119000000D03*
D31*
%TO.P,J13,2,Pin_2*%
%TO.N,GND*%
X113800000Y-116460000D03*
%TO.P,J13,3,Pin_3*%
%TO.N,RElevator*%
X113800000Y-113920000D03*
%TD*%
D27*
%TO.P,R8,1*%
%TO.N,S3*%
X113500000Y-47520000D03*
%TO.P,R8,2*%
%TO.N,GND*%
X113500000Y-46500000D03*
%TD*%
D20*
%TO.P,Q1,1,G*%
%TO.N,S1*%
X101800000Y-50500000D03*
D21*
%TO.P,Q1,2,D*%
%TO.N,Vdc*%
X99500000Y-57000000D03*
D20*
%TO.P,Q1,3,S*%
%TO.N,LoadA*%
X97200000Y-50500000D03*
%TD*%
D36*
%TO.P,R7,1*%
%TO.N,+3.3V*%
X121660000Y-72530000D03*
%TO.P,R7,2*%
%TO.N,Net-(U4-EN)*%
X120640000Y-72530000D03*
%TD*%
D15*
%TO.P,C21,1*%
%TO.N,Net-(U5-VDRV)*%
X111950000Y-73000000D03*
%TO.P,C21,2*%
%TO.N,GND*%
X113500000Y-73000000D03*
%TD*%
D18*
%TO.P,C22,1*%
%TO.N,Net-(U5-PHASE)*%
X106520000Y-66980000D03*
%TO.P,C22,2*%
%TO.N,Net-(C22-Pad2)*%
X106520000Y-66020000D03*
%TD*%
D37*
%TO.P,L1,1,1*%
%TO.N,Net-(U4-SW)*%
X117200000Y-79600000D03*
%TO.P,L1,2,2*%
%TO.N,+5V*%
X121400000Y-79600000D03*
%TD*%
D18*
%TO.P,C14,1*%
%TO.N,+5V*%
X123900000Y-77680000D03*
%TO.P,C14,2*%
%TO.N,Net-(U4-VFB)*%
X123900000Y-76720000D03*
%TD*%
D25*
%TO.P,R9,1*%
%TO.N,S4*%
X108500000Y-46500000D03*
%TO.P,R9,2*%
%TO.N,GND*%
X108500000Y-47520000D03*
%TD*%
D36*
%TO.P,R10,1*%
%TO.N,GND*%
X121650000Y-73500000D03*
%TO.P,R10,2*%
%TO.N,Net-(U4-VFB)*%
X120630000Y-73500000D03*
%TD*%
D38*
%TO.P,C15,1*%
%TO.N,GND*%
X92750000Y-86350000D03*
%TO.P,C15,2*%
%TO.N,Vdc*%
X95250000Y-86350000D03*
%TD*%
D39*
%TO.P,U5,1,VIN*%
%TO.N,Vbatt*%
X106835407Y-69674999D03*
%TO.P,U5,2,VIN*%
X106835407Y-70125001D03*
%TO.P,U5,3,PGND*%
%TO.N,GND*%
X106835407Y-71024999D03*
%TO.P,U5,4,PGND*%
X106835407Y-71475001D03*
D40*
%TO.P,U5,5,SW*%
%TO.N,LBefore*%
X107233136Y-72423793D03*
%TO.P,U5,6,SW*%
X107683224Y-72423793D03*
%TO.P,U5,7,SW*%
X108133312Y-72423793D03*
%TO.P,U5,8,SW*%
X108833488Y-72423793D03*
%TO.P,U5,9,SW*%
X109283576Y-72423793D03*
D41*
%TO.P,U5,10,GL*%
%TO.N,unconnected-(U5-GL-Pad10)*%
X109733664Y-72275000D03*
D42*
%TO.P,U5,11,GL*%
%TO.N,unconnected-(U5-GL-Pad11)*%
X110483400Y-71925000D03*
%TO.P,U5,12,VDRV*%
%TO.N,Net-(U5-VDRV)*%
X110483400Y-71475001D03*
%TO.P,U5,13,PGND*%
%TO.N,GND*%
X110483400Y-71024999D03*
%TO.P,U5,14,PGOOD*%
%TO.N,Pgood*%
X110483400Y-70575000D03*
%TO.P,U5,15,VDD*%
%TO.N,Vdd*%
X110483400Y-70125001D03*
%TO.P,U5,16,AGND*%
%TO.N,GND*%
X110483400Y-69674999D03*
%TO.P,U5,17,FB*%
%TO.N,Vfb*%
X110483400Y-69225000D03*
D41*
%TO.P,U5,18,VOUT*%
%TO.N,Vdc*%
X110183664Y-68725000D03*
%TO.P,U5,19,EN*%
%TO.N,Net-(U5-EN)*%
X109733576Y-68725000D03*
%TO.P,U5,20,MODE2*%
%TO.N,Net-(U5-MODE2)*%
X109283488Y-68725000D03*
%TO.P,U5,21,MODE1*%
%TO.N,Net-(U5-MODE1)*%
X108833400Y-68725000D03*
%TO.P,U5,22,VIN*%
%TO.N,Vbatt*%
X108133312Y-68725000D03*
%TO.P,U5,23,BOOT*%
%TO.N,Net-(U5-BOOT)*%
X107683224Y-68725000D03*
%TO.P,U5,24,PHASE*%
%TO.N,Net-(U5-PHASE)*%
X107233136Y-68725000D03*
D43*
%TO.P,U5,25,AGND*%
%TO.N,GND*%
X109167400Y-69750000D03*
D44*
%TO.P,U5,26,VIN*%
%TO.N,Vbatt*%
X107565400Y-69738000D03*
%TO.P,U5,27,PGND*%
%TO.N,GND*%
X108073400Y-71135000D03*
D45*
%TO.P,U5,28,GL*%
%TO.N,unconnected-(U5-GL-Pad28)*%
X109664786Y-71490000D03*
%TD*%
D25*
%TO.P,R5,1*%
%TO.N,S6*%
X120000000Y-46200000D03*
%TO.P,R5,2*%
%TO.N,GND*%
X120000000Y-47220000D03*
%TD*%
D38*
%TO.P,C20,1*%
%TO.N,Vbatt*%
X101480000Y-68870000D03*
%TO.P,C20,2*%
%TO.N,GND*%
X101480000Y-71370000D03*
%TD*%
D22*
%TO.P,C10,1*%
%TO.N,LoadC*%
X127700000Y-39195000D03*
%TO.P,C10,2*%
%TO.N,GND*%
X127700000Y-40745000D03*
%TD*%
D36*
%TO.P,R2,1*%
%TO.N,NRF_IRQ*%
X92420000Y-117000000D03*
%TO.P,R2,2*%
%TO.N,+3.3V*%
X91400000Y-117000000D03*
%TD*%
D46*
%TO.P,SW1,1,1*%
%TO.N,+3.3V*%
X94600000Y-106500000D03*
%TO.P,SW1,2,2*%
%TO.N,Net-(U2-BOOT0)*%
X94600000Y-101500000D03*
%TO.P,SW1,3,3*%
X99599990Y-101500000D03*
%TO.P,SW1,4,4*%
%TO.N,+3.3V*%
X99599990Y-106500000D03*
%TD*%
D38*
%TO.P,C18,1*%
%TO.N,GND*%
X100500000Y-77500000D03*
%TO.P,C18,2*%
%TO.N,Vdc*%
X103000000Y-77500000D03*
%TD*%
D30*
%TO.P,J11,1,Pin_1*%
%TO.N,+5V*%
X123100000Y-63100000D03*
D31*
%TO.P,J11,2,Pin_2*%
%TO.N,GND*%
X123100000Y-65640000D03*
%TO.P,J11,3,Pin_3*%
%TO.N,RFlap*%
X123100000Y-68180000D03*
%TD*%
D24*
%TO.P,J5,1,1*%
%TO.N,LoadC*%
X122560000Y-31350000D03*
%TO.P,J5,2,2*%
X122560000Y-26270000D03*
%TD*%
D25*
%TO.P,R6,1*%
%TO.N,S2*%
X96990000Y-46490000D03*
%TO.P,R6,2*%
%TO.N,GND*%
X96990000Y-47510000D03*
%TD*%
D18*
%TO.P,C4,1*%
%TO.N,Net-(U2-BOOT0)*%
X102500000Y-84100000D03*
%TO.P,C4,2*%
%TO.N,+3.3V*%
X102500000Y-83140000D03*
%TD*%
D38*
%TO.P,C17,1*%
%TO.N,GND*%
X92950000Y-78450000D03*
%TO.P,C17,2*%
%TO.N,Vdc*%
X95450000Y-78450000D03*
%TD*%
D30*
%TO.P,J3,1,Pin_1*%
%TO.N,+3.3V*%
X119440000Y-86570000D03*
D31*
%TO.P,J3,2,Pin_2*%
%TO.N,SWCLK*%
X119440000Y-89110000D03*
%TO.P,J3,3,Pin_3*%
%TO.N,GND*%
X119440000Y-91650000D03*
%TO.P,J3,4,Pin_4*%
%TO.N,SWDIO*%
X119440000Y-94190000D03*
%TO.P,J3,5,Pin_5*%
%TO.N,NRST*%
X119440000Y-96730000D03*
%TO.P,J3,6,Pin_6*%
%TO.N,unconnected-(J3-Pin_6-Pad6)*%
X119440000Y-99270000D03*
%TD*%
D27*
%TO.P,R12,1*%
%TO.N,S5*%
X124490000Y-47220000D03*
%TO.P,R12,2*%
%TO.N,GND*%
X124490000Y-46200000D03*
%TD*%
D25*
%TO.P,R18,1*%
%TO.N,Net-(C22-Pad2)*%
X107500000Y-65990000D03*
%TO.P,R18,2*%
%TO.N,Net-(U5-BOOT)*%
X107500000Y-67010000D03*
%TD*%
D30*
%TO.P,J10,1,Pin_1*%
%TO.N,+5V*%
X93400000Y-55860000D03*
D31*
%TO.P,J10,2,Pin_2*%
%TO.N,GND*%
X93400000Y-58400000D03*
%TO.P,J10,3,Pin_3*%
%TO.N,LFlap*%
X93400000Y-60940000D03*
%TD*%
D29*
%TO.P,R14,1*%
%TO.N,Vfb*%
X112000000Y-69000000D03*
%TO.P,R14,2*%
%TO.N,GND*%
X113650000Y-69000000D03*
%TD*%
D38*
%TO.P,C16,1*%
%TO.N,GND*%
X109000000Y-82000000D03*
%TO.P,C16,2*%
%TO.N,Vdc*%
X109000000Y-79500000D03*
%TD*%
D18*
%TO.P,C7,1*%
%TO.N,Vbatt*%
X115520000Y-76680000D03*
%TO.P,C7,2*%
%TO.N,GND*%
X115520000Y-75720000D03*
%TD*%
D20*
%TO.P,Q10,1,G*%
%TO.N,S6*%
X120230000Y-43320000D03*
D21*
%TO.P,Q10,2,D*%
%TO.N,LoadC*%
X122530000Y-36820000D03*
D20*
%TO.P,Q10,3,S*%
%TO.N,GND*%
X124830000Y-43320000D03*
%TD*%
D47*
%TO.N,GND*%
X122360000Y-73500000D03*
X116887500Y-95190000D03*
D48*
%TO.N,+3.3V*%
X113450000Y-85890000D03*
X120020000Y-71550000D03*
D47*
X97775000Y-93965000D03*
X97710000Y-93390000D03*
D49*
%TO.N,LoadA*%
X99500000Y-37000000D03*
%TO.N,LoadB*%
X111000000Y-36800000D03*
%TO.N,Vdc*%
X122500000Y-57000000D03*
X111000000Y-57000000D03*
X99500000Y-57000000D03*
%TO.N,LoadC*%
X122530000Y-36820000D03*
D47*
%TO.N,GND*%
X124850000Y-82170000D03*
D48*
%TO.N,Vbatt*%
X105520000Y-68660000D03*
X107565400Y-69738000D03*
X105520000Y-67560000D03*
D49*
X113770000Y-79330000D03*
%TO.N,Vdc*%
X98000000Y-81600000D03*
D48*
X96830000Y-74120000D03*
D49*
X102323000Y-62650000D03*
X116530000Y-61700000D03*
D47*
X110915000Y-73075000D03*
X111055000Y-68345000D03*
D48*
%TO.N,GND*%
X92920000Y-50910000D03*
D47*
X107520000Y-70830000D03*
D48*
X93980000Y-50910000D03*
D49*
X114700000Y-43300000D03*
D47*
X108660000Y-70830000D03*
D48*
X103280000Y-88160000D03*
D47*
X121565500Y-107302860D03*
X121659393Y-106589393D03*
D48*
X115377000Y-70750000D03*
D47*
X107500000Y-71451458D03*
D48*
X100810000Y-93500000D03*
D49*
X103340000Y-43160000D03*
D47*
X114890000Y-75710000D03*
X113660000Y-75710000D03*
D49*
X125260000Y-43000000D03*
D48*
X117010000Y-70760000D03*
D47*
X114580000Y-71920000D03*
X114600000Y-69950000D03*
X98445000Y-85365000D03*
X122100000Y-104550000D03*
D48*
X108400000Y-100360000D03*
X109167400Y-69750000D03*
D47*
X108690000Y-71450000D03*
X111223000Y-71102000D03*
D48*
%TO.N,+3.3V*%
X121810000Y-101524156D03*
X122275000Y-102785000D03*
X110500000Y-97600000D03*
X101300000Y-88300000D03*
D47*
X102500000Y-83140000D03*
D48*
X100500000Y-87900000D03*
X108900000Y-99100000D03*
X123110000Y-101950000D03*
D47*
%TO.N,S1*%
X104075000Y-83530000D03*
X104500000Y-50500000D03*
%TO.N,S2*%
X104575000Y-82625000D03*
X99325000Y-43525000D03*
%TO.N,S3*%
X116000000Y-50480000D03*
X105300000Y-82960000D03*
%TO.N,S4*%
X105610000Y-83690000D03*
X110585000Y-43315000D03*
%TO.N,S5*%
X126400000Y-51110000D03*
X106155000Y-84745000D03*
%TO.N,S6*%
X106410000Y-83810000D03*
X122300000Y-43000000D03*
D48*
%TO.N,+5V*%
X125000000Y-63100000D03*
X125183552Y-75816448D03*
X125223552Y-77423552D03*
X124900000Y-61600000D03*
X123723552Y-78923552D03*
X95300000Y-55700000D03*
D47*
X112900000Y-66743464D03*
D48*
X95300000Y-54500000D03*
D47*
%TO.N,Vdd*%
X113670000Y-70030000D03*
X113050000Y-65600000D03*
%TO.N,LFlap*%
X97800000Y-88500000D03*
%TO.N,RFlap*%
X112100000Y-86960000D03*
%TO.N,Vfb*%
X108210000Y-73700000D03*
X112800000Y-68000000D03*
%TD*%
D50*
%TO.N,GND*%
X121650000Y-73500000D02*
X122360000Y-73500000D01*
D51*
%TO.N,+5V*%
X123090000Y-72560000D02*
X123090000Y-74179999D01*
X123090000Y-74179999D02*
X122900000Y-74369999D01*
X121130000Y-70600000D02*
X123090000Y-72560000D01*
X119400000Y-70600000D02*
X121130000Y-70600000D01*
D50*
%TO.N,SWDIO*%
X119440000Y-93490000D02*
X119440000Y-94190000D01*
X115450000Y-89500000D02*
X119440000Y-93490000D01*
X110500000Y-89500000D02*
X115450000Y-89500000D01*
%TO.N,GND*%
X116887500Y-95190000D02*
X116887500Y-95237500D01*
X116887500Y-95237500D02*
X116890000Y-95240000D01*
X116887500Y-93960000D02*
X116887500Y-95190000D01*
%TO.N,Net-(D1-K)*%
X115307500Y-93955000D02*
X115312500Y-93960000D01*
X113834500Y-93955000D02*
X115307500Y-93955000D01*
%TO.N,Net-(D1-A)*%
X111276296Y-95500000D02*
X112259500Y-94516796D01*
X110500000Y-95500000D02*
X111276296Y-95500000D01*
X112259500Y-94516796D02*
X112259500Y-93955000D01*
D51*
%TO.N,Net-(U4-VFB)*%
X120267500Y-75440000D02*
X120267500Y-75160000D01*
X121327500Y-76500000D02*
X120267500Y-75440000D01*
X123760000Y-76500000D02*
X121327500Y-76500000D01*
X123900000Y-76640000D02*
X123760000Y-76500000D01*
X120267500Y-73862500D02*
X120630000Y-73500000D01*
X120267500Y-75160000D02*
X120267500Y-73862500D01*
X119297500Y-74190000D02*
X120267500Y-75160000D01*
X118400000Y-74000000D02*
X118590000Y-74190000D01*
X118590000Y-74190000D02*
X119297500Y-74190000D01*
%TO.N,+3.3V*%
X120020000Y-71550000D02*
X119970000Y-71550000D01*
X120709232Y-71550000D02*
X120020000Y-71550000D01*
X121660000Y-72500768D02*
X120709232Y-71550000D01*
X121660000Y-72530000D02*
X121660000Y-72500768D01*
X121650000Y-72540000D02*
X121660000Y-72530000D01*
%TO.N,Net-(U4-EN)*%
X119645000Y-72530000D02*
X120640000Y-72530000D01*
X118400000Y-73050000D02*
X119125000Y-73050000D01*
X119125000Y-73050000D02*
X119645000Y-72530000D01*
D52*
%TO.N,+5V*%
X126100000Y-77620000D02*
X125420000Y-78300000D01*
X123500000Y-78300000D02*
X123047104Y-78752896D01*
X126100000Y-76732896D02*
X126100000Y-77620000D01*
X125183552Y-75816448D02*
X126100000Y-76732896D01*
X125420000Y-78300000D02*
X123500000Y-78300000D01*
D50*
%TO.N,Vfb*%
X98100000Y-73700000D02*
X108210000Y-73700000D01*
X96897000Y-72497000D02*
X98100000Y-73700000D01*
X93162500Y-73650000D02*
X94315500Y-72497000D01*
X94315500Y-72497000D02*
X96897000Y-72497000D01*
%TO.N,+3.3V*%
X98290000Y-94000000D02*
X98290000Y-93970000D01*
X98290000Y-93970000D02*
X97710000Y-93390000D01*
X98290000Y-94000000D02*
X97810000Y-94000000D01*
X97810000Y-94000000D02*
X97710000Y-93900000D01*
X99150000Y-94000000D02*
X98290000Y-94000000D01*
X97775000Y-93965000D02*
X97820000Y-94010000D01*
X97710000Y-93900000D02*
X97775000Y-93965000D01*
X97710000Y-93390000D02*
X97710000Y-93900000D01*
D51*
%TO.N,Vbatt*%
X105440000Y-68860000D02*
X105320000Y-68860000D01*
X106705001Y-70125001D02*
X105440000Y-68860000D01*
X106835407Y-70125001D02*
X106705001Y-70125001D01*
X105320000Y-68860000D02*
X105520000Y-68660000D01*
X105110000Y-68250000D02*
X105110000Y-67970000D01*
X105520000Y-68660000D02*
X105110000Y-68250000D01*
X105110000Y-67970000D02*
X105520000Y-67560000D01*
X105880000Y-68300000D02*
X105880000Y-67920000D01*
X105520000Y-68359592D02*
X105520000Y-67560000D01*
X106835407Y-69674999D02*
X105520000Y-68359592D01*
D50*
%TO.N,Net-(U5-MODE1)*%
X108833400Y-65698400D02*
X107750000Y-64615000D01*
X108833400Y-68725000D02*
X108833400Y-65698400D01*
%TO.N,Net-(U5-MODE2)*%
X109283488Y-65386512D02*
X110060000Y-64610000D01*
X109283488Y-68725000D02*
X109283488Y-65386512D01*
%TO.N,Vdd*%
X113170000Y-65480000D02*
X113050000Y-65600000D01*
X113170000Y-64795000D02*
X113170000Y-65480000D01*
X110060000Y-61685000D02*
X113170000Y-64795000D01*
X110055000Y-61690000D02*
X110060000Y-61685000D01*
X107750000Y-61690000D02*
X110055000Y-61690000D01*
D51*
%TO.N,GND*%
X124850000Y-82170000D02*
X124850000Y-82840000D01*
X124850000Y-82840000D02*
X124910000Y-82900000D01*
X124850000Y-82170000D02*
X124850000Y-81740000D01*
X124940000Y-82645000D02*
X124745000Y-82840000D01*
%TO.N,Vbatt*%
X115810000Y-76650000D02*
X113310000Y-76650000D01*
X116360000Y-76100000D02*
X115810000Y-76650000D01*
X116360000Y-74270000D02*
X116360000Y-76100000D01*
X116090000Y-74000000D02*
X116360000Y-74270000D01*
%TO.N,GND*%
X112800000Y-75180000D02*
X112790000Y-75180000D01*
X113330000Y-75710000D02*
X112800000Y-75180000D01*
X113660000Y-75710000D02*
X113330000Y-75710000D01*
D50*
%TO.N,Vdc*%
X111150000Y-74650000D02*
X111150000Y-75500000D01*
X110915000Y-73075000D02*
X110915000Y-74415000D01*
X110915000Y-74415000D02*
X111150000Y-74650000D01*
D51*
%TO.N,LBefore*%
X108850000Y-74650000D02*
X108850000Y-73510000D01*
X108000000Y-75500000D02*
X108850000Y-74650000D01*
D50*
%TO.N,SPI1_MOSI*%
X98860000Y-114540000D02*
X98860000Y-117860000D01*
X103575000Y-97425000D02*
X103575000Y-109825000D01*
X98860000Y-117860000D02*
X97820000Y-118900000D01*
X103575000Y-109825000D02*
X98860000Y-114540000D01*
%TO.N,SPI1_SCK*%
X94849217Y-117400000D02*
X94240000Y-116790783D01*
X94849217Y-115320000D02*
X96230000Y-115320000D01*
X102575000Y-108975000D02*
X102575000Y-97425000D01*
X96230000Y-115320000D02*
X102575000Y-108975000D01*
X94240000Y-116790783D02*
X94240000Y-115929217D01*
X97820000Y-116360000D02*
X96780000Y-117400000D01*
X96780000Y-117400000D02*
X94849217Y-117400000D01*
X94240000Y-115929217D02*
X94849217Y-115320000D01*
%TO.N,SPI1_CSN*%
X93812000Y-117112000D02*
X94560000Y-117860000D01*
X95608000Y-114892000D02*
X94671933Y-114892000D01*
X99320000Y-119940000D02*
X100360000Y-118900000D01*
X101147000Y-100757000D02*
X102000000Y-101610000D01*
X96460000Y-119010783D02*
X97389217Y-119940000D01*
X94671933Y-114892000D02*
X93812000Y-115751934D01*
X102000000Y-108500000D02*
X95608000Y-114892000D01*
X102000000Y-101610000D02*
X102000000Y-108500000D01*
X101075000Y-97425000D02*
X101147000Y-97497000D01*
X94560000Y-117860000D02*
X96460000Y-117860000D01*
X97389217Y-119940000D02*
X99320000Y-119940000D01*
X96460000Y-117860000D02*
X96460000Y-119010783D01*
X93812000Y-115751934D02*
X93812000Y-117112000D01*
X101147000Y-97497000D02*
X101147000Y-100757000D01*
%TO.N,SPI1_MISO*%
X103075000Y-109415000D02*
X96130000Y-116360000D01*
X103075000Y-97425000D02*
X103075000Y-109415000D01*
X96130000Y-116360000D02*
X95658000Y-116360000D01*
D52*
%TO.N,Vbatt*%
X123500022Y-112300000D02*
X124950000Y-110850022D01*
D51*
X106835407Y-70125001D02*
X106820408Y-70140000D01*
D52*
X117800000Y-114460000D02*
X117800000Y-119540000D01*
X121044000Y-84218000D02*
X116062000Y-84218000D01*
X117800000Y-111510000D02*
X117800000Y-114476100D01*
X113770000Y-77500000D02*
X113750000Y-77480000D01*
X118313900Y-114476100D02*
X119340000Y-113450000D01*
D53*
X107565400Y-69738000D02*
X108133312Y-69170088D01*
D52*
X113770000Y-81926000D02*
X113770000Y-79330000D01*
X121700000Y-112300000D02*
X123500022Y-112300000D01*
X121608000Y-112392000D02*
X121700000Y-112300000D01*
X124950000Y-110850022D02*
X124950000Y-88124000D01*
X124950000Y-88124000D02*
X121044000Y-84218000D01*
X97270000Y-68870000D02*
X97300000Y-68900000D01*
X101480000Y-68870000D02*
X97270000Y-68870000D01*
X119528554Y-113638554D02*
X120072000Y-113638554D01*
X116511100Y-110221100D02*
X117800000Y-111510000D01*
X97300000Y-68900000D02*
X97300000Y-69612450D01*
X120072000Y-113638554D02*
X121318554Y-112392000D01*
X116062000Y-84218000D02*
X113770000Y-81926000D01*
X117800000Y-114476100D02*
X118313900Y-114476100D01*
X119340000Y-113450000D02*
X119528554Y-113638554D01*
X92962450Y-68870000D02*
X91453900Y-70378550D01*
X113770000Y-79330000D02*
X113770000Y-77500000D01*
X113300000Y-110221100D02*
X116511100Y-110221100D01*
X97270000Y-68870000D02*
X92962450Y-68870000D01*
X121318554Y-112392000D02*
X121608000Y-112392000D01*
X97300000Y-69612450D02*
X96533900Y-70378550D01*
D51*
X106835407Y-69674999D02*
X106835407Y-70125001D01*
D53*
X108133312Y-69170088D02*
X108133312Y-68725000D01*
D50*
%TO.N,SWCLK*%
X110500000Y-89000000D02*
X119330000Y-89000000D01*
X119330000Y-89000000D02*
X119440000Y-89110000D01*
%TO.N,NRST*%
X118850000Y-96140000D02*
X119440000Y-96730000D01*
X105066296Y-96140000D02*
X118850000Y-96140000D01*
X99150000Y-91000000D02*
X99926296Y-91000000D01*
X121730000Y-94440000D02*
X119440000Y-96730000D01*
X121730000Y-94100000D02*
X121730000Y-94440000D01*
X99926296Y-91000000D02*
X105066296Y-96140000D01*
D52*
%TO.N,Vdc*%
X109000000Y-79500000D02*
X105000000Y-79500000D01*
D51*
X96360000Y-73650000D02*
X96830000Y-74120000D01*
D52*
X102323000Y-62363000D02*
X99500000Y-59540000D01*
X92220000Y-65900000D02*
X97400000Y-65900000D01*
X116530000Y-61700000D02*
X117800000Y-61700000D01*
X117800000Y-61700000D02*
X122500000Y-57000000D01*
X96500000Y-83400000D02*
X98000000Y-81900000D01*
D50*
X110435000Y-68345000D02*
X110183664Y-68596336D01*
D52*
X116530000Y-61700000D02*
X115700000Y-61700000D01*
X96500000Y-85100000D02*
X96500000Y-83400000D01*
X97400000Y-59100000D02*
X99500000Y-57000000D01*
X103000000Y-78398025D02*
X101748025Y-79650000D01*
X111000000Y-57000000D02*
X122500000Y-57000000D01*
X97400000Y-65900000D02*
X97400000Y-59100000D01*
X103000000Y-77500000D02*
X103000000Y-78398025D01*
X106420000Y-58070000D02*
X107920000Y-58070000D01*
X99500000Y-59540000D02*
X99500000Y-57000000D01*
X115700000Y-61700000D02*
X111000000Y-57000000D01*
X99670000Y-80000000D02*
X97000000Y-80000000D01*
D50*
X110183664Y-68596336D02*
X110183664Y-68725000D01*
D52*
X101748025Y-79650000D02*
X100020000Y-79650000D01*
X98000000Y-81000000D02*
X97000000Y-80000000D01*
X102323000Y-62650000D02*
X102323000Y-62363000D01*
X105000000Y-79500000D02*
X103000000Y-77500000D01*
X102090000Y-62417000D02*
X102090000Y-62400000D01*
X97000000Y-80000000D02*
X95450000Y-78450000D01*
X98000000Y-81600000D02*
X98000000Y-81000000D01*
X102323000Y-62650000D02*
X102090000Y-62417000D01*
X109000000Y-79500000D02*
X110700000Y-77800000D01*
X100020000Y-79650000D02*
X99670000Y-80000000D01*
X95250000Y-86350000D02*
X96500000Y-85100000D01*
X99500000Y-57000000D02*
X111000000Y-57000000D01*
X110700000Y-77800000D02*
X110700000Y-75690000D01*
D50*
X111055000Y-68345000D02*
X110435000Y-68345000D01*
D52*
X110890000Y-75500000D02*
X110700000Y-75690000D01*
X102090000Y-62400000D02*
X106420000Y-58070000D01*
X98000000Y-81900000D02*
X98000000Y-81600000D01*
%TO.N,LoadA*%
X93900000Y-47200000D02*
X93900000Y-41400000D01*
X99500000Y-37000000D02*
X101972000Y-39472000D01*
X101972000Y-39472000D02*
X104068000Y-39472000D01*
X97200000Y-50500000D02*
X93900000Y-47200000D01*
X93900000Y-41400000D02*
X98300000Y-37000000D01*
X99500000Y-37000000D02*
X99500000Y-26220000D01*
X98300000Y-37000000D02*
X99500000Y-37000000D01*
%TO.N,LoadB*%
X111000000Y-36800000D02*
X113172000Y-38972000D01*
X106572000Y-48372000D02*
X106572000Y-41228000D01*
X115492000Y-38972000D02*
X115520000Y-39000000D01*
X106572000Y-41228000D02*
X111000000Y-36800000D01*
X113172000Y-38972000D02*
X115492000Y-38972000D01*
X108700000Y-50500000D02*
X106572000Y-48372000D01*
X111000000Y-36800000D02*
X111000000Y-26464650D01*
X111000000Y-26464650D02*
X111138550Y-26326100D01*
%TO.N,LoadC*%
X118072000Y-40928000D02*
X122500000Y-36500000D01*
X122500000Y-36500000D02*
X122500000Y-26450000D01*
X122500000Y-26450000D02*
X122550000Y-26400000D01*
X118072000Y-48372000D02*
X118072000Y-40928000D01*
X120200000Y-50500000D02*
X118072000Y-48372000D01*
X122500000Y-36500000D02*
X124500000Y-38500000D01*
X127130000Y-38500000D02*
X127200000Y-38570000D01*
X124500000Y-38500000D02*
X127130000Y-38500000D01*
D50*
%TO.N,GND*%
X114580000Y-71920000D02*
X114600000Y-71900000D01*
X115500000Y-67150000D02*
X113650000Y-69000000D01*
X93980000Y-50910000D02*
X94140000Y-50910000D01*
D51*
X92920000Y-50910000D02*
X91870000Y-51960000D01*
D50*
X101575000Y-86945000D02*
X101575000Y-86075000D01*
D51*
X91870000Y-56870000D02*
X93400000Y-58400000D01*
D52*
X106600000Y-116460000D02*
X113800000Y-116460000D01*
D51*
X122080000Y-105326000D02*
X122080000Y-106168786D01*
X122100000Y-104570000D02*
X122100000Y-105306000D01*
X121565500Y-106683286D02*
X121565500Y-107302860D01*
D52*
X122260000Y-47700000D02*
X121000000Y-47700000D01*
D50*
X108075000Y-100035000D02*
X108400000Y-100360000D01*
D52*
X101340000Y-45600000D02*
X99160000Y-47780000D01*
X124800000Y-43900000D02*
X124800000Y-45160000D01*
X124800000Y-43900000D02*
X124600000Y-44100000D01*
X99222001Y-76222001D02*
X94279975Y-76222001D01*
X122200000Y-114520000D02*
X122200000Y-119600000D01*
X98190684Y-47780000D02*
X98111684Y-47701000D01*
D50*
X114600000Y-71900000D02*
X114600000Y-69950000D01*
D52*
X104100000Y-42400000D02*
X104100000Y-41920000D01*
D51*
X115310000Y-75710000D02*
X114890000Y-75710000D01*
X122100000Y-105306000D02*
X122080000Y-105326000D01*
D52*
X101900000Y-43600000D02*
X101900000Y-45600000D01*
X113300000Y-45500000D02*
X113400000Y-45600000D01*
D50*
X115407000Y-70720000D02*
X115377000Y-70750000D01*
D51*
X93980000Y-50910000D02*
X92920000Y-50910000D01*
D52*
X94279975Y-76222001D02*
X93650988Y-76850988D01*
D50*
X114600000Y-69950000D02*
X113650000Y-69000000D01*
D52*
X94179974Y-76322001D02*
X92950000Y-77551975D01*
D50*
X113500000Y-73000000D02*
X114580000Y-71920000D01*
D51*
X106835407Y-71024999D02*
X106835407Y-71475001D01*
X122100000Y-104550000D02*
X122100000Y-104570000D01*
D52*
X101800000Y-43500000D02*
X101900000Y-43600000D01*
D51*
X91870000Y-51960000D02*
X91870000Y-56870000D01*
D52*
X101800000Y-43500000D02*
X103000000Y-43500000D01*
X115000000Y-43300000D02*
X115700000Y-42600000D01*
X104100000Y-41920000D02*
X104070000Y-41890000D01*
X124800000Y-43000000D02*
X124800000Y-43900000D01*
X124138000Y-45822000D02*
X123778106Y-45822000D01*
X113300000Y-45500000D02*
X110900000Y-47900000D01*
D50*
X116080000Y-72090000D02*
X116090000Y-72100000D01*
X117010000Y-70760000D02*
X116970000Y-70720000D01*
D52*
X103000000Y-43500000D02*
X103340000Y-43160000D01*
X100500000Y-77500000D02*
X99222001Y-76222001D01*
X123042000Y-46558106D02*
X123042000Y-46918000D01*
D50*
X109242401Y-69674999D02*
X109167400Y-69750000D01*
D52*
X103340000Y-43160000D02*
X104100000Y-42400000D01*
D51*
X121659393Y-106589393D02*
X121565500Y-106683286D01*
D52*
X115700000Y-42600000D02*
X115700000Y-41340000D01*
X125260000Y-43000000D02*
X126600000Y-43000000D01*
D50*
X99150000Y-93500000D02*
X100810000Y-93500000D01*
D51*
X121565500Y-107302860D02*
X120988360Y-107880000D01*
D50*
X110483400Y-69674999D02*
X109242401Y-69674999D01*
X108075000Y-97425000D02*
X108075000Y-100035000D01*
X115377000Y-70750000D02*
X116080000Y-71453000D01*
X100810000Y-93500000D02*
X100820000Y-93490000D01*
D52*
X127000000Y-42600000D02*
X127000000Y-41660000D01*
X123042000Y-46918000D02*
X122260000Y-47700000D01*
X124600000Y-44100000D02*
X124600000Y-45300000D01*
D50*
X110934999Y-71024999D02*
X110483400Y-71024999D01*
D52*
X113300000Y-43300000D02*
X114700000Y-43300000D01*
D51*
X122080000Y-106168786D02*
X121659393Y-106589393D01*
D50*
X102790000Y-88160000D02*
X101575000Y-86945000D01*
D52*
X92950000Y-77551975D02*
X92950000Y-78450000D01*
X99160000Y-47780000D02*
X98190684Y-47780000D01*
X124800000Y-43000000D02*
X125260000Y-43000000D01*
X115700000Y-41340000D02*
X115690000Y-41330000D01*
D50*
X116970000Y-70720000D02*
X116270000Y-70720000D01*
D51*
X98445000Y-85365000D02*
X98410000Y-85400000D01*
D52*
X127000000Y-41660000D02*
X127330000Y-41330000D01*
X110900000Y-47900000D02*
X109300000Y-47900000D01*
X114700000Y-43300000D02*
X115000000Y-43300000D01*
X126600000Y-43000000D02*
X127000000Y-42600000D01*
D50*
X115500000Y-66000000D02*
X115500000Y-67150000D01*
D52*
X92750000Y-86350000D02*
X91600000Y-85200000D01*
D50*
X116270000Y-70720000D02*
X115407000Y-70720000D01*
D51*
X100690000Y-83120000D02*
X98445000Y-85365000D01*
D50*
X103280000Y-88160000D02*
X102790000Y-88160000D01*
D51*
X114890000Y-75710000D02*
X113660000Y-75710000D01*
D52*
X123778106Y-45822000D02*
X123042000Y-46558106D01*
D50*
X116080000Y-71453000D02*
X116080000Y-72090000D01*
X116090000Y-72100000D02*
X116110000Y-72100000D01*
D52*
X91600000Y-85200000D02*
X91600000Y-79800000D01*
D51*
X101200000Y-83120000D02*
X100690000Y-83120000D01*
D52*
X101900000Y-45600000D02*
X101340000Y-45600000D01*
X124800000Y-45160000D02*
X124138000Y-45822000D01*
D51*
X120988360Y-107880000D02*
X120525000Y-107880000D01*
D52*
X91600000Y-79800000D02*
X92950000Y-78450000D01*
X113300000Y-43300000D02*
X113300000Y-45500000D01*
D51*
X122100000Y-103826000D02*
X122100000Y-104550000D01*
D52*
%TO.N,V_in*%
X120230000Y-106030000D02*
X120270000Y-106030000D01*
X119595100Y-105395100D02*
X120230000Y-106030000D01*
X117110000Y-105985100D02*
X117110000Y-107680000D01*
X117110000Y-107680000D02*
X117950000Y-108520000D01*
D51*
X119000000Y-105990200D02*
X119595100Y-105395100D01*
D52*
X119478978Y-109308000D02*
X120525000Y-109308000D01*
X117950000Y-108520000D02*
X118690978Y-108520000D01*
X117700000Y-105395100D02*
X117110000Y-105985100D01*
X119595100Y-105395100D02*
X117700000Y-105395100D01*
X117700000Y-105395100D02*
X113300000Y-105395100D01*
X118690978Y-108520000D02*
X119478978Y-109308000D01*
D51*
%TO.N,+3.3V*%
X92500010Y-115870758D02*
X91772000Y-116598768D01*
X122190222Y-102869778D02*
X123060000Y-103739556D01*
D50*
X121730000Y-88860000D02*
X119440000Y-86570000D01*
X121730000Y-93080000D02*
X121730000Y-88860000D01*
D51*
X110500000Y-97600000D02*
X108900000Y-97600000D01*
X93400010Y-107699990D02*
X93400010Y-114370758D01*
X101000000Y-88000000D02*
X101000000Y-87900000D01*
X101300000Y-88300000D02*
X101000000Y-88000000D01*
X93400010Y-114370758D02*
X92500010Y-115270758D01*
X123060000Y-103739556D02*
X123060000Y-103826000D01*
X123060000Y-103826000D02*
X123060000Y-105306000D01*
X123110000Y-101950000D02*
X122275000Y-102785000D01*
X123040000Y-106690000D02*
X122800000Y-106930000D01*
D50*
X123110000Y-101870000D02*
X123110000Y-101950000D01*
D51*
X101047000Y-87853000D02*
X101047000Y-86075000D01*
X100900000Y-87900000D02*
X100500000Y-87900000D01*
X99599990Y-106500000D02*
X94600000Y-106500000D01*
X117664156Y-101524156D02*
X113740000Y-97600000D01*
X121784600Y-101524156D02*
X117664156Y-101524156D01*
X123040000Y-105326000D02*
X123040000Y-106690000D01*
X121784600Y-101524156D02*
X121810000Y-101524156D01*
X92500010Y-115270758D02*
X92500010Y-115870758D01*
X122764156Y-101524156D02*
X123110000Y-101870000D01*
X91772000Y-116628000D02*
X91400000Y-117000000D01*
X101000000Y-87900000D02*
X101047000Y-87853000D01*
X101300000Y-88300000D02*
X100900000Y-87900000D01*
X100500000Y-87900000D02*
X100000000Y-87900000D01*
X122275000Y-102785000D02*
X122190222Y-102869778D01*
X108900000Y-97600000D02*
X108900000Y-99100000D01*
X94600000Y-106500000D02*
X93400010Y-107699990D01*
X123060000Y-105306000D02*
X123040000Y-105326000D01*
X113740000Y-97600000D02*
X110500000Y-97600000D01*
X91772000Y-116598768D02*
X91772000Y-116628000D01*
X121810000Y-101524156D02*
X122764156Y-101524156D01*
D50*
%TO.N,NRF_IRQ*%
X99150000Y-95500000D02*
X100615390Y-96965390D01*
X100615390Y-101008696D02*
X101480000Y-101873306D01*
X101480000Y-107330000D02*
X93078010Y-115731990D01*
X92420000Y-117000000D02*
X94320000Y-118900000D01*
X101480000Y-101873306D02*
X101480000Y-107330000D01*
X94320000Y-118900000D02*
X95280000Y-118900000D01*
X93078010Y-116341990D02*
X92420000Y-117000000D01*
X100615390Y-96965390D02*
X100615390Y-101008696D01*
X93078010Y-115781990D02*
X93078010Y-116341990D01*
%TO.N,NRF_CE*%
X104075000Y-97425000D02*
X104075000Y-112645000D01*
X104075000Y-112645000D02*
X100360000Y-116360000D01*
%TO.N,S1*%
X104075000Y-86075000D02*
X104075000Y-83530000D01*
X101800000Y-50500000D02*
X104500000Y-50500000D01*
X101800000Y-47700000D02*
X101990000Y-47510000D01*
X101800000Y-50500000D02*
X101800000Y-47700000D01*
X104075000Y-83530000D02*
X104075000Y-83500000D01*
%TO.N,S2*%
X104575000Y-86075000D02*
X104575000Y-83746705D01*
X104603000Y-83718705D02*
X104603000Y-83281295D01*
X104575000Y-83746705D02*
X104603000Y-83718705D01*
X97200000Y-43500000D02*
X99300000Y-43500000D01*
X104603000Y-83281295D02*
X104575000Y-83253295D01*
X104575000Y-83253295D02*
X104575000Y-82625000D01*
D52*
X97200000Y-43500000D02*
X97200000Y-45500000D01*
D50*
%TO.N,S3*%
X105300000Y-82960000D02*
X105300000Y-82900000D01*
X113300000Y-47720000D02*
X113500000Y-47520000D01*
X105075000Y-86075000D02*
X105072000Y-86072000D01*
X113300000Y-50500000D02*
X113300000Y-47720000D01*
X105072000Y-86072000D02*
X105072000Y-83228000D01*
X113300000Y-50500000D02*
X116000000Y-50500000D01*
X105300000Y-83000000D02*
X105300000Y-82960000D01*
X105072000Y-83228000D02*
X105300000Y-83000000D01*
%TO.N,S4*%
X108700000Y-43300000D02*
X110600000Y-43300000D01*
D52*
X108700000Y-43300000D02*
X108700000Y-45600000D01*
D50*
X105575000Y-86075000D02*
X105575000Y-83725000D01*
X105575000Y-83725000D02*
X105600000Y-83700000D01*
%TO.N,S5*%
X124800000Y-47530000D02*
X124490000Y-47220000D01*
X124800000Y-50500000D02*
X125800000Y-50500000D01*
X125800000Y-50500000D02*
X126400000Y-51100000D01*
X106075000Y-84825000D02*
X106075000Y-86075000D01*
X124800000Y-50500000D02*
X124800000Y-47530000D01*
X106155000Y-84745000D02*
X106075000Y-84825000D01*
X106200000Y-84700000D02*
X106155000Y-84745000D01*
%TO.N,S6*%
X106400000Y-83800000D02*
X106410000Y-83810000D01*
X106410000Y-83810000D02*
X107075000Y-84475000D01*
X107075000Y-84475000D02*
X107075000Y-86075000D01*
D52*
X120200000Y-43000000D02*
X120200000Y-45200000D01*
D50*
X120200000Y-43000000D02*
X122300000Y-43000000D01*
D51*
%TO.N,Net-(U2-BOOT0)*%
X94600000Y-90400000D02*
X94600000Y-101500000D01*
X102460000Y-84140000D02*
X102500000Y-84100000D01*
X102500000Y-84100000D02*
X102800000Y-84100000D01*
X101200000Y-84140000D02*
X102460000Y-84140000D01*
X103075000Y-84375000D02*
X103075000Y-85157282D01*
X102800000Y-84100000D02*
X103075000Y-84375000D01*
X101200000Y-84140000D02*
X100860000Y-84140000D01*
D50*
X101240000Y-84100000D02*
X101200000Y-84140000D01*
D51*
X100860000Y-84140000D02*
X94600000Y-90400000D01*
X99599990Y-101500000D02*
X94600000Y-101500000D01*
%TO.N,Net-(U4-SW)*%
X116653416Y-73050000D02*
X117200000Y-73596584D01*
X120440000Y-82840000D02*
X117200000Y-79600000D01*
X116090000Y-73050000D02*
X116653416Y-73050000D01*
X123490000Y-81340000D02*
X123490000Y-82840000D01*
X123490000Y-82840000D02*
X120440000Y-82840000D01*
X117200000Y-73596584D02*
X117200000Y-79600000D01*
%TO.N,Vbst*%
X118440000Y-72060000D02*
X118400000Y-72100000D01*
X118440000Y-70600000D02*
X118440000Y-72060000D01*
%TO.N,+5V*%
X125000000Y-63100000D02*
X125200000Y-63100000D01*
D52*
X125183552Y-75816448D02*
X124189104Y-74822000D01*
D50*
X112900000Y-66743464D02*
X112900000Y-66780000D01*
D51*
X123100000Y-63100000D02*
X125000000Y-63100000D01*
X95140000Y-55860000D02*
X95300000Y-55700000D01*
D52*
X121400000Y-79600000D02*
X123047104Y-79600000D01*
D50*
X112000000Y-65843464D02*
X112000000Y-65350000D01*
D52*
X124189104Y-74822000D02*
X123287894Y-74822000D01*
D51*
X93400000Y-55860000D02*
X95140000Y-55860000D01*
X94760000Y-54500000D02*
X93400000Y-55860000D01*
X124900000Y-61600000D02*
X124600000Y-61600000D01*
X95300000Y-54500000D02*
X94760000Y-54500000D01*
X95300000Y-54500000D02*
X95300000Y-54400000D01*
X95300000Y-55700000D02*
X95300000Y-54500000D01*
D52*
X106600000Y-119000000D02*
X113800000Y-119000000D01*
D50*
X112900000Y-66743464D02*
X112000000Y-65843464D01*
D51*
X124600000Y-61600000D02*
X123100000Y-63100000D01*
D50*
%TO.N,Vdd*%
X113050000Y-65880000D02*
X113170000Y-66000000D01*
X113670000Y-70980000D02*
X113650000Y-71000000D01*
X113574999Y-70125001D02*
X113670000Y-70030000D01*
X113670000Y-70030000D02*
X113670000Y-70980000D01*
X113050000Y-65600000D02*
X113050000Y-65880000D01*
X113170000Y-66000000D02*
X113950000Y-66000000D01*
X113950000Y-66000000D02*
X113950000Y-65550000D01*
X110483400Y-70125001D02*
X113574999Y-70125001D01*
%TO.N,Net-(U5-VDRV)*%
X110835001Y-71475001D02*
X110635001Y-71475001D01*
X111950000Y-72590000D02*
X110835001Y-71475001D01*
X111950000Y-73000000D02*
X111950000Y-72590000D01*
%TO.N,Net-(U5-PHASE)*%
X106520000Y-66980000D02*
X107233136Y-67693136D01*
X107233136Y-67693136D02*
X107233136Y-68725000D01*
%TO.N,Net-(C22-Pad2)*%
X106550000Y-65990000D02*
X106520000Y-66020000D01*
X107500000Y-65990000D02*
X106550000Y-65990000D01*
%TO.N,LFlap*%
X99150000Y-88500000D02*
X97800000Y-88500000D01*
%TO.N,RFlap*%
X110500000Y-88000000D02*
X111100000Y-88000000D01*
X111100000Y-88000000D02*
X112100000Y-87000000D01*
%TO.N,LElevator*%
X106600000Y-97450000D02*
X106575000Y-97425000D01*
X106600000Y-113920000D02*
X106600000Y-97450000D01*
%TO.N,RElevator*%
X113800000Y-113920000D02*
X111880000Y-113920000D01*
X107575000Y-109615000D02*
X107575000Y-97425000D01*
X111880000Y-113920000D02*
X107575000Y-109615000D01*
%TO.N,Rudder*%
X110200000Y-113920000D02*
X107075000Y-110795000D01*
X107075000Y-110795000D02*
X107075000Y-97425000D01*
D51*
%TO.N,LBefore*%
X108133312Y-72423793D02*
X108438400Y-72728881D01*
X109058400Y-72648705D02*
X108833488Y-72423793D01*
X108833488Y-72423793D02*
X108133312Y-72423793D01*
X108850000Y-73510000D02*
X108850000Y-72648705D01*
X108438400Y-72728881D02*
X108438400Y-72740000D01*
X107683224Y-72423793D02*
X107985200Y-72423793D01*
X108230000Y-72740000D02*
X108850000Y-73360000D01*
X107985200Y-72423793D02*
X108133312Y-72423793D01*
X107683224Y-72423793D02*
X107233136Y-72423793D01*
X108850000Y-73360000D02*
X108850000Y-73510000D01*
%TO.N,Net-(U4-EN)*%
X118450000Y-73100000D02*
X118400000Y-73050000D01*
D50*
%TO.N,Vfb*%
X111680000Y-69000000D02*
X111450000Y-69230000D01*
X112000000Y-68800000D02*
X112800000Y-68000000D01*
X111450000Y-69230000D02*
X110770000Y-69230000D01*
X112000000Y-69000000D02*
X112000000Y-68800000D01*
X112000000Y-69000000D02*
X111680000Y-69000000D01*
%TO.N,Pgood*%
X112000000Y-71000000D02*
X111960000Y-71040000D01*
X111575000Y-70575000D02*
X110483400Y-70575000D01*
X112000000Y-71000000D02*
X111575000Y-70575000D01*
%TO.N,Net-(U5-BOOT)*%
X107683224Y-67193224D02*
X107683224Y-68725000D01*
X107500000Y-67010000D02*
X107474824Y-67035176D01*
X107500000Y-67010000D02*
X107683224Y-67193224D01*
%TO.N,Net-(U5-EN)*%
X111322000Y-67678000D02*
X110293664Y-67678000D01*
X110293664Y-67678000D02*
X109733576Y-68238088D01*
X109733576Y-68238088D02*
X109733576Y-68725000D01*
X112000000Y-67000000D02*
X111322000Y-67678000D01*
%TD*%
%TA.AperFunction,Conductor*%
%TO.N,GND*%
G36*
X109754300Y-70675495D02*
G01*
X109734615Y-70742534D01*
X109681811Y-70788289D01*
X109630300Y-70799495D01*
X109326911Y-70799495D01*
X109326904Y-70799496D01*
X109267297Y-70805903D01*
X109132452Y-70856197D01*
X109132445Y-70856201D01*
X109017236Y-70942447D01*
X109017233Y-70942450D01*
X108930987Y-71057659D01*
X108930983Y-71057666D01*
X108884332Y-71182746D01*
X108880690Y-71192512D01*
X108874281Y-71252122D01*
X108874281Y-71551001D01*
X108874236Y-71552676D01*
X108852730Y-71619153D01*
X108798697Y-71663451D01*
X108750282Y-71673293D01*
X108628064Y-71673293D01*
X108561025Y-71653608D01*
X108515270Y-71600804D01*
X108505326Y-71531646D01*
X108520677Y-71487293D01*
X108598496Y-71352506D01*
X108598496Y-71352505D01*
X108627919Y-71242699D01*
X108636900Y-71153987D01*
X108636900Y-71060816D01*
X108598496Y-70917493D01*
X108524313Y-70789006D01*
X108524309Y-70789000D01*
X108419399Y-70684090D01*
X108419390Y-70684083D01*
X108416641Y-70682496D01*
X108414786Y-70680550D01*
X108412948Y-70679140D01*
X108413168Y-70678853D01*
X108368429Y-70631926D01*
X108356497Y-70570000D01*
X109754300Y-70570000D01*
X109754300Y-70675495D01*
G37*
%TD.AperFunction*%
%TD*%
M02*
