%TF.GenerationSoftware,KiCad,Pcbnew,9.0.2*%
%TF.CreationDate,2025-08-16T18:35:03-07:00*%
%TF.ProjectId,Transmitter,5472616e-736d-4697-9474-65722e6b6963,rev?*%
%TF.SameCoordinates,Original*%
%TF.FileFunction,Soldermask,Top*%
%TF.FilePolarity,Negative*%
%FSLAX46Y46*%
G04 Gerber Fmt 4.6, Leading zero omitted, Abs format (unit mm)*
G04 Created by KiCad (PCBNEW 9.0.2) date 2025-08-16 18:35:03*
%MOMM*%
%LPD*%
G01*
G04 APERTURE LIST*
G04 Aperture macros list*
%AMRoundRect*
0 Rectangle with rounded corners*
0 $1 Rounding radius*
0 $2 $3 $4 $5 $6 $7 $8 $9 X,Y pos of 4 corners*
0 Add a 4 corners polygon primitive as box body*
4,1,4,$2,$3,$4,$5,$6,$7,$8,$9,$2,$3,0*
0 Add four circle primitives for the rounded corners*
1,1,$1+$1,$2,$3*
1,1,$1+$1,$4,$5*
1,1,$1+$1,$6,$7*
1,1,$1+$1,$8,$9*
0 Add four rect primitives between the rounded corners*
20,1,$1+$1,$2,$3,$4,$5,0*
20,1,$1+$1,$4,$5,$6,$7,0*
20,1,$1+$1,$6,$7,$8,$9,0*
20,1,$1+$1,$8,$9,$2,$3,0*%
G04 Aperture macros list end*
%ADD10C,0.000000*%
%ADD11RoundRect,0.218750X0.218750X0.256250X-0.218750X0.256250X-0.218750X-0.256250X0.218750X-0.256250X0*%
%ADD12RoundRect,0.099250X-0.727750X-0.297750X0.727750X-0.297750X0.727750X0.297750X-0.727750X0.297750X0*%
%ADD13RoundRect,0.250000X-0.625000X0.312500X-0.625000X-0.312500X0.625000X-0.312500X0.625000X0.312500X0*%
%ADD14RoundRect,0.250000X-0.312500X-0.625000X0.312500X-0.625000X0.312500X0.625000X-0.312500X0.625000X0*%
%ADD15RoundRect,0.250000X0.312500X0.625000X-0.312500X0.625000X-0.312500X-0.625000X0.312500X-0.625000X0*%
%ADD16RoundRect,0.225000X-0.225000X-0.250000X0.225000X-0.250000X0.225000X0.250000X-0.225000X0.250000X0*%
%ADD17RoundRect,0.225000X0.250000X-0.225000X0.250000X0.225000X-0.250000X0.225000X-0.250000X-0.225000X0*%
%ADD18RoundRect,0.225000X0.225000X0.250000X-0.225000X0.250000X-0.225000X-0.250000X0.225000X-0.250000X0*%
%ADD19RoundRect,0.140000X0.170000X-0.140000X0.170000X0.140000X-0.170000X0.140000X-0.170000X-0.140000X0*%
%ADD20RoundRect,0.140000X0.140000X0.170000X-0.140000X0.170000X-0.140000X-0.170000X0.140000X-0.170000X0*%
%ADD21R,2.000000X2.500000*%
%ADD22R,6.000000X5.500000*%
%ADD23RoundRect,0.225000X-0.250000X0.225000X-0.250000X-0.225000X0.250000X-0.225000X0.250000X0.225000X0*%
%ADD24RoundRect,0.200000X-0.275000X0.200000X-0.275000X-0.200000X0.275000X-0.200000X0.275000X0.200000X0*%
%ADD25C,1.828800*%
%ADD26RoundRect,0.135000X-0.185000X0.135000X-0.185000X-0.135000X0.185000X-0.135000X0.185000X0.135000X0*%
%ADD27C,2.362200*%
%ADD28RoundRect,0.135000X0.185000X-0.135000X0.185000X0.135000X-0.185000X0.135000X-0.185000X-0.135000X0*%
%ADD29C,1.524000*%
%ADD30RoundRect,0.200000X-0.200000X-0.275000X0.200000X-0.275000X0.200000X0.275000X-0.200000X0.275000X0*%
%ADD31R,1.700000X1.700000*%
%ADD32C,1.700000*%
%ADD33RoundRect,0.075000X-0.700000X-0.075000X0.700000X-0.075000X0.700000X0.075000X-0.700000X0.075000X0*%
%ADD34RoundRect,0.075000X-0.075000X-0.700000X0.075000X-0.700000X0.075000X0.700000X-0.075000X0.700000X0*%
%ADD35RoundRect,0.250000X0.275000X0.700000X-0.275000X0.700000X-0.275000X-0.700000X0.275000X-0.700000X0*%
%ADD36RoundRect,0.150000X-0.512500X-0.150000X0.512500X-0.150000X0.512500X0.150000X-0.512500X0.150000X0*%
%ADD37RoundRect,0.135000X0.135000X0.185000X-0.135000X0.185000X-0.135000X-0.185000X0.135000X-0.185000X0*%
%ADD38RoundRect,0.102000X-0.950000X-2.550000X0.950000X-2.550000X0.950000X2.550000X-0.950000X2.550000X0*%
%ADD39C,1.270000*%
%ADD40R,0.254000X0.304800*%
%ADD41R,0.304800X0.152400*%
%ADD42R,0.304800X0.457200*%
%ADD43R,0.457200X0.304800*%
%ADD44R,1.574800X1.050000*%
%ADD45C,0.127000*%
%ADD46R,0.580009X0.380009*%
%ADD47C,1.574800*%
G04 APERTURE END LIST*
D10*
%TO.C,U5*%
G36*
X108112411Y-70275005D02*
G01*
X106708407Y-70277401D01*
X106708407Y-69972601D01*
X106962407Y-69972601D01*
X106962407Y-69827399D01*
X106708407Y-69827399D01*
X106708407Y-69522599D01*
X106962407Y-69522599D01*
X106962401Y-69224995D01*
X108112411Y-69224995D01*
X108112411Y-70275005D01*
G37*
G36*
X109787405Y-70575501D02*
G01*
X109787405Y-71030492D01*
X109137393Y-71030492D01*
X109137406Y-71775490D01*
X106962404Y-71775490D01*
X106962407Y-71627401D01*
X106708407Y-71627401D01*
X106708407Y-71322601D01*
X106962407Y-71322601D01*
X106962407Y-71177399D01*
X106708407Y-71177399D01*
X106708407Y-70872599D01*
X106962407Y-70872599D01*
X106962404Y-70575492D01*
X109787405Y-70575501D01*
G37*
G36*
X109435976Y-72499993D02*
G01*
X109131176Y-72499993D01*
X109131176Y-72347593D01*
X108985888Y-72347593D01*
X108985888Y-72499993D01*
X108681088Y-72499993D01*
X108681088Y-72347593D01*
X108285712Y-72347593D01*
X108285712Y-72499993D01*
X107980912Y-72499993D01*
X107980912Y-72347593D01*
X107835624Y-72347593D01*
X107835624Y-72499993D01*
X107530824Y-72499993D01*
X107530824Y-72347593D01*
X107385536Y-72347593D01*
X107385536Y-72499993D01*
X107080736Y-72499993D01*
X107080736Y-72046400D01*
X109435976Y-72046400D01*
X109435976Y-72499993D01*
G37*
%TD*%
D11*
%TO.C,R20*%
X116887500Y-93960000D03*
X115312500Y-93960000D03*
%TD*%
%TO.C,D1*%
X113834500Y-93955000D03*
X112259500Y-93955000D03*
%TD*%
D12*
%TO.C,U4*%
X118400000Y-72100000D03*
X118400000Y-73050000D03*
X118400000Y-74000000D03*
X116090000Y-74000000D03*
X116090000Y-73050000D03*
X116090000Y-72100000D03*
%TD*%
D13*
%TO.C,R16*%
X110060000Y-61685000D03*
X110060000Y-64610000D03*
%TD*%
%TO.C,R15*%
X107750000Y-61690000D03*
X107750000Y-64615000D03*
%TD*%
D14*
%TO.C,R13*%
X93162500Y-73650000D03*
X96087500Y-73650000D03*
%TD*%
D15*
%TO.C,R11*%
X123192500Y-75160000D03*
X120267500Y-75160000D03*
%TD*%
D16*
%TO.C,C11*%
X124930000Y-81370000D03*
X123380000Y-81370000D03*
%TD*%
%TO.C,C12*%
X123360000Y-82900000D03*
X124910000Y-82900000D03*
%TD*%
D17*
%TO.C,C6*%
X114300000Y-76730000D03*
X114300000Y-75180000D03*
%TD*%
%TO.C,C5*%
X112790000Y-76730000D03*
X112790000Y-75180000D03*
%TD*%
D18*
%TO.C,C1*%
X123335000Y-105326000D03*
X121785000Y-105326000D03*
%TD*%
D19*
%TO.C,C3*%
X117820000Y-110220000D03*
X117820000Y-109260000D03*
%TD*%
D20*
%TO.C,C13*%
X119400000Y-70600000D03*
X118440000Y-70600000D03*
%TD*%
D21*
%TO.C,Q5*%
X113300000Y-50500000D03*
D22*
X111000000Y-57000000D03*
D21*
X108700000Y-50500000D03*
%TD*%
D23*
%TO.C,C9*%
X116200000Y-39425000D03*
X116200000Y-40975000D03*
%TD*%
D24*
%TO.C,R19*%
X112000000Y-65350000D03*
X112000000Y-67000000D03*
%TD*%
D25*
%TO.C,J6*%
X117800000Y-119556100D03*
X117800000Y-114476100D03*
%TD*%
D16*
%TO.C,C19*%
X113950000Y-66000000D03*
X115500000Y-66000000D03*
%TD*%
D21*
%TO.C,Q6*%
X108700000Y-43300000D03*
D22*
X111000000Y-36800000D03*
D21*
X113300000Y-43300000D03*
%TD*%
D23*
%TO.C,C8*%
X104700000Y-39950000D03*
X104700000Y-41500000D03*
%TD*%
D25*
%TO.C,J7*%
X122200000Y-119600000D03*
X122200000Y-114520000D03*
%TD*%
D26*
%TO.C,R1*%
X121730000Y-93080000D03*
X121730000Y-94100000D03*
%TD*%
D21*
%TO.C,Q3*%
X97200000Y-43500000D03*
D22*
X99500000Y-37000000D03*
D21*
X101800000Y-43500000D03*
%TD*%
D25*
%TO.C,J2*%
X99480000Y-31370000D03*
X99480000Y-26290000D03*
%TD*%
D27*
%TO.C,U1*%
X113300000Y-110221100D03*
X113300000Y-105395100D03*
X113300000Y-100569100D03*
%TD*%
D20*
%TO.C,C2*%
X123060000Y-103826000D03*
X122100000Y-103826000D03*
%TD*%
D28*
%TO.C,R3*%
X101200000Y-84140000D03*
X101200000Y-83120000D03*
%TD*%
D25*
%TO.C,J9*%
X91473900Y-65868550D03*
X96553900Y-65868550D03*
%TD*%
D28*
%TO.C,R4*%
X101990000Y-47510000D03*
X101990000Y-46490000D03*
%TD*%
D29*
%TO.C,J1*%
X102900000Y-118900000D03*
X102900000Y-116360000D03*
X100360000Y-118900000D03*
X100360000Y-116360000D03*
X97820000Y-118900000D03*
X97820000Y-116360000D03*
X95280000Y-118900000D03*
X95280000Y-116360000D03*
%TD*%
D30*
%TO.C,R17*%
X112000000Y-71000000D03*
X113650000Y-71000000D03*
%TD*%
D31*
%TO.C,J12*%
X106600000Y-119000000D03*
D32*
X106600000Y-116460000D03*
X106600000Y-113920000D03*
%TD*%
D33*
%TO.C,U2*%
X99150000Y-88000000D03*
X99150000Y-88500000D03*
X99150000Y-89000000D03*
X99150000Y-89500000D03*
X99150000Y-90000000D03*
X99150000Y-90500000D03*
X99150000Y-91000000D03*
X99150000Y-91500000D03*
X99150000Y-92000000D03*
X99150000Y-92500000D03*
X99150000Y-93000000D03*
X99150000Y-93500000D03*
X99150000Y-94000000D03*
X99150000Y-94500000D03*
X99150000Y-95000000D03*
X99150000Y-95500000D03*
D34*
X101075000Y-97425000D03*
X101575000Y-97425000D03*
X102075000Y-97425000D03*
X102575000Y-97425000D03*
X103075000Y-97425000D03*
X103575000Y-97425000D03*
X104075000Y-97425000D03*
X104575000Y-97425000D03*
X105075000Y-97425000D03*
X105575000Y-97425000D03*
X106075000Y-97425000D03*
X106575000Y-97425000D03*
X107075000Y-97425000D03*
X107575000Y-97425000D03*
X108075000Y-97425000D03*
X108575000Y-97425000D03*
D33*
X110500000Y-95500000D03*
X110500000Y-95000000D03*
X110500000Y-94500000D03*
X110500000Y-94000000D03*
X110500000Y-93500000D03*
X110500000Y-93000000D03*
X110500000Y-92500000D03*
X110500000Y-92000000D03*
X110500000Y-91500000D03*
X110500000Y-91000000D03*
X110500000Y-90500000D03*
X110500000Y-90000000D03*
X110500000Y-89500000D03*
X110500000Y-89000000D03*
X110500000Y-88500000D03*
X110500000Y-88000000D03*
D34*
X108575000Y-86075000D03*
X108075000Y-86075000D03*
X107575000Y-86075000D03*
X107075000Y-86075000D03*
X106575000Y-86075000D03*
X106075000Y-86075000D03*
X105575000Y-86075000D03*
X105075000Y-86075000D03*
X104575000Y-86075000D03*
X104075000Y-86075000D03*
X103575000Y-86075000D03*
X103075000Y-86075000D03*
X102575000Y-86075000D03*
X102075000Y-86075000D03*
X101575000Y-86075000D03*
X101075000Y-86075000D03*
%TD*%
D35*
%TO.C,L2*%
X111150000Y-75500000D03*
X108000000Y-75500000D03*
%TD*%
D25*
%TO.C,J4*%
X111120000Y-31380000D03*
X111120000Y-26300000D03*
%TD*%
%TO.C,J8*%
X91453900Y-70378550D03*
X96533900Y-70378550D03*
%TD*%
D31*
%TO.C,J14*%
X110200000Y-119000000D03*
D32*
X110200000Y-116460000D03*
X110200000Y-113920000D03*
%TD*%
D21*
%TO.C,Q9*%
X124800000Y-50500000D03*
D22*
X122500000Y-57000000D03*
D21*
X120200000Y-50500000D03*
%TD*%
D36*
%TO.C,U3*%
X120525000Y-106930000D03*
X120525000Y-107880000D03*
X120525000Y-108830000D03*
X122800000Y-108830000D03*
X122800000Y-106930000D03*
%TD*%
D31*
%TO.C,J13*%
X113800000Y-119000000D03*
D32*
X113800000Y-116460000D03*
X113800000Y-113920000D03*
%TD*%
D28*
%TO.C,R8*%
X113500000Y-47520000D03*
X113500000Y-46500000D03*
%TD*%
D21*
%TO.C,Q1*%
X101800000Y-50500000D03*
D22*
X99500000Y-57000000D03*
D21*
X97200000Y-50500000D03*
%TD*%
D37*
%TO.C,R7*%
X121660000Y-72530000D03*
X120640000Y-72530000D03*
%TD*%
D16*
%TO.C,C21*%
X111950000Y-73000000D03*
X113500000Y-73000000D03*
%TD*%
D19*
%TO.C,C22*%
X106520000Y-66980000D03*
X106520000Y-66020000D03*
%TD*%
D38*
%TO.C,L1*%
X117200000Y-79600000D03*
X121400000Y-79600000D03*
%TD*%
D19*
%TO.C,C14*%
X123900000Y-77680000D03*
X123900000Y-76720000D03*
%TD*%
D26*
%TO.C,R9*%
X108500000Y-46500000D03*
X108500000Y-47520000D03*
%TD*%
D37*
%TO.C,R10*%
X121650000Y-73500000D03*
X120630000Y-73500000D03*
%TD*%
D39*
%TO.C,C15*%
X92750000Y-86350000D03*
X95250000Y-86350000D03*
%TD*%
D40*
%TO.C,U5*%
X106835407Y-69674999D03*
X106835407Y-70125001D03*
X106835407Y-71024999D03*
X106835407Y-71475001D03*
D41*
X107233136Y-72423793D03*
X107683224Y-72423793D03*
X108133312Y-72423793D03*
X108833488Y-72423793D03*
X109283576Y-72423793D03*
D42*
X109733664Y-72275000D03*
D43*
X110483400Y-71925000D03*
X110483400Y-71475001D03*
X110483400Y-71024999D03*
X110483400Y-70575000D03*
X110483400Y-70125001D03*
X110483400Y-69674999D03*
X110483400Y-69225000D03*
D42*
X110183664Y-68725000D03*
X109733576Y-68725000D03*
X109283488Y-68725000D03*
X108833400Y-68725000D03*
X108133312Y-68725000D03*
X107683224Y-68725000D03*
X107233136Y-68725000D03*
D44*
X109167400Y-69750000D03*
D45*
X107565400Y-69738000D03*
X108073400Y-71135000D03*
D46*
X109664786Y-71490000D03*
%TD*%
D26*
%TO.C,R5*%
X120000000Y-46200000D03*
X120000000Y-47220000D03*
%TD*%
D39*
%TO.C,C20*%
X101480000Y-68870000D03*
X101480000Y-71370000D03*
%TD*%
D23*
%TO.C,C10*%
X127700000Y-39195000D03*
X127700000Y-40745000D03*
%TD*%
D37*
%TO.C,R2*%
X92420000Y-117000000D03*
X91400000Y-117000000D03*
%TD*%
D47*
%TO.C,SW1*%
X94600000Y-106500000D03*
X94600000Y-101500000D03*
X99599990Y-101500000D03*
X99599990Y-106500000D03*
%TD*%
D39*
%TO.C,C18*%
X100500000Y-77500000D03*
X103000000Y-77500000D03*
%TD*%
D31*
%TO.C,J11*%
X123100000Y-63100000D03*
D32*
X123100000Y-65640000D03*
X123100000Y-68180000D03*
%TD*%
D25*
%TO.C,J5*%
X122560000Y-31350000D03*
X122560000Y-26270000D03*
%TD*%
D26*
%TO.C,R6*%
X96990000Y-46490000D03*
X96990000Y-47510000D03*
%TD*%
D19*
%TO.C,C4*%
X102500000Y-84100000D03*
X102500000Y-83140000D03*
%TD*%
D39*
%TO.C,C17*%
X92950000Y-78450000D03*
X95450000Y-78450000D03*
%TD*%
D31*
%TO.C,J3*%
X119440000Y-86570000D03*
D32*
X119440000Y-89110000D03*
X119440000Y-91650000D03*
X119440000Y-94190000D03*
X119440000Y-96730000D03*
X119440000Y-99270000D03*
%TD*%
D28*
%TO.C,R12*%
X124490000Y-47220000D03*
X124490000Y-46200000D03*
%TD*%
D26*
%TO.C,R18*%
X107500000Y-65990000D03*
X107500000Y-67010000D03*
%TD*%
D31*
%TO.C,J10*%
X93400000Y-55860000D03*
D32*
X93400000Y-58400000D03*
X93400000Y-60940000D03*
%TD*%
D30*
%TO.C,R14*%
X112000000Y-69000000D03*
X113650000Y-69000000D03*
%TD*%
D39*
%TO.C,C16*%
X109000000Y-82000000D03*
X109000000Y-79500000D03*
%TD*%
D19*
%TO.C,C7*%
X115520000Y-76680000D03*
X115520000Y-75720000D03*
%TD*%
D21*
%TO.C,Q10*%
X120230000Y-43320000D03*
D22*
X122530000Y-36820000D03*
D21*
X124830000Y-43320000D03*
%TD*%
G36*
X110234169Y-69520987D02*
G01*
X110281139Y-69572713D01*
X110293522Y-69623291D01*
X110296270Y-69719455D01*
X110278509Y-69787029D01*
X110227033Y-69834274D01*
X110169438Y-69846963D01*
X109987500Y-69842732D01*
X109920936Y-69821495D01*
X109876422Y-69767641D01*
X109866440Y-69722522D01*
X109863782Y-69634818D01*
X109881427Y-69567213D01*
X109932820Y-69519880D01*
X109984842Y-69507096D01*
X110166690Y-69502867D01*
X110234169Y-69520987D01*
G37*
G36*
X109379015Y-72066085D02*
G01*
X109424770Y-72118889D01*
X109435976Y-72170400D01*
X109435976Y-72555993D01*
X109416291Y-72623032D01*
X109363487Y-72668787D01*
X109311976Y-72679993D01*
X107094736Y-72679993D01*
X107027697Y-72660308D01*
X106981942Y-72607504D01*
X106970736Y-72555993D01*
X106970736Y-72170400D01*
X106990421Y-72103361D01*
X107043225Y-72057606D01*
X107094736Y-72046400D01*
X109311976Y-72046400D01*
X109379015Y-72066085D01*
G37*
M02*
