%TF.GenerationSoftware,KiCad,Pcbnew,9.0.2*%
%TF.CreationDate,2025-08-16T18:35:03-07:00*%
%TF.ProjectId,Transmitter,5472616e-736d-4697-9474-65722e6b6963,rev?*%
%TF.SameCoordinates,Original*%
%TF.FileFunction,Legend,Top*%
%TF.FilePolarity,Positive*%
%FSLAX46Y46*%
G04 Gerber Fmt 4.6, Leading zero omitted, Abs format (unit mm)*
G04 Created by KiCad (PCBNEW 9.0.2) date 2025-08-16 18:35:03*
%MOMM*%
%LPD*%
G01*
G04 APERTURE LIST*
%ADD10C,0.150000*%
%ADD11C,0.254000*%
%ADD12C,0.120000*%
%ADD13C,0.200000*%
%ADD14C,0.127000*%
%ADD15C,0.100000*%
%ADD16C,0.152400*%
%ADD17C,0.508000*%
%ADD18C,0.000000*%
G04 APERTURE END LIST*
D10*
X115477142Y-92834819D02*
X115143809Y-92358628D01*
X114905714Y-92834819D02*
X114905714Y-91834819D01*
X114905714Y-91834819D02*
X115286666Y-91834819D01*
X115286666Y-91834819D02*
X115381904Y-91882438D01*
X115381904Y-91882438D02*
X115429523Y-91930057D01*
X115429523Y-91930057D02*
X115477142Y-92025295D01*
X115477142Y-92025295D02*
X115477142Y-92168152D01*
X115477142Y-92168152D02*
X115429523Y-92263390D01*
X115429523Y-92263390D02*
X115381904Y-92311009D01*
X115381904Y-92311009D02*
X115286666Y-92358628D01*
X115286666Y-92358628D02*
X114905714Y-92358628D01*
X115858095Y-91930057D02*
X115905714Y-91882438D01*
X115905714Y-91882438D02*
X116000952Y-91834819D01*
X116000952Y-91834819D02*
X116239047Y-91834819D01*
X116239047Y-91834819D02*
X116334285Y-91882438D01*
X116334285Y-91882438D02*
X116381904Y-91930057D01*
X116381904Y-91930057D02*
X116429523Y-92025295D01*
X116429523Y-92025295D02*
X116429523Y-92120533D01*
X116429523Y-92120533D02*
X116381904Y-92263390D01*
X116381904Y-92263390D02*
X115810476Y-92834819D01*
X115810476Y-92834819D02*
X116429523Y-92834819D01*
X117048571Y-91834819D02*
X117143809Y-91834819D01*
X117143809Y-91834819D02*
X117239047Y-91882438D01*
X117239047Y-91882438D02*
X117286666Y-91930057D01*
X117286666Y-91930057D02*
X117334285Y-92025295D01*
X117334285Y-92025295D02*
X117381904Y-92215771D01*
X117381904Y-92215771D02*
X117381904Y-92453866D01*
X117381904Y-92453866D02*
X117334285Y-92644342D01*
X117334285Y-92644342D02*
X117286666Y-92739580D01*
X117286666Y-92739580D02*
X117239047Y-92787200D01*
X117239047Y-92787200D02*
X117143809Y-92834819D01*
X117143809Y-92834819D02*
X117048571Y-92834819D01*
X117048571Y-92834819D02*
X116953333Y-92787200D01*
X116953333Y-92787200D02*
X116905714Y-92739580D01*
X116905714Y-92739580D02*
X116858095Y-92644342D01*
X116858095Y-92644342D02*
X116810476Y-92453866D01*
X116810476Y-92453866D02*
X116810476Y-92215771D01*
X116810476Y-92215771D02*
X116858095Y-92025295D01*
X116858095Y-92025295D02*
X116905714Y-91930057D01*
X116905714Y-91930057D02*
X116953333Y-91882438D01*
X116953333Y-91882438D02*
X117048571Y-91834819D01*
X112328905Y-92764819D02*
X112328905Y-91764819D01*
X112328905Y-91764819D02*
X112567000Y-91764819D01*
X112567000Y-91764819D02*
X112709857Y-91812438D01*
X112709857Y-91812438D02*
X112805095Y-91907676D01*
X112805095Y-91907676D02*
X112852714Y-92002914D01*
X112852714Y-92002914D02*
X112900333Y-92193390D01*
X112900333Y-92193390D02*
X112900333Y-92336247D01*
X112900333Y-92336247D02*
X112852714Y-92526723D01*
X112852714Y-92526723D02*
X112805095Y-92621961D01*
X112805095Y-92621961D02*
X112709857Y-92717200D01*
X112709857Y-92717200D02*
X112567000Y-92764819D01*
X112567000Y-92764819D02*
X112328905Y-92764819D01*
X113852714Y-92764819D02*
X113281286Y-92764819D01*
X113567000Y-92764819D02*
X113567000Y-91764819D01*
X113567000Y-91764819D02*
X113471762Y-91907676D01*
X113471762Y-91907676D02*
X113376524Y-92002914D01*
X113376524Y-92002914D02*
X113281286Y-92050533D01*
X112684819Y-63352857D02*
X112208628Y-63686190D01*
X112684819Y-63924285D02*
X111684819Y-63924285D01*
X111684819Y-63924285D02*
X111684819Y-63543333D01*
X111684819Y-63543333D02*
X111732438Y-63448095D01*
X111732438Y-63448095D02*
X111780057Y-63400476D01*
X111780057Y-63400476D02*
X111875295Y-63352857D01*
X111875295Y-63352857D02*
X112018152Y-63352857D01*
X112018152Y-63352857D02*
X112113390Y-63400476D01*
X112113390Y-63400476D02*
X112161009Y-63448095D01*
X112161009Y-63448095D02*
X112208628Y-63543333D01*
X112208628Y-63543333D02*
X112208628Y-63924285D01*
X112684819Y-62400476D02*
X112684819Y-62971904D01*
X112684819Y-62686190D02*
X111684819Y-62686190D01*
X111684819Y-62686190D02*
X111827676Y-62781428D01*
X111827676Y-62781428D02*
X111922914Y-62876666D01*
X111922914Y-62876666D02*
X111970533Y-62971904D01*
X111684819Y-61543333D02*
X111684819Y-61733809D01*
X111684819Y-61733809D02*
X111732438Y-61829047D01*
X111732438Y-61829047D02*
X111780057Y-61876666D01*
X111780057Y-61876666D02*
X111922914Y-61971904D01*
X111922914Y-61971904D02*
X112113390Y-62019523D01*
X112113390Y-62019523D02*
X112494342Y-62019523D01*
X112494342Y-62019523D02*
X112589580Y-61971904D01*
X112589580Y-61971904D02*
X112637200Y-61924285D01*
X112637200Y-61924285D02*
X112684819Y-61829047D01*
X112684819Y-61829047D02*
X112684819Y-61638571D01*
X112684819Y-61638571D02*
X112637200Y-61543333D01*
X112637200Y-61543333D02*
X112589580Y-61495714D01*
X112589580Y-61495714D02*
X112494342Y-61448095D01*
X112494342Y-61448095D02*
X112256247Y-61448095D01*
X112256247Y-61448095D02*
X112161009Y-61495714D01*
X112161009Y-61495714D02*
X112113390Y-61543333D01*
X112113390Y-61543333D02*
X112065771Y-61638571D01*
X112065771Y-61638571D02*
X112065771Y-61829047D01*
X112065771Y-61829047D02*
X112113390Y-61924285D01*
X112113390Y-61924285D02*
X112161009Y-61971904D01*
X112161009Y-61971904D02*
X112256247Y-62019523D01*
X106264819Y-63352857D02*
X105788628Y-63686190D01*
X106264819Y-63924285D02*
X105264819Y-63924285D01*
X105264819Y-63924285D02*
X105264819Y-63543333D01*
X105264819Y-63543333D02*
X105312438Y-63448095D01*
X105312438Y-63448095D02*
X105360057Y-63400476D01*
X105360057Y-63400476D02*
X105455295Y-63352857D01*
X105455295Y-63352857D02*
X105598152Y-63352857D01*
X105598152Y-63352857D02*
X105693390Y-63400476D01*
X105693390Y-63400476D02*
X105741009Y-63448095D01*
X105741009Y-63448095D02*
X105788628Y-63543333D01*
X105788628Y-63543333D02*
X105788628Y-63924285D01*
X106264819Y-62400476D02*
X106264819Y-62971904D01*
X106264819Y-62686190D02*
X105264819Y-62686190D01*
X105264819Y-62686190D02*
X105407676Y-62781428D01*
X105407676Y-62781428D02*
X105502914Y-62876666D01*
X105502914Y-62876666D02*
X105550533Y-62971904D01*
X105264819Y-61495714D02*
X105264819Y-61971904D01*
X105264819Y-61971904D02*
X105741009Y-62019523D01*
X105741009Y-62019523D02*
X105693390Y-61971904D01*
X105693390Y-61971904D02*
X105645771Y-61876666D01*
X105645771Y-61876666D02*
X105645771Y-61638571D01*
X105645771Y-61638571D02*
X105693390Y-61543333D01*
X105693390Y-61543333D02*
X105741009Y-61495714D01*
X105741009Y-61495714D02*
X105836247Y-61448095D01*
X105836247Y-61448095D02*
X106074342Y-61448095D01*
X106074342Y-61448095D02*
X106169580Y-61495714D01*
X106169580Y-61495714D02*
X106217200Y-61543333D01*
X106217200Y-61543333D02*
X106264819Y-61638571D01*
X106264819Y-61638571D02*
X106264819Y-61876666D01*
X106264819Y-61876666D02*
X106217200Y-61971904D01*
X106217200Y-61971904D02*
X106169580Y-62019523D01*
X90177142Y-74274819D02*
X89843809Y-73798628D01*
X89605714Y-74274819D02*
X89605714Y-73274819D01*
X89605714Y-73274819D02*
X89986666Y-73274819D01*
X89986666Y-73274819D02*
X90081904Y-73322438D01*
X90081904Y-73322438D02*
X90129523Y-73370057D01*
X90129523Y-73370057D02*
X90177142Y-73465295D01*
X90177142Y-73465295D02*
X90177142Y-73608152D01*
X90177142Y-73608152D02*
X90129523Y-73703390D01*
X90129523Y-73703390D02*
X90081904Y-73751009D01*
X90081904Y-73751009D02*
X89986666Y-73798628D01*
X89986666Y-73798628D02*
X89605714Y-73798628D01*
X91129523Y-74274819D02*
X90558095Y-74274819D01*
X90843809Y-74274819D02*
X90843809Y-73274819D01*
X90843809Y-73274819D02*
X90748571Y-73417676D01*
X90748571Y-73417676D02*
X90653333Y-73512914D01*
X90653333Y-73512914D02*
X90558095Y-73560533D01*
X91462857Y-73274819D02*
X92081904Y-73274819D01*
X92081904Y-73274819D02*
X91748571Y-73655771D01*
X91748571Y-73655771D02*
X91891428Y-73655771D01*
X91891428Y-73655771D02*
X91986666Y-73703390D01*
X91986666Y-73703390D02*
X92034285Y-73751009D01*
X92034285Y-73751009D02*
X92081904Y-73846247D01*
X92081904Y-73846247D02*
X92081904Y-74084342D01*
X92081904Y-74084342D02*
X92034285Y-74179580D01*
X92034285Y-74179580D02*
X91986666Y-74227200D01*
X91986666Y-74227200D02*
X91891428Y-74274819D01*
X91891428Y-74274819D02*
X91605714Y-74274819D01*
X91605714Y-74274819D02*
X91510476Y-74227200D01*
X91510476Y-74227200D02*
X91462857Y-74179580D01*
X121087142Y-77444819D02*
X120753809Y-76968628D01*
X120515714Y-77444819D02*
X120515714Y-76444819D01*
X120515714Y-76444819D02*
X120896666Y-76444819D01*
X120896666Y-76444819D02*
X120991904Y-76492438D01*
X120991904Y-76492438D02*
X121039523Y-76540057D01*
X121039523Y-76540057D02*
X121087142Y-76635295D01*
X121087142Y-76635295D02*
X121087142Y-76778152D01*
X121087142Y-76778152D02*
X121039523Y-76873390D01*
X121039523Y-76873390D02*
X120991904Y-76921009D01*
X120991904Y-76921009D02*
X120896666Y-76968628D01*
X120896666Y-76968628D02*
X120515714Y-76968628D01*
X122039523Y-77444819D02*
X121468095Y-77444819D01*
X121753809Y-77444819D02*
X121753809Y-76444819D01*
X121753809Y-76444819D02*
X121658571Y-76587676D01*
X121658571Y-76587676D02*
X121563333Y-76682914D01*
X121563333Y-76682914D02*
X121468095Y-76730533D01*
X122991904Y-77444819D02*
X122420476Y-77444819D01*
X122706190Y-77444819D02*
X122706190Y-76444819D01*
X122706190Y-76444819D02*
X122610952Y-76587676D01*
X122610952Y-76587676D02*
X122515714Y-76682914D01*
X122515714Y-76682914D02*
X122420476Y-76730533D01*
X126577142Y-81839580D02*
X126529523Y-81887200D01*
X126529523Y-81887200D02*
X126386666Y-81934819D01*
X126386666Y-81934819D02*
X126291428Y-81934819D01*
X126291428Y-81934819D02*
X126148571Y-81887200D01*
X126148571Y-81887200D02*
X126053333Y-81791961D01*
X126053333Y-81791961D02*
X126005714Y-81696723D01*
X126005714Y-81696723D02*
X125958095Y-81506247D01*
X125958095Y-81506247D02*
X125958095Y-81363390D01*
X125958095Y-81363390D02*
X126005714Y-81172914D01*
X126005714Y-81172914D02*
X126053333Y-81077676D01*
X126053333Y-81077676D02*
X126148571Y-80982438D01*
X126148571Y-80982438D02*
X126291428Y-80934819D01*
X126291428Y-80934819D02*
X126386666Y-80934819D01*
X126386666Y-80934819D02*
X126529523Y-80982438D01*
X126529523Y-80982438D02*
X126577142Y-81030057D01*
X127529523Y-81934819D02*
X126958095Y-81934819D01*
X127243809Y-81934819D02*
X127243809Y-80934819D01*
X127243809Y-80934819D02*
X127148571Y-81077676D01*
X127148571Y-81077676D02*
X127053333Y-81172914D01*
X127053333Y-81172914D02*
X126958095Y-81220533D01*
X128481904Y-81934819D02*
X127910476Y-81934819D01*
X128196190Y-81934819D02*
X128196190Y-80934819D01*
X128196190Y-80934819D02*
X128100952Y-81077676D01*
X128100952Y-81077676D02*
X128005714Y-81172914D01*
X128005714Y-81172914D02*
X127910476Y-81220533D01*
X126447142Y-83199580D02*
X126399523Y-83247200D01*
X126399523Y-83247200D02*
X126256666Y-83294819D01*
X126256666Y-83294819D02*
X126161428Y-83294819D01*
X126161428Y-83294819D02*
X126018571Y-83247200D01*
X126018571Y-83247200D02*
X125923333Y-83151961D01*
X125923333Y-83151961D02*
X125875714Y-83056723D01*
X125875714Y-83056723D02*
X125828095Y-82866247D01*
X125828095Y-82866247D02*
X125828095Y-82723390D01*
X125828095Y-82723390D02*
X125875714Y-82532914D01*
X125875714Y-82532914D02*
X125923333Y-82437676D01*
X125923333Y-82437676D02*
X126018571Y-82342438D01*
X126018571Y-82342438D02*
X126161428Y-82294819D01*
X126161428Y-82294819D02*
X126256666Y-82294819D01*
X126256666Y-82294819D02*
X126399523Y-82342438D01*
X126399523Y-82342438D02*
X126447142Y-82390057D01*
X127399523Y-83294819D02*
X126828095Y-83294819D01*
X127113809Y-83294819D02*
X127113809Y-82294819D01*
X127113809Y-82294819D02*
X127018571Y-82437676D01*
X127018571Y-82437676D02*
X126923333Y-82532914D01*
X126923333Y-82532914D02*
X126828095Y-82580533D01*
X127780476Y-82390057D02*
X127828095Y-82342438D01*
X127828095Y-82342438D02*
X127923333Y-82294819D01*
X127923333Y-82294819D02*
X128161428Y-82294819D01*
X128161428Y-82294819D02*
X128256666Y-82342438D01*
X128256666Y-82342438D02*
X128304285Y-82390057D01*
X128304285Y-82390057D02*
X128351904Y-82485295D01*
X128351904Y-82485295D02*
X128351904Y-82580533D01*
X128351904Y-82580533D02*
X128304285Y-82723390D01*
X128304285Y-82723390D02*
X127732857Y-83294819D01*
X127732857Y-83294819D02*
X128351904Y-83294819D01*
X114349580Y-74471666D02*
X114397200Y-74519285D01*
X114397200Y-74519285D02*
X114444819Y-74662142D01*
X114444819Y-74662142D02*
X114444819Y-74757380D01*
X114444819Y-74757380D02*
X114397200Y-74900237D01*
X114397200Y-74900237D02*
X114301961Y-74995475D01*
X114301961Y-74995475D02*
X114206723Y-75043094D01*
X114206723Y-75043094D02*
X114016247Y-75090713D01*
X114016247Y-75090713D02*
X113873390Y-75090713D01*
X113873390Y-75090713D02*
X113682914Y-75043094D01*
X113682914Y-75043094D02*
X113587676Y-74995475D01*
X113587676Y-74995475D02*
X113492438Y-74900237D01*
X113492438Y-74900237D02*
X113444819Y-74757380D01*
X113444819Y-74757380D02*
X113444819Y-74662142D01*
X113444819Y-74662142D02*
X113492438Y-74519285D01*
X113492438Y-74519285D02*
X113540057Y-74471666D01*
X113444819Y-73614523D02*
X113444819Y-73804999D01*
X113444819Y-73804999D02*
X113492438Y-73900237D01*
X113492438Y-73900237D02*
X113540057Y-73947856D01*
X113540057Y-73947856D02*
X113682914Y-74043094D01*
X113682914Y-74043094D02*
X113873390Y-74090713D01*
X113873390Y-74090713D02*
X114254342Y-74090713D01*
X114254342Y-74090713D02*
X114349580Y-74043094D01*
X114349580Y-74043094D02*
X114397200Y-73995475D01*
X114397200Y-73995475D02*
X114444819Y-73900237D01*
X114444819Y-73900237D02*
X114444819Y-73709761D01*
X114444819Y-73709761D02*
X114397200Y-73614523D01*
X114397200Y-73614523D02*
X114349580Y-73566904D01*
X114349580Y-73566904D02*
X114254342Y-73519285D01*
X114254342Y-73519285D02*
X114016247Y-73519285D01*
X114016247Y-73519285D02*
X113921009Y-73566904D01*
X113921009Y-73566904D02*
X113873390Y-73614523D01*
X113873390Y-73614523D02*
X113825771Y-73709761D01*
X113825771Y-73709761D02*
X113825771Y-73900237D01*
X113825771Y-73900237D02*
X113873390Y-73995475D01*
X113873390Y-73995475D02*
X113921009Y-74043094D01*
X113921009Y-74043094D02*
X114016247Y-74090713D01*
X112839580Y-74451666D02*
X112887200Y-74499285D01*
X112887200Y-74499285D02*
X112934819Y-74642142D01*
X112934819Y-74642142D02*
X112934819Y-74737380D01*
X112934819Y-74737380D02*
X112887200Y-74880237D01*
X112887200Y-74880237D02*
X112791961Y-74975475D01*
X112791961Y-74975475D02*
X112696723Y-75023094D01*
X112696723Y-75023094D02*
X112506247Y-75070713D01*
X112506247Y-75070713D02*
X112363390Y-75070713D01*
X112363390Y-75070713D02*
X112172914Y-75023094D01*
X112172914Y-75023094D02*
X112077676Y-74975475D01*
X112077676Y-74975475D02*
X111982438Y-74880237D01*
X111982438Y-74880237D02*
X111934819Y-74737380D01*
X111934819Y-74737380D02*
X111934819Y-74642142D01*
X111934819Y-74642142D02*
X111982438Y-74499285D01*
X111982438Y-74499285D02*
X112030057Y-74451666D01*
X111934819Y-73546904D02*
X111934819Y-74023094D01*
X111934819Y-74023094D02*
X112411009Y-74070713D01*
X112411009Y-74070713D02*
X112363390Y-74023094D01*
X112363390Y-74023094D02*
X112315771Y-73927856D01*
X112315771Y-73927856D02*
X112315771Y-73689761D01*
X112315771Y-73689761D02*
X112363390Y-73594523D01*
X112363390Y-73594523D02*
X112411009Y-73546904D01*
X112411009Y-73546904D02*
X112506247Y-73499285D01*
X112506247Y-73499285D02*
X112744342Y-73499285D01*
X112744342Y-73499285D02*
X112839580Y-73546904D01*
X112839580Y-73546904D02*
X112887200Y-73594523D01*
X112887200Y-73594523D02*
X112934819Y-73689761D01*
X112934819Y-73689761D02*
X112934819Y-73927856D01*
X112934819Y-73927856D02*
X112887200Y-74023094D01*
X112887200Y-74023094D02*
X112839580Y-74070713D01*
X122393333Y-107115580D02*
X122345714Y-107163200D01*
X122345714Y-107163200D02*
X122202857Y-107210819D01*
X122202857Y-107210819D02*
X122107619Y-107210819D01*
X122107619Y-107210819D02*
X121964762Y-107163200D01*
X121964762Y-107163200D02*
X121869524Y-107067961D01*
X121869524Y-107067961D02*
X121821905Y-106972723D01*
X121821905Y-106972723D02*
X121774286Y-106782247D01*
X121774286Y-106782247D02*
X121774286Y-106639390D01*
X121774286Y-106639390D02*
X121821905Y-106448914D01*
X121821905Y-106448914D02*
X121869524Y-106353676D01*
X121869524Y-106353676D02*
X121964762Y-106258438D01*
X121964762Y-106258438D02*
X122107619Y-106210819D01*
X122107619Y-106210819D02*
X122202857Y-106210819D01*
X122202857Y-106210819D02*
X122345714Y-106258438D01*
X122345714Y-106258438D02*
X122393333Y-106306057D01*
X123345714Y-107210819D02*
X122774286Y-107210819D01*
X123060000Y-107210819D02*
X123060000Y-106210819D01*
X123060000Y-106210819D02*
X122964762Y-106353676D01*
X122964762Y-106353676D02*
X122869524Y-106448914D01*
X122869524Y-106448914D02*
X122774286Y-106496533D01*
X119969580Y-111496666D02*
X120017200Y-111544285D01*
X120017200Y-111544285D02*
X120064819Y-111687142D01*
X120064819Y-111687142D02*
X120064819Y-111782380D01*
X120064819Y-111782380D02*
X120017200Y-111925237D01*
X120017200Y-111925237D02*
X119921961Y-112020475D01*
X119921961Y-112020475D02*
X119826723Y-112068094D01*
X119826723Y-112068094D02*
X119636247Y-112115713D01*
X119636247Y-112115713D02*
X119493390Y-112115713D01*
X119493390Y-112115713D02*
X119302914Y-112068094D01*
X119302914Y-112068094D02*
X119207676Y-112020475D01*
X119207676Y-112020475D02*
X119112438Y-111925237D01*
X119112438Y-111925237D02*
X119064819Y-111782380D01*
X119064819Y-111782380D02*
X119064819Y-111687142D01*
X119064819Y-111687142D02*
X119112438Y-111544285D01*
X119112438Y-111544285D02*
X119160057Y-111496666D01*
X119064819Y-111163332D02*
X119064819Y-110544285D01*
X119064819Y-110544285D02*
X119445771Y-110877618D01*
X119445771Y-110877618D02*
X119445771Y-110734761D01*
X119445771Y-110734761D02*
X119493390Y-110639523D01*
X119493390Y-110639523D02*
X119541009Y-110591904D01*
X119541009Y-110591904D02*
X119636247Y-110544285D01*
X119636247Y-110544285D02*
X119874342Y-110544285D01*
X119874342Y-110544285D02*
X119969580Y-110591904D01*
X119969580Y-110591904D02*
X120017200Y-110639523D01*
X120017200Y-110639523D02*
X120064819Y-110734761D01*
X120064819Y-110734761D02*
X120064819Y-111020475D01*
X120064819Y-111020475D02*
X120017200Y-111115713D01*
X120017200Y-111115713D02*
X119969580Y-111163332D01*
X118757142Y-69619580D02*
X118709523Y-69667200D01*
X118709523Y-69667200D02*
X118566666Y-69714819D01*
X118566666Y-69714819D02*
X118471428Y-69714819D01*
X118471428Y-69714819D02*
X118328571Y-69667200D01*
X118328571Y-69667200D02*
X118233333Y-69571961D01*
X118233333Y-69571961D02*
X118185714Y-69476723D01*
X118185714Y-69476723D02*
X118138095Y-69286247D01*
X118138095Y-69286247D02*
X118138095Y-69143390D01*
X118138095Y-69143390D02*
X118185714Y-68952914D01*
X118185714Y-68952914D02*
X118233333Y-68857676D01*
X118233333Y-68857676D02*
X118328571Y-68762438D01*
X118328571Y-68762438D02*
X118471428Y-68714819D01*
X118471428Y-68714819D02*
X118566666Y-68714819D01*
X118566666Y-68714819D02*
X118709523Y-68762438D01*
X118709523Y-68762438D02*
X118757142Y-68810057D01*
X119709523Y-69714819D02*
X119138095Y-69714819D01*
X119423809Y-69714819D02*
X119423809Y-68714819D01*
X119423809Y-68714819D02*
X119328571Y-68857676D01*
X119328571Y-68857676D02*
X119233333Y-68952914D01*
X119233333Y-68952914D02*
X119138095Y-69000533D01*
X120042857Y-68714819D02*
X120661904Y-68714819D01*
X120661904Y-68714819D02*
X120328571Y-69095771D01*
X120328571Y-69095771D02*
X120471428Y-69095771D01*
X120471428Y-69095771D02*
X120566666Y-69143390D01*
X120566666Y-69143390D02*
X120614285Y-69191009D01*
X120614285Y-69191009D02*
X120661904Y-69286247D01*
X120661904Y-69286247D02*
X120661904Y-69524342D01*
X120661904Y-69524342D02*
X120614285Y-69619580D01*
X120614285Y-69619580D02*
X120566666Y-69667200D01*
X120566666Y-69667200D02*
X120471428Y-69714819D01*
X120471428Y-69714819D02*
X120185714Y-69714819D01*
X120185714Y-69714819D02*
X120090476Y-69667200D01*
X120090476Y-69667200D02*
X120042857Y-69619580D01*
D11*
X110879047Y-55195270D02*
X110758095Y-55134794D01*
X110758095Y-55134794D02*
X110637142Y-55013842D01*
X110637142Y-55013842D02*
X110455714Y-54832413D01*
X110455714Y-54832413D02*
X110334761Y-54771937D01*
X110334761Y-54771937D02*
X110213809Y-54771937D01*
X110274285Y-55074318D02*
X110153333Y-55013842D01*
X110153333Y-55013842D02*
X110032380Y-54892889D01*
X110032380Y-54892889D02*
X109971904Y-54650984D01*
X109971904Y-54650984D02*
X109971904Y-54227651D01*
X109971904Y-54227651D02*
X110032380Y-53985746D01*
X110032380Y-53985746D02*
X110153333Y-53864794D01*
X110153333Y-53864794D02*
X110274285Y-53804318D01*
X110274285Y-53804318D02*
X110516190Y-53804318D01*
X110516190Y-53804318D02*
X110637142Y-53864794D01*
X110637142Y-53864794D02*
X110758095Y-53985746D01*
X110758095Y-53985746D02*
X110818571Y-54227651D01*
X110818571Y-54227651D02*
X110818571Y-54650984D01*
X110818571Y-54650984D02*
X110758095Y-54892889D01*
X110758095Y-54892889D02*
X110637142Y-55013842D01*
X110637142Y-55013842D02*
X110516190Y-55074318D01*
X110516190Y-55074318D02*
X110274285Y-55074318D01*
X111967618Y-53804318D02*
X111362856Y-53804318D01*
X111362856Y-53804318D02*
X111302380Y-54409080D01*
X111302380Y-54409080D02*
X111362856Y-54348603D01*
X111362856Y-54348603D02*
X111483809Y-54288127D01*
X111483809Y-54288127D02*
X111786190Y-54288127D01*
X111786190Y-54288127D02*
X111907142Y-54348603D01*
X111907142Y-54348603D02*
X111967618Y-54409080D01*
X111967618Y-54409080D02*
X112028095Y-54530032D01*
X112028095Y-54530032D02*
X112028095Y-54832413D01*
X112028095Y-54832413D02*
X111967618Y-54953365D01*
X111967618Y-54953365D02*
X111907142Y-55013842D01*
X111907142Y-55013842D02*
X111786190Y-55074318D01*
X111786190Y-55074318D02*
X111483809Y-55074318D01*
X111483809Y-55074318D02*
X111362856Y-55013842D01*
X111362856Y-55013842D02*
X111302380Y-54953365D01*
D10*
X116709580Y-37096666D02*
X116757200Y-37144285D01*
X116757200Y-37144285D02*
X116804819Y-37287142D01*
X116804819Y-37287142D02*
X116804819Y-37382380D01*
X116804819Y-37382380D02*
X116757200Y-37525237D01*
X116757200Y-37525237D02*
X116661961Y-37620475D01*
X116661961Y-37620475D02*
X116566723Y-37668094D01*
X116566723Y-37668094D02*
X116376247Y-37715713D01*
X116376247Y-37715713D02*
X116233390Y-37715713D01*
X116233390Y-37715713D02*
X116042914Y-37668094D01*
X116042914Y-37668094D02*
X115947676Y-37620475D01*
X115947676Y-37620475D02*
X115852438Y-37525237D01*
X115852438Y-37525237D02*
X115804819Y-37382380D01*
X115804819Y-37382380D02*
X115804819Y-37287142D01*
X115804819Y-37287142D02*
X115852438Y-37144285D01*
X115852438Y-37144285D02*
X115900057Y-37096666D01*
X116804819Y-36620475D02*
X116804819Y-36429999D01*
X116804819Y-36429999D02*
X116757200Y-36334761D01*
X116757200Y-36334761D02*
X116709580Y-36287142D01*
X116709580Y-36287142D02*
X116566723Y-36191904D01*
X116566723Y-36191904D02*
X116376247Y-36144285D01*
X116376247Y-36144285D02*
X115995295Y-36144285D01*
X115995295Y-36144285D02*
X115900057Y-36191904D01*
X115900057Y-36191904D02*
X115852438Y-36239523D01*
X115852438Y-36239523D02*
X115804819Y-36334761D01*
X115804819Y-36334761D02*
X115804819Y-36525237D01*
X115804819Y-36525237D02*
X115852438Y-36620475D01*
X115852438Y-36620475D02*
X115900057Y-36668094D01*
X115900057Y-36668094D02*
X115995295Y-36715713D01*
X115995295Y-36715713D02*
X116233390Y-36715713D01*
X116233390Y-36715713D02*
X116328628Y-36668094D01*
X116328628Y-36668094D02*
X116376247Y-36620475D01*
X116376247Y-36620475D02*
X116423866Y-36525237D01*
X116423866Y-36525237D02*
X116423866Y-36334761D01*
X116423866Y-36334761D02*
X116376247Y-36239523D01*
X116376247Y-36239523D02*
X116328628Y-36191904D01*
X116328628Y-36191904D02*
X116233390Y-36144285D01*
X117254819Y-117349433D02*
X117969104Y-117349433D01*
X117969104Y-117349433D02*
X118111961Y-117397052D01*
X118111961Y-117397052D02*
X118207200Y-117492290D01*
X118207200Y-117492290D02*
X118254819Y-117635147D01*
X118254819Y-117635147D02*
X118254819Y-117730385D01*
X117254819Y-116444671D02*
X117254819Y-116635147D01*
X117254819Y-116635147D02*
X117302438Y-116730385D01*
X117302438Y-116730385D02*
X117350057Y-116778004D01*
X117350057Y-116778004D02*
X117492914Y-116873242D01*
X117492914Y-116873242D02*
X117683390Y-116920861D01*
X117683390Y-116920861D02*
X118064342Y-116920861D01*
X118064342Y-116920861D02*
X118159580Y-116873242D01*
X118159580Y-116873242D02*
X118207200Y-116825623D01*
X118207200Y-116825623D02*
X118254819Y-116730385D01*
X118254819Y-116730385D02*
X118254819Y-116539909D01*
X118254819Y-116539909D02*
X118207200Y-116444671D01*
X118207200Y-116444671D02*
X118159580Y-116397052D01*
X118159580Y-116397052D02*
X118064342Y-116349433D01*
X118064342Y-116349433D02*
X117826247Y-116349433D01*
X117826247Y-116349433D02*
X117731009Y-116397052D01*
X117731009Y-116397052D02*
X117683390Y-116444671D01*
X117683390Y-116444671D02*
X117635771Y-116539909D01*
X117635771Y-116539909D02*
X117635771Y-116730385D01*
X117635771Y-116730385D02*
X117683390Y-116825623D01*
X117683390Y-116825623D02*
X117731009Y-116873242D01*
X117731009Y-116873242D02*
X117826247Y-116920861D01*
X114257142Y-64919580D02*
X114209523Y-64967200D01*
X114209523Y-64967200D02*
X114066666Y-65014819D01*
X114066666Y-65014819D02*
X113971428Y-65014819D01*
X113971428Y-65014819D02*
X113828571Y-64967200D01*
X113828571Y-64967200D02*
X113733333Y-64871961D01*
X113733333Y-64871961D02*
X113685714Y-64776723D01*
X113685714Y-64776723D02*
X113638095Y-64586247D01*
X113638095Y-64586247D02*
X113638095Y-64443390D01*
X113638095Y-64443390D02*
X113685714Y-64252914D01*
X113685714Y-64252914D02*
X113733333Y-64157676D01*
X113733333Y-64157676D02*
X113828571Y-64062438D01*
X113828571Y-64062438D02*
X113971428Y-64014819D01*
X113971428Y-64014819D02*
X114066666Y-64014819D01*
X114066666Y-64014819D02*
X114209523Y-64062438D01*
X114209523Y-64062438D02*
X114257142Y-64110057D01*
X115209523Y-65014819D02*
X114638095Y-65014819D01*
X114923809Y-65014819D02*
X114923809Y-64014819D01*
X114923809Y-64014819D02*
X114828571Y-64157676D01*
X114828571Y-64157676D02*
X114733333Y-64252914D01*
X114733333Y-64252914D02*
X114638095Y-64300533D01*
X115685714Y-65014819D02*
X115876190Y-65014819D01*
X115876190Y-65014819D02*
X115971428Y-64967200D01*
X115971428Y-64967200D02*
X116019047Y-64919580D01*
X116019047Y-64919580D02*
X116114285Y-64776723D01*
X116114285Y-64776723D02*
X116161904Y-64586247D01*
X116161904Y-64586247D02*
X116161904Y-64205295D01*
X116161904Y-64205295D02*
X116114285Y-64110057D01*
X116114285Y-64110057D02*
X116066666Y-64062438D01*
X116066666Y-64062438D02*
X115971428Y-64014819D01*
X115971428Y-64014819D02*
X115780952Y-64014819D01*
X115780952Y-64014819D02*
X115685714Y-64062438D01*
X115685714Y-64062438D02*
X115638095Y-64110057D01*
X115638095Y-64110057D02*
X115590476Y-64205295D01*
X115590476Y-64205295D02*
X115590476Y-64443390D01*
X115590476Y-64443390D02*
X115638095Y-64538628D01*
X115638095Y-64538628D02*
X115685714Y-64586247D01*
X115685714Y-64586247D02*
X115780952Y-64633866D01*
X115780952Y-64633866D02*
X115971428Y-64633866D01*
X115971428Y-64633866D02*
X116066666Y-64586247D01*
X116066666Y-64586247D02*
X116114285Y-64538628D01*
X116114285Y-64538628D02*
X116161904Y-64443390D01*
D11*
X110879047Y-39995270D02*
X110758095Y-39934794D01*
X110758095Y-39934794D02*
X110637142Y-39813842D01*
X110637142Y-39813842D02*
X110455714Y-39632413D01*
X110455714Y-39632413D02*
X110334761Y-39571937D01*
X110334761Y-39571937D02*
X110213809Y-39571937D01*
X110274285Y-39874318D02*
X110153333Y-39813842D01*
X110153333Y-39813842D02*
X110032380Y-39692889D01*
X110032380Y-39692889D02*
X109971904Y-39450984D01*
X109971904Y-39450984D02*
X109971904Y-39027651D01*
X109971904Y-39027651D02*
X110032380Y-38785746D01*
X110032380Y-38785746D02*
X110153333Y-38664794D01*
X110153333Y-38664794D02*
X110274285Y-38604318D01*
X110274285Y-38604318D02*
X110516190Y-38604318D01*
X110516190Y-38604318D02*
X110637142Y-38664794D01*
X110637142Y-38664794D02*
X110758095Y-38785746D01*
X110758095Y-38785746D02*
X110818571Y-39027651D01*
X110818571Y-39027651D02*
X110818571Y-39450984D01*
X110818571Y-39450984D02*
X110758095Y-39692889D01*
X110758095Y-39692889D02*
X110637142Y-39813842D01*
X110637142Y-39813842D02*
X110516190Y-39874318D01*
X110516190Y-39874318D02*
X110274285Y-39874318D01*
X111907142Y-38604318D02*
X111665237Y-38604318D01*
X111665237Y-38604318D02*
X111544285Y-38664794D01*
X111544285Y-38664794D02*
X111483809Y-38725270D01*
X111483809Y-38725270D02*
X111362856Y-38906699D01*
X111362856Y-38906699D02*
X111302380Y-39148603D01*
X111302380Y-39148603D02*
X111302380Y-39632413D01*
X111302380Y-39632413D02*
X111362856Y-39753365D01*
X111362856Y-39753365D02*
X111423333Y-39813842D01*
X111423333Y-39813842D02*
X111544285Y-39874318D01*
X111544285Y-39874318D02*
X111786190Y-39874318D01*
X111786190Y-39874318D02*
X111907142Y-39813842D01*
X111907142Y-39813842D02*
X111967618Y-39753365D01*
X111967618Y-39753365D02*
X112028095Y-39632413D01*
X112028095Y-39632413D02*
X112028095Y-39330032D01*
X112028095Y-39330032D02*
X111967618Y-39209080D01*
X111967618Y-39209080D02*
X111907142Y-39148603D01*
X111907142Y-39148603D02*
X111786190Y-39088127D01*
X111786190Y-39088127D02*
X111544285Y-39088127D01*
X111544285Y-39088127D02*
X111423333Y-39148603D01*
X111423333Y-39148603D02*
X111362856Y-39209080D01*
X111362856Y-39209080D02*
X111302380Y-39330032D01*
D10*
X105209580Y-37636666D02*
X105257200Y-37684285D01*
X105257200Y-37684285D02*
X105304819Y-37827142D01*
X105304819Y-37827142D02*
X105304819Y-37922380D01*
X105304819Y-37922380D02*
X105257200Y-38065237D01*
X105257200Y-38065237D02*
X105161961Y-38160475D01*
X105161961Y-38160475D02*
X105066723Y-38208094D01*
X105066723Y-38208094D02*
X104876247Y-38255713D01*
X104876247Y-38255713D02*
X104733390Y-38255713D01*
X104733390Y-38255713D02*
X104542914Y-38208094D01*
X104542914Y-38208094D02*
X104447676Y-38160475D01*
X104447676Y-38160475D02*
X104352438Y-38065237D01*
X104352438Y-38065237D02*
X104304819Y-37922380D01*
X104304819Y-37922380D02*
X104304819Y-37827142D01*
X104304819Y-37827142D02*
X104352438Y-37684285D01*
X104352438Y-37684285D02*
X104400057Y-37636666D01*
X104733390Y-37065237D02*
X104685771Y-37160475D01*
X104685771Y-37160475D02*
X104638152Y-37208094D01*
X104638152Y-37208094D02*
X104542914Y-37255713D01*
X104542914Y-37255713D02*
X104495295Y-37255713D01*
X104495295Y-37255713D02*
X104400057Y-37208094D01*
X104400057Y-37208094D02*
X104352438Y-37160475D01*
X104352438Y-37160475D02*
X104304819Y-37065237D01*
X104304819Y-37065237D02*
X104304819Y-36874761D01*
X104304819Y-36874761D02*
X104352438Y-36779523D01*
X104352438Y-36779523D02*
X104400057Y-36731904D01*
X104400057Y-36731904D02*
X104495295Y-36684285D01*
X104495295Y-36684285D02*
X104542914Y-36684285D01*
X104542914Y-36684285D02*
X104638152Y-36731904D01*
X104638152Y-36731904D02*
X104685771Y-36779523D01*
X104685771Y-36779523D02*
X104733390Y-36874761D01*
X104733390Y-36874761D02*
X104733390Y-37065237D01*
X104733390Y-37065237D02*
X104781009Y-37160475D01*
X104781009Y-37160475D02*
X104828628Y-37208094D01*
X104828628Y-37208094D02*
X104923866Y-37255713D01*
X104923866Y-37255713D02*
X105114342Y-37255713D01*
X105114342Y-37255713D02*
X105209580Y-37208094D01*
X105209580Y-37208094D02*
X105257200Y-37160475D01*
X105257200Y-37160475D02*
X105304819Y-37065237D01*
X105304819Y-37065237D02*
X105304819Y-36874761D01*
X105304819Y-36874761D02*
X105257200Y-36779523D01*
X105257200Y-36779523D02*
X105209580Y-36731904D01*
X105209580Y-36731904D02*
X105114342Y-36684285D01*
X105114342Y-36684285D02*
X104923866Y-36684285D01*
X104923866Y-36684285D02*
X104828628Y-36731904D01*
X104828628Y-36731904D02*
X104781009Y-36779523D01*
X104781009Y-36779523D02*
X104733390Y-36874761D01*
X121654819Y-117393333D02*
X122369104Y-117393333D01*
X122369104Y-117393333D02*
X122511961Y-117440952D01*
X122511961Y-117440952D02*
X122607200Y-117536190D01*
X122607200Y-117536190D02*
X122654819Y-117679047D01*
X122654819Y-117679047D02*
X122654819Y-117774285D01*
X121654819Y-117012380D02*
X121654819Y-116345714D01*
X121654819Y-116345714D02*
X122654819Y-116774285D01*
X123484819Y-93606666D02*
X123008628Y-93939999D01*
X123484819Y-94178094D02*
X122484819Y-94178094D01*
X122484819Y-94178094D02*
X122484819Y-93797142D01*
X122484819Y-93797142D02*
X122532438Y-93701904D01*
X122532438Y-93701904D02*
X122580057Y-93654285D01*
X122580057Y-93654285D02*
X122675295Y-93606666D01*
X122675295Y-93606666D02*
X122818152Y-93606666D01*
X122818152Y-93606666D02*
X122913390Y-93654285D01*
X122913390Y-93654285D02*
X122961009Y-93701904D01*
X122961009Y-93701904D02*
X123008628Y-93797142D01*
X123008628Y-93797142D02*
X123008628Y-94178094D01*
X123484819Y-92654285D02*
X123484819Y-93225713D01*
X123484819Y-92939999D02*
X122484819Y-92939999D01*
X122484819Y-92939999D02*
X122627676Y-93035237D01*
X122627676Y-93035237D02*
X122722914Y-93130475D01*
X122722914Y-93130475D02*
X122770533Y-93225713D01*
D11*
X99379047Y-40195270D02*
X99258095Y-40134794D01*
X99258095Y-40134794D02*
X99137142Y-40013842D01*
X99137142Y-40013842D02*
X98955714Y-39832413D01*
X98955714Y-39832413D02*
X98834761Y-39771937D01*
X98834761Y-39771937D02*
X98713809Y-39771937D01*
X98774285Y-40074318D02*
X98653333Y-40013842D01*
X98653333Y-40013842D02*
X98532380Y-39892889D01*
X98532380Y-39892889D02*
X98471904Y-39650984D01*
X98471904Y-39650984D02*
X98471904Y-39227651D01*
X98471904Y-39227651D02*
X98532380Y-38985746D01*
X98532380Y-38985746D02*
X98653333Y-38864794D01*
X98653333Y-38864794D02*
X98774285Y-38804318D01*
X98774285Y-38804318D02*
X99016190Y-38804318D01*
X99016190Y-38804318D02*
X99137142Y-38864794D01*
X99137142Y-38864794D02*
X99258095Y-38985746D01*
X99258095Y-38985746D02*
X99318571Y-39227651D01*
X99318571Y-39227651D02*
X99318571Y-39650984D01*
X99318571Y-39650984D02*
X99258095Y-39892889D01*
X99258095Y-39892889D02*
X99137142Y-40013842D01*
X99137142Y-40013842D02*
X99016190Y-40074318D01*
X99016190Y-40074318D02*
X98774285Y-40074318D01*
X99741904Y-38804318D02*
X100528095Y-38804318D01*
X100528095Y-38804318D02*
X100104761Y-39288127D01*
X100104761Y-39288127D02*
X100286190Y-39288127D01*
X100286190Y-39288127D02*
X100407142Y-39348603D01*
X100407142Y-39348603D02*
X100467618Y-39409080D01*
X100467618Y-39409080D02*
X100528095Y-39530032D01*
X100528095Y-39530032D02*
X100528095Y-39832413D01*
X100528095Y-39832413D02*
X100467618Y-39953365D01*
X100467618Y-39953365D02*
X100407142Y-40013842D01*
X100407142Y-40013842D02*
X100286190Y-40074318D01*
X100286190Y-40074318D02*
X99923333Y-40074318D01*
X99923333Y-40074318D02*
X99802380Y-40013842D01*
X99802380Y-40013842D02*
X99741904Y-39953365D01*
D10*
X98934819Y-29163333D02*
X99649104Y-29163333D01*
X99649104Y-29163333D02*
X99791961Y-29210952D01*
X99791961Y-29210952D02*
X99887200Y-29306190D01*
X99887200Y-29306190D02*
X99934819Y-29449047D01*
X99934819Y-29449047D02*
X99934819Y-29544285D01*
X99030057Y-28734761D02*
X98982438Y-28687142D01*
X98982438Y-28687142D02*
X98934819Y-28591904D01*
X98934819Y-28591904D02*
X98934819Y-28353809D01*
X98934819Y-28353809D02*
X98982438Y-28258571D01*
X98982438Y-28258571D02*
X99030057Y-28210952D01*
X99030057Y-28210952D02*
X99125295Y-28163333D01*
X99125295Y-28163333D02*
X99220533Y-28163333D01*
X99220533Y-28163333D02*
X99363390Y-28210952D01*
X99363390Y-28210952D02*
X99934819Y-28782380D01*
X99934819Y-28782380D02*
X99934819Y-28163333D01*
X112754819Y-106157004D02*
X113564342Y-106157004D01*
X113564342Y-106157004D02*
X113659580Y-106109385D01*
X113659580Y-106109385D02*
X113707200Y-106061766D01*
X113707200Y-106061766D02*
X113754819Y-105966528D01*
X113754819Y-105966528D02*
X113754819Y-105776052D01*
X113754819Y-105776052D02*
X113707200Y-105680814D01*
X113707200Y-105680814D02*
X113659580Y-105633195D01*
X113659580Y-105633195D02*
X113564342Y-105585576D01*
X113564342Y-105585576D02*
X112754819Y-105585576D01*
X113754819Y-104585576D02*
X113754819Y-105157004D01*
X113754819Y-104871290D02*
X112754819Y-104871290D01*
X112754819Y-104871290D02*
X112897676Y-104966528D01*
X112897676Y-104966528D02*
X112992914Y-105061766D01*
X112992914Y-105061766D02*
X113040533Y-105157004D01*
X120063333Y-104019580D02*
X120015714Y-104067200D01*
X120015714Y-104067200D02*
X119872857Y-104114819D01*
X119872857Y-104114819D02*
X119777619Y-104114819D01*
X119777619Y-104114819D02*
X119634762Y-104067200D01*
X119634762Y-104067200D02*
X119539524Y-103971961D01*
X119539524Y-103971961D02*
X119491905Y-103876723D01*
X119491905Y-103876723D02*
X119444286Y-103686247D01*
X119444286Y-103686247D02*
X119444286Y-103543390D01*
X119444286Y-103543390D02*
X119491905Y-103352914D01*
X119491905Y-103352914D02*
X119539524Y-103257676D01*
X119539524Y-103257676D02*
X119634762Y-103162438D01*
X119634762Y-103162438D02*
X119777619Y-103114819D01*
X119777619Y-103114819D02*
X119872857Y-103114819D01*
X119872857Y-103114819D02*
X120015714Y-103162438D01*
X120015714Y-103162438D02*
X120063333Y-103210057D01*
X120444286Y-103210057D02*
X120491905Y-103162438D01*
X120491905Y-103162438D02*
X120587143Y-103114819D01*
X120587143Y-103114819D02*
X120825238Y-103114819D01*
X120825238Y-103114819D02*
X120920476Y-103162438D01*
X120920476Y-103162438D02*
X120968095Y-103210057D01*
X120968095Y-103210057D02*
X121015714Y-103305295D01*
X121015714Y-103305295D02*
X121015714Y-103400533D01*
X121015714Y-103400533D02*
X120968095Y-103543390D01*
X120968095Y-103543390D02*
X120396667Y-104114819D01*
X120396667Y-104114819D02*
X121015714Y-104114819D01*
X101734819Y-81926666D02*
X101258628Y-82259999D01*
X101734819Y-82498094D02*
X100734819Y-82498094D01*
X100734819Y-82498094D02*
X100734819Y-82117142D01*
X100734819Y-82117142D02*
X100782438Y-82021904D01*
X100782438Y-82021904D02*
X100830057Y-81974285D01*
X100830057Y-81974285D02*
X100925295Y-81926666D01*
X100925295Y-81926666D02*
X101068152Y-81926666D01*
X101068152Y-81926666D02*
X101163390Y-81974285D01*
X101163390Y-81974285D02*
X101211009Y-82021904D01*
X101211009Y-82021904D02*
X101258628Y-82117142D01*
X101258628Y-82117142D02*
X101258628Y-82498094D01*
X100734819Y-81593332D02*
X100734819Y-80974285D01*
X100734819Y-80974285D02*
X101115771Y-81307618D01*
X101115771Y-81307618D02*
X101115771Y-81164761D01*
X101115771Y-81164761D02*
X101163390Y-81069523D01*
X101163390Y-81069523D02*
X101211009Y-81021904D01*
X101211009Y-81021904D02*
X101306247Y-80974285D01*
X101306247Y-80974285D02*
X101544342Y-80974285D01*
X101544342Y-80974285D02*
X101639580Y-81021904D01*
X101639580Y-81021904D02*
X101687200Y-81069523D01*
X101687200Y-81069523D02*
X101734819Y-81164761D01*
X101734819Y-81164761D02*
X101734819Y-81450475D01*
X101734819Y-81450475D02*
X101687200Y-81545713D01*
X101687200Y-81545713D02*
X101639580Y-81593332D01*
X103914819Y-47266666D02*
X103438628Y-47599999D01*
X103914819Y-47838094D02*
X102914819Y-47838094D01*
X102914819Y-47838094D02*
X102914819Y-47457142D01*
X102914819Y-47457142D02*
X102962438Y-47361904D01*
X102962438Y-47361904D02*
X103010057Y-47314285D01*
X103010057Y-47314285D02*
X103105295Y-47266666D01*
X103105295Y-47266666D02*
X103248152Y-47266666D01*
X103248152Y-47266666D02*
X103343390Y-47314285D01*
X103343390Y-47314285D02*
X103391009Y-47361904D01*
X103391009Y-47361904D02*
X103438628Y-47457142D01*
X103438628Y-47457142D02*
X103438628Y-47838094D01*
X103248152Y-46409523D02*
X103914819Y-46409523D01*
X102867200Y-46647618D02*
X103581485Y-46885713D01*
X103581485Y-46885713D02*
X103581485Y-46266666D01*
X115297142Y-69484819D02*
X114963809Y-69008628D01*
X114725714Y-69484819D02*
X114725714Y-68484819D01*
X114725714Y-68484819D02*
X115106666Y-68484819D01*
X115106666Y-68484819D02*
X115201904Y-68532438D01*
X115201904Y-68532438D02*
X115249523Y-68580057D01*
X115249523Y-68580057D02*
X115297142Y-68675295D01*
X115297142Y-68675295D02*
X115297142Y-68818152D01*
X115297142Y-68818152D02*
X115249523Y-68913390D01*
X115249523Y-68913390D02*
X115201904Y-68961009D01*
X115201904Y-68961009D02*
X115106666Y-69008628D01*
X115106666Y-69008628D02*
X114725714Y-69008628D01*
X116249523Y-69484819D02*
X115678095Y-69484819D01*
X115963809Y-69484819D02*
X115963809Y-68484819D01*
X115963809Y-68484819D02*
X115868571Y-68627676D01*
X115868571Y-68627676D02*
X115773333Y-68722914D01*
X115773333Y-68722914D02*
X115678095Y-68770533D01*
X116582857Y-68484819D02*
X117249523Y-68484819D01*
X117249523Y-68484819D02*
X116820952Y-69484819D01*
X105863333Y-75954819D02*
X105387143Y-75954819D01*
X105387143Y-75954819D02*
X105387143Y-74954819D01*
X106149048Y-75050057D02*
X106196667Y-75002438D01*
X106196667Y-75002438D02*
X106291905Y-74954819D01*
X106291905Y-74954819D02*
X106530000Y-74954819D01*
X106530000Y-74954819D02*
X106625238Y-75002438D01*
X106625238Y-75002438D02*
X106672857Y-75050057D01*
X106672857Y-75050057D02*
X106720476Y-75145295D01*
X106720476Y-75145295D02*
X106720476Y-75240533D01*
X106720476Y-75240533D02*
X106672857Y-75383390D01*
X106672857Y-75383390D02*
X106101429Y-75954819D01*
X106101429Y-75954819D02*
X106720476Y-75954819D01*
X110574819Y-29173333D02*
X111289104Y-29173333D01*
X111289104Y-29173333D02*
X111431961Y-29220952D01*
X111431961Y-29220952D02*
X111527200Y-29316190D01*
X111527200Y-29316190D02*
X111574819Y-29459047D01*
X111574819Y-29459047D02*
X111574819Y-29554285D01*
X110908152Y-28268571D02*
X111574819Y-28268571D01*
X110527200Y-28506666D02*
X111241485Y-28744761D01*
X111241485Y-28744761D02*
X111241485Y-28125714D01*
D11*
X122379047Y-55195270D02*
X122258095Y-55134794D01*
X122258095Y-55134794D02*
X122137142Y-55013842D01*
X122137142Y-55013842D02*
X121955714Y-54832413D01*
X121955714Y-54832413D02*
X121834761Y-54771937D01*
X121834761Y-54771937D02*
X121713809Y-54771937D01*
X121774285Y-55074318D02*
X121653333Y-55013842D01*
X121653333Y-55013842D02*
X121532380Y-54892889D01*
X121532380Y-54892889D02*
X121471904Y-54650984D01*
X121471904Y-54650984D02*
X121471904Y-54227651D01*
X121471904Y-54227651D02*
X121532380Y-53985746D01*
X121532380Y-53985746D02*
X121653333Y-53864794D01*
X121653333Y-53864794D02*
X121774285Y-53804318D01*
X121774285Y-53804318D02*
X122016190Y-53804318D01*
X122016190Y-53804318D02*
X122137142Y-53864794D01*
X122137142Y-53864794D02*
X122258095Y-53985746D01*
X122258095Y-53985746D02*
X122318571Y-54227651D01*
X122318571Y-54227651D02*
X122318571Y-54650984D01*
X122318571Y-54650984D02*
X122258095Y-54892889D01*
X122258095Y-54892889D02*
X122137142Y-55013842D01*
X122137142Y-55013842D02*
X122016190Y-55074318D01*
X122016190Y-55074318D02*
X121774285Y-55074318D01*
X122923333Y-55074318D02*
X123165237Y-55074318D01*
X123165237Y-55074318D02*
X123286190Y-55013842D01*
X123286190Y-55013842D02*
X123346666Y-54953365D01*
X123346666Y-54953365D02*
X123467618Y-54771937D01*
X123467618Y-54771937D02*
X123528095Y-54530032D01*
X123528095Y-54530032D02*
X123528095Y-54046222D01*
X123528095Y-54046222D02*
X123467618Y-53925270D01*
X123467618Y-53925270D02*
X123407142Y-53864794D01*
X123407142Y-53864794D02*
X123286190Y-53804318D01*
X123286190Y-53804318D02*
X123044285Y-53804318D01*
X123044285Y-53804318D02*
X122923333Y-53864794D01*
X122923333Y-53864794D02*
X122862856Y-53925270D01*
X122862856Y-53925270D02*
X122802380Y-54046222D01*
X122802380Y-54046222D02*
X122802380Y-54348603D01*
X122802380Y-54348603D02*
X122862856Y-54469556D01*
X122862856Y-54469556D02*
X122923333Y-54530032D01*
X122923333Y-54530032D02*
X123044285Y-54590508D01*
X123044285Y-54590508D02*
X123286190Y-54590508D01*
X123286190Y-54590508D02*
X123407142Y-54530032D01*
X123407142Y-54530032D02*
X123467618Y-54469556D01*
X123467618Y-54469556D02*
X123528095Y-54348603D01*
D10*
X115634819Y-47176666D02*
X115158628Y-47509999D01*
X115634819Y-47748094D02*
X114634819Y-47748094D01*
X114634819Y-47748094D02*
X114634819Y-47367142D01*
X114634819Y-47367142D02*
X114682438Y-47271904D01*
X114682438Y-47271904D02*
X114730057Y-47224285D01*
X114730057Y-47224285D02*
X114825295Y-47176666D01*
X114825295Y-47176666D02*
X114968152Y-47176666D01*
X114968152Y-47176666D02*
X115063390Y-47224285D01*
X115063390Y-47224285D02*
X115111009Y-47271904D01*
X115111009Y-47271904D02*
X115158628Y-47367142D01*
X115158628Y-47367142D02*
X115158628Y-47748094D01*
X115063390Y-46605237D02*
X115015771Y-46700475D01*
X115015771Y-46700475D02*
X114968152Y-46748094D01*
X114968152Y-46748094D02*
X114872914Y-46795713D01*
X114872914Y-46795713D02*
X114825295Y-46795713D01*
X114825295Y-46795713D02*
X114730057Y-46748094D01*
X114730057Y-46748094D02*
X114682438Y-46700475D01*
X114682438Y-46700475D02*
X114634819Y-46605237D01*
X114634819Y-46605237D02*
X114634819Y-46414761D01*
X114634819Y-46414761D02*
X114682438Y-46319523D01*
X114682438Y-46319523D02*
X114730057Y-46271904D01*
X114730057Y-46271904D02*
X114825295Y-46224285D01*
X114825295Y-46224285D02*
X114872914Y-46224285D01*
X114872914Y-46224285D02*
X114968152Y-46271904D01*
X114968152Y-46271904D02*
X115015771Y-46319523D01*
X115015771Y-46319523D02*
X115063390Y-46414761D01*
X115063390Y-46414761D02*
X115063390Y-46605237D01*
X115063390Y-46605237D02*
X115111009Y-46700475D01*
X115111009Y-46700475D02*
X115158628Y-46748094D01*
X115158628Y-46748094D02*
X115253866Y-46795713D01*
X115253866Y-46795713D02*
X115444342Y-46795713D01*
X115444342Y-46795713D02*
X115539580Y-46748094D01*
X115539580Y-46748094D02*
X115587200Y-46700475D01*
X115587200Y-46700475D02*
X115634819Y-46605237D01*
X115634819Y-46605237D02*
X115634819Y-46414761D01*
X115634819Y-46414761D02*
X115587200Y-46319523D01*
X115587200Y-46319523D02*
X115539580Y-46271904D01*
X115539580Y-46271904D02*
X115444342Y-46224285D01*
X115444342Y-46224285D02*
X115253866Y-46224285D01*
X115253866Y-46224285D02*
X115158628Y-46271904D01*
X115158628Y-46271904D02*
X115111009Y-46319523D01*
X115111009Y-46319523D02*
X115063390Y-46414761D01*
D11*
X99379047Y-55195270D02*
X99258095Y-55134794D01*
X99258095Y-55134794D02*
X99137142Y-55013842D01*
X99137142Y-55013842D02*
X98955714Y-54832413D01*
X98955714Y-54832413D02*
X98834761Y-54771937D01*
X98834761Y-54771937D02*
X98713809Y-54771937D01*
X98774285Y-55074318D02*
X98653333Y-55013842D01*
X98653333Y-55013842D02*
X98532380Y-54892889D01*
X98532380Y-54892889D02*
X98471904Y-54650984D01*
X98471904Y-54650984D02*
X98471904Y-54227651D01*
X98471904Y-54227651D02*
X98532380Y-53985746D01*
X98532380Y-53985746D02*
X98653333Y-53864794D01*
X98653333Y-53864794D02*
X98774285Y-53804318D01*
X98774285Y-53804318D02*
X99016190Y-53804318D01*
X99016190Y-53804318D02*
X99137142Y-53864794D01*
X99137142Y-53864794D02*
X99258095Y-53985746D01*
X99258095Y-53985746D02*
X99318571Y-54227651D01*
X99318571Y-54227651D02*
X99318571Y-54650984D01*
X99318571Y-54650984D02*
X99258095Y-54892889D01*
X99258095Y-54892889D02*
X99137142Y-55013842D01*
X99137142Y-55013842D02*
X99016190Y-55074318D01*
X99016190Y-55074318D02*
X98774285Y-55074318D01*
X100528095Y-55074318D02*
X99802380Y-55074318D01*
X100165237Y-55074318D02*
X100165237Y-53804318D01*
X100165237Y-53804318D02*
X100044285Y-53985746D01*
X100044285Y-53985746D02*
X99923333Y-54106699D01*
X99923333Y-54106699D02*
X99802380Y-54167175D01*
D10*
X123783333Y-72124819D02*
X123450000Y-71648628D01*
X123211905Y-72124819D02*
X123211905Y-71124819D01*
X123211905Y-71124819D02*
X123592857Y-71124819D01*
X123592857Y-71124819D02*
X123688095Y-71172438D01*
X123688095Y-71172438D02*
X123735714Y-71220057D01*
X123735714Y-71220057D02*
X123783333Y-71315295D01*
X123783333Y-71315295D02*
X123783333Y-71458152D01*
X123783333Y-71458152D02*
X123735714Y-71553390D01*
X123735714Y-71553390D02*
X123688095Y-71601009D01*
X123688095Y-71601009D02*
X123592857Y-71648628D01*
X123592857Y-71648628D02*
X123211905Y-71648628D01*
X124116667Y-71124819D02*
X124783333Y-71124819D01*
X124783333Y-71124819D02*
X124354762Y-72124819D01*
X109277142Y-74029580D02*
X109229523Y-74077200D01*
X109229523Y-74077200D02*
X109086666Y-74124819D01*
X109086666Y-74124819D02*
X108991428Y-74124819D01*
X108991428Y-74124819D02*
X108848571Y-74077200D01*
X108848571Y-74077200D02*
X108753333Y-73981961D01*
X108753333Y-73981961D02*
X108705714Y-73886723D01*
X108705714Y-73886723D02*
X108658095Y-73696247D01*
X108658095Y-73696247D02*
X108658095Y-73553390D01*
X108658095Y-73553390D02*
X108705714Y-73362914D01*
X108705714Y-73362914D02*
X108753333Y-73267676D01*
X108753333Y-73267676D02*
X108848571Y-73172438D01*
X108848571Y-73172438D02*
X108991428Y-73124819D01*
X108991428Y-73124819D02*
X109086666Y-73124819D01*
X109086666Y-73124819D02*
X109229523Y-73172438D01*
X109229523Y-73172438D02*
X109277142Y-73220057D01*
X109658095Y-73220057D02*
X109705714Y-73172438D01*
X109705714Y-73172438D02*
X109800952Y-73124819D01*
X109800952Y-73124819D02*
X110039047Y-73124819D01*
X110039047Y-73124819D02*
X110134285Y-73172438D01*
X110134285Y-73172438D02*
X110181904Y-73220057D01*
X110181904Y-73220057D02*
X110229523Y-73315295D01*
X110229523Y-73315295D02*
X110229523Y-73410533D01*
X110229523Y-73410533D02*
X110181904Y-73553390D01*
X110181904Y-73553390D02*
X109610476Y-74124819D01*
X109610476Y-74124819D02*
X110229523Y-74124819D01*
X111181904Y-74124819D02*
X110610476Y-74124819D01*
X110896190Y-74124819D02*
X110896190Y-73124819D01*
X110896190Y-73124819D02*
X110800952Y-73267676D01*
X110800952Y-73267676D02*
X110705714Y-73362914D01*
X110705714Y-73362914D02*
X110610476Y-73410533D01*
X105179580Y-66282857D02*
X105227200Y-66330476D01*
X105227200Y-66330476D02*
X105274819Y-66473333D01*
X105274819Y-66473333D02*
X105274819Y-66568571D01*
X105274819Y-66568571D02*
X105227200Y-66711428D01*
X105227200Y-66711428D02*
X105131961Y-66806666D01*
X105131961Y-66806666D02*
X105036723Y-66854285D01*
X105036723Y-66854285D02*
X104846247Y-66901904D01*
X104846247Y-66901904D02*
X104703390Y-66901904D01*
X104703390Y-66901904D02*
X104512914Y-66854285D01*
X104512914Y-66854285D02*
X104417676Y-66806666D01*
X104417676Y-66806666D02*
X104322438Y-66711428D01*
X104322438Y-66711428D02*
X104274819Y-66568571D01*
X104274819Y-66568571D02*
X104274819Y-66473333D01*
X104274819Y-66473333D02*
X104322438Y-66330476D01*
X104322438Y-66330476D02*
X104370057Y-66282857D01*
X104370057Y-65901904D02*
X104322438Y-65854285D01*
X104322438Y-65854285D02*
X104274819Y-65759047D01*
X104274819Y-65759047D02*
X104274819Y-65520952D01*
X104274819Y-65520952D02*
X104322438Y-65425714D01*
X104322438Y-65425714D02*
X104370057Y-65378095D01*
X104370057Y-65378095D02*
X104465295Y-65330476D01*
X104465295Y-65330476D02*
X104560533Y-65330476D01*
X104560533Y-65330476D02*
X104703390Y-65378095D01*
X104703390Y-65378095D02*
X105274819Y-65949523D01*
X105274819Y-65949523D02*
X105274819Y-65330476D01*
X104370057Y-64949523D02*
X104322438Y-64901904D01*
X104322438Y-64901904D02*
X104274819Y-64806666D01*
X104274819Y-64806666D02*
X104274819Y-64568571D01*
X104274819Y-64568571D02*
X104322438Y-64473333D01*
X104322438Y-64473333D02*
X104370057Y-64425714D01*
X104370057Y-64425714D02*
X104465295Y-64378095D01*
X104465295Y-64378095D02*
X104560533Y-64378095D01*
X104560533Y-64378095D02*
X104703390Y-64425714D01*
X104703390Y-64425714D02*
X105274819Y-64997142D01*
X105274819Y-64997142D02*
X105274819Y-64378095D01*
X119063333Y-76028276D02*
X118758571Y-76028276D01*
X118758571Y-76028276D02*
X118758571Y-75388276D01*
X119611905Y-76028276D02*
X119246190Y-76028276D01*
X119429047Y-76028276D02*
X119429047Y-75388276D01*
X119429047Y-75388276D02*
X119368095Y-75479704D01*
X119368095Y-75479704D02*
X119307143Y-75540657D01*
X119307143Y-75540657D02*
X119246190Y-75571133D01*
X127019580Y-77372857D02*
X127067200Y-77420476D01*
X127067200Y-77420476D02*
X127114819Y-77563333D01*
X127114819Y-77563333D02*
X127114819Y-77658571D01*
X127114819Y-77658571D02*
X127067200Y-77801428D01*
X127067200Y-77801428D02*
X126971961Y-77896666D01*
X126971961Y-77896666D02*
X126876723Y-77944285D01*
X126876723Y-77944285D02*
X126686247Y-77991904D01*
X126686247Y-77991904D02*
X126543390Y-77991904D01*
X126543390Y-77991904D02*
X126352914Y-77944285D01*
X126352914Y-77944285D02*
X126257676Y-77896666D01*
X126257676Y-77896666D02*
X126162438Y-77801428D01*
X126162438Y-77801428D02*
X126114819Y-77658571D01*
X126114819Y-77658571D02*
X126114819Y-77563333D01*
X126114819Y-77563333D02*
X126162438Y-77420476D01*
X126162438Y-77420476D02*
X126210057Y-77372857D01*
X127114819Y-76420476D02*
X127114819Y-76991904D01*
X127114819Y-76706190D02*
X126114819Y-76706190D01*
X126114819Y-76706190D02*
X126257676Y-76801428D01*
X126257676Y-76801428D02*
X126352914Y-76896666D01*
X126352914Y-76896666D02*
X126400533Y-76991904D01*
X126448152Y-75563333D02*
X127114819Y-75563333D01*
X126067200Y-75801428D02*
X126781485Y-76039523D01*
X126781485Y-76039523D02*
X126781485Y-75420476D01*
X111074819Y-45406666D02*
X110598628Y-45739999D01*
X111074819Y-45978094D02*
X110074819Y-45978094D01*
X110074819Y-45978094D02*
X110074819Y-45597142D01*
X110074819Y-45597142D02*
X110122438Y-45501904D01*
X110122438Y-45501904D02*
X110170057Y-45454285D01*
X110170057Y-45454285D02*
X110265295Y-45406666D01*
X110265295Y-45406666D02*
X110408152Y-45406666D01*
X110408152Y-45406666D02*
X110503390Y-45454285D01*
X110503390Y-45454285D02*
X110551009Y-45501904D01*
X110551009Y-45501904D02*
X110598628Y-45597142D01*
X110598628Y-45597142D02*
X110598628Y-45978094D01*
X111074819Y-44930475D02*
X111074819Y-44739999D01*
X111074819Y-44739999D02*
X111027200Y-44644761D01*
X111027200Y-44644761D02*
X110979580Y-44597142D01*
X110979580Y-44597142D02*
X110836723Y-44501904D01*
X110836723Y-44501904D02*
X110646247Y-44454285D01*
X110646247Y-44454285D02*
X110265295Y-44454285D01*
X110265295Y-44454285D02*
X110170057Y-44501904D01*
X110170057Y-44501904D02*
X110122438Y-44549523D01*
X110122438Y-44549523D02*
X110074819Y-44644761D01*
X110074819Y-44644761D02*
X110074819Y-44835237D01*
X110074819Y-44835237D02*
X110122438Y-44930475D01*
X110122438Y-44930475D02*
X110170057Y-44978094D01*
X110170057Y-44978094D02*
X110265295Y-45025713D01*
X110265295Y-45025713D02*
X110503390Y-45025713D01*
X110503390Y-45025713D02*
X110598628Y-44978094D01*
X110598628Y-44978094D02*
X110646247Y-44930475D01*
X110646247Y-44930475D02*
X110693866Y-44835237D01*
X110693866Y-44835237D02*
X110693866Y-44644761D01*
X110693866Y-44644761D02*
X110646247Y-44549523D01*
X110646247Y-44549523D02*
X110598628Y-44501904D01*
X110598628Y-44501904D02*
X110503390Y-44454285D01*
X125207142Y-73274819D02*
X124873809Y-72798628D01*
X124635714Y-73274819D02*
X124635714Y-72274819D01*
X124635714Y-72274819D02*
X125016666Y-72274819D01*
X125016666Y-72274819D02*
X125111904Y-72322438D01*
X125111904Y-72322438D02*
X125159523Y-72370057D01*
X125159523Y-72370057D02*
X125207142Y-72465295D01*
X125207142Y-72465295D02*
X125207142Y-72608152D01*
X125207142Y-72608152D02*
X125159523Y-72703390D01*
X125159523Y-72703390D02*
X125111904Y-72751009D01*
X125111904Y-72751009D02*
X125016666Y-72798628D01*
X125016666Y-72798628D02*
X124635714Y-72798628D01*
X126159523Y-73274819D02*
X125588095Y-73274819D01*
X125873809Y-73274819D02*
X125873809Y-72274819D01*
X125873809Y-72274819D02*
X125778571Y-72417676D01*
X125778571Y-72417676D02*
X125683333Y-72512914D01*
X125683333Y-72512914D02*
X125588095Y-72560533D01*
X126778571Y-72274819D02*
X126873809Y-72274819D01*
X126873809Y-72274819D02*
X126969047Y-72322438D01*
X126969047Y-72322438D02*
X127016666Y-72370057D01*
X127016666Y-72370057D02*
X127064285Y-72465295D01*
X127064285Y-72465295D02*
X127111904Y-72655771D01*
X127111904Y-72655771D02*
X127111904Y-72893866D01*
X127111904Y-72893866D02*
X127064285Y-73084342D01*
X127064285Y-73084342D02*
X127016666Y-73179580D01*
X127016666Y-73179580D02*
X126969047Y-73227200D01*
X126969047Y-73227200D02*
X126873809Y-73274819D01*
X126873809Y-73274819D02*
X126778571Y-73274819D01*
X126778571Y-73274819D02*
X126683333Y-73227200D01*
X126683333Y-73227200D02*
X126635714Y-73179580D01*
X126635714Y-73179580D02*
X126588095Y-73084342D01*
X126588095Y-73084342D02*
X126540476Y-72893866D01*
X126540476Y-72893866D02*
X126540476Y-72655771D01*
X126540476Y-72655771D02*
X126588095Y-72465295D01*
X126588095Y-72465295D02*
X126635714Y-72370057D01*
X126635714Y-72370057D02*
X126683333Y-72322438D01*
X126683333Y-72322438D02*
X126778571Y-72274819D01*
X93357142Y-86709580D02*
X93309523Y-86757200D01*
X93309523Y-86757200D02*
X93166666Y-86804819D01*
X93166666Y-86804819D02*
X93071428Y-86804819D01*
X93071428Y-86804819D02*
X92928571Y-86757200D01*
X92928571Y-86757200D02*
X92833333Y-86661961D01*
X92833333Y-86661961D02*
X92785714Y-86566723D01*
X92785714Y-86566723D02*
X92738095Y-86376247D01*
X92738095Y-86376247D02*
X92738095Y-86233390D01*
X92738095Y-86233390D02*
X92785714Y-86042914D01*
X92785714Y-86042914D02*
X92833333Y-85947676D01*
X92833333Y-85947676D02*
X92928571Y-85852438D01*
X92928571Y-85852438D02*
X93071428Y-85804819D01*
X93071428Y-85804819D02*
X93166666Y-85804819D01*
X93166666Y-85804819D02*
X93309523Y-85852438D01*
X93309523Y-85852438D02*
X93357142Y-85900057D01*
X94309523Y-86804819D02*
X93738095Y-86804819D01*
X94023809Y-86804819D02*
X94023809Y-85804819D01*
X94023809Y-85804819D02*
X93928571Y-85947676D01*
X93928571Y-85947676D02*
X93833333Y-86042914D01*
X93833333Y-86042914D02*
X93738095Y-86090533D01*
X95214285Y-85804819D02*
X94738095Y-85804819D01*
X94738095Y-85804819D02*
X94690476Y-86281009D01*
X94690476Y-86281009D02*
X94738095Y-86233390D01*
X94738095Y-86233390D02*
X94833333Y-86185771D01*
X94833333Y-86185771D02*
X95071428Y-86185771D01*
X95071428Y-86185771D02*
X95166666Y-86233390D01*
X95166666Y-86233390D02*
X95214285Y-86281009D01*
X95214285Y-86281009D02*
X95261904Y-86376247D01*
X95261904Y-86376247D02*
X95261904Y-86614342D01*
X95261904Y-86614342D02*
X95214285Y-86709580D01*
X95214285Y-86709580D02*
X95166666Y-86757200D01*
X95166666Y-86757200D02*
X95071428Y-86804819D01*
X95071428Y-86804819D02*
X94833333Y-86804819D01*
X94833333Y-86804819D02*
X94738095Y-86757200D01*
X94738095Y-86757200D02*
X94690476Y-86709580D01*
X106168400Y-69192819D02*
X106168400Y-69430914D01*
X105930305Y-69335676D02*
X106168400Y-69430914D01*
X106168400Y-69430914D02*
X106406495Y-69335676D01*
X106025543Y-69621390D02*
X106168400Y-69430914D01*
X106168400Y-69430914D02*
X106311257Y-69621390D01*
X106168400Y-69192819D02*
X106168400Y-69430914D01*
X105930305Y-69335676D02*
X106168400Y-69430914D01*
X106168400Y-69430914D02*
X106406495Y-69335676D01*
X106025543Y-69621390D02*
X106168400Y-69430914D01*
X106168400Y-69430914D02*
X106311257Y-69621390D01*
X122464819Y-44986666D02*
X121988628Y-45319999D01*
X122464819Y-45558094D02*
X121464819Y-45558094D01*
X121464819Y-45558094D02*
X121464819Y-45177142D01*
X121464819Y-45177142D02*
X121512438Y-45081904D01*
X121512438Y-45081904D02*
X121560057Y-45034285D01*
X121560057Y-45034285D02*
X121655295Y-44986666D01*
X121655295Y-44986666D02*
X121798152Y-44986666D01*
X121798152Y-44986666D02*
X121893390Y-45034285D01*
X121893390Y-45034285D02*
X121941009Y-45081904D01*
X121941009Y-45081904D02*
X121988628Y-45177142D01*
X121988628Y-45177142D02*
X121988628Y-45558094D01*
X121464819Y-44081904D02*
X121464819Y-44558094D01*
X121464819Y-44558094D02*
X121941009Y-44605713D01*
X121941009Y-44605713D02*
X121893390Y-44558094D01*
X121893390Y-44558094D02*
X121845771Y-44462856D01*
X121845771Y-44462856D02*
X121845771Y-44224761D01*
X121845771Y-44224761D02*
X121893390Y-44129523D01*
X121893390Y-44129523D02*
X121941009Y-44081904D01*
X121941009Y-44081904D02*
X122036247Y-44034285D01*
X122036247Y-44034285D02*
X122274342Y-44034285D01*
X122274342Y-44034285D02*
X122369580Y-44081904D01*
X122369580Y-44081904D02*
X122417200Y-44129523D01*
X122417200Y-44129523D02*
X122464819Y-44224761D01*
X122464819Y-44224761D02*
X122464819Y-44462856D01*
X122464819Y-44462856D02*
X122417200Y-44558094D01*
X122417200Y-44558094D02*
X122369580Y-44605713D01*
X128059580Y-36537857D02*
X128107200Y-36585476D01*
X128107200Y-36585476D02*
X128154819Y-36728333D01*
X128154819Y-36728333D02*
X128154819Y-36823571D01*
X128154819Y-36823571D02*
X128107200Y-36966428D01*
X128107200Y-36966428D02*
X128011961Y-37061666D01*
X128011961Y-37061666D02*
X127916723Y-37109285D01*
X127916723Y-37109285D02*
X127726247Y-37156904D01*
X127726247Y-37156904D02*
X127583390Y-37156904D01*
X127583390Y-37156904D02*
X127392914Y-37109285D01*
X127392914Y-37109285D02*
X127297676Y-37061666D01*
X127297676Y-37061666D02*
X127202438Y-36966428D01*
X127202438Y-36966428D02*
X127154819Y-36823571D01*
X127154819Y-36823571D02*
X127154819Y-36728333D01*
X127154819Y-36728333D02*
X127202438Y-36585476D01*
X127202438Y-36585476D02*
X127250057Y-36537857D01*
X128154819Y-35585476D02*
X128154819Y-36156904D01*
X128154819Y-35871190D02*
X127154819Y-35871190D01*
X127154819Y-35871190D02*
X127297676Y-35966428D01*
X127297676Y-35966428D02*
X127392914Y-36061666D01*
X127392914Y-36061666D02*
X127440533Y-36156904D01*
X127154819Y-34966428D02*
X127154819Y-34871190D01*
X127154819Y-34871190D02*
X127202438Y-34775952D01*
X127202438Y-34775952D02*
X127250057Y-34728333D01*
X127250057Y-34728333D02*
X127345295Y-34680714D01*
X127345295Y-34680714D02*
X127535771Y-34633095D01*
X127535771Y-34633095D02*
X127773866Y-34633095D01*
X127773866Y-34633095D02*
X127964342Y-34680714D01*
X127964342Y-34680714D02*
X128059580Y-34728333D01*
X128059580Y-34728333D02*
X128107200Y-34775952D01*
X128107200Y-34775952D02*
X128154819Y-34871190D01*
X128154819Y-34871190D02*
X128154819Y-34966428D01*
X128154819Y-34966428D02*
X128107200Y-35061666D01*
X128107200Y-35061666D02*
X128059580Y-35109285D01*
X128059580Y-35109285D02*
X127964342Y-35156904D01*
X127964342Y-35156904D02*
X127773866Y-35204523D01*
X127773866Y-35204523D02*
X127535771Y-35204523D01*
X127535771Y-35204523D02*
X127345295Y-35156904D01*
X127345295Y-35156904D02*
X127250057Y-35109285D01*
X127250057Y-35109285D02*
X127202438Y-35061666D01*
X127202438Y-35061666D02*
X127154819Y-34966428D01*
X91753333Y-118884819D02*
X91420000Y-118408628D01*
X91181905Y-118884819D02*
X91181905Y-117884819D01*
X91181905Y-117884819D02*
X91562857Y-117884819D01*
X91562857Y-117884819D02*
X91658095Y-117932438D01*
X91658095Y-117932438D02*
X91705714Y-117980057D01*
X91705714Y-117980057D02*
X91753333Y-118075295D01*
X91753333Y-118075295D02*
X91753333Y-118218152D01*
X91753333Y-118218152D02*
X91705714Y-118313390D01*
X91705714Y-118313390D02*
X91658095Y-118361009D01*
X91658095Y-118361009D02*
X91562857Y-118408628D01*
X91562857Y-118408628D02*
X91181905Y-118408628D01*
X92134286Y-117980057D02*
X92181905Y-117932438D01*
X92181905Y-117932438D02*
X92277143Y-117884819D01*
X92277143Y-117884819D02*
X92515238Y-117884819D01*
X92515238Y-117884819D02*
X92610476Y-117932438D01*
X92610476Y-117932438D02*
X92658095Y-117980057D01*
X92658095Y-117980057D02*
X92705714Y-118075295D01*
X92705714Y-118075295D02*
X92705714Y-118170533D01*
X92705714Y-118170533D02*
X92658095Y-118313390D01*
X92658095Y-118313390D02*
X92086667Y-118884819D01*
X92086667Y-118884819D02*
X92705714Y-118884819D01*
X122014819Y-29143333D02*
X122729104Y-29143333D01*
X122729104Y-29143333D02*
X122871961Y-29190952D01*
X122871961Y-29190952D02*
X122967200Y-29286190D01*
X122967200Y-29286190D02*
X123014819Y-29429047D01*
X123014819Y-29429047D02*
X123014819Y-29524285D01*
X122014819Y-28190952D02*
X122014819Y-28667142D01*
X122014819Y-28667142D02*
X122491009Y-28714761D01*
X122491009Y-28714761D02*
X122443390Y-28667142D01*
X122443390Y-28667142D02*
X122395771Y-28571904D01*
X122395771Y-28571904D02*
X122395771Y-28333809D01*
X122395771Y-28333809D02*
X122443390Y-28238571D01*
X122443390Y-28238571D02*
X122491009Y-28190952D01*
X122491009Y-28190952D02*
X122586247Y-28143333D01*
X122586247Y-28143333D02*
X122824342Y-28143333D01*
X122824342Y-28143333D02*
X122919580Y-28190952D01*
X122919580Y-28190952D02*
X122967200Y-28238571D01*
X122967200Y-28238571D02*
X123014819Y-28333809D01*
X123014819Y-28333809D02*
X123014819Y-28571904D01*
X123014819Y-28571904D02*
X122967200Y-28667142D01*
X122967200Y-28667142D02*
X122919580Y-28714761D01*
X99414819Y-45426666D02*
X98938628Y-45759999D01*
X99414819Y-45998094D02*
X98414819Y-45998094D01*
X98414819Y-45998094D02*
X98414819Y-45617142D01*
X98414819Y-45617142D02*
X98462438Y-45521904D01*
X98462438Y-45521904D02*
X98510057Y-45474285D01*
X98510057Y-45474285D02*
X98605295Y-45426666D01*
X98605295Y-45426666D02*
X98748152Y-45426666D01*
X98748152Y-45426666D02*
X98843390Y-45474285D01*
X98843390Y-45474285D02*
X98891009Y-45521904D01*
X98891009Y-45521904D02*
X98938628Y-45617142D01*
X98938628Y-45617142D02*
X98938628Y-45998094D01*
X98414819Y-44569523D02*
X98414819Y-44759999D01*
X98414819Y-44759999D02*
X98462438Y-44855237D01*
X98462438Y-44855237D02*
X98510057Y-44902856D01*
X98510057Y-44902856D02*
X98652914Y-44998094D01*
X98652914Y-44998094D02*
X98843390Y-45045713D01*
X98843390Y-45045713D02*
X99224342Y-45045713D01*
X99224342Y-45045713D02*
X99319580Y-44998094D01*
X99319580Y-44998094D02*
X99367200Y-44950475D01*
X99367200Y-44950475D02*
X99414819Y-44855237D01*
X99414819Y-44855237D02*
X99414819Y-44664761D01*
X99414819Y-44664761D02*
X99367200Y-44569523D01*
X99367200Y-44569523D02*
X99319580Y-44521904D01*
X99319580Y-44521904D02*
X99224342Y-44474285D01*
X99224342Y-44474285D02*
X98986247Y-44474285D01*
X98986247Y-44474285D02*
X98891009Y-44521904D01*
X98891009Y-44521904D02*
X98843390Y-44569523D01*
X98843390Y-44569523D02*
X98795771Y-44664761D01*
X98795771Y-44664761D02*
X98795771Y-44855237D01*
X98795771Y-44855237D02*
X98843390Y-44950475D01*
X98843390Y-44950475D02*
X98891009Y-44998094D01*
X98891009Y-44998094D02*
X98986247Y-45045713D01*
X103349580Y-81876666D02*
X103397200Y-81924285D01*
X103397200Y-81924285D02*
X103444819Y-82067142D01*
X103444819Y-82067142D02*
X103444819Y-82162380D01*
X103444819Y-82162380D02*
X103397200Y-82305237D01*
X103397200Y-82305237D02*
X103301961Y-82400475D01*
X103301961Y-82400475D02*
X103206723Y-82448094D01*
X103206723Y-82448094D02*
X103016247Y-82495713D01*
X103016247Y-82495713D02*
X102873390Y-82495713D01*
X102873390Y-82495713D02*
X102682914Y-82448094D01*
X102682914Y-82448094D02*
X102587676Y-82400475D01*
X102587676Y-82400475D02*
X102492438Y-82305237D01*
X102492438Y-82305237D02*
X102444819Y-82162380D01*
X102444819Y-82162380D02*
X102444819Y-82067142D01*
X102444819Y-82067142D02*
X102492438Y-81924285D01*
X102492438Y-81924285D02*
X102540057Y-81876666D01*
X102778152Y-81019523D02*
X103444819Y-81019523D01*
X102397200Y-81257618D02*
X103111485Y-81495713D01*
X103111485Y-81495713D02*
X103111485Y-80876666D01*
X126854819Y-47352857D02*
X126378628Y-47686190D01*
X126854819Y-47924285D02*
X125854819Y-47924285D01*
X125854819Y-47924285D02*
X125854819Y-47543333D01*
X125854819Y-47543333D02*
X125902438Y-47448095D01*
X125902438Y-47448095D02*
X125950057Y-47400476D01*
X125950057Y-47400476D02*
X126045295Y-47352857D01*
X126045295Y-47352857D02*
X126188152Y-47352857D01*
X126188152Y-47352857D02*
X126283390Y-47400476D01*
X126283390Y-47400476D02*
X126331009Y-47448095D01*
X126331009Y-47448095D02*
X126378628Y-47543333D01*
X126378628Y-47543333D02*
X126378628Y-47924285D01*
X126854819Y-46400476D02*
X126854819Y-46971904D01*
X126854819Y-46686190D02*
X125854819Y-46686190D01*
X125854819Y-46686190D02*
X125997676Y-46781428D01*
X125997676Y-46781428D02*
X126092914Y-46876666D01*
X126092914Y-46876666D02*
X126140533Y-46971904D01*
X125950057Y-46019523D02*
X125902438Y-45971904D01*
X125902438Y-45971904D02*
X125854819Y-45876666D01*
X125854819Y-45876666D02*
X125854819Y-45638571D01*
X125854819Y-45638571D02*
X125902438Y-45543333D01*
X125902438Y-45543333D02*
X125950057Y-45495714D01*
X125950057Y-45495714D02*
X126045295Y-45448095D01*
X126045295Y-45448095D02*
X126140533Y-45448095D01*
X126140533Y-45448095D02*
X126283390Y-45495714D01*
X126283390Y-45495714D02*
X126854819Y-46067142D01*
X126854819Y-46067142D02*
X126854819Y-45448095D01*
X109254819Y-67142857D02*
X108778628Y-67476190D01*
X109254819Y-67714285D02*
X108254819Y-67714285D01*
X108254819Y-67714285D02*
X108254819Y-67333333D01*
X108254819Y-67333333D02*
X108302438Y-67238095D01*
X108302438Y-67238095D02*
X108350057Y-67190476D01*
X108350057Y-67190476D02*
X108445295Y-67142857D01*
X108445295Y-67142857D02*
X108588152Y-67142857D01*
X108588152Y-67142857D02*
X108683390Y-67190476D01*
X108683390Y-67190476D02*
X108731009Y-67238095D01*
X108731009Y-67238095D02*
X108778628Y-67333333D01*
X108778628Y-67333333D02*
X108778628Y-67714285D01*
X109254819Y-66190476D02*
X109254819Y-66761904D01*
X109254819Y-66476190D02*
X108254819Y-66476190D01*
X108254819Y-66476190D02*
X108397676Y-66571428D01*
X108397676Y-66571428D02*
X108492914Y-66666666D01*
X108492914Y-66666666D02*
X108540533Y-66761904D01*
X108683390Y-65619047D02*
X108635771Y-65714285D01*
X108635771Y-65714285D02*
X108588152Y-65761904D01*
X108588152Y-65761904D02*
X108492914Y-65809523D01*
X108492914Y-65809523D02*
X108445295Y-65809523D01*
X108445295Y-65809523D02*
X108350057Y-65761904D01*
X108350057Y-65761904D02*
X108302438Y-65714285D01*
X108302438Y-65714285D02*
X108254819Y-65619047D01*
X108254819Y-65619047D02*
X108254819Y-65428571D01*
X108254819Y-65428571D02*
X108302438Y-65333333D01*
X108302438Y-65333333D02*
X108350057Y-65285714D01*
X108350057Y-65285714D02*
X108445295Y-65238095D01*
X108445295Y-65238095D02*
X108492914Y-65238095D01*
X108492914Y-65238095D02*
X108588152Y-65285714D01*
X108588152Y-65285714D02*
X108635771Y-65333333D01*
X108635771Y-65333333D02*
X108683390Y-65428571D01*
X108683390Y-65428571D02*
X108683390Y-65619047D01*
X108683390Y-65619047D02*
X108731009Y-65714285D01*
X108731009Y-65714285D02*
X108778628Y-65761904D01*
X108778628Y-65761904D02*
X108873866Y-65809523D01*
X108873866Y-65809523D02*
X109064342Y-65809523D01*
X109064342Y-65809523D02*
X109159580Y-65761904D01*
X109159580Y-65761904D02*
X109207200Y-65714285D01*
X109207200Y-65714285D02*
X109254819Y-65619047D01*
X109254819Y-65619047D02*
X109254819Y-65428571D01*
X109254819Y-65428571D02*
X109207200Y-65333333D01*
X109207200Y-65333333D02*
X109159580Y-65285714D01*
X109159580Y-65285714D02*
X109064342Y-65238095D01*
X109064342Y-65238095D02*
X108873866Y-65238095D01*
X108873866Y-65238095D02*
X108778628Y-65285714D01*
X108778628Y-65285714D02*
X108731009Y-65333333D01*
X108731009Y-65333333D02*
X108683390Y-65428571D01*
X113897142Y-67964819D02*
X113563809Y-67488628D01*
X113325714Y-67964819D02*
X113325714Y-66964819D01*
X113325714Y-66964819D02*
X113706666Y-66964819D01*
X113706666Y-66964819D02*
X113801904Y-67012438D01*
X113801904Y-67012438D02*
X113849523Y-67060057D01*
X113849523Y-67060057D02*
X113897142Y-67155295D01*
X113897142Y-67155295D02*
X113897142Y-67298152D01*
X113897142Y-67298152D02*
X113849523Y-67393390D01*
X113849523Y-67393390D02*
X113801904Y-67441009D01*
X113801904Y-67441009D02*
X113706666Y-67488628D01*
X113706666Y-67488628D02*
X113325714Y-67488628D01*
X114849523Y-67964819D02*
X114278095Y-67964819D01*
X114563809Y-67964819D02*
X114563809Y-66964819D01*
X114563809Y-66964819D02*
X114468571Y-67107676D01*
X114468571Y-67107676D02*
X114373333Y-67202914D01*
X114373333Y-67202914D02*
X114278095Y-67250533D01*
X115706666Y-67298152D02*
X115706666Y-67964819D01*
X115468571Y-66917200D02*
X115230476Y-67631485D01*
X115230476Y-67631485D02*
X115849523Y-67631485D01*
X117199580Y-75826666D02*
X117247200Y-75874285D01*
X117247200Y-75874285D02*
X117294819Y-76017142D01*
X117294819Y-76017142D02*
X117294819Y-76112380D01*
X117294819Y-76112380D02*
X117247200Y-76255237D01*
X117247200Y-76255237D02*
X117151961Y-76350475D01*
X117151961Y-76350475D02*
X117056723Y-76398094D01*
X117056723Y-76398094D02*
X116866247Y-76445713D01*
X116866247Y-76445713D02*
X116723390Y-76445713D01*
X116723390Y-76445713D02*
X116532914Y-76398094D01*
X116532914Y-76398094D02*
X116437676Y-76350475D01*
X116437676Y-76350475D02*
X116342438Y-76255237D01*
X116342438Y-76255237D02*
X116294819Y-76112380D01*
X116294819Y-76112380D02*
X116294819Y-76017142D01*
X116294819Y-76017142D02*
X116342438Y-75874285D01*
X116342438Y-75874285D02*
X116390057Y-75826666D01*
X116294819Y-75493332D02*
X116294819Y-74826666D01*
X116294819Y-74826666D02*
X117294819Y-75255237D01*
D11*
X121804285Y-40015270D02*
X121683333Y-39954794D01*
X121683333Y-39954794D02*
X121562380Y-39833842D01*
X121562380Y-39833842D02*
X121380952Y-39652413D01*
X121380952Y-39652413D02*
X121259999Y-39591937D01*
X121259999Y-39591937D02*
X121139047Y-39591937D01*
X121199523Y-39894318D02*
X121078571Y-39833842D01*
X121078571Y-39833842D02*
X120957618Y-39712889D01*
X120957618Y-39712889D02*
X120897142Y-39470984D01*
X120897142Y-39470984D02*
X120897142Y-39047651D01*
X120897142Y-39047651D02*
X120957618Y-38805746D01*
X120957618Y-38805746D02*
X121078571Y-38684794D01*
X121078571Y-38684794D02*
X121199523Y-38624318D01*
X121199523Y-38624318D02*
X121441428Y-38624318D01*
X121441428Y-38624318D02*
X121562380Y-38684794D01*
X121562380Y-38684794D02*
X121683333Y-38805746D01*
X121683333Y-38805746D02*
X121743809Y-39047651D01*
X121743809Y-39047651D02*
X121743809Y-39470984D01*
X121743809Y-39470984D02*
X121683333Y-39712889D01*
X121683333Y-39712889D02*
X121562380Y-39833842D01*
X121562380Y-39833842D02*
X121441428Y-39894318D01*
X121441428Y-39894318D02*
X121199523Y-39894318D01*
X122953333Y-39894318D02*
X122227618Y-39894318D01*
X122590475Y-39894318D02*
X122590475Y-38624318D01*
X122590475Y-38624318D02*
X122469523Y-38805746D01*
X122469523Y-38805746D02*
X122348571Y-38926699D01*
X122348571Y-38926699D02*
X122227618Y-38987175D01*
X123739523Y-38624318D02*
X123860476Y-38624318D01*
X123860476Y-38624318D02*
X123981428Y-38684794D01*
X123981428Y-38684794D02*
X124041904Y-38745270D01*
X124041904Y-38745270D02*
X124102380Y-38866222D01*
X124102380Y-38866222D02*
X124162857Y-39108127D01*
X124162857Y-39108127D02*
X124162857Y-39410508D01*
X124162857Y-39410508D02*
X124102380Y-39652413D01*
X124102380Y-39652413D02*
X124041904Y-39773365D01*
X124041904Y-39773365D02*
X123981428Y-39833842D01*
X123981428Y-39833842D02*
X123860476Y-39894318D01*
X123860476Y-39894318D02*
X123739523Y-39894318D01*
X123739523Y-39894318D02*
X123618571Y-39833842D01*
X123618571Y-39833842D02*
X123558095Y-39773365D01*
X123558095Y-39773365D02*
X123497618Y-39652413D01*
X123497618Y-39652413D02*
X123437142Y-39410508D01*
X123437142Y-39410508D02*
X123437142Y-39108127D01*
X123437142Y-39108127D02*
X123497618Y-38866222D01*
X123497618Y-38866222D02*
X123558095Y-38745270D01*
X123558095Y-38745270D02*
X123618571Y-38684794D01*
X123618571Y-38684794D02*
X123739523Y-38624318D01*
D12*
%TO.C,R20*%
X117585000Y-94695000D02*
X117585000Y-93225000D01*
X117585000Y-93225000D02*
X115300000Y-93225000D01*
X115300000Y-94695000D02*
X117585000Y-94695000D01*
%TO.C,D1*%
X114532000Y-94690000D02*
X114532000Y-93220000D01*
X114532000Y-93220000D02*
X112247000Y-93220000D01*
X112247000Y-94690000D02*
X114532000Y-94690000D01*
D13*
%TO.C,U4*%
X114945000Y-71850000D02*
G75*
G02*
X114745000Y-71850000I-100000J0D01*
G01*
X114745000Y-71850000D02*
G75*
G02*
X114945000Y-71850000I100000J0D01*
G01*
D14*
X116445000Y-74615000D02*
X118045000Y-74615000D01*
X116445000Y-71485000D02*
X118045000Y-71485000D01*
D12*
%TO.C,R16*%
X110970000Y-62420436D02*
X110970000Y-63874564D01*
X109150000Y-62420436D02*
X109150000Y-63874564D01*
%TO.C,R15*%
X108660000Y-62425436D02*
X108660000Y-63879564D01*
X106840000Y-62425436D02*
X106840000Y-63879564D01*
%TO.C,R13*%
X93897936Y-72740000D02*
X95352064Y-72740000D01*
X93897936Y-74560000D02*
X95352064Y-74560000D01*
%TO.C,R11*%
X122457064Y-76070000D02*
X121002936Y-76070000D01*
X122457064Y-74250000D02*
X121002936Y-74250000D01*
%TO.C,C11*%
X124014420Y-81880000D02*
X124295580Y-81880000D01*
X124014420Y-80860000D02*
X124295580Y-80860000D01*
%TO.C,C12*%
X123994420Y-82390000D02*
X124275580Y-82390000D01*
X123994420Y-83410000D02*
X124275580Y-83410000D01*
%TO.C,C6*%
X113790000Y-76095580D02*
X113790000Y-75814420D01*
X114810000Y-76095580D02*
X114810000Y-75814420D01*
%TO.C,C5*%
X112280000Y-76095580D02*
X112280000Y-75814420D01*
X113300000Y-76095580D02*
X113300000Y-75814420D01*
%TO.C,C1*%
X122700580Y-105836000D02*
X122419420Y-105836000D01*
X122700580Y-104816000D02*
X122419420Y-104816000D01*
%TO.C,C3*%
X117460000Y-109847836D02*
X117460000Y-109632164D01*
X118180000Y-109847836D02*
X118180000Y-109632164D01*
%TO.C,C13*%
X119027836Y-70240000D02*
X118812164Y-70240000D01*
X119027836Y-70960000D02*
X118812164Y-70960000D01*
D13*
%TO.C,Q5*%
X107750000Y-52550000D02*
X107750000Y-53900000D01*
D15*
X113300000Y-48700000D02*
X113300000Y-48700000D01*
X113300000Y-48800000D02*
X113300000Y-48800000D01*
D13*
X114250000Y-52550000D02*
X107750000Y-52550000D01*
X114250000Y-53900000D02*
X114250000Y-52550000D01*
D15*
X113300000Y-48700000D02*
G75*
G02*
X113300000Y-48800000I0J-50000D01*
G01*
X113300000Y-48800000D02*
G75*
G02*
X113300000Y-48700000I0J50000D01*
G01*
D12*
%TO.C,C9*%
X115690000Y-40059420D02*
X115690000Y-40340580D01*
X116710000Y-40059420D02*
X116710000Y-40340580D01*
%TO.C,R19*%
X111477500Y-65937742D02*
X111477500Y-66412258D01*
X112522500Y-65937742D02*
X112522500Y-66412258D01*
D16*
%TO.C,J6*%
X115806100Y-114196700D02*
X115806100Y-119835500D01*
X115806100Y-119835500D02*
X116584560Y-119835500D01*
X116584560Y-114196700D02*
X115806100Y-114196700D01*
X119015440Y-119835500D02*
X119793900Y-119835500D01*
X119793900Y-114196700D02*
X119015440Y-114196700D01*
X119793900Y-119835500D02*
X119793900Y-114196700D01*
D17*
X118181000Y-121613500D02*
G75*
G02*
X117419000Y-121613500I-381000J0D01*
G01*
X117419000Y-121613500D02*
G75*
G02*
X118181000Y-121613500I381000J0D01*
G01*
D12*
%TO.C,C19*%
X114584420Y-65490000D02*
X114865580Y-65490000D01*
X114584420Y-66510000D02*
X114865580Y-66510000D01*
D13*
%TO.C,Q6*%
X107750000Y-39900000D02*
X107750000Y-41250000D01*
X107750000Y-41250000D02*
X114250000Y-41250000D01*
D15*
X108700000Y-45000000D02*
X108700000Y-45000000D01*
X108700000Y-45100000D02*
X108700000Y-45100000D01*
D13*
X114250000Y-41250000D02*
X114250000Y-39900000D01*
D15*
X108700000Y-45000000D02*
G75*
G02*
X108700000Y-45100000I0J-50000D01*
G01*
X108700000Y-45100000D02*
G75*
G02*
X108700000Y-45000000I0J50000D01*
G01*
D12*
%TO.C,C8*%
X104190000Y-40584420D02*
X104190000Y-40865580D01*
X105210000Y-40584420D02*
X105210000Y-40865580D01*
D16*
%TO.C,J7*%
X120206100Y-114240600D02*
X120206100Y-119879400D01*
X120206100Y-119879400D02*
X120984560Y-119879400D01*
X120984560Y-114240600D02*
X120206100Y-114240600D01*
X123415440Y-119879400D02*
X124193900Y-119879400D01*
X124193900Y-114240600D02*
X123415440Y-114240600D01*
X124193900Y-119879400D02*
X124193900Y-114240600D01*
D17*
X122581000Y-121657400D02*
G75*
G02*
X121819000Y-121657400I-381000J0D01*
G01*
X121819000Y-121657400D02*
G75*
G02*
X122581000Y-121657400I381000J0D01*
G01*
D12*
%TO.C,R1*%
X121350000Y-93436359D02*
X121350000Y-93743641D01*
X122110000Y-93436359D02*
X122110000Y-93743641D01*
D13*
%TO.C,Q3*%
X96250000Y-40100000D02*
X96250000Y-41450000D01*
X96250000Y-41450000D02*
X102750000Y-41450000D01*
D15*
X97200000Y-45200000D02*
X97200000Y-45200000D01*
X97200000Y-45300000D02*
X97200000Y-45300000D01*
D13*
X102750000Y-41450000D02*
X102750000Y-40100000D01*
D15*
X97200000Y-45200000D02*
G75*
G02*
X97200000Y-45300000I0J-50000D01*
G01*
X97200000Y-45300000D02*
G75*
G02*
X97200000Y-45200000I0J50000D01*
G01*
D16*
%TO.C,J2*%
X97486100Y-26010600D02*
X97486100Y-31649400D01*
X97486100Y-31649400D02*
X98264560Y-31649400D01*
X98264560Y-26010600D02*
X97486100Y-26010600D01*
X100695440Y-31649400D02*
X101473900Y-31649400D01*
X101473900Y-26010600D02*
X100695440Y-26010600D01*
X101473900Y-31649400D02*
X101473900Y-26010600D01*
D17*
X99861000Y-33427400D02*
G75*
G02*
X99099000Y-33427400I-381000J0D01*
G01*
X99099000Y-33427400D02*
G75*
G02*
X99861000Y-33427400I381000J0D01*
G01*
D16*
%TO.C,U1*%
X109744000Y-98918100D02*
X109744000Y-111872100D01*
X109744000Y-111872100D02*
X116856000Y-111872100D01*
X116856000Y-98918100D02*
X109744000Y-98918100D01*
X116856000Y-111872100D02*
X116856000Y-98918100D01*
D17*
X113681000Y-113650100D02*
G75*
G02*
X112919000Y-113650100I-381000J0D01*
G01*
X112919000Y-113650100D02*
G75*
G02*
X113681000Y-113650100I381000J0D01*
G01*
D12*
%TO.C,C2*%
X122687836Y-103466000D02*
X122472164Y-103466000D01*
X122687836Y-104186000D02*
X122472164Y-104186000D01*
%TO.C,R3*%
X100820000Y-83783641D02*
X100820000Y-83476359D01*
X101580000Y-83783641D02*
X101580000Y-83476359D01*
D16*
%TO.C,J9*%
X91194500Y-63874650D02*
X91194500Y-64653110D01*
X91194500Y-67083990D02*
X91194500Y-67862450D01*
X91194500Y-67862450D02*
X96833300Y-67862450D01*
X96833300Y-63874650D02*
X91194500Y-63874650D01*
X96833300Y-64653110D02*
X96833300Y-63874650D01*
X96833300Y-67862450D02*
X96833300Y-67083990D01*
D17*
X89797500Y-65868550D02*
G75*
G02*
X89035500Y-65868550I-381000J0D01*
G01*
X89035500Y-65868550D02*
G75*
G02*
X89797500Y-65868550I381000J0D01*
G01*
D12*
%TO.C,R4*%
X101610000Y-47153641D02*
X101610000Y-46846359D01*
X102370000Y-47153641D02*
X102370000Y-46846359D01*
D16*
%TO.C,J1*%
X93629000Y-115013800D02*
X93629000Y-120220800D01*
X93629000Y-120220800D02*
X104551000Y-120220800D01*
X104551000Y-115013800D02*
X93629000Y-115013800D01*
X104551000Y-120220800D02*
X104551000Y-115013800D01*
D17*
X103281000Y-120805000D02*
G75*
G02*
X102519000Y-120805000I-381000J0D01*
G01*
X102519000Y-120805000D02*
G75*
G02*
X103281000Y-120805000I381000J0D01*
G01*
D12*
%TO.C,R17*%
X112587742Y-70477500D02*
X113062258Y-70477500D01*
X112587742Y-71522500D02*
X113062258Y-71522500D01*
%TO.C,J12*%
X105220000Y-117730000D02*
X105220000Y-112540000D01*
X107980000Y-112540000D02*
X105220000Y-112540000D01*
X107980000Y-117730000D02*
X105220000Y-117730000D01*
X107980000Y-117730000D02*
X107980000Y-112540000D01*
X107980000Y-119000000D02*
X107980000Y-120380000D01*
X107980000Y-120380000D02*
X106600000Y-120380000D01*
%TO.C,U2*%
X99715000Y-86640000D02*
X99715000Y-87590000D01*
X99715000Y-96860000D02*
X99715000Y-95910000D01*
X100665000Y-86640000D02*
X99715000Y-86640000D01*
X100665000Y-96860000D02*
X99715000Y-96860000D01*
X108985000Y-86640000D02*
X109935000Y-86640000D01*
X108985000Y-96860000D02*
X109935000Y-96860000D01*
X109935000Y-86640000D02*
X109935000Y-87590000D01*
X109935000Y-96860000D02*
X109935000Y-95910000D01*
X99100000Y-87590000D02*
X98760000Y-87120000D01*
X99440000Y-87120000D01*
X99100000Y-87590000D01*
G36*
X99100000Y-87590000D02*
G01*
X98760000Y-87120000D01*
X99440000Y-87120000D01*
X99100000Y-87590000D01*
G37*
%TO.C,L2*%
X110410242Y-74590000D02*
X108739758Y-74590000D01*
X110410242Y-76410000D02*
X108739758Y-76410000D01*
D16*
%TO.C,J4*%
X109126100Y-26020600D02*
X109126100Y-31659400D01*
X109126100Y-31659400D02*
X109904560Y-31659400D01*
X109904560Y-26020600D02*
X109126100Y-26020600D01*
X112335440Y-31659400D02*
X113113900Y-31659400D01*
X113113900Y-26020600D02*
X112335440Y-26020600D01*
X113113900Y-31659400D02*
X113113900Y-26020600D01*
D17*
X111501000Y-33437400D02*
G75*
G02*
X110739000Y-33437400I-381000J0D01*
G01*
X110739000Y-33437400D02*
G75*
G02*
X111501000Y-33437400I381000J0D01*
G01*
D16*
%TO.C,J8*%
X91174500Y-68384650D02*
X91174500Y-69163110D01*
X91174500Y-71593990D02*
X91174500Y-72372450D01*
X91174500Y-72372450D02*
X96813300Y-72372450D01*
X96813300Y-68384650D02*
X91174500Y-68384650D01*
X96813300Y-69163110D02*
X96813300Y-68384650D01*
X96813300Y-72372450D02*
X96813300Y-71593990D01*
D17*
X89777500Y-70378550D02*
G75*
G02*
X89015500Y-70378550I-381000J0D01*
G01*
X89015500Y-70378550D02*
G75*
G02*
X89777500Y-70378550I381000J0D01*
G01*
D12*
%TO.C,J14*%
X108820000Y-117730000D02*
X108820000Y-112540000D01*
X111580000Y-112540000D02*
X108820000Y-112540000D01*
X111580000Y-117730000D02*
X108820000Y-117730000D01*
X111580000Y-117730000D02*
X111580000Y-112540000D01*
X111580000Y-119000000D02*
X111580000Y-120380000D01*
X111580000Y-120380000D02*
X110200000Y-120380000D01*
D13*
%TO.C,Q9*%
X119250000Y-52550000D02*
X119250000Y-53900000D01*
D15*
X124800000Y-48700000D02*
X124800000Y-48700000D01*
X124800000Y-48800000D02*
X124800000Y-48800000D01*
D13*
X125750000Y-52550000D02*
X119250000Y-52550000D01*
X125750000Y-53900000D02*
X125750000Y-52550000D01*
D15*
X124800000Y-48700000D02*
G75*
G02*
X124800000Y-48800000I0J-50000D01*
G01*
X124800000Y-48800000D02*
G75*
G02*
X124800000Y-48700000I0J50000D01*
G01*
D12*
%TO.C,U3*%
X121662500Y-106320000D02*
X120862500Y-106320000D01*
X121662500Y-106320000D02*
X122462500Y-106320000D01*
X121662500Y-109440000D02*
X120862500Y-109440000D01*
X121662500Y-109440000D02*
X122462500Y-109440000D01*
X120362500Y-106370000D02*
X120122500Y-106040000D01*
X120602500Y-106040000D01*
X120362500Y-106370000D01*
G36*
X120362500Y-106370000D02*
G01*
X120122500Y-106040000D01*
X120602500Y-106040000D01*
X120362500Y-106370000D01*
G37*
%TO.C,J13*%
X112420000Y-117730000D02*
X112420000Y-112540000D01*
X115180000Y-112540000D02*
X112420000Y-112540000D01*
X115180000Y-117730000D02*
X112420000Y-117730000D01*
X115180000Y-117730000D02*
X115180000Y-112540000D01*
X115180000Y-119000000D02*
X115180000Y-120380000D01*
X115180000Y-120380000D02*
X113800000Y-120380000D01*
%TO.C,R8*%
X113120000Y-47163641D02*
X113120000Y-46856359D01*
X113880000Y-47163641D02*
X113880000Y-46856359D01*
D13*
%TO.C,Q1*%
X96250000Y-52550000D02*
X96250000Y-53900000D01*
D15*
X101800000Y-48700000D02*
X101800000Y-48700000D01*
X101800000Y-48800000D02*
X101800000Y-48800000D01*
D13*
X102750000Y-52550000D02*
X96250000Y-52550000D01*
X102750000Y-53900000D02*
X102750000Y-52550000D01*
D15*
X101800000Y-48700000D02*
G75*
G02*
X101800000Y-48800000I0J-50000D01*
G01*
X101800000Y-48800000D02*
G75*
G02*
X101800000Y-48700000I0J50000D01*
G01*
D12*
%TO.C,R7*%
X121303641Y-72150000D02*
X120996359Y-72150000D01*
X121303641Y-72910000D02*
X120996359Y-72910000D01*
%TO.C,C21*%
X112584420Y-72490000D02*
X112865580Y-72490000D01*
X112584420Y-73510000D02*
X112865580Y-73510000D01*
%TO.C,C22*%
X106160000Y-66607836D02*
X106160000Y-66392164D01*
X106880000Y-66607836D02*
X106880000Y-66392164D01*
D14*
%TO.C,L1*%
X116300000Y-76600000D02*
X116300000Y-76730000D01*
X116300000Y-76600000D02*
X122300000Y-76600000D01*
X116300000Y-82600000D02*
X116300000Y-82470000D01*
X116300000Y-82600000D02*
X122300000Y-82600000D01*
X122300000Y-76600000D02*
X122300000Y-76730000D01*
X122300000Y-82600000D02*
X122300000Y-82470000D01*
D12*
%TO.C,C14*%
X123540000Y-77307836D02*
X123540000Y-77092164D01*
X124260000Y-77307836D02*
X124260000Y-77092164D01*
%TO.C,R9*%
X108120000Y-46856359D02*
X108120000Y-47163641D01*
X108880000Y-46856359D02*
X108880000Y-47163641D01*
%TO.C,R10*%
X121293641Y-73120000D02*
X120986359Y-73120000D01*
X121293641Y-73880000D02*
X120986359Y-73880000D01*
D16*
%TO.C,C15*%
X89072400Y-86350000D02*
X90342400Y-86350000D01*
X89707400Y-85715000D02*
X89707400Y-86985000D01*
X97530600Y-86350000D02*
G75*
G02*
X90469400Y-86350000I-3530600J0D01*
G01*
X90469400Y-86350000D02*
G75*
G02*
X97530600Y-86350000I3530600J0D01*
G01*
%TO.C,U5*%
X106327400Y-68119004D02*
X106327400Y-72880996D01*
X106327400Y-72880996D02*
X111089400Y-72880996D01*
X111089400Y-68119004D02*
X106327400Y-68119004D01*
X111089400Y-72880996D02*
X111089400Y-68119004D01*
D18*
G36*
X108448812Y-73011600D02*
G01*
X108067812Y-73011600D01*
X108067812Y-72757600D01*
X108448812Y-72757600D01*
X108448812Y-73011600D01*
G37*
G36*
X111220000Y-69790499D02*
G01*
X110966000Y-69790499D01*
X110966000Y-69409499D01*
X111220000Y-69409499D01*
X111220000Y-69790499D01*
G37*
D12*
%TO.C,R5*%
X119620000Y-46556359D02*
X119620000Y-46863641D01*
X120380000Y-46556359D02*
X120380000Y-46863641D01*
D16*
%TO.C,C20*%
X101480000Y-65192400D02*
X101480000Y-66462400D01*
X102115000Y-65827400D02*
X100845000Y-65827400D01*
X105010600Y-70120000D02*
G75*
G02*
X97949400Y-70120000I-3530600J0D01*
G01*
X97949400Y-70120000D02*
G75*
G02*
X105010600Y-70120000I3530600J0D01*
G01*
D12*
%TO.C,C10*%
X127190000Y-39829420D02*
X127190000Y-40110580D01*
X128210000Y-39829420D02*
X128210000Y-40110580D01*
%TO.C,R2*%
X92063641Y-116620000D02*
X91756359Y-116620000D01*
X92063641Y-117380000D02*
X91756359Y-117380000D01*
D16*
%TO.C,SW1*%
X89835595Y-107135000D02*
X89835595Y-105865000D01*
X90470595Y-106500000D02*
X89200595Y-106500000D01*
X103221395Y-104000000D02*
G75*
G02*
X90978595Y-104000000I-6121400J0D01*
G01*
X90978595Y-104000000D02*
G75*
G02*
X103221395Y-104000000I6121400J0D01*
G01*
%TO.C,C18*%
X96822400Y-77500000D02*
X98092400Y-77500000D01*
X97457400Y-76865000D02*
X97457400Y-78135000D01*
X105280600Y-77500000D02*
G75*
G02*
X98219400Y-77500000I-3530600J0D01*
G01*
X98219400Y-77500000D02*
G75*
G02*
X105280600Y-77500000I3530600J0D01*
G01*
D12*
%TO.C,J11*%
X121720000Y-61720000D02*
X123100000Y-61720000D01*
X121720000Y-63100000D02*
X121720000Y-61720000D01*
X121720000Y-64370000D02*
X121720000Y-69560000D01*
X121720000Y-64370000D02*
X124480000Y-64370000D01*
X121720000Y-69560000D02*
X124480000Y-69560000D01*
X124480000Y-64370000D02*
X124480000Y-69560000D01*
D16*
%TO.C,J5*%
X120566100Y-25990600D02*
X120566100Y-31629400D01*
X120566100Y-31629400D02*
X121344560Y-31629400D01*
X121344560Y-25990600D02*
X120566100Y-25990600D01*
X123775440Y-31629400D02*
X124553900Y-31629400D01*
X124553900Y-25990600D02*
X123775440Y-25990600D01*
X124553900Y-31629400D02*
X124553900Y-25990600D01*
D17*
X122941000Y-33407400D02*
G75*
G02*
X122179000Y-33407400I-381000J0D01*
G01*
X122179000Y-33407400D02*
G75*
G02*
X122941000Y-33407400I381000J0D01*
G01*
D12*
%TO.C,R6*%
X96610000Y-46846359D02*
X96610000Y-47153641D01*
X97370000Y-46846359D02*
X97370000Y-47153641D01*
%TO.C,C4*%
X102140000Y-83727836D02*
X102140000Y-83512164D01*
X102860000Y-83727836D02*
X102860000Y-83512164D01*
D16*
%TO.C,C17*%
X89272400Y-78450000D02*
X90542400Y-78450000D01*
X89907400Y-77815000D02*
X89907400Y-79085000D01*
X97730600Y-78450000D02*
G75*
G02*
X90669400Y-78450000I-3530600J0D01*
G01*
X90669400Y-78450000D02*
G75*
G02*
X97730600Y-78450000I3530600J0D01*
G01*
D12*
%TO.C,J3*%
X118060000Y-85190000D02*
X119440000Y-85190000D01*
X118060000Y-86570000D02*
X118060000Y-85190000D01*
X118060000Y-87840000D02*
X118060000Y-100650000D01*
X118060000Y-87840000D02*
X120820000Y-87840000D01*
X118060000Y-100650000D02*
X120820000Y-100650000D01*
X120820000Y-87840000D02*
X120820000Y-100650000D01*
%TO.C,R12*%
X124110000Y-46863641D02*
X124110000Y-46556359D01*
X124870000Y-46863641D02*
X124870000Y-46556359D01*
%TO.C,R18*%
X107120000Y-66346359D02*
X107120000Y-66653641D01*
X107880000Y-66346359D02*
X107880000Y-66653641D01*
%TO.C,J10*%
X92020000Y-54480000D02*
X93400000Y-54480000D01*
X92020000Y-55860000D02*
X92020000Y-54480000D01*
X92020000Y-57130000D02*
X92020000Y-62320000D01*
X92020000Y-57130000D02*
X94780000Y-57130000D01*
X92020000Y-62320000D02*
X94780000Y-62320000D01*
X94780000Y-57130000D02*
X94780000Y-62320000D01*
%TO.C,R14*%
X112587742Y-68477500D02*
X113062258Y-68477500D01*
X112587742Y-69522500D02*
X113062258Y-69522500D01*
D16*
%TO.C,C16*%
X108365000Y-85042600D02*
X109635000Y-85042600D01*
X109000000Y-85677600D02*
X109000000Y-84407600D01*
X112530600Y-80750000D02*
G75*
G02*
X105469400Y-80750000I-3530600J0D01*
G01*
X105469400Y-80750000D02*
G75*
G02*
X112530600Y-80750000I3530600J0D01*
G01*
D12*
%TO.C,C7*%
X115160000Y-76307836D02*
X115160000Y-76092164D01*
X115880000Y-76307836D02*
X115880000Y-76092164D01*
D13*
%TO.C,Q10*%
X119280000Y-39920000D02*
X119280000Y-41270000D01*
X119280000Y-41270000D02*
X125780000Y-41270000D01*
D15*
X120230000Y-45020000D02*
X120230000Y-45020000D01*
X120230000Y-45120000D02*
X120230000Y-45120000D01*
D13*
X125780000Y-41270000D02*
X125780000Y-39920000D01*
D15*
X120230000Y-45020000D02*
G75*
G02*
X120230000Y-45120000I0J-50000D01*
G01*
X120230000Y-45120000D02*
G75*
G02*
X120230000Y-45020000I0J50000D01*
G01*
%TD*%
M02*
