%TF.GenerationSoftware,KiCad,Pcbnew,9.0.2*%
%TF.CreationDate,2025-08-16T18:35:03-07:00*%
%TF.ProjectId,Transmitter,5472616e-736d-4697-9474-65722e6b6963,rev?*%
%TF.SameCoordinates,Original*%
%TF.FileFunction,Other,User*%
%FSLAX46Y46*%
G04 Gerber Fmt 4.6, Leading zero omitted, Abs format (unit mm)*
G04 Created by KiCad (PCBNEW 9.0.2) date 2025-08-16 18:35:03*
%MOMM*%
%LPD*%
G01*
G04 APERTURE LIST*
%ADD10C,0.050000*%
%ADD11C,0.100000*%
%ADD12C,0.152400*%
%ADD13C,0.025400*%
G04 APERTURE END LIST*
D10*
%TO.C,R20*%
X117580000Y-94690000D02*
X114620000Y-94690000D01*
X117580000Y-93230000D02*
X117580000Y-94690000D01*
X114620000Y-94690000D02*
X114620000Y-93230000D01*
X114620000Y-93230000D02*
X117580000Y-93230000D01*
%TO.C,D1*%
X114527000Y-94685000D02*
X111567000Y-94685000D01*
X114527000Y-93225000D02*
X114527000Y-94685000D01*
X111567000Y-94685000D02*
X111567000Y-93225000D01*
X111567000Y-93225000D02*
X114527000Y-93225000D01*
%TO.C,U4*%
X119375000Y-74545000D02*
X119375000Y-71555000D01*
X119375000Y-71555000D02*
X118295000Y-71555000D01*
X118295000Y-74750000D02*
X118295000Y-74545000D01*
X118295000Y-74545000D02*
X119375000Y-74545000D01*
X118295000Y-71555000D02*
X118295000Y-71350000D01*
X118295000Y-71350000D02*
X116195000Y-71350000D01*
X116195000Y-74750000D02*
X118295000Y-74750000D01*
X116195000Y-74545000D02*
X116195000Y-74750000D01*
X116195000Y-71555000D02*
X115115000Y-71555000D01*
X116195000Y-71350000D02*
X116195000Y-71555000D01*
X115115000Y-74545000D02*
X116195000Y-74545000D01*
X115115000Y-71555000D02*
X115115000Y-74545000D01*
%TO.C,R16*%
X111190000Y-60867500D02*
X111190000Y-65427500D01*
X108930000Y-60867500D02*
X111190000Y-60867500D01*
X111190000Y-65427500D02*
X108930000Y-65427500D01*
X108930000Y-65427500D02*
X108930000Y-60867500D01*
%TO.C,R15*%
X108880000Y-60872500D02*
X108880000Y-65432500D01*
X106620000Y-60872500D02*
X108880000Y-60872500D01*
X108880000Y-65432500D02*
X106620000Y-65432500D01*
X106620000Y-65432500D02*
X106620000Y-60872500D01*
%TO.C,R13*%
X92345000Y-72520000D02*
X96905000Y-72520000D01*
X92345000Y-74780000D02*
X92345000Y-72520000D01*
X96905000Y-72520000D02*
X96905000Y-74780000D01*
X96905000Y-74780000D02*
X92345000Y-74780000D01*
%TO.C,R11*%
X124010000Y-76290000D02*
X119450000Y-76290000D01*
X124010000Y-74030000D02*
X124010000Y-76290000D01*
X119450000Y-76290000D02*
X119450000Y-74030000D01*
X119450000Y-74030000D02*
X124010000Y-74030000D01*
%TO.C,C11*%
X125635000Y-82100000D02*
X122675000Y-82100000D01*
X125635000Y-80640000D02*
X125635000Y-82100000D01*
X122675000Y-82100000D02*
X122675000Y-80640000D01*
X122675000Y-80640000D02*
X125635000Y-80640000D01*
%TO.C,C12*%
X122655000Y-82170000D02*
X125615000Y-82170000D01*
X122655000Y-83630000D02*
X122655000Y-82170000D01*
X125615000Y-82170000D02*
X125615000Y-83630000D01*
X125615000Y-83630000D02*
X122655000Y-83630000D01*
%TO.C,C6*%
X113570000Y-77435000D02*
X113570000Y-74475000D01*
X115030000Y-77435000D02*
X113570000Y-77435000D01*
X113570000Y-74475000D02*
X115030000Y-74475000D01*
X115030000Y-74475000D02*
X115030000Y-77435000D01*
%TO.C,C5*%
X112060000Y-77435000D02*
X112060000Y-74475000D01*
X113520000Y-77435000D02*
X112060000Y-77435000D01*
X112060000Y-74475000D02*
X113520000Y-74475000D01*
X113520000Y-74475000D02*
X113520000Y-77435000D01*
%TO.C,C1*%
X124040000Y-106056000D02*
X121080000Y-106056000D01*
X124040000Y-104596000D02*
X124040000Y-106056000D01*
X121080000Y-106056000D02*
X121080000Y-104596000D01*
X121080000Y-104596000D02*
X124040000Y-104596000D01*
%TO.C,C3*%
X117360000Y-108830000D02*
X118280000Y-108830000D01*
X117360000Y-110650000D02*
X117360000Y-108830000D01*
X118280000Y-108830000D02*
X118280000Y-110650000D01*
X118280000Y-110650000D02*
X117360000Y-110650000D01*
%TO.C,C13*%
X118010000Y-70140000D02*
X119830000Y-70140000D01*
X118010000Y-71060000D02*
X118010000Y-70140000D01*
X119830000Y-70140000D02*
X119830000Y-71060000D01*
X119830000Y-71060000D02*
X118010000Y-71060000D01*
D11*
%TO.C,Q5*%
X106700000Y-48250000D02*
X115300000Y-48250000D01*
X106700000Y-60750000D02*
X106700000Y-48250000D01*
X115300000Y-48250000D02*
X115300000Y-60750000D01*
X115300000Y-60750000D02*
X106700000Y-60750000D01*
D10*
%TO.C,C9*%
X115470000Y-38720000D02*
X116930000Y-38720000D01*
X115470000Y-41680000D02*
X115470000Y-38720000D01*
X116930000Y-38720000D02*
X116930000Y-41680000D01*
X116930000Y-41680000D02*
X115470000Y-41680000D01*
%TO.C,R19*%
X111270000Y-64695000D02*
X112730000Y-64695000D01*
X111270000Y-67655000D02*
X111270000Y-64695000D01*
X112730000Y-64695000D02*
X112730000Y-67655000D01*
X112730000Y-67655000D02*
X111270000Y-67655000D01*
D12*
%TO.C,J6*%
X115679100Y-113307700D02*
X115679100Y-120724500D01*
X115679100Y-120724500D02*
X119920900Y-120724500D01*
X119920900Y-113307700D02*
X115679100Y-113307700D01*
X119920900Y-120724500D02*
X119920900Y-113307700D01*
D10*
%TO.C,C19*%
X113245000Y-65270000D02*
X116205000Y-65270000D01*
X113245000Y-66730000D02*
X113245000Y-65270000D01*
X116205000Y-65270000D02*
X116205000Y-66730000D01*
X116205000Y-66730000D02*
X113245000Y-66730000D01*
D11*
%TO.C,Q6*%
X106700000Y-33050000D02*
X115300000Y-33050000D01*
X106700000Y-45550000D02*
X106700000Y-33050000D01*
X115300000Y-33050000D02*
X115300000Y-45550000D01*
X115300000Y-45550000D02*
X106700000Y-45550000D01*
D10*
%TO.C,C8*%
X103970000Y-39245000D02*
X105430000Y-39245000D01*
X103970000Y-42205000D02*
X103970000Y-39245000D01*
X105430000Y-39245000D02*
X105430000Y-42205000D01*
X105430000Y-42205000D02*
X103970000Y-42205000D01*
D12*
%TO.C,J7*%
X120079100Y-113351600D02*
X120079100Y-120768400D01*
X120079100Y-120768400D02*
X124320900Y-120768400D01*
X124320900Y-113351600D02*
X120079100Y-113351600D01*
X124320900Y-120768400D02*
X124320900Y-113351600D01*
D10*
%TO.C,R1*%
X121260000Y-92660000D02*
X122200000Y-92660000D01*
X121260000Y-94520000D02*
X121260000Y-92660000D01*
X122200000Y-92660000D02*
X122200000Y-94520000D01*
X122200000Y-94520000D02*
X121260000Y-94520000D01*
D11*
%TO.C,Q3*%
X95200000Y-33250000D02*
X103800000Y-33250000D01*
X95200000Y-45750000D02*
X95200000Y-33250000D01*
X103800000Y-33250000D02*
X103800000Y-45750000D01*
X103800000Y-45750000D02*
X95200000Y-45750000D01*
D12*
%TO.C,J2*%
X97359100Y-25121600D02*
X97359100Y-32538400D01*
X97359100Y-32538400D02*
X101600900Y-32538400D01*
X101600900Y-25121600D02*
X97359100Y-25121600D01*
X101600900Y-32538400D02*
X101600900Y-25121600D01*
%TO.C,U1*%
X109617000Y-98791100D02*
X109617000Y-111999100D01*
X109617000Y-111999100D02*
X116983000Y-111999100D01*
X116983000Y-98791100D02*
X109617000Y-98791100D01*
X116983000Y-111999100D02*
X116983000Y-98791100D01*
D10*
%TO.C,C2*%
X121670000Y-103366000D02*
X123490000Y-103366000D01*
X121670000Y-104286000D02*
X121670000Y-103366000D01*
X123490000Y-103366000D02*
X123490000Y-104286000D01*
X123490000Y-104286000D02*
X121670000Y-104286000D01*
%TO.C,R3*%
X100730000Y-82700000D02*
X101670000Y-82700000D01*
X100730000Y-84560000D02*
X100730000Y-82700000D01*
X101670000Y-82700000D02*
X101670000Y-84560000D01*
X101670000Y-84560000D02*
X100730000Y-84560000D01*
D12*
%TO.C,J9*%
X90305500Y-63747650D02*
X90305500Y-67989450D01*
X90305500Y-67989450D02*
X97722300Y-67989450D01*
X97722300Y-63747650D02*
X90305500Y-63747650D01*
X97722300Y-67989450D02*
X97722300Y-63747650D01*
D10*
%TO.C,R4*%
X101520000Y-46070000D02*
X102460000Y-46070000D01*
X101520000Y-47930000D02*
X101520000Y-46070000D01*
X102460000Y-46070000D02*
X102460000Y-47930000D01*
X102460000Y-47930000D02*
X101520000Y-47930000D01*
D12*
%TO.C,J1*%
X93502000Y-114886800D02*
X93502000Y-120347800D01*
X93502000Y-120347800D02*
X94010000Y-120347800D01*
X94010000Y-114886800D02*
X93502000Y-114886800D01*
X94010000Y-115039200D02*
X94010000Y-114886800D01*
X94010000Y-120220800D02*
X104170000Y-120220800D01*
X94010000Y-120347800D02*
X94010000Y-120220800D01*
X104170000Y-114886800D02*
X104170000Y-115039200D01*
X104170000Y-115039200D02*
X94010000Y-115039200D01*
X104170000Y-120220800D02*
X104170000Y-120347800D01*
X104170000Y-120347800D02*
X104678000Y-120347800D01*
X104678000Y-114886800D02*
X104170000Y-114886800D01*
X104678000Y-120347800D02*
X104678000Y-114886800D01*
D10*
%TO.C,R17*%
X111345000Y-70270000D02*
X114305000Y-70270000D01*
X111345000Y-71730000D02*
X111345000Y-70270000D01*
X114305000Y-70270000D02*
X114305000Y-71730000D01*
X114305000Y-71730000D02*
X111345000Y-71730000D01*
%TO.C,J12*%
X104830000Y-112150000D02*
X104830000Y-120770000D01*
X104830000Y-120770000D02*
X108370000Y-120770000D01*
X108370000Y-112150000D02*
X104830000Y-112150000D01*
X108370000Y-120770000D02*
X108370000Y-112150000D01*
%TO.C,U2*%
X98125000Y-87600000D02*
X99575000Y-87600000D01*
X98125000Y-95900000D02*
X98125000Y-87600000D01*
X99575000Y-86500000D02*
X100675000Y-86500000D01*
X99575000Y-87600000D02*
X99575000Y-86500000D01*
X99575000Y-95900000D02*
X98125000Y-95900000D01*
X99575000Y-97000000D02*
X99575000Y-95900000D01*
X100675000Y-85050000D02*
X108975000Y-85050000D01*
X100675000Y-86500000D02*
X100675000Y-85050000D01*
X100675000Y-97000000D02*
X99575000Y-97000000D01*
X100675000Y-98450000D02*
X100675000Y-97000000D01*
X108975000Y-85050000D02*
X108975000Y-86500000D01*
X108975000Y-86500000D02*
X110075000Y-86500000D01*
X108975000Y-97000000D02*
X108975000Y-98450000D01*
X108975000Y-98450000D02*
X100675000Y-98450000D01*
X110075000Y-86500000D02*
X110075000Y-87600000D01*
X110075000Y-87600000D02*
X111525000Y-87600000D01*
X110075000Y-95900000D02*
X110075000Y-97000000D01*
X110075000Y-97000000D02*
X108975000Y-97000000D01*
X111525000Y-87600000D02*
X111525000Y-95900000D01*
X111525000Y-95900000D02*
X110075000Y-95900000D01*
%TO.C,L2*%
X107225000Y-74300000D02*
X111925000Y-74300000D01*
X107225000Y-76700000D02*
X107225000Y-74300000D01*
X111925000Y-74300000D02*
X111925000Y-76700000D01*
X111925000Y-76700000D02*
X107225000Y-76700000D01*
D12*
%TO.C,J4*%
X108999100Y-25131600D02*
X108999100Y-32548400D01*
X108999100Y-32548400D02*
X113240900Y-32548400D01*
X113240900Y-25131600D02*
X108999100Y-25131600D01*
X113240900Y-32548400D02*
X113240900Y-25131600D01*
%TO.C,J8*%
X90285500Y-68257650D02*
X90285500Y-72499450D01*
X90285500Y-72499450D02*
X97702300Y-72499450D01*
X97702300Y-68257650D02*
X90285500Y-68257650D01*
X97702300Y-72499450D02*
X97702300Y-68257650D01*
D10*
%TO.C,J14*%
X108430000Y-112150000D02*
X108430000Y-120770000D01*
X108430000Y-120770000D02*
X111970000Y-120770000D01*
X111970000Y-112150000D02*
X108430000Y-112150000D01*
X111970000Y-120770000D02*
X111970000Y-112150000D01*
D11*
%TO.C,Q9*%
X118200000Y-48250000D02*
X126800000Y-48250000D01*
X118200000Y-60750000D02*
X118200000Y-48250000D01*
X126800000Y-48250000D02*
X126800000Y-60750000D01*
X126800000Y-60750000D02*
X118200000Y-60750000D01*
D10*
%TO.C,U3*%
X119612500Y-106380000D02*
X120612500Y-106380000D01*
X119612500Y-109380000D02*
X119612500Y-106380000D01*
X120612500Y-106180000D02*
X122712500Y-106180000D01*
X120612500Y-106380000D02*
X120612500Y-106180000D01*
X120612500Y-109380000D02*
X119612500Y-109380000D01*
X120612500Y-109580000D02*
X120612500Y-109380000D01*
X122712500Y-106180000D02*
X122712500Y-106380000D01*
X122712500Y-106380000D02*
X123712500Y-106380000D01*
X122712500Y-109380000D02*
X122712500Y-109580000D01*
X122712500Y-109580000D02*
X120612500Y-109580000D01*
X123712500Y-106380000D02*
X123712500Y-109380000D01*
X123712500Y-109380000D02*
X122712500Y-109380000D01*
%TO.C,J13*%
X112030000Y-112150000D02*
X112030000Y-120770000D01*
X112030000Y-120770000D02*
X115570000Y-120770000D01*
X115570000Y-112150000D02*
X112030000Y-112150000D01*
X115570000Y-120770000D02*
X115570000Y-112150000D01*
%TO.C,R8*%
X113030000Y-46080000D02*
X113970000Y-46080000D01*
X113030000Y-47940000D02*
X113030000Y-46080000D01*
X113970000Y-46080000D02*
X113970000Y-47940000D01*
X113970000Y-47940000D02*
X113030000Y-47940000D01*
D11*
%TO.C,Q1*%
X95200000Y-48250000D02*
X103800000Y-48250000D01*
X95200000Y-60750000D02*
X95200000Y-48250000D01*
X103800000Y-48250000D02*
X103800000Y-60750000D01*
X103800000Y-60750000D02*
X95200000Y-60750000D01*
D10*
%TO.C,R7*%
X120220000Y-72060000D02*
X122080000Y-72060000D01*
X120220000Y-73000000D02*
X120220000Y-72060000D01*
X122080000Y-72060000D02*
X122080000Y-73000000D01*
X122080000Y-73000000D02*
X120220000Y-73000000D01*
%TO.C,C21*%
X111245000Y-72270000D02*
X114205000Y-72270000D01*
X111245000Y-73730000D02*
X111245000Y-72270000D01*
X114205000Y-72270000D02*
X114205000Y-73730000D01*
X114205000Y-73730000D02*
X111245000Y-73730000D01*
%TO.C,C22*%
X106060000Y-65590000D02*
X106980000Y-65590000D01*
X106060000Y-67410000D02*
X106060000Y-65590000D01*
X106980000Y-65590000D02*
X106980000Y-67410000D01*
X106980000Y-67410000D02*
X106060000Y-67410000D01*
%TO.C,L1*%
X116000000Y-76350000D02*
X116000000Y-82850000D01*
X116000000Y-82850000D02*
X122600000Y-82850000D01*
X122600000Y-76350000D02*
X116000000Y-76350000D01*
X122600000Y-82850000D02*
X122600000Y-76350000D01*
%TO.C,C14*%
X123440000Y-76290000D02*
X124360000Y-76290000D01*
X123440000Y-78110000D02*
X123440000Y-76290000D01*
X124360000Y-76290000D02*
X124360000Y-78110000D01*
X124360000Y-78110000D02*
X123440000Y-78110000D01*
%TO.C,R9*%
X108030000Y-46080000D02*
X108970000Y-46080000D01*
X108030000Y-47940000D02*
X108030000Y-46080000D01*
X108970000Y-46080000D02*
X108970000Y-47940000D01*
X108970000Y-47940000D02*
X108030000Y-47940000D01*
%TO.C,R10*%
X120210000Y-73030000D02*
X122070000Y-73030000D01*
X120210000Y-73970000D02*
X120210000Y-73030000D01*
X122070000Y-73030000D02*
X122070000Y-73970000D01*
X122070000Y-73970000D02*
X120210000Y-73970000D01*
D13*
%TO.C,C15*%
X90342400Y-84843929D02*
X92493929Y-82692400D01*
X90342400Y-87856071D02*
X90342400Y-84843929D01*
X92493929Y-82692400D02*
X95506071Y-82692400D01*
X92493929Y-90007600D02*
X90342400Y-87856071D01*
X95506071Y-82692400D02*
X97657600Y-84843929D01*
X95506071Y-90007600D02*
X92493929Y-90007600D01*
X97657600Y-84843929D02*
X97657600Y-87856071D01*
X97657600Y-87856071D02*
X95506071Y-90007600D01*
D12*
%TO.C,U5*%
X106450800Y-68743600D02*
X106454400Y-68743600D01*
X106450800Y-72256400D02*
X106450800Y-68743600D01*
X106454400Y-68246004D02*
X106951736Y-68246004D01*
X106454400Y-68743600D02*
X106454400Y-68246004D01*
X106454400Y-72256400D02*
X106450800Y-72256400D01*
X106454400Y-72753996D02*
X106454400Y-72256400D01*
X106951736Y-68242400D02*
X110465064Y-68242400D01*
X106951736Y-68246004D02*
X106951736Y-68242400D01*
X106951736Y-72753996D02*
X106454400Y-72753996D01*
X106951736Y-72757600D02*
X106951736Y-72753996D01*
X110465064Y-68242400D02*
X110465064Y-68246004D01*
X110465064Y-68246004D02*
X110962400Y-68246004D01*
X110465064Y-72753996D02*
X110465064Y-72757600D01*
X110465064Y-72757600D02*
X106951736Y-72757600D01*
X110962400Y-68246004D02*
X110962400Y-68743600D01*
X110962400Y-68743600D02*
X110966000Y-68743600D01*
X110962400Y-72256400D02*
X110962400Y-72753996D01*
X110962400Y-72753996D02*
X110465064Y-72753996D01*
X110966000Y-68743600D02*
X110966000Y-72256400D01*
X110966000Y-72256400D02*
X110962400Y-72256400D01*
D10*
%TO.C,R5*%
X119530000Y-45780000D02*
X120470000Y-45780000D01*
X119530000Y-47640000D02*
X119530000Y-45780000D01*
X120470000Y-45780000D02*
X120470000Y-47640000D01*
X120470000Y-47640000D02*
X119530000Y-47640000D01*
D13*
%TO.C,C20*%
X97822400Y-68613929D02*
X99973929Y-66462400D01*
X97822400Y-71626071D02*
X97822400Y-68613929D01*
X99973929Y-66462400D02*
X102986071Y-66462400D01*
X99973929Y-73777600D02*
X97822400Y-71626071D01*
X102986071Y-66462400D02*
X105137600Y-68613929D01*
X102986071Y-73777600D02*
X99973929Y-73777600D01*
X105137600Y-68613929D02*
X105137600Y-71626071D01*
X105137600Y-71626071D02*
X102986071Y-73777600D01*
D10*
%TO.C,C10*%
X126970000Y-38490000D02*
X128430000Y-38490000D01*
X126970000Y-41450000D02*
X126970000Y-38490000D01*
X128430000Y-38490000D02*
X128430000Y-41450000D01*
X128430000Y-41450000D02*
X126970000Y-41450000D01*
%TO.C,R2*%
X90980000Y-116530000D02*
X92840000Y-116530000D01*
X90980000Y-117470000D02*
X90980000Y-116530000D01*
X92840000Y-116530000D02*
X92840000Y-117470000D01*
X92840000Y-117470000D02*
X90980000Y-117470000D01*
D12*
%TO.C,SW1*%
X90851595Y-101427130D02*
X94527125Y-97751600D01*
X90851595Y-106572870D02*
X90851595Y-101427130D01*
X94527125Y-97751600D02*
X99672865Y-97751600D01*
X94527125Y-110248400D02*
X90851595Y-106572870D01*
X99672865Y-97751600D02*
X103348395Y-101427130D01*
X99672865Y-110248400D02*
X94527125Y-110248400D01*
X103348395Y-101427130D02*
X103348395Y-106572870D01*
X103348395Y-106572870D02*
X99672865Y-110248400D01*
D13*
%TO.C,C18*%
X98092400Y-75993929D02*
X100243929Y-73842400D01*
X98092400Y-79006071D02*
X98092400Y-75993929D01*
X100243929Y-73842400D02*
X103256071Y-73842400D01*
X100243929Y-81157600D02*
X98092400Y-79006071D01*
X103256071Y-73842400D02*
X105407600Y-75993929D01*
X103256071Y-81157600D02*
X100243929Y-81157600D01*
X105407600Y-75993929D02*
X105407600Y-79006071D01*
X105407600Y-79006071D02*
X103256071Y-81157600D01*
D10*
%TO.C,J11*%
X121330000Y-61330000D02*
X121330000Y-69950000D01*
X121330000Y-69950000D02*
X124870000Y-69950000D01*
X124870000Y-61330000D02*
X121330000Y-61330000D01*
X124870000Y-69950000D02*
X124870000Y-61330000D01*
D12*
%TO.C,J5*%
X120439100Y-25101600D02*
X120439100Y-32518400D01*
X120439100Y-32518400D02*
X124680900Y-32518400D01*
X124680900Y-25101600D02*
X120439100Y-25101600D01*
X124680900Y-32518400D02*
X124680900Y-25101600D01*
D10*
%TO.C,R6*%
X96520000Y-46070000D02*
X97460000Y-46070000D01*
X96520000Y-47930000D02*
X96520000Y-46070000D01*
X97460000Y-46070000D02*
X97460000Y-47930000D01*
X97460000Y-47930000D02*
X96520000Y-47930000D01*
%TO.C,C4*%
X102040000Y-82710000D02*
X102960000Y-82710000D01*
X102040000Y-84530000D02*
X102040000Y-82710000D01*
X102960000Y-82710000D02*
X102960000Y-84530000D01*
X102960000Y-84530000D02*
X102040000Y-84530000D01*
D13*
%TO.C,C17*%
X90542400Y-76943929D02*
X92693929Y-74792400D01*
X90542400Y-79956071D02*
X90542400Y-76943929D01*
X92693929Y-74792400D02*
X95706071Y-74792400D01*
X92693929Y-82107600D02*
X90542400Y-79956071D01*
X95706071Y-74792400D02*
X97857600Y-76943929D01*
X95706071Y-82107600D02*
X92693929Y-82107600D01*
X97857600Y-76943929D02*
X97857600Y-79956071D01*
X97857600Y-79956071D02*
X95706071Y-82107600D01*
D10*
%TO.C,J3*%
X117670000Y-84800000D02*
X117670000Y-101040000D01*
X117670000Y-101040000D02*
X121210000Y-101040000D01*
X121210000Y-84800000D02*
X117670000Y-84800000D01*
X121210000Y-101040000D02*
X121210000Y-84800000D01*
%TO.C,R12*%
X124020000Y-45780000D02*
X124960000Y-45780000D01*
X124020000Y-47640000D02*
X124020000Y-45780000D01*
X124960000Y-45780000D02*
X124960000Y-47640000D01*
X124960000Y-47640000D02*
X124020000Y-47640000D01*
%TO.C,R18*%
X107030000Y-65570000D02*
X107970000Y-65570000D01*
X107030000Y-67430000D02*
X107030000Y-65570000D01*
X107970000Y-65570000D02*
X107970000Y-67430000D01*
X107970000Y-67430000D02*
X107030000Y-67430000D01*
%TO.C,J10*%
X91630000Y-54090000D02*
X91630000Y-62710000D01*
X91630000Y-62710000D02*
X95170000Y-62710000D01*
X95170000Y-54090000D02*
X91630000Y-54090000D01*
X95170000Y-62710000D02*
X95170000Y-54090000D01*
%TO.C,R14*%
X111345000Y-68270000D02*
X114305000Y-68270000D01*
X111345000Y-69730000D02*
X111345000Y-68270000D01*
X114305000Y-68270000D02*
X114305000Y-69730000D01*
X114305000Y-69730000D02*
X111345000Y-69730000D01*
D13*
%TO.C,C16*%
X105342400Y-79243929D02*
X107493929Y-77092400D01*
X105342400Y-82256071D02*
X105342400Y-79243929D01*
X107493929Y-77092400D02*
X110506071Y-77092400D01*
X107493929Y-84407600D02*
X105342400Y-82256071D01*
X110506071Y-77092400D02*
X112657600Y-79243929D01*
X110506071Y-84407600D02*
X107493929Y-84407600D01*
X112657600Y-79243929D02*
X112657600Y-82256071D01*
X112657600Y-82256071D02*
X110506071Y-84407600D01*
D10*
%TO.C,C7*%
X115060000Y-75290000D02*
X115980000Y-75290000D01*
X115060000Y-77110000D02*
X115060000Y-75290000D01*
X115980000Y-75290000D02*
X115980000Y-77110000D01*
X115980000Y-77110000D02*
X115060000Y-77110000D01*
D11*
%TO.C,Q10*%
X118230000Y-33070000D02*
X126830000Y-33070000D01*
X118230000Y-45570000D02*
X118230000Y-33070000D01*
X126830000Y-33070000D02*
X126830000Y-45570000D01*
X126830000Y-45570000D02*
X118230000Y-45570000D01*
%TD*%
M02*
