%TF.GenerationSoftware,KiCad,Pcbnew,9.0.2*%
%TF.CreationDate,2025-08-16T18:35:03-07:00*%
%TF.ProjectId,Transmitter,5472616e-736d-4697-9474-65722e6b6963,rev?*%
%TF.SameCoordinates,Original*%
%TF.FileFunction,Copper,L2,Inr*%
%TF.FilePolarity,Positive*%
%FSLAX46Y46*%
G04 Gerber Fmt 4.6, Leading zero omitted, Abs format (unit mm)*
G04 Created by KiCad (PCBNEW 9.0.2) date 2025-08-16 18:35:03*
%MOMM*%
%LPD*%
G01*
G04 APERTURE LIST*
%TA.AperFunction,ComponentPad*%
%ADD10C,1.828800*%
%TD*%
%TA.AperFunction,ComponentPad*%
%ADD11C,2.362200*%
%TD*%
%TA.AperFunction,ComponentPad*%
%ADD12C,1.524000*%
%TD*%
%TA.AperFunction,ComponentPad*%
%ADD13R,1.700000X1.700000*%
%TD*%
%TA.AperFunction,ComponentPad*%
%ADD14C,1.700000*%
%TD*%
%TA.AperFunction,ComponentPad*%
%ADD15C,1.270000*%
%TD*%
%TA.AperFunction,ComponentPad*%
%ADD16C,1.574800*%
%TD*%
%TA.AperFunction,ViaPad*%
%ADD17C,0.500000*%
%TD*%
%TA.AperFunction,ViaPad*%
%ADD18C,1.000000*%
%TD*%
%TA.AperFunction,ViaPad*%
%ADD19C,4.000000*%
%TD*%
G04 APERTURE END LIST*
D10*
%TO.N,Vbatt*%
%TO.C,J6*%
X117800000Y-119556100D03*
X117800000Y-114476100D03*
%TD*%
%TO.N,GND*%
%TO.C,J7*%
X122200000Y-119600000D03*
X122200000Y-114520000D03*
%TD*%
%TO.N,LoadA*%
%TO.C,J2*%
X99480000Y-31370000D03*
X99480000Y-26290000D03*
%TD*%
D11*
%TO.N,Vbatt*%
%TO.C,U1*%
X113300000Y-110221100D03*
%TO.N,V_in*%
X113300000Y-105395100D03*
%TO.N,unconnected-(U1-Pad3)*%
X113300000Y-100569100D03*
%TD*%
D10*
%TO.N,Vdc*%
%TO.C,J9*%
X91473900Y-65868550D03*
X96553900Y-65868550D03*
%TD*%
D12*
%TO.N,+3.3V*%
%TO.C,J1*%
X102900000Y-118900000D03*
%TO.N,GND*%
X102900000Y-116360000D03*
%TO.N,SPI1_CSN*%
X100360000Y-118900000D03*
%TO.N,NRF_CE*%
X100360000Y-116360000D03*
%TO.N,SPI1_MOSI*%
X97820000Y-118900000D03*
%TO.N,SPI1_SCK*%
X97820000Y-116360000D03*
%TO.N,NRF_IRQ*%
X95280000Y-118900000D03*
%TO.N,SPI1_MISO*%
X95280000Y-116360000D03*
%TD*%
D13*
%TO.N,+5V*%
%TO.C,J12*%
X106600000Y-119000000D03*
D14*
%TO.N,GND*%
X106600000Y-116460000D03*
%TO.N,LElevator*%
X106600000Y-113920000D03*
%TD*%
D10*
%TO.N,LoadB*%
%TO.C,J4*%
X111120000Y-31380000D03*
X111120000Y-26300000D03*
%TD*%
%TO.N,Vbatt*%
%TO.C,J8*%
X91453900Y-70378550D03*
X96533900Y-70378550D03*
%TD*%
D13*
%TO.N,+5V*%
%TO.C,J14*%
X110200000Y-119000000D03*
D14*
%TO.N,GND*%
X110200000Y-116460000D03*
%TO.N,Rudder*%
X110200000Y-113920000D03*
%TD*%
D13*
%TO.N,+5V*%
%TO.C,J13*%
X113800000Y-119000000D03*
D14*
%TO.N,GND*%
X113800000Y-116460000D03*
%TO.N,RElevator*%
X113800000Y-113920000D03*
%TD*%
D15*
%TO.N,GND*%
%TO.C,C15*%
X92750000Y-86350000D03*
%TO.N,Vdc*%
X95250000Y-86350000D03*
%TD*%
%TO.N,Vbatt*%
%TO.C,C20*%
X101480000Y-68870000D03*
%TO.N,GND*%
X101480000Y-71370000D03*
%TD*%
D16*
%TO.N,+3.3V*%
%TO.C,SW1*%
X94600000Y-106500000D03*
%TO.N,Net-(U2-BOOT0)*%
X94600000Y-101500000D03*
X99599990Y-101500000D03*
%TO.N,+3.3V*%
X99599990Y-106500000D03*
%TD*%
D15*
%TO.N,GND*%
%TO.C,C18*%
X100500000Y-77500000D03*
%TO.N,Vdc*%
X103000000Y-77500000D03*
%TD*%
D13*
%TO.N,+5V*%
%TO.C,J11*%
X123100000Y-63100000D03*
D14*
%TO.N,GND*%
X123100000Y-65640000D03*
%TO.N,RFlap*%
X123100000Y-68180000D03*
%TD*%
D10*
%TO.N,LoadC*%
%TO.C,J5*%
X122560000Y-31350000D03*
X122560000Y-26270000D03*
%TD*%
D15*
%TO.N,GND*%
%TO.C,C17*%
X92950000Y-78450000D03*
%TO.N,Vdc*%
X95450000Y-78450000D03*
%TD*%
D13*
%TO.N,+3.3V*%
%TO.C,J3*%
X119440000Y-86570000D03*
D14*
%TO.N,SWCLK*%
X119440000Y-89110000D03*
%TO.N,GND*%
X119440000Y-91650000D03*
%TO.N,SWDIO*%
X119440000Y-94190000D03*
%TO.N,NRST*%
X119440000Y-96730000D03*
%TO.N,unconnected-(J3-Pin_6-Pad6)*%
X119440000Y-99270000D03*
%TD*%
D13*
%TO.N,+5V*%
%TO.C,J10*%
X93400000Y-55860000D03*
D14*
%TO.N,GND*%
X93400000Y-58400000D03*
%TO.N,LFlap*%
X93400000Y-60940000D03*
%TD*%
D15*
%TO.N,GND*%
%TO.C,C16*%
X109000000Y-82000000D03*
%TO.N,Vdc*%
X109000000Y-79500000D03*
%TD*%
D17*
%TO.N,GND*%
X122360000Y-73500000D03*
X116887500Y-95190000D03*
D18*
%TO.N,+3.3V*%
X113450000Y-85890000D03*
X120020000Y-71550000D03*
D17*
X97775000Y-93965000D03*
X97710000Y-93390000D03*
D19*
%TO.N,LoadA*%
X99500000Y-37000000D03*
%TO.N,LoadB*%
X111000000Y-36800000D03*
%TO.N,Vdc*%
X122500000Y-57000000D03*
X111000000Y-57000000D03*
X99500000Y-57000000D03*
%TO.N,LoadC*%
X122530000Y-36820000D03*
D17*
%TO.N,GND*%
X124850000Y-82170000D03*
D18*
%TO.N,Vbatt*%
X105520000Y-68660000D03*
X107565400Y-69738000D03*
X105520000Y-67560000D03*
D19*
X113770000Y-79330000D03*
%TO.N,Vdc*%
X98000000Y-81600000D03*
D18*
X96830000Y-74120000D03*
D19*
X102323000Y-62650000D03*
X116530000Y-61700000D03*
D17*
X110915000Y-73075000D03*
X111055000Y-68345000D03*
D18*
%TO.N,GND*%
X92920000Y-50910000D03*
D17*
X107520000Y-70830000D03*
D18*
X93980000Y-50910000D03*
D19*
X114700000Y-43300000D03*
D17*
X108660000Y-70830000D03*
D18*
X103280000Y-88160000D03*
D17*
X121565500Y-107302860D03*
X121659393Y-106589393D03*
D18*
X115377000Y-70750000D03*
D17*
X107500000Y-71451458D03*
D18*
X100810000Y-93500000D03*
D19*
X103340000Y-43160000D03*
D17*
X114890000Y-75710000D03*
X113660000Y-75710000D03*
D19*
X125260000Y-43000000D03*
D18*
X117010000Y-70760000D03*
D17*
X114580000Y-71920000D03*
X114600000Y-69950000D03*
X98445000Y-85365000D03*
X122100000Y-104550000D03*
D18*
X108400000Y-100360000D03*
X109167400Y-69750000D03*
D17*
X108690000Y-71450000D03*
X111223000Y-71102000D03*
D18*
%TO.N,+3.3V*%
X121810000Y-101524156D03*
X122275000Y-102785000D03*
X110500000Y-97600000D03*
X101300000Y-88300000D03*
D17*
X102500000Y-83140000D03*
D18*
X100500000Y-87900000D03*
X108900000Y-99100000D03*
X123110000Y-101950000D03*
D17*
%TO.N,S1*%
X104075000Y-83530000D03*
X104500000Y-50500000D03*
%TO.N,S2*%
X104575000Y-82625000D03*
X99325000Y-43525000D03*
%TO.N,S3*%
X116000000Y-50480000D03*
X105300000Y-82960000D03*
%TO.N,S4*%
X105610000Y-83690000D03*
X110585000Y-43315000D03*
%TO.N,S5*%
X126400000Y-51110000D03*
X106155000Y-84745000D03*
%TO.N,S6*%
X106410000Y-83810000D03*
X122300000Y-43000000D03*
D18*
%TO.N,+5V*%
X125000000Y-63100000D03*
X125183552Y-75816448D03*
X125223552Y-77423552D03*
X124900000Y-61600000D03*
X123723552Y-78923552D03*
X95300000Y-55700000D03*
D17*
X112900000Y-66743464D03*
D18*
X95300000Y-54500000D03*
D17*
%TO.N,Vdd*%
X113670000Y-70030000D03*
X113050000Y-65600000D03*
%TO.N,LFlap*%
X97800000Y-88500000D03*
%TO.N,RFlap*%
X112100000Y-86960000D03*
%TO.N,Vfb*%
X108210000Y-73700000D03*
X112800000Y-68000000D03*
%TD*%
%TA.AperFunction,Conductor*%
%TO.N,+3.3V*%
G36*
X101701446Y-116820165D02*
G01*
X101740484Y-116865218D01*
X101820213Y-117021694D01*
X101937019Y-117182464D01*
X102077536Y-117322981D01*
X102238306Y-117439787D01*
X102395332Y-117519796D01*
X102446127Y-117567769D01*
X102462922Y-117635590D01*
X102440385Y-117701725D01*
X102395332Y-117740764D01*
X102238566Y-117820641D01*
X102201283Y-117847729D01*
X102201282Y-117847730D01*
X102764058Y-118410504D01*
X102703919Y-118426619D01*
X102588080Y-118493498D01*
X102493498Y-118588080D01*
X102426619Y-118703919D01*
X102410504Y-118764057D01*
X101847730Y-118201282D01*
X101847729Y-118201283D01*
X101820641Y-118238566D01*
X101740764Y-118395332D01*
X101692790Y-118446127D01*
X101624969Y-118462922D01*
X101558834Y-118440384D01*
X101519796Y-118395332D01*
X101439787Y-118238306D01*
X101322981Y-118077536D01*
X101182464Y-117937019D01*
X101021694Y-117820213D01*
X100865218Y-117740484D01*
X100814423Y-117692510D01*
X100797628Y-117624689D01*
X100820165Y-117558554D01*
X100865218Y-117519515D01*
X101021694Y-117439787D01*
X101182464Y-117322981D01*
X101322981Y-117182464D01*
X101439787Y-117021694D01*
X101519515Y-116865218D01*
X101567490Y-116814423D01*
X101635311Y-116797628D01*
X101701446Y-116820165D01*
G37*
%TD.AperFunction*%
%TA.AperFunction,Conductor*%
G36*
X126480719Y-83683809D02*
G01*
X126527792Y-83735441D01*
X126540334Y-83789585D01*
X126599801Y-121075609D01*
X126580223Y-121142680D01*
X126527492Y-121188519D01*
X126475609Y-121199807D01*
X122655901Y-121193901D01*
X122588892Y-121174113D01*
X122543219Y-121121238D01*
X122533383Y-121052064D01*
X122562506Y-120988553D01*
X122617776Y-120951970D01*
X122743128Y-120911241D01*
X122743130Y-120911239D01*
X122743133Y-120911239D01*
X122941569Y-120810131D01*
X123121745Y-120679225D01*
X123279225Y-120521745D01*
X123410131Y-120341569D01*
X123511239Y-120143133D01*
X123527746Y-120092331D01*
X123580059Y-119931327D01*
X123580059Y-119931326D01*
X123580060Y-119931323D01*
X123614900Y-119711355D01*
X123614900Y-119488645D01*
X123580060Y-119268677D01*
X123580059Y-119268673D01*
X123580059Y-119268672D01*
X123511240Y-119056869D01*
X123410130Y-118858430D01*
X123391741Y-118833120D01*
X123279225Y-118678255D01*
X123121745Y-118520775D01*
X122941569Y-118389869D01*
X122743130Y-118288759D01*
X122531326Y-118219940D01*
X122366347Y-118193810D01*
X122311355Y-118185100D01*
X122088645Y-118185100D01*
X122015322Y-118196713D01*
X121868675Y-118219940D01*
X121868672Y-118219940D01*
X121656869Y-118288759D01*
X121458430Y-118389869D01*
X121388903Y-118440384D01*
X121278255Y-118520775D01*
X121278253Y-118520777D01*
X121278252Y-118520777D01*
X121120777Y-118678252D01*
X121120777Y-118678253D01*
X121120775Y-118678255D01*
X121102129Y-118703919D01*
X120989869Y-118858430D01*
X120888759Y-119056869D01*
X120819940Y-119268672D01*
X120819940Y-119268675D01*
X120785100Y-119488645D01*
X120785100Y-119711354D01*
X120819940Y-119931324D01*
X120819940Y-119931327D01*
X120888759Y-120143130D01*
X120965526Y-120293793D01*
X120989869Y-120341569D01*
X121120775Y-120521745D01*
X121278255Y-120679225D01*
X121458431Y-120810131D01*
X121656867Y-120911239D01*
X121656869Y-120911240D01*
X121777863Y-120950553D01*
X121835538Y-120989990D01*
X121862737Y-121054348D01*
X121850823Y-121123195D01*
X121803579Y-121174671D01*
X121739353Y-121192484D01*
X118123627Y-121186893D01*
X118056618Y-121167105D01*
X118010945Y-121114230D01*
X118001109Y-121045056D01*
X118030232Y-120981545D01*
X118089068Y-120943862D01*
X118104405Y-120940423D01*
X118131323Y-120936160D01*
X118343133Y-120867339D01*
X118541569Y-120766231D01*
X118721745Y-120635325D01*
X118879225Y-120477845D01*
X119010131Y-120297669D01*
X119111239Y-120099233D01*
X119157297Y-119957482D01*
X119180059Y-119887427D01*
X119180059Y-119887426D01*
X119180060Y-119887423D01*
X119214900Y-119667455D01*
X119214900Y-119444745D01*
X119180060Y-119224777D01*
X119180059Y-119224773D01*
X119180059Y-119224772D01*
X119111240Y-119012969D01*
X119104286Y-118999321D01*
X119010131Y-118814531D01*
X118879225Y-118634355D01*
X118721745Y-118476875D01*
X118541569Y-118345969D01*
X118429288Y-118288759D01*
X118343130Y-118244859D01*
X118131326Y-118176040D01*
X117966347Y-118149910D01*
X117911355Y-118141200D01*
X117688645Y-118141200D01*
X117615322Y-118152813D01*
X117468675Y-118176040D01*
X117468672Y-118176040D01*
X117256869Y-118244859D01*
X117058430Y-118345969D01*
X116990490Y-118395331D01*
X116878255Y-118476875D01*
X116878253Y-118476877D01*
X116878252Y-118476877D01*
X116720777Y-118634352D01*
X116720777Y-118634353D01*
X116720775Y-118634355D01*
X116688882Y-118678252D01*
X116589869Y-118814530D01*
X116488759Y-119012969D01*
X116419940Y-119224772D01*
X116419940Y-119224775D01*
X116385100Y-119444745D01*
X116385100Y-119667454D01*
X116419940Y-119887424D01*
X116419940Y-119887427D01*
X116488759Y-120099230D01*
X116587894Y-120293793D01*
X116589869Y-120297669D01*
X116720775Y-120477845D01*
X116878255Y-120635325D01*
X117058431Y-120766231D01*
X117144588Y-120810130D01*
X117256869Y-120867340D01*
X117468670Y-120936158D01*
X117468671Y-120936158D01*
X117468677Y-120936160D01*
X117489193Y-120939409D01*
X117552326Y-120969336D01*
X117589258Y-121028647D01*
X117588262Y-121098510D01*
X117549653Y-121156743D01*
X117485690Y-121184859D01*
X117469603Y-121185882D01*
X90223808Y-121143755D01*
X90156799Y-121123967D01*
X90111126Y-121071092D01*
X90100000Y-121019755D01*
X90100000Y-116260639D01*
X94017500Y-116260639D01*
X94017500Y-116459360D01*
X94048587Y-116655637D01*
X94109993Y-116844629D01*
X94109994Y-116844632D01*
X94200213Y-117021694D01*
X94317019Y-117182464D01*
X94457536Y-117322981D01*
X94618306Y-117439787D01*
X94644876Y-117453325D01*
X94774780Y-117519515D01*
X94825576Y-117567490D01*
X94842371Y-117635311D01*
X94819833Y-117701446D01*
X94774780Y-117740485D01*
X94618305Y-117820213D01*
X94457533Y-117937021D01*
X94317021Y-118077533D01*
X94200213Y-118238305D01*
X94109994Y-118415367D01*
X94109993Y-118415370D01*
X94048587Y-118604362D01*
X94017500Y-118800639D01*
X94017500Y-118999360D01*
X94048587Y-119195637D01*
X94109993Y-119384629D01*
X94109994Y-119384632D01*
X94200076Y-119561425D01*
X94200213Y-119561694D01*
X94317019Y-119722464D01*
X94457536Y-119862981D01*
X94618306Y-119979787D01*
X94705149Y-120024035D01*
X94795367Y-120070005D01*
X94795370Y-120070006D01*
X94864081Y-120092331D01*
X94984364Y-120131413D01*
X95180639Y-120162500D01*
X95180640Y-120162500D01*
X95379360Y-120162500D01*
X95379361Y-120162500D01*
X95575636Y-120131413D01*
X95764632Y-120070005D01*
X95941694Y-119979787D01*
X96102464Y-119862981D01*
X96242981Y-119722464D01*
X96359787Y-119561694D01*
X96439515Y-119405218D01*
X96487490Y-119354423D01*
X96555311Y-119337628D01*
X96621446Y-119360165D01*
X96660484Y-119405218D01*
X96740213Y-119561694D01*
X96857019Y-119722464D01*
X96997536Y-119862981D01*
X97158306Y-119979787D01*
X97245149Y-120024035D01*
X97335367Y-120070005D01*
X97335370Y-120070006D01*
X97404081Y-120092331D01*
X97524364Y-120131413D01*
X97720639Y-120162500D01*
X97720640Y-120162500D01*
X97919360Y-120162500D01*
X97919361Y-120162500D01*
X98115636Y-120131413D01*
X98304632Y-120070005D01*
X98481694Y-119979787D01*
X98642464Y-119862981D01*
X98782981Y-119722464D01*
X98899787Y-119561694D01*
X98979515Y-119405218D01*
X99027490Y-119354423D01*
X99095311Y-119337628D01*
X99161446Y-119360165D01*
X99200484Y-119405218D01*
X99280213Y-119561694D01*
X99397019Y-119722464D01*
X99537536Y-119862981D01*
X99698306Y-119979787D01*
X99785149Y-120024035D01*
X99875367Y-120070005D01*
X99875370Y-120070006D01*
X99944081Y-120092331D01*
X100064364Y-120131413D01*
X100260639Y-120162500D01*
X100260640Y-120162500D01*
X100459360Y-120162500D01*
X100459361Y-120162500D01*
X100655636Y-120131413D01*
X100844632Y-120070005D01*
X101021694Y-119979787D01*
X101182464Y-119862981D01*
X101322981Y-119722464D01*
X101439787Y-119561694D01*
X101519796Y-119404667D01*
X101567769Y-119353872D01*
X101635590Y-119337077D01*
X101701725Y-119359614D01*
X101740765Y-119404668D01*
X101820641Y-119561432D01*
X101847730Y-119598715D01*
X101847731Y-119598716D01*
X102410504Y-119035942D01*
X102426619Y-119096081D01*
X102493498Y-119211920D01*
X102588080Y-119306502D01*
X102703919Y-119373381D01*
X102764057Y-119389494D01*
X102201283Y-119952268D01*
X102201283Y-119952269D01*
X102238567Y-119979358D01*
X102415562Y-120069542D01*
X102604477Y-120130924D01*
X102800679Y-120162000D01*
X102999321Y-120162000D01*
X103195520Y-120130924D01*
X103195523Y-120130924D01*
X103384437Y-120069542D01*
X103561425Y-119979362D01*
X103598716Y-119952268D01*
X103035942Y-119389494D01*
X103096081Y-119373381D01*
X103211920Y-119306502D01*
X103306502Y-119211920D01*
X103373381Y-119096081D01*
X103389495Y-119035942D01*
X103952268Y-119598715D01*
X103979362Y-119561425D01*
X104069542Y-119384437D01*
X104130924Y-119195523D01*
X104130924Y-119195520D01*
X104162000Y-118999321D01*
X104162000Y-118800678D01*
X104130924Y-118604479D01*
X104130924Y-118604476D01*
X104069542Y-118415562D01*
X103979358Y-118238567D01*
X103952268Y-118201283D01*
X103389494Y-118764057D01*
X103373381Y-118703919D01*
X103306502Y-118588080D01*
X103211920Y-118493498D01*
X103096081Y-118426619D01*
X103035942Y-118410504D01*
X103598716Y-117847731D01*
X103598715Y-117847730D01*
X103561432Y-117820641D01*
X103404668Y-117740765D01*
X103353872Y-117692790D01*
X103337077Y-117624969D01*
X103359615Y-117558834D01*
X103404667Y-117519796D01*
X103561694Y-117439787D01*
X103722464Y-117322981D01*
X103862981Y-117182464D01*
X103979787Y-117021694D01*
X104070005Y-116844632D01*
X104131413Y-116655636D01*
X104162500Y-116459361D01*
X104162500Y-116260639D01*
X104131413Y-116064364D01*
X104070005Y-115875368D01*
X104070005Y-115875367D01*
X104007237Y-115752179D01*
X103979787Y-115698306D01*
X103862981Y-115537536D01*
X103722464Y-115397019D01*
X103561694Y-115280213D01*
X103384632Y-115189994D01*
X103384629Y-115189993D01*
X103195637Y-115128587D01*
X103097498Y-115113043D01*
X102999361Y-115097500D01*
X102800639Y-115097500D01*
X102735214Y-115107862D01*
X102604362Y-115128587D01*
X102415370Y-115189993D01*
X102415367Y-115189994D01*
X102238305Y-115280213D01*
X102077533Y-115397021D01*
X101937021Y-115537533D01*
X101820213Y-115698305D01*
X101740485Y-115854780D01*
X101692510Y-115905576D01*
X101624689Y-115922371D01*
X101558554Y-115899833D01*
X101519515Y-115854780D01*
X101467237Y-115752179D01*
X101439787Y-115698306D01*
X101322981Y-115537536D01*
X101182464Y-115397019D01*
X101021694Y-115280213D01*
X100844632Y-115189994D01*
X100844629Y-115189993D01*
X100655637Y-115128587D01*
X100557498Y-115113043D01*
X100459361Y-115097500D01*
X100260639Y-115097500D01*
X100195214Y-115107862D01*
X100064362Y-115128587D01*
X99875370Y-115189993D01*
X99875367Y-115189994D01*
X99698305Y-115280213D01*
X99537533Y-115397021D01*
X99397021Y-115537533D01*
X99280213Y-115698305D01*
X99200485Y-115854780D01*
X99152510Y-115905576D01*
X99084689Y-115922371D01*
X99018554Y-115899833D01*
X98979515Y-115854780D01*
X98927237Y-115752179D01*
X98899787Y-115698306D01*
X98782981Y-115537536D01*
X98642464Y-115397019D01*
X98481694Y-115280213D01*
X98304632Y-115189994D01*
X98304629Y-115189993D01*
X98115637Y-115128587D01*
X98017498Y-115113043D01*
X97919361Y-115097500D01*
X97720639Y-115097500D01*
X97655214Y-115107862D01*
X97524362Y-115128587D01*
X97335370Y-115189993D01*
X97335367Y-115189994D01*
X97158305Y-115280213D01*
X96997533Y-115397021D01*
X96857021Y-115537533D01*
X96740213Y-115698305D01*
X96660485Y-115854780D01*
X96612510Y-115905576D01*
X96544689Y-115922371D01*
X96478554Y-115899833D01*
X96439515Y-115854780D01*
X96387237Y-115752179D01*
X96359787Y-115698306D01*
X96242981Y-115537536D01*
X96102464Y-115397019D01*
X95941694Y-115280213D01*
X95764632Y-115189994D01*
X95764629Y-115189993D01*
X95575637Y-115128587D01*
X95477498Y-115113043D01*
X95379361Y-115097500D01*
X95180639Y-115097500D01*
X95115214Y-115107862D01*
X94984362Y-115128587D01*
X94795370Y-115189993D01*
X94795367Y-115189994D01*
X94618305Y-115280213D01*
X94457533Y-115397021D01*
X94317021Y-115537533D01*
X94200213Y-115698305D01*
X94109994Y-115875367D01*
X94109993Y-115875370D01*
X94048587Y-116064362D01*
X94017500Y-116260639D01*
X90100000Y-116260639D01*
X90100000Y-113813713D01*
X105249500Y-113813713D01*
X105249500Y-114026286D01*
X105282753Y-114236239D01*
X105348444Y-114438414D01*
X105444951Y-114627820D01*
X105569890Y-114799786D01*
X105720213Y-114950109D01*
X105892182Y-115075050D01*
X105900946Y-115079516D01*
X105951742Y-115127491D01*
X105968536Y-115195312D01*
X105945998Y-115261447D01*
X105900946Y-115300484D01*
X105892182Y-115304949D01*
X105720213Y-115429890D01*
X105569890Y-115580213D01*
X105444951Y-115752179D01*
X105348444Y-115941585D01*
X105282753Y-116143760D01*
X105249500Y-116353713D01*
X105249500Y-116566287D01*
X105282754Y-116776243D01*
X105311664Y-116865219D01*
X105348444Y-116978414D01*
X105444951Y-117167820D01*
X105569890Y-117339786D01*
X105683430Y-117453326D01*
X105716915Y-117514649D01*
X105711931Y-117584341D01*
X105670059Y-117640274D01*
X105639083Y-117657189D01*
X105507669Y-117706203D01*
X105507664Y-117706206D01*
X105392455Y-117792452D01*
X105392452Y-117792455D01*
X105306206Y-117907664D01*
X105306202Y-117907671D01*
X105255908Y-118042517D01*
X105249501Y-118102116D01*
X105249501Y-118102123D01*
X105249500Y-118102135D01*
X105249500Y-119897870D01*
X105249501Y-119897876D01*
X105255908Y-119957483D01*
X105306202Y-120092328D01*
X105306206Y-120092335D01*
X105392452Y-120207544D01*
X105392455Y-120207547D01*
X105507664Y-120293793D01*
X105507671Y-120293797D01*
X105642517Y-120344091D01*
X105642516Y-120344091D01*
X105649444Y-120344835D01*
X105702127Y-120350500D01*
X107497872Y-120350499D01*
X107557483Y-120344091D01*
X107692331Y-120293796D01*
X107807546Y-120207546D01*
X107893796Y-120092331D01*
X107944091Y-119957483D01*
X107950500Y-119897873D01*
X107950499Y-118102128D01*
X107944091Y-118042517D01*
X107893796Y-117907669D01*
X107893795Y-117907668D01*
X107893793Y-117907664D01*
X107807547Y-117792455D01*
X107807544Y-117792452D01*
X107692335Y-117706206D01*
X107692328Y-117706202D01*
X107560917Y-117657189D01*
X107504983Y-117615318D01*
X107480566Y-117549853D01*
X107495418Y-117481580D01*
X107516563Y-117453332D01*
X107630104Y-117339792D01*
X107755051Y-117167816D01*
X107851557Y-116978412D01*
X107917246Y-116776243D01*
X107950500Y-116566287D01*
X107950500Y-116353713D01*
X107917246Y-116143757D01*
X107851557Y-115941588D01*
X107755051Y-115752184D01*
X107755049Y-115752181D01*
X107755048Y-115752179D01*
X107630109Y-115580213D01*
X107479786Y-115429890D01*
X107307820Y-115304951D01*
X107307115Y-115304591D01*
X107299054Y-115300485D01*
X107248259Y-115252512D01*
X107231463Y-115184692D01*
X107253999Y-115118556D01*
X107299054Y-115079515D01*
X107307816Y-115075051D01*
X107329789Y-115059086D01*
X107479786Y-114950109D01*
X107479788Y-114950106D01*
X107479792Y-114950104D01*
X107630104Y-114799792D01*
X107630106Y-114799788D01*
X107630109Y-114799786D01*
X107752480Y-114631355D01*
X107755051Y-114627816D01*
X107851557Y-114438412D01*
X107917246Y-114236243D01*
X107950500Y-114026287D01*
X107950500Y-113813713D01*
X108849500Y-113813713D01*
X108849500Y-114026286D01*
X108882753Y-114236239D01*
X108948444Y-114438414D01*
X109044951Y-114627820D01*
X109169890Y-114799786D01*
X109320213Y-114950109D01*
X109492182Y-115075050D01*
X109500946Y-115079516D01*
X109551742Y-115127491D01*
X109568536Y-115195312D01*
X109545998Y-115261447D01*
X109500946Y-115300484D01*
X109492182Y-115304949D01*
X109320213Y-115429890D01*
X109169890Y-115580213D01*
X109044951Y-115752179D01*
X108948444Y-115941585D01*
X108882753Y-116143760D01*
X108849500Y-116353713D01*
X108849500Y-116566287D01*
X108882754Y-116776243D01*
X108911664Y-116865219D01*
X108948444Y-116978414D01*
X109044951Y-117167820D01*
X109169890Y-117339786D01*
X109283430Y-117453326D01*
X109316915Y-117514649D01*
X109311931Y-117584341D01*
X109270059Y-117640274D01*
X109239083Y-117657189D01*
X109107669Y-117706203D01*
X109107664Y-117706206D01*
X108992455Y-117792452D01*
X108992452Y-117792455D01*
X108906206Y-117907664D01*
X108906202Y-117907671D01*
X108855908Y-118042517D01*
X108849501Y-118102116D01*
X108849501Y-118102123D01*
X108849500Y-118102135D01*
X108849500Y-119897870D01*
X108849501Y-119897876D01*
X108855908Y-119957483D01*
X108906202Y-120092328D01*
X108906206Y-120092335D01*
X108992452Y-120207544D01*
X108992455Y-120207547D01*
X109107664Y-120293793D01*
X109107671Y-120293797D01*
X109242517Y-120344091D01*
X109242516Y-120344091D01*
X109249444Y-120344835D01*
X109302127Y-120350500D01*
X111097872Y-120350499D01*
X111157483Y-120344091D01*
X111292331Y-120293796D01*
X111407546Y-120207546D01*
X111493796Y-120092331D01*
X111544091Y-119957483D01*
X111550500Y-119897873D01*
X111550499Y-118102128D01*
X111544091Y-118042517D01*
X111493796Y-117907669D01*
X111493795Y-117907668D01*
X111493793Y-117907664D01*
X111407547Y-117792455D01*
X111407544Y-117792452D01*
X111292335Y-117706206D01*
X111292328Y-117706202D01*
X111160917Y-117657189D01*
X111104983Y-117615318D01*
X111080566Y-117549853D01*
X111095418Y-117481580D01*
X111116563Y-117453332D01*
X111230104Y-117339792D01*
X111355051Y-117167816D01*
X111451557Y-116978412D01*
X111517246Y-116776243D01*
X111550500Y-116566287D01*
X111550500Y-116353713D01*
X111517246Y-116143757D01*
X111451557Y-115941588D01*
X111355051Y-115752184D01*
X111355049Y-115752181D01*
X111355048Y-115752179D01*
X111230109Y-115580213D01*
X111079786Y-115429890D01*
X110907820Y-115304951D01*
X110907115Y-115304591D01*
X110899054Y-115300485D01*
X110848259Y-115252512D01*
X110831463Y-115184692D01*
X110853999Y-115118556D01*
X110899054Y-115079515D01*
X110907816Y-115075051D01*
X110929789Y-115059086D01*
X111079786Y-114950109D01*
X111079788Y-114950106D01*
X111079792Y-114950104D01*
X111230104Y-114799792D01*
X111230106Y-114799788D01*
X111230109Y-114799786D01*
X111352480Y-114631355D01*
X111355051Y-114627816D01*
X111451557Y-114438412D01*
X111517246Y-114236243D01*
X111550500Y-114026287D01*
X111550500Y-113813713D01*
X112449500Y-113813713D01*
X112449500Y-114026286D01*
X112482753Y-114236239D01*
X112548444Y-114438414D01*
X112644951Y-114627820D01*
X112769890Y-114799786D01*
X112920213Y-114950109D01*
X113092182Y-115075050D01*
X113100946Y-115079516D01*
X113151742Y-115127491D01*
X113168536Y-115195312D01*
X113145998Y-115261447D01*
X113100946Y-115300484D01*
X113092182Y-115304949D01*
X112920213Y-115429890D01*
X112769890Y-115580213D01*
X112644951Y-115752179D01*
X112548444Y-115941585D01*
X112482753Y-116143760D01*
X112449500Y-116353713D01*
X112449500Y-116566287D01*
X112482754Y-116776243D01*
X112511664Y-116865219D01*
X112548444Y-116978414D01*
X112644951Y-117167820D01*
X112769890Y-117339786D01*
X112883430Y-117453326D01*
X112916915Y-117514649D01*
X112911931Y-117584341D01*
X112870059Y-117640274D01*
X112839083Y-117657189D01*
X112707669Y-117706203D01*
X112707664Y-117706206D01*
X112592455Y-117792452D01*
X112592452Y-117792455D01*
X112506206Y-117907664D01*
X112506202Y-117907671D01*
X112455908Y-118042517D01*
X112449501Y-118102116D01*
X112449501Y-118102123D01*
X112449500Y-118102135D01*
X112449500Y-119897870D01*
X112449501Y-119897876D01*
X112455908Y-119957483D01*
X112506202Y-120092328D01*
X112506206Y-120092335D01*
X112592452Y-120207544D01*
X112592455Y-120207547D01*
X112707664Y-120293793D01*
X112707671Y-120293797D01*
X112842517Y-120344091D01*
X112842516Y-120344091D01*
X112849444Y-120344835D01*
X112902127Y-120350500D01*
X114697872Y-120350499D01*
X114757483Y-120344091D01*
X114892331Y-120293796D01*
X115007546Y-120207546D01*
X115093796Y-120092331D01*
X115144091Y-119957483D01*
X115150500Y-119897873D01*
X115150499Y-118102128D01*
X115144091Y-118042517D01*
X115093796Y-117907669D01*
X115093795Y-117907668D01*
X115093793Y-117907664D01*
X115007547Y-117792455D01*
X115007544Y-117792452D01*
X114892335Y-117706206D01*
X114892328Y-117706202D01*
X114760917Y-117657189D01*
X114704983Y-117615318D01*
X114680566Y-117549853D01*
X114695418Y-117481580D01*
X114716563Y-117453332D01*
X114830104Y-117339792D01*
X114955051Y-117167816D01*
X115051557Y-116978412D01*
X115117246Y-116776243D01*
X115150500Y-116566287D01*
X115150500Y-116353713D01*
X115117246Y-116143757D01*
X115051557Y-115941588D01*
X114955051Y-115752184D01*
X114955049Y-115752181D01*
X114955048Y-115752179D01*
X114830109Y-115580213D01*
X114679786Y-115429890D01*
X114507820Y-115304951D01*
X114507115Y-115304591D01*
X114499054Y-115300485D01*
X114448259Y-115252512D01*
X114431463Y-115184692D01*
X114453999Y-115118556D01*
X114499054Y-115079515D01*
X114507816Y-115075051D01*
X114529789Y-115059086D01*
X114679786Y-114950109D01*
X114679788Y-114950106D01*
X114679792Y-114950104D01*
X114830104Y-114799792D01*
X114830106Y-114799788D01*
X114830109Y-114799786D01*
X114952480Y-114631355D01*
X114955051Y-114627816D01*
X115051557Y-114438412D01*
X115075493Y-114364745D01*
X116385100Y-114364745D01*
X116385100Y-114587454D01*
X116419940Y-114807424D01*
X116419940Y-114807427D01*
X116488759Y-115019230D01*
X116566374Y-115171557D01*
X116589869Y-115217669D01*
X116720775Y-115397845D01*
X116878255Y-115555325D01*
X117058431Y-115686231D01*
X117256867Y-115787339D01*
X117256869Y-115787340D01*
X117468673Y-115856159D01*
X117468674Y-115856159D01*
X117468677Y-115856160D01*
X117688645Y-115891000D01*
X117688646Y-115891000D01*
X117911354Y-115891000D01*
X117911355Y-115891000D01*
X118131323Y-115856160D01*
X118131326Y-115856159D01*
X118131327Y-115856159D01*
X118343130Y-115787340D01*
X118343130Y-115787339D01*
X118343133Y-115787339D01*
X118541569Y-115686231D01*
X118721745Y-115555325D01*
X118879225Y-115397845D01*
X119010131Y-115217669D01*
X119111239Y-115019233D01*
X119180060Y-114807423D01*
X119214900Y-114587455D01*
X119214900Y-114408645D01*
X120785100Y-114408645D01*
X120785100Y-114631354D01*
X120819940Y-114851324D01*
X120819940Y-114851327D01*
X120888759Y-115063130D01*
X120950698Y-115184692D01*
X120989869Y-115261569D01*
X121120775Y-115441745D01*
X121278255Y-115599225D01*
X121458431Y-115730131D01*
X121656867Y-115831239D01*
X121656869Y-115831240D01*
X121868673Y-115900059D01*
X121868674Y-115900059D01*
X121868677Y-115900060D01*
X122088645Y-115934900D01*
X122088646Y-115934900D01*
X122311354Y-115934900D01*
X122311355Y-115934900D01*
X122531323Y-115900060D01*
X122531326Y-115900059D01*
X122531327Y-115900059D01*
X122743130Y-115831240D01*
X122743130Y-115831239D01*
X122743133Y-115831239D01*
X122941569Y-115730131D01*
X123121745Y-115599225D01*
X123279225Y-115441745D01*
X123410131Y-115261569D01*
X123511239Y-115063133D01*
X123580060Y-114851323D01*
X123614900Y-114631355D01*
X123614900Y-114408645D01*
X123580060Y-114188677D01*
X123580059Y-114188673D01*
X123580059Y-114188672D01*
X123511240Y-113976869D01*
X123410130Y-113778430D01*
X123279225Y-113598255D01*
X123121745Y-113440775D01*
X122941569Y-113309869D01*
X122743130Y-113208759D01*
X122531326Y-113139940D01*
X122366347Y-113113810D01*
X122311355Y-113105100D01*
X122088645Y-113105100D01*
X122015322Y-113116713D01*
X121868675Y-113139940D01*
X121868672Y-113139940D01*
X121656869Y-113208759D01*
X121458430Y-113309869D01*
X121355633Y-113384556D01*
X121278255Y-113440775D01*
X121278253Y-113440777D01*
X121278252Y-113440777D01*
X121120777Y-113598252D01*
X121120777Y-113598253D01*
X121120775Y-113598255D01*
X121064556Y-113675633D01*
X120989869Y-113778430D01*
X120888759Y-113976869D01*
X120819940Y-114188672D01*
X120819940Y-114188675D01*
X120785100Y-114408645D01*
X119214900Y-114408645D01*
X119214900Y-114364745D01*
X119180060Y-114144777D01*
X119180059Y-114144773D01*
X119180059Y-114144772D01*
X119111240Y-113932969D01*
X119032499Y-113778431D01*
X119010131Y-113734531D01*
X118879225Y-113554355D01*
X118721745Y-113396875D01*
X118541569Y-113265969D01*
X118429288Y-113208759D01*
X118343130Y-113164859D01*
X118131326Y-113096040D01*
X117966347Y-113069910D01*
X117911355Y-113061200D01*
X117688645Y-113061200D01*
X117615322Y-113072813D01*
X117468675Y-113096040D01*
X117468672Y-113096040D01*
X117256869Y-113164859D01*
X117058430Y-113265969D01*
X116998008Y-113309869D01*
X116878255Y-113396875D01*
X116878253Y-113396877D01*
X116878252Y-113396877D01*
X116720777Y-113554352D01*
X116720777Y-113554353D01*
X116720775Y-113554355D01*
X116688882Y-113598252D01*
X116589869Y-113734530D01*
X116488759Y-113932969D01*
X116419940Y-114144772D01*
X116419940Y-114144775D01*
X116385100Y-114364745D01*
X115075493Y-114364745D01*
X115117246Y-114236243D01*
X115150500Y-114026287D01*
X115150500Y-113813713D01*
X115117246Y-113603757D01*
X115051557Y-113401588D01*
X114955051Y-113212184D01*
X114955049Y-113212181D01*
X114955048Y-113212179D01*
X114830109Y-113040213D01*
X114679786Y-112889890D01*
X114507820Y-112764951D01*
X114318414Y-112668444D01*
X114318413Y-112668443D01*
X114318412Y-112668443D01*
X114116243Y-112602754D01*
X114116241Y-112602753D01*
X114116240Y-112602753D01*
X113954957Y-112577208D01*
X113906287Y-112569500D01*
X113693713Y-112569500D01*
X113645042Y-112577208D01*
X113483760Y-112602753D01*
X113281585Y-112668444D01*
X113092179Y-112764951D01*
X112920213Y-112889890D01*
X112769890Y-113040213D01*
X112644951Y-113212179D01*
X112548444Y-113401585D01*
X112482753Y-113603760D01*
X112449500Y-113813713D01*
X111550500Y-113813713D01*
X111517246Y-113603757D01*
X111451557Y-113401588D01*
X111355051Y-113212184D01*
X111355049Y-113212181D01*
X111355048Y-113212179D01*
X111230109Y-113040213D01*
X111079786Y-112889890D01*
X110907820Y-112764951D01*
X110718414Y-112668444D01*
X110718413Y-112668443D01*
X110718412Y-112668443D01*
X110516243Y-112602754D01*
X110516241Y-112602753D01*
X110516240Y-112602753D01*
X110354957Y-112577208D01*
X110306287Y-112569500D01*
X110093713Y-112569500D01*
X110045042Y-112577208D01*
X109883760Y-112602753D01*
X109681585Y-112668444D01*
X109492179Y-112764951D01*
X109320213Y-112889890D01*
X109169890Y-113040213D01*
X109044951Y-113212179D01*
X108948444Y-113401585D01*
X108882753Y-113603760D01*
X108849500Y-113813713D01*
X107950500Y-113813713D01*
X107917246Y-113603757D01*
X107851557Y-113401588D01*
X107755051Y-113212184D01*
X107755049Y-113212181D01*
X107755048Y-113212179D01*
X107630109Y-113040213D01*
X107479786Y-112889890D01*
X107307820Y-112764951D01*
X107118414Y-112668444D01*
X107118413Y-112668443D01*
X107118412Y-112668443D01*
X106916243Y-112602754D01*
X106916241Y-112602753D01*
X106916240Y-112602753D01*
X106754957Y-112577208D01*
X106706287Y-112569500D01*
X106493713Y-112569500D01*
X106445042Y-112577208D01*
X106283760Y-112602753D01*
X106081585Y-112668444D01*
X105892179Y-112764951D01*
X105720213Y-112889890D01*
X105569890Y-113040213D01*
X105444951Y-113212179D01*
X105348444Y-113401585D01*
X105282753Y-113603760D01*
X105249500Y-113813713D01*
X90100000Y-113813713D01*
X90100000Y-110110874D01*
X111618400Y-110110874D01*
X111618400Y-110331325D01*
X111647172Y-110549864D01*
X111704227Y-110762796D01*
X111788581Y-110966444D01*
X111788586Y-110966455D01*
X111898796Y-111157343D01*
X111898807Y-111157359D01*
X112032992Y-111332233D01*
X112032998Y-111332240D01*
X112188859Y-111488101D01*
X112188865Y-111488106D01*
X112363749Y-111622299D01*
X112363756Y-111622303D01*
X112554644Y-111732513D01*
X112554649Y-111732515D01*
X112554652Y-111732517D01*
X112758308Y-111816874D01*
X112971232Y-111873927D01*
X113189782Y-111902700D01*
X113189789Y-111902700D01*
X113410211Y-111902700D01*
X113410218Y-111902700D01*
X113628768Y-111873927D01*
X113841692Y-111816874D01*
X114045348Y-111732517D01*
X114236251Y-111622299D01*
X114411135Y-111488106D01*
X114567006Y-111332235D01*
X114701199Y-111157351D01*
X114811417Y-110966448D01*
X114895774Y-110762792D01*
X114952827Y-110549868D01*
X114981600Y-110331318D01*
X114981600Y-110110882D01*
X114952827Y-109892332D01*
X114895774Y-109679408D01*
X114811417Y-109475752D01*
X114811415Y-109475749D01*
X114811413Y-109475744D01*
X114701203Y-109284856D01*
X114701199Y-109284849D01*
X114567006Y-109109965D01*
X114567001Y-109109959D01*
X114411140Y-108954098D01*
X114411133Y-108954092D01*
X114236259Y-108819907D01*
X114236257Y-108819905D01*
X114236251Y-108819901D01*
X114236246Y-108819898D01*
X114236243Y-108819896D01*
X114045355Y-108709686D01*
X114045344Y-108709681D01*
X113841696Y-108625327D01*
X113628764Y-108568272D01*
X113410225Y-108539500D01*
X113410218Y-108539500D01*
X113189782Y-108539500D01*
X113189774Y-108539500D01*
X112971235Y-108568272D01*
X112758303Y-108625327D01*
X112554655Y-108709681D01*
X112554644Y-108709686D01*
X112363756Y-108819896D01*
X112363740Y-108819907D01*
X112188866Y-108954092D01*
X112188859Y-108954098D01*
X112032998Y-109109959D01*
X112032992Y-109109966D01*
X111898807Y-109284840D01*
X111898796Y-109284856D01*
X111788586Y-109475744D01*
X111788581Y-109475755D01*
X111704227Y-109679403D01*
X111647172Y-109892335D01*
X111618400Y-110110874D01*
X90100000Y-110110874D01*
X90100000Y-106398679D01*
X93312600Y-106398679D01*
X93312600Y-106601320D01*
X93344299Y-106801463D01*
X93406921Y-106994192D01*
X93498916Y-107174744D01*
X93529545Y-107216899D01*
X93529546Y-107216900D01*
X94089765Y-106656680D01*
X94102950Y-106705885D01*
X94173174Y-106827515D01*
X94272485Y-106926826D01*
X94394115Y-106997050D01*
X94443319Y-107010234D01*
X93883099Y-107570453D01*
X93883099Y-107570454D01*
X93925254Y-107601082D01*
X94105807Y-107693078D01*
X94298536Y-107755700D01*
X94298535Y-107755700D01*
X94498680Y-107787400D01*
X94701320Y-107787400D01*
X94901463Y-107755700D01*
X95094192Y-107693078D01*
X95274747Y-107601081D01*
X95274751Y-107601079D01*
X95316899Y-107570454D01*
X95316900Y-107570454D01*
X94756680Y-107010234D01*
X94805885Y-106997050D01*
X94927515Y-106926826D01*
X95026826Y-106827515D01*
X95097050Y-106705885D01*
X95110234Y-106656680D01*
X95670453Y-107216900D01*
X95670454Y-107216899D01*
X95701079Y-107174751D01*
X95701081Y-107174747D01*
X95793078Y-106994192D01*
X95855700Y-106801463D01*
X95887400Y-106601320D01*
X95887400Y-106398679D01*
X98312590Y-106398679D01*
X98312590Y-106601320D01*
X98344289Y-106801463D01*
X98406911Y-106994192D01*
X98498906Y-107174744D01*
X98529535Y-107216899D01*
X98529536Y-107216900D01*
X99089755Y-106656680D01*
X99102940Y-106705885D01*
X99173164Y-106827515D01*
X99272475Y-106926826D01*
X99394105Y-106997050D01*
X99443309Y-107010234D01*
X98883089Y-107570453D01*
X98883089Y-107570454D01*
X98925244Y-107601082D01*
X99105797Y-107693078D01*
X99298526Y-107755700D01*
X99298525Y-107755700D01*
X99498670Y-107787400D01*
X99701310Y-107787400D01*
X99901453Y-107755700D01*
X100094182Y-107693078D01*
X100274737Y-107601081D01*
X100274741Y-107601079D01*
X100316889Y-107570454D01*
X100316890Y-107570454D01*
X100123216Y-107376780D01*
X120814999Y-107376780D01*
X120843840Y-107521767D01*
X120843843Y-107521777D01*
X120900412Y-107658348D01*
X120900419Y-107658361D01*
X120982548Y-107781275D01*
X120982551Y-107781279D01*
X121087080Y-107885808D01*
X121087084Y-107885811D01*
X121209998Y-107967940D01*
X121210011Y-107967947D01*
X121346582Y-108024516D01*
X121346587Y-108024518D01*
X121346591Y-108024518D01*
X121346592Y-108024519D01*
X121491579Y-108053360D01*
X121491582Y-108053360D01*
X121639420Y-108053360D01*
X121736962Y-108033956D01*
X121784413Y-108024518D01*
X121920995Y-107967944D01*
X122043916Y-107885811D01*
X122148451Y-107781276D01*
X122230584Y-107658355D01*
X122287158Y-107521773D01*
X122316000Y-107376778D01*
X122316000Y-107228942D01*
X122316000Y-107228939D01*
X122287160Y-107083956D01*
X122287159Y-107083952D01*
X122287158Y-107083947D01*
X122287155Y-107083940D01*
X122286825Y-107082851D01*
X122286819Y-107082242D01*
X122285970Y-107077972D01*
X122286779Y-107077810D01*
X122286196Y-107012984D01*
X122302379Y-106977958D01*
X122324477Y-106944888D01*
X122381051Y-106808306D01*
X122390489Y-106760855D01*
X122409893Y-106663313D01*
X122409893Y-106515472D01*
X122381052Y-106370485D01*
X122381051Y-106370484D01*
X122381051Y-106370480D01*
X122349420Y-106294115D01*
X122324480Y-106233904D01*
X122324473Y-106233891D01*
X122242344Y-106110977D01*
X122242341Y-106110973D01*
X122137812Y-106006444D01*
X122137808Y-106006441D01*
X122014894Y-105924312D01*
X122014881Y-105924305D01*
X121878310Y-105867736D01*
X121878300Y-105867733D01*
X121733313Y-105838893D01*
X121733311Y-105838893D01*
X121585475Y-105838893D01*
X121585473Y-105838893D01*
X121440485Y-105867733D01*
X121440475Y-105867736D01*
X121303904Y-105924305D01*
X121303891Y-105924312D01*
X121180977Y-106006441D01*
X121180973Y-106006444D01*
X121076444Y-106110973D01*
X121076441Y-106110977D01*
X120994312Y-106233891D01*
X120994305Y-106233904D01*
X120937736Y-106370475D01*
X120937733Y-106370485D01*
X120908893Y-106515472D01*
X120908893Y-106515475D01*
X120908893Y-106663311D01*
X120908893Y-106663313D01*
X120908892Y-106663313D01*
X120937734Y-106808304D01*
X120938070Y-106809411D01*
X120938075Y-106810019D01*
X120938923Y-106814280D01*
X120938114Y-106814440D01*
X120938693Y-106879278D01*
X120922512Y-106914294D01*
X120900415Y-106947364D01*
X120900414Y-106947366D01*
X120843843Y-107083942D01*
X120843840Y-107083952D01*
X120815000Y-107228939D01*
X120815000Y-107228942D01*
X120815000Y-107376778D01*
X120815000Y-107376780D01*
X120814999Y-107376780D01*
X100123216Y-107376780D01*
X99756670Y-107010234D01*
X99805875Y-106997050D01*
X99927505Y-106926826D01*
X100026816Y-106827515D01*
X100097040Y-106705885D01*
X100110224Y-106656680D01*
X100670443Y-107216900D01*
X100670444Y-107216899D01*
X100701069Y-107174751D01*
X100701074Y-107174741D01*
X100705247Y-107166554D01*
X100793068Y-106994192D01*
X100855690Y-106801463D01*
X100887390Y-106601320D01*
X100887390Y-106398679D01*
X100855690Y-106198536D01*
X100793068Y-106005807D01*
X100701072Y-105825254D01*
X100670443Y-105783099D01*
X100110223Y-106343318D01*
X100097040Y-106294115D01*
X100026816Y-106172485D01*
X99927505Y-106073174D01*
X99805875Y-106002950D01*
X99756670Y-105989765D01*
X100316890Y-105429546D01*
X100316889Y-105429545D01*
X100274731Y-105398915D01*
X100259802Y-105391308D01*
X100259801Y-105391308D01*
X100094182Y-105306921D01*
X100026329Y-105284874D01*
X111618400Y-105284874D01*
X111618400Y-105505325D01*
X111647172Y-105723864D01*
X111704227Y-105936796D01*
X111788581Y-106140444D01*
X111788586Y-106140455D01*
X111898796Y-106331343D01*
X111898807Y-106331359D01*
X112032992Y-106506233D01*
X112032998Y-106506240D01*
X112188859Y-106662101D01*
X112188865Y-106662106D01*
X112363749Y-106796299D01*
X112363756Y-106796303D01*
X112554644Y-106906513D01*
X112554649Y-106906515D01*
X112554652Y-106906517D01*
X112758308Y-106990874D01*
X112971232Y-107047927D01*
X113189782Y-107076700D01*
X113189789Y-107076700D01*
X113410211Y-107076700D01*
X113410218Y-107076700D01*
X113628768Y-107047927D01*
X113841692Y-106990874D01*
X114045348Y-106906517D01*
X114236251Y-106796299D01*
X114411135Y-106662106D01*
X114567006Y-106506235D01*
X114701199Y-106331351D01*
X114811417Y-106140448D01*
X114895774Y-105936792D01*
X114952827Y-105723868D01*
X114981600Y-105505318D01*
X114981600Y-105284882D01*
X114952827Y-105066332D01*
X114895774Y-104853408D01*
X114811417Y-104649752D01*
X114811415Y-104649749D01*
X114811413Y-104649744D01*
X114796503Y-104623920D01*
X121349499Y-104623920D01*
X121378340Y-104768907D01*
X121378343Y-104768917D01*
X121434912Y-104905488D01*
X121434919Y-104905501D01*
X121517048Y-105028415D01*
X121517051Y-105028419D01*
X121621580Y-105132948D01*
X121621584Y-105132951D01*
X121744498Y-105215080D01*
X121744511Y-105215087D01*
X121815036Y-105244299D01*
X121881087Y-105271658D01*
X121881091Y-105271658D01*
X121881092Y-105271659D01*
X122026079Y-105300500D01*
X122026082Y-105300500D01*
X122173920Y-105300500D01*
X122271462Y-105281096D01*
X122318913Y-105271658D01*
X122455495Y-105215084D01*
X122578416Y-105132951D01*
X122682951Y-105028416D01*
X122765084Y-104905495D01*
X122821658Y-104768913D01*
X122850500Y-104623918D01*
X122850500Y-104476082D01*
X122850500Y-104476079D01*
X122821659Y-104331092D01*
X122821658Y-104331091D01*
X122821658Y-104331087D01*
X122802140Y-104283966D01*
X122765087Y-104194511D01*
X122765080Y-104194498D01*
X122682951Y-104071584D01*
X122682948Y-104071580D01*
X122578419Y-103967051D01*
X122578415Y-103967048D01*
X122455501Y-103884919D01*
X122455488Y-103884912D01*
X122318917Y-103828343D01*
X122318907Y-103828340D01*
X122173920Y-103799500D01*
X122173918Y-103799500D01*
X122026082Y-103799500D01*
X122026080Y-103799500D01*
X121881092Y-103828340D01*
X121881082Y-103828343D01*
X121744511Y-103884912D01*
X121744498Y-103884919D01*
X121621584Y-103967048D01*
X121621580Y-103967051D01*
X121517051Y-104071580D01*
X121517048Y-104071584D01*
X121434919Y-104194498D01*
X121434912Y-104194511D01*
X121378343Y-104331082D01*
X121378340Y-104331092D01*
X121349500Y-104476079D01*
X121349500Y-104476082D01*
X121349500Y-104623918D01*
X121349500Y-104623920D01*
X121349499Y-104623920D01*
X114796503Y-104623920D01*
X114743427Y-104531990D01*
X114711148Y-104476082D01*
X114701199Y-104458849D01*
X114567006Y-104283965D01*
X114567001Y-104283959D01*
X114411140Y-104128098D01*
X114411133Y-104128092D01*
X114236259Y-103993907D01*
X114236257Y-103993905D01*
X114236251Y-103993901D01*
X114236246Y-103993898D01*
X114236243Y-103993896D01*
X114045355Y-103883686D01*
X114045344Y-103883681D01*
X113841696Y-103799327D01*
X113628764Y-103742272D01*
X113410225Y-103713500D01*
X113410218Y-103713500D01*
X113189782Y-103713500D01*
X113189774Y-103713500D01*
X112971235Y-103742272D01*
X112758303Y-103799327D01*
X112554655Y-103883681D01*
X112554644Y-103883686D01*
X112363756Y-103993896D01*
X112363740Y-103993907D01*
X112188866Y-104128092D01*
X112188859Y-104128098D01*
X112032998Y-104283959D01*
X112032992Y-104283966D01*
X111898807Y-104458840D01*
X111898796Y-104458856D01*
X111788586Y-104649744D01*
X111788581Y-104649755D01*
X111704227Y-104853403D01*
X111647172Y-105066335D01*
X111618400Y-105284874D01*
X100026329Y-105284874D01*
X99901453Y-105244299D01*
X99901454Y-105244299D01*
X99701310Y-105212600D01*
X99498670Y-105212600D01*
X99298526Y-105244299D01*
X99105797Y-105306921D01*
X98925240Y-105398919D01*
X98883089Y-105429544D01*
X98883088Y-105429545D01*
X99443309Y-105989765D01*
X99394105Y-106002950D01*
X99272475Y-106073174D01*
X99173164Y-106172485D01*
X99102940Y-106294115D01*
X99089756Y-106343319D01*
X98529535Y-105783098D01*
X98529534Y-105783099D01*
X98498909Y-105825250D01*
X98406911Y-106005807D01*
X98344289Y-106198536D01*
X98312590Y-106398679D01*
X95887400Y-106398679D01*
X95855700Y-106198536D01*
X95793078Y-106005807D01*
X95701082Y-105825254D01*
X95670453Y-105783099D01*
X95110233Y-106343318D01*
X95097050Y-106294115D01*
X95026826Y-106172485D01*
X94927515Y-106073174D01*
X94805885Y-106002950D01*
X94756680Y-105989765D01*
X95316900Y-105429546D01*
X95316899Y-105429545D01*
X95274744Y-105398916D01*
X95094192Y-105306921D01*
X94901463Y-105244299D01*
X94901464Y-105244299D01*
X94701320Y-105212600D01*
X94498680Y-105212600D01*
X94298536Y-105244299D01*
X94105807Y-105306921D01*
X93925250Y-105398919D01*
X93883099Y-105429544D01*
X93883098Y-105429545D01*
X94443319Y-105989765D01*
X94394115Y-106002950D01*
X94272485Y-106073174D01*
X94173174Y-106172485D01*
X94102950Y-106294115D01*
X94089766Y-106343319D01*
X93529545Y-105783098D01*
X93529544Y-105783099D01*
X93498919Y-105825250D01*
X93406921Y-106005807D01*
X93344299Y-106198536D01*
X93312600Y-106398679D01*
X90100000Y-106398679D01*
X90100000Y-101398640D01*
X93312100Y-101398640D01*
X93312100Y-101601359D01*
X93324592Y-101680233D01*
X93343813Y-101801584D01*
X93406457Y-101994382D01*
X93493327Y-102164874D01*
X93498492Y-102175009D01*
X93617639Y-102339004D01*
X93760995Y-102482360D01*
X93914456Y-102593854D01*
X93924994Y-102601510D01*
X94105618Y-102693543D01*
X94298416Y-102756187D01*
X94498640Y-102787900D01*
X94498641Y-102787900D01*
X94701359Y-102787900D01*
X94701360Y-102787900D01*
X94901584Y-102756187D01*
X95094382Y-102693543D01*
X95275006Y-102601510D01*
X95367085Y-102534610D01*
X95439004Y-102482360D01*
X95439006Y-102482357D01*
X95439010Y-102482355D01*
X95582355Y-102339010D01*
X95582357Y-102339006D01*
X95582360Y-102339004D01*
X95667420Y-102221927D01*
X95701510Y-102175006D01*
X95793543Y-101994382D01*
X95856187Y-101801584D01*
X95887900Y-101601360D01*
X95887900Y-101398640D01*
X98312090Y-101398640D01*
X98312090Y-101601359D01*
X98324582Y-101680233D01*
X98343803Y-101801584D01*
X98406447Y-101994382D01*
X98493317Y-102164874D01*
X98498482Y-102175009D01*
X98617629Y-102339004D01*
X98760985Y-102482360D01*
X98914446Y-102593854D01*
X98924984Y-102601510D01*
X99105608Y-102693543D01*
X99298406Y-102756187D01*
X99498630Y-102787900D01*
X99498631Y-102787900D01*
X99701349Y-102787900D01*
X99701350Y-102787900D01*
X99901574Y-102756187D01*
X100094372Y-102693543D01*
X100274996Y-102601510D01*
X100367075Y-102534610D01*
X100438994Y-102482360D01*
X100438996Y-102482357D01*
X100439000Y-102482355D01*
X100582345Y-102339010D01*
X100582347Y-102339006D01*
X100582350Y-102339004D01*
X100667410Y-102221927D01*
X100701500Y-102175006D01*
X100793533Y-101994382D01*
X100856177Y-101801584D01*
X100887890Y-101601360D01*
X100887890Y-101398640D01*
X100856177Y-101198416D01*
X100793533Y-101005618D01*
X100701500Y-100824994D01*
X100693844Y-100814456D01*
X100582350Y-100660995D01*
X100438994Y-100517639D01*
X100357654Y-100458543D01*
X107399499Y-100458543D01*
X107437947Y-100651829D01*
X107437950Y-100651839D01*
X107513364Y-100833907D01*
X107513371Y-100833920D01*
X107622860Y-100997781D01*
X107622863Y-100997785D01*
X107762214Y-101137136D01*
X107762218Y-101137139D01*
X107926079Y-101246628D01*
X107926092Y-101246635D01*
X108089826Y-101314455D01*
X108108165Y-101322051D01*
X108108169Y-101322051D01*
X108108170Y-101322052D01*
X108301456Y-101360500D01*
X108301459Y-101360500D01*
X108498543Y-101360500D01*
X108628582Y-101334632D01*
X108691835Y-101322051D01*
X108873914Y-101246632D01*
X109037782Y-101137139D01*
X109177139Y-100997782D01*
X109286632Y-100833914D01*
X109362051Y-100651835D01*
X109387966Y-100521555D01*
X109400434Y-100458874D01*
X111618400Y-100458874D01*
X111618400Y-100679325D01*
X111647172Y-100897864D01*
X111704227Y-101110796D01*
X111788581Y-101314444D01*
X111788586Y-101314455D01*
X111898796Y-101505343D01*
X111898807Y-101505359D01*
X112032992Y-101680233D01*
X112032998Y-101680240D01*
X112188859Y-101836101D01*
X112188865Y-101836106D01*
X112363749Y-101970299D01*
X112363756Y-101970303D01*
X112554644Y-102080513D01*
X112554649Y-102080515D01*
X112554652Y-102080517D01*
X112758308Y-102164874D01*
X112971232Y-102221927D01*
X113189782Y-102250700D01*
X113189789Y-102250700D01*
X113410211Y-102250700D01*
X113410218Y-102250700D01*
X113628768Y-102221927D01*
X113841692Y-102164874D01*
X114045348Y-102080517D01*
X114236251Y-101970299D01*
X114411135Y-101836106D01*
X114567006Y-101680235D01*
X114701199Y-101505351D01*
X114811417Y-101314448D01*
X114895774Y-101110792D01*
X114952827Y-100897868D01*
X114981600Y-100679318D01*
X114981600Y-100458882D01*
X114952827Y-100240332D01*
X114895774Y-100027408D01*
X114811417Y-99823752D01*
X114811415Y-99823749D01*
X114811413Y-99823744D01*
X114701203Y-99632856D01*
X114701199Y-99632849D01*
X114662560Y-99582494D01*
X114567007Y-99457966D01*
X114567001Y-99457959D01*
X114411140Y-99302098D01*
X114411133Y-99302092D01*
X114236259Y-99167907D01*
X114236257Y-99167905D01*
X114236251Y-99167901D01*
X114236246Y-99167898D01*
X114236243Y-99167896D01*
X114045355Y-99057686D01*
X114045344Y-99057681D01*
X113841696Y-98973327D01*
X113628764Y-98916272D01*
X113410225Y-98887500D01*
X113410218Y-98887500D01*
X113189782Y-98887500D01*
X113189774Y-98887500D01*
X112971235Y-98916272D01*
X112758303Y-98973327D01*
X112554655Y-99057681D01*
X112554644Y-99057686D01*
X112363756Y-99167896D01*
X112363740Y-99167907D01*
X112188866Y-99302092D01*
X112188859Y-99302098D01*
X112032998Y-99457959D01*
X112032992Y-99457966D01*
X111898807Y-99632840D01*
X111898796Y-99632856D01*
X111788586Y-99823744D01*
X111788581Y-99823755D01*
X111704227Y-100027403D01*
X111647172Y-100240335D01*
X111618400Y-100458874D01*
X109400434Y-100458874D01*
X109400500Y-100458543D01*
X109400500Y-100261456D01*
X109362052Y-100068170D01*
X109362051Y-100068169D01*
X109362051Y-100068165D01*
X109324628Y-99977816D01*
X109286635Y-99886092D01*
X109286628Y-99886079D01*
X109177139Y-99722218D01*
X109177136Y-99722214D01*
X109037785Y-99582863D01*
X109037781Y-99582860D01*
X108873920Y-99473371D01*
X108873907Y-99473364D01*
X108691839Y-99397950D01*
X108691829Y-99397947D01*
X108498543Y-99359500D01*
X108498541Y-99359500D01*
X108301459Y-99359500D01*
X108301457Y-99359500D01*
X108108170Y-99397947D01*
X108108160Y-99397950D01*
X107926092Y-99473364D01*
X107926079Y-99473371D01*
X107762218Y-99582860D01*
X107762214Y-99582863D01*
X107622863Y-99722214D01*
X107622860Y-99722218D01*
X107513371Y-99886079D01*
X107513364Y-99886092D01*
X107437950Y-100068160D01*
X107437947Y-100068170D01*
X107399500Y-100261456D01*
X107399500Y-100261459D01*
X107399500Y-100458541D01*
X107399500Y-100458543D01*
X107399499Y-100458543D01*
X100357654Y-100458543D01*
X100274995Y-100398489D01*
X100274994Y-100398488D01*
X100210944Y-100365852D01*
X100210941Y-100365852D01*
X100094374Y-100306458D01*
X100094373Y-100306457D01*
X100094372Y-100306457D01*
X99901574Y-100243813D01*
X99901572Y-100243812D01*
X99901570Y-100243812D01*
X99761772Y-100221670D01*
X99701350Y-100212100D01*
X99498630Y-100212100D01*
X99452214Y-100219451D01*
X99298409Y-100243812D01*
X99298406Y-100243813D01*
X99125161Y-100300104D01*
X99105605Y-100306458D01*
X98924980Y-100398492D01*
X98760985Y-100517639D01*
X98617629Y-100660995D01*
X98498482Y-100824990D01*
X98406448Y-101005615D01*
X98343802Y-101198419D01*
X98312090Y-101398640D01*
X95887900Y-101398640D01*
X95856187Y-101198416D01*
X95793543Y-101005618D01*
X95701510Y-100824994D01*
X95693854Y-100814456D01*
X95582360Y-100660995D01*
X95439004Y-100517639D01*
X95275009Y-100398492D01*
X95275008Y-100398491D01*
X95275006Y-100398490D01*
X95094382Y-100306457D01*
X94901584Y-100243813D01*
X94901582Y-100243812D01*
X94901580Y-100243812D01*
X94761782Y-100221670D01*
X94701360Y-100212100D01*
X94498640Y-100212100D01*
X94452224Y-100219451D01*
X94298419Y-100243812D01*
X94298416Y-100243813D01*
X94125171Y-100300104D01*
X94105615Y-100306458D01*
X93924990Y-100398492D01*
X93760995Y-100517639D01*
X93617639Y-100660995D01*
X93498492Y-100824990D01*
X93406458Y-101005615D01*
X93343812Y-101198419D01*
X93312100Y-101398640D01*
X90100000Y-101398640D01*
X90100000Y-95263920D01*
X116136999Y-95263920D01*
X116165840Y-95408907D01*
X116165843Y-95408917D01*
X116222412Y-95545488D01*
X116222419Y-95545501D01*
X116304548Y-95668415D01*
X116304551Y-95668419D01*
X116409080Y-95772948D01*
X116409084Y-95772951D01*
X116531998Y-95855080D01*
X116532011Y-95855087D01*
X116668582Y-95911656D01*
X116668587Y-95911658D01*
X116668591Y-95911658D01*
X116668592Y-95911659D01*
X116813579Y-95940500D01*
X116813582Y-95940500D01*
X116961420Y-95940500D01*
X117058962Y-95921096D01*
X117106413Y-95911658D01*
X117242995Y-95855084D01*
X117365916Y-95772951D01*
X117470451Y-95668416D01*
X117552584Y-95545495D01*
X117609158Y-95408913D01*
X117620973Y-95349516D01*
X117638000Y-95263920D01*
X117638000Y-95116079D01*
X117609159Y-94971092D01*
X117609158Y-94971091D01*
X117609158Y-94971087D01*
X117578810Y-94897820D01*
X117552587Y-94834511D01*
X117552580Y-94834498D01*
X117470451Y-94711584D01*
X117470448Y-94711580D01*
X117365919Y-94607051D01*
X117365915Y-94607048D01*
X117243001Y-94524919D01*
X117242988Y-94524912D01*
X117106417Y-94468343D01*
X117106407Y-94468340D01*
X116961420Y-94439500D01*
X116961418Y-94439500D01*
X116813582Y-94439500D01*
X116813580Y-94439500D01*
X116668592Y-94468340D01*
X116668582Y-94468343D01*
X116532011Y-94524912D01*
X116531998Y-94524919D01*
X116409084Y-94607048D01*
X116409080Y-94607051D01*
X116304551Y-94711580D01*
X116304548Y-94711584D01*
X116222419Y-94834498D01*
X116222412Y-94834511D01*
X116165843Y-94971082D01*
X116165840Y-94971092D01*
X116137000Y-95116079D01*
X116137000Y-95116082D01*
X116137000Y-95263918D01*
X116137000Y-95263920D01*
X116136999Y-95263920D01*
X90100000Y-95263920D01*
X90100000Y-93598543D01*
X99809499Y-93598543D01*
X99847947Y-93791829D01*
X99847950Y-93791839D01*
X99923364Y-93973907D01*
X99923371Y-93973920D01*
X100032860Y-94137781D01*
X100032863Y-94137785D01*
X100172214Y-94277136D01*
X100172218Y-94277139D01*
X100336079Y-94386628D01*
X100336092Y-94386635D01*
X100518160Y-94462049D01*
X100518165Y-94462051D01*
X100518169Y-94462051D01*
X100518170Y-94462052D01*
X100711456Y-94500500D01*
X100711459Y-94500500D01*
X100908543Y-94500500D01*
X101070218Y-94468340D01*
X101101835Y-94462051D01*
X101283914Y-94386632D01*
X101447782Y-94277139D01*
X101587139Y-94137782D01*
X101696632Y-93973914D01*
X101772051Y-93791835D01*
X101795970Y-93671588D01*
X101810500Y-93598543D01*
X101810500Y-93401456D01*
X101772052Y-93208170D01*
X101772051Y-93208169D01*
X101772051Y-93208165D01*
X101772049Y-93208160D01*
X101696635Y-93026092D01*
X101696628Y-93026079D01*
X101587139Y-92862218D01*
X101587136Y-92862214D01*
X101447785Y-92722863D01*
X101447781Y-92722860D01*
X101283920Y-92613371D01*
X101283907Y-92613364D01*
X101101839Y-92537950D01*
X101101829Y-92537947D01*
X100908543Y-92499500D01*
X100908541Y-92499500D01*
X100711459Y-92499500D01*
X100711457Y-92499500D01*
X100518170Y-92537947D01*
X100518160Y-92537950D01*
X100336092Y-92613364D01*
X100336079Y-92613371D01*
X100172218Y-92722860D01*
X100172214Y-92722863D01*
X100032863Y-92862214D01*
X100032860Y-92862218D01*
X99923371Y-93026079D01*
X99923364Y-93026092D01*
X99847950Y-93208160D01*
X99847947Y-93208170D01*
X99809500Y-93401456D01*
X99809500Y-93401459D01*
X99809500Y-93598541D01*
X99809500Y-93598543D01*
X99809499Y-93598543D01*
X90100000Y-93598543D01*
X90100000Y-88573920D01*
X97049499Y-88573920D01*
X97078340Y-88718907D01*
X97078343Y-88718917D01*
X97134912Y-88855488D01*
X97134919Y-88855501D01*
X97217048Y-88978415D01*
X97217051Y-88978419D01*
X97321580Y-89082948D01*
X97321584Y-89082951D01*
X97444498Y-89165080D01*
X97444511Y-89165087D01*
X97568118Y-89216286D01*
X97581087Y-89221658D01*
X97581091Y-89221658D01*
X97581092Y-89221659D01*
X97726079Y-89250500D01*
X97726082Y-89250500D01*
X97873920Y-89250500D01*
X97971462Y-89231096D01*
X98018913Y-89221658D01*
X98155495Y-89165084D01*
X98278416Y-89082951D01*
X98382951Y-88978416D01*
X98465084Y-88855495D01*
X98521658Y-88718913D01*
X98550500Y-88573918D01*
X98550500Y-88426082D01*
X98550500Y-88426079D01*
X98521659Y-88281092D01*
X98521658Y-88281091D01*
X98521658Y-88281087D01*
X98512320Y-88258543D01*
X102279499Y-88258543D01*
X102317947Y-88451829D01*
X102317950Y-88451839D01*
X102393364Y-88633907D01*
X102393371Y-88633920D01*
X102502860Y-88797781D01*
X102502863Y-88797785D01*
X102642214Y-88937136D01*
X102642218Y-88937139D01*
X102806079Y-89046628D01*
X102806092Y-89046635D01*
X102988160Y-89122049D01*
X102988165Y-89122051D01*
X102988169Y-89122051D01*
X102988170Y-89122052D01*
X103181456Y-89160500D01*
X103181459Y-89160500D01*
X103378543Y-89160500D01*
X103508582Y-89134632D01*
X103571835Y-89122051D01*
X103753914Y-89046632D01*
X103818147Y-89003713D01*
X118089500Y-89003713D01*
X118089500Y-89216287D01*
X118090351Y-89221658D01*
X118122753Y-89426239D01*
X118188444Y-89628414D01*
X118284951Y-89817820D01*
X118409890Y-89989786D01*
X118560213Y-90140109D01*
X118732182Y-90265050D01*
X118740946Y-90269516D01*
X118791742Y-90317491D01*
X118808536Y-90385312D01*
X118785998Y-90451447D01*
X118740946Y-90490484D01*
X118732182Y-90494949D01*
X118560213Y-90619890D01*
X118409890Y-90770213D01*
X118284951Y-90942179D01*
X118188444Y-91131585D01*
X118122753Y-91333760D01*
X118089500Y-91543713D01*
X118089500Y-91756286D01*
X118122753Y-91966239D01*
X118188444Y-92168414D01*
X118284951Y-92357820D01*
X118409890Y-92529786D01*
X118560213Y-92680109D01*
X118732182Y-92805050D01*
X118740946Y-92809516D01*
X118791742Y-92857491D01*
X118808536Y-92925312D01*
X118785998Y-92991447D01*
X118740946Y-93030484D01*
X118732182Y-93034949D01*
X118560213Y-93159890D01*
X118409890Y-93310213D01*
X118284951Y-93482179D01*
X118188444Y-93671585D01*
X118122753Y-93873760D01*
X118089500Y-94083713D01*
X118089500Y-94296286D01*
X118116750Y-94468340D01*
X118122754Y-94506243D01*
X118128822Y-94524919D01*
X118188444Y-94708414D01*
X118284951Y-94897820D01*
X118409890Y-95069786D01*
X118560213Y-95220109D01*
X118732182Y-95345050D01*
X118740946Y-95349516D01*
X118791742Y-95397491D01*
X118808536Y-95465312D01*
X118785998Y-95531447D01*
X118740946Y-95570484D01*
X118732182Y-95574949D01*
X118560213Y-95699890D01*
X118409890Y-95850213D01*
X118284951Y-96022179D01*
X118188444Y-96211585D01*
X118122753Y-96413760D01*
X118089500Y-96623713D01*
X118089500Y-96836286D01*
X118122753Y-97046239D01*
X118188444Y-97248414D01*
X118284951Y-97437820D01*
X118409890Y-97609786D01*
X118560213Y-97760109D01*
X118732182Y-97885050D01*
X118740946Y-97889516D01*
X118791742Y-97937491D01*
X118808536Y-98005312D01*
X118785998Y-98071447D01*
X118740946Y-98110484D01*
X118732182Y-98114949D01*
X118560213Y-98239890D01*
X118409890Y-98390213D01*
X118284951Y-98562179D01*
X118188444Y-98751585D01*
X118122753Y-98953760D01*
X118089500Y-99163713D01*
X118089500Y-99376286D01*
X118122218Y-99582863D01*
X118122754Y-99586243D01*
X118137897Y-99632849D01*
X118188444Y-99788414D01*
X118284951Y-99977820D01*
X118409890Y-100149786D01*
X118560213Y-100300109D01*
X118732179Y-100425048D01*
X118732181Y-100425049D01*
X118732184Y-100425051D01*
X118921588Y-100521557D01*
X119123757Y-100587246D01*
X119333713Y-100620500D01*
X119333714Y-100620500D01*
X119546286Y-100620500D01*
X119546287Y-100620500D01*
X119756243Y-100587246D01*
X119958412Y-100521557D01*
X120147816Y-100425051D01*
X120229297Y-100365852D01*
X120319786Y-100300109D01*
X120319788Y-100300106D01*
X120319792Y-100300104D01*
X120470104Y-100149792D01*
X120470106Y-100149788D01*
X120470109Y-100149786D01*
X120595048Y-99977820D01*
X120595047Y-99977820D01*
X120595051Y-99977816D01*
X120691557Y-99788412D01*
X120757246Y-99586243D01*
X120790500Y-99376287D01*
X120790500Y-99163713D01*
X120757246Y-98953757D01*
X120691557Y-98751588D01*
X120595051Y-98562184D01*
X120595049Y-98562181D01*
X120595048Y-98562179D01*
X120470109Y-98390213D01*
X120319786Y-98239890D01*
X120147820Y-98114951D01*
X120147115Y-98114591D01*
X120139054Y-98110485D01*
X120088259Y-98062512D01*
X120071463Y-97994692D01*
X120093999Y-97928556D01*
X120139054Y-97889515D01*
X120147816Y-97885051D01*
X120169789Y-97869086D01*
X120319786Y-97760109D01*
X120319788Y-97760106D01*
X120319792Y-97760104D01*
X120470104Y-97609792D01*
X120470106Y-97609788D01*
X120470109Y-97609786D01*
X120595048Y-97437820D01*
X120595047Y-97437820D01*
X120595051Y-97437816D01*
X120691557Y-97248412D01*
X120757246Y-97046243D01*
X120790500Y-96836287D01*
X120790500Y-96623713D01*
X120757246Y-96413757D01*
X120691557Y-96211588D01*
X120595051Y-96022184D01*
X120595049Y-96022181D01*
X120595048Y-96022179D01*
X120470109Y-95850213D01*
X120319786Y-95699890D01*
X120147820Y-95574951D01*
X120147115Y-95574591D01*
X120139054Y-95570485D01*
X120088259Y-95522512D01*
X120071463Y-95454692D01*
X120093999Y-95388556D01*
X120139054Y-95349515D01*
X120147816Y-95345051D01*
X120169789Y-95329086D01*
X120319786Y-95220109D01*
X120319788Y-95220106D01*
X120319792Y-95220104D01*
X120470104Y-95069792D01*
X120470106Y-95069788D01*
X120470109Y-95069786D01*
X120595048Y-94897820D01*
X120595047Y-94897820D01*
X120595051Y-94897816D01*
X120691557Y-94708412D01*
X120757246Y-94506243D01*
X120790500Y-94296287D01*
X120790500Y-94083713D01*
X120757246Y-93873757D01*
X120691557Y-93671588D01*
X120595051Y-93482184D01*
X120595049Y-93482181D01*
X120595048Y-93482179D01*
X120470109Y-93310213D01*
X120319786Y-93159890D01*
X120147820Y-93034951D01*
X120147115Y-93034591D01*
X120139054Y-93030485D01*
X120088259Y-92982512D01*
X120071463Y-92914692D01*
X120093999Y-92848556D01*
X120139054Y-92809515D01*
X120147816Y-92805051D01*
X120260942Y-92722861D01*
X120319786Y-92680109D01*
X120319788Y-92680106D01*
X120319792Y-92680104D01*
X120470104Y-92529792D01*
X120470106Y-92529788D01*
X120470109Y-92529786D01*
X120595048Y-92357820D01*
X120595047Y-92357820D01*
X120595051Y-92357816D01*
X120691557Y-92168412D01*
X120757246Y-91966243D01*
X120790500Y-91756287D01*
X120790500Y-91543713D01*
X120757246Y-91333757D01*
X120691557Y-91131588D01*
X120595051Y-90942184D01*
X120595049Y-90942181D01*
X120595048Y-90942179D01*
X120470109Y-90770213D01*
X120319786Y-90619890D01*
X120147820Y-90494951D01*
X120147115Y-90494591D01*
X120139054Y-90490485D01*
X120088259Y-90442512D01*
X120071463Y-90374692D01*
X120093999Y-90308556D01*
X120139054Y-90269515D01*
X120147816Y-90265051D01*
X120169789Y-90249086D01*
X120319786Y-90140109D01*
X120319788Y-90140106D01*
X120319792Y-90140104D01*
X120470104Y-89989792D01*
X120470106Y-89989788D01*
X120470109Y-89989786D01*
X120595048Y-89817820D01*
X120595047Y-89817820D01*
X120595051Y-89817816D01*
X120691557Y-89628412D01*
X120757246Y-89426243D01*
X120790500Y-89216287D01*
X120790500Y-89003713D01*
X120757246Y-88793757D01*
X120691557Y-88591588D01*
X120595051Y-88402184D01*
X120595049Y-88402181D01*
X120595048Y-88402179D01*
X120470109Y-88230213D01*
X120356181Y-88116285D01*
X120322696Y-88054962D01*
X120327680Y-87985270D01*
X120369552Y-87929337D01*
X120400529Y-87912422D01*
X120532086Y-87863354D01*
X120532093Y-87863350D01*
X120647187Y-87777190D01*
X120647190Y-87777187D01*
X120733350Y-87662093D01*
X120733354Y-87662086D01*
X120783596Y-87527379D01*
X120783598Y-87527372D01*
X120789999Y-87467844D01*
X120790000Y-87467827D01*
X120790000Y-86820000D01*
X119873012Y-86820000D01*
X119905925Y-86762993D01*
X119940000Y-86635826D01*
X119940000Y-86504174D01*
X119905925Y-86377007D01*
X119873012Y-86320000D01*
X120790000Y-86320000D01*
X120790000Y-85672172D01*
X120789999Y-85672155D01*
X120783598Y-85612627D01*
X120783596Y-85612620D01*
X120733354Y-85477913D01*
X120733350Y-85477906D01*
X120647190Y-85362812D01*
X120647187Y-85362809D01*
X120532093Y-85276649D01*
X120532086Y-85276645D01*
X120397379Y-85226403D01*
X120397372Y-85226401D01*
X120337844Y-85220000D01*
X119690000Y-85220000D01*
X119690000Y-86136988D01*
X119632993Y-86104075D01*
X119505826Y-86070000D01*
X119374174Y-86070000D01*
X119247007Y-86104075D01*
X119190000Y-86136988D01*
X119190000Y-85220000D01*
X118542155Y-85220000D01*
X118482627Y-85226401D01*
X118482620Y-85226403D01*
X118347913Y-85276645D01*
X118347906Y-85276649D01*
X118232812Y-85362809D01*
X118232809Y-85362812D01*
X118146649Y-85477906D01*
X118146645Y-85477913D01*
X118096403Y-85612620D01*
X118096401Y-85612627D01*
X118090000Y-85672155D01*
X118090000Y-86320000D01*
X119006988Y-86320000D01*
X118974075Y-86377007D01*
X118940000Y-86504174D01*
X118940000Y-86635826D01*
X118974075Y-86762993D01*
X119006988Y-86820000D01*
X118090000Y-86820000D01*
X118090000Y-87467844D01*
X118096401Y-87527372D01*
X118096403Y-87527379D01*
X118146645Y-87662086D01*
X118146649Y-87662093D01*
X118232809Y-87777187D01*
X118232812Y-87777190D01*
X118347906Y-87863350D01*
X118347913Y-87863354D01*
X118479470Y-87912422D01*
X118535404Y-87954293D01*
X118559821Y-88019758D01*
X118544969Y-88088031D01*
X118523819Y-88116285D01*
X118409889Y-88230215D01*
X118284951Y-88402179D01*
X118188444Y-88591585D01*
X118122753Y-88793760D01*
X118104159Y-88911160D01*
X118089500Y-89003713D01*
X103818147Y-89003713D01*
X103917782Y-88937139D01*
X103917785Y-88937136D01*
X103943762Y-88911160D01*
X104057136Y-88797785D01*
X104057139Y-88797782D01*
X104166632Y-88633914D01*
X104242051Y-88451835D01*
X104254632Y-88388582D01*
X104280500Y-88258543D01*
X104280500Y-88061456D01*
X104242052Y-87868170D01*
X104242051Y-87868169D01*
X104242051Y-87868165D01*
X104204846Y-87778343D01*
X104166635Y-87686092D01*
X104166628Y-87686079D01*
X104057139Y-87522218D01*
X104057136Y-87522214D01*
X103917785Y-87382863D01*
X103917781Y-87382860D01*
X103753920Y-87273371D01*
X103753907Y-87273364D01*
X103571839Y-87197950D01*
X103571829Y-87197947D01*
X103378543Y-87159500D01*
X103378541Y-87159500D01*
X103181459Y-87159500D01*
X103181457Y-87159500D01*
X102988170Y-87197947D01*
X102988160Y-87197950D01*
X102806092Y-87273364D01*
X102806079Y-87273371D01*
X102642218Y-87382860D01*
X102642214Y-87382863D01*
X102502863Y-87522214D01*
X102502860Y-87522218D01*
X102393371Y-87686079D01*
X102393364Y-87686092D01*
X102317950Y-87868160D01*
X102317947Y-87868170D01*
X102279500Y-88061456D01*
X102279500Y-88061459D01*
X102279500Y-88258541D01*
X102279500Y-88258543D01*
X102279499Y-88258543D01*
X98512320Y-88258543D01*
X98500586Y-88230215D01*
X98465087Y-88144511D01*
X98465080Y-88144498D01*
X98451556Y-88124258D01*
X98382951Y-88021584D01*
X98382948Y-88021580D01*
X98278419Y-87917051D01*
X98278415Y-87917048D01*
X98155501Y-87834919D01*
X98155488Y-87834912D01*
X98018917Y-87778343D01*
X98018907Y-87778340D01*
X97873920Y-87749500D01*
X97873918Y-87749500D01*
X97726082Y-87749500D01*
X97726080Y-87749500D01*
X97581092Y-87778340D01*
X97581082Y-87778343D01*
X97444511Y-87834912D01*
X97444498Y-87834919D01*
X97321584Y-87917048D01*
X97321580Y-87917051D01*
X97217051Y-88021580D01*
X97217048Y-88021584D01*
X97134919Y-88144498D01*
X97134912Y-88144511D01*
X97078343Y-88281082D01*
X97078340Y-88281092D01*
X97049500Y-88426079D01*
X97049500Y-88426082D01*
X97049500Y-88573918D01*
X97049500Y-88573920D01*
X97049499Y-88573920D01*
X90100000Y-88573920D01*
X90100000Y-86260634D01*
X91614500Y-86260634D01*
X91614500Y-86439365D01*
X91642460Y-86615898D01*
X91642460Y-86615901D01*
X91697689Y-86785878D01*
X91697691Y-86785881D01*
X91778833Y-86945132D01*
X91883889Y-87089728D01*
X92010272Y-87216111D01*
X92154868Y-87321167D01*
X92314119Y-87402309D01*
X92314121Y-87402310D01*
X92425242Y-87438415D01*
X92484103Y-87457540D01*
X92660634Y-87485500D01*
X92660635Y-87485500D01*
X92839365Y-87485500D01*
X92839366Y-87485500D01*
X93015897Y-87457540D01*
X93015900Y-87457539D01*
X93015901Y-87457539D01*
X93185878Y-87402310D01*
X93185878Y-87402309D01*
X93185881Y-87402309D01*
X93345132Y-87321167D01*
X93489728Y-87216111D01*
X93616111Y-87089728D01*
X93721167Y-86945132D01*
X93802309Y-86785881D01*
X93816862Y-86741092D01*
X93857539Y-86615901D01*
X93857539Y-86615900D01*
X93857540Y-86615897D01*
X93877527Y-86489703D01*
X93907456Y-86426569D01*
X93966768Y-86389638D01*
X94036630Y-86390636D01*
X94094863Y-86429246D01*
X94122473Y-86489704D01*
X94142460Y-86615898D01*
X94142460Y-86615901D01*
X94197689Y-86785878D01*
X94197691Y-86785881D01*
X94278833Y-86945132D01*
X94383889Y-87089728D01*
X94510272Y-87216111D01*
X94654868Y-87321167D01*
X94814119Y-87402309D01*
X94814121Y-87402310D01*
X94925242Y-87438415D01*
X94984103Y-87457540D01*
X95160634Y-87485500D01*
X95160635Y-87485500D01*
X95339365Y-87485500D01*
X95339366Y-87485500D01*
X95515897Y-87457540D01*
X95515900Y-87457539D01*
X95515901Y-87457539D01*
X95685878Y-87402310D01*
X95685878Y-87402309D01*
X95685881Y-87402309D01*
X95845132Y-87321167D01*
X95989728Y-87216111D01*
X96116111Y-87089728D01*
X96156658Y-87033920D01*
X111349499Y-87033920D01*
X111378340Y-87178907D01*
X111378343Y-87178917D01*
X111434912Y-87315488D01*
X111434919Y-87315501D01*
X111517048Y-87438415D01*
X111517051Y-87438419D01*
X111621580Y-87542948D01*
X111621584Y-87542951D01*
X111744498Y-87625080D01*
X111744511Y-87625087D01*
X111881082Y-87681656D01*
X111881087Y-87681658D01*
X111881091Y-87681658D01*
X111881092Y-87681659D01*
X112026079Y-87710500D01*
X112026082Y-87710500D01*
X112173920Y-87710500D01*
X112296652Y-87686086D01*
X112318913Y-87681658D01*
X112455495Y-87625084D01*
X112578416Y-87542951D01*
X112682951Y-87438416D01*
X112765084Y-87315495D01*
X112821658Y-87178913D01*
X112839398Y-87089729D01*
X112850500Y-87033920D01*
X112850500Y-86886079D01*
X112821659Y-86741092D01*
X112821658Y-86741091D01*
X112821658Y-86741087D01*
X112778058Y-86635826D01*
X112765087Y-86604511D01*
X112765080Y-86604498D01*
X112682951Y-86481584D01*
X112682948Y-86481580D01*
X112578419Y-86377051D01*
X112578415Y-86377048D01*
X112455501Y-86294919D01*
X112455488Y-86294912D01*
X112318917Y-86238343D01*
X112318907Y-86238340D01*
X112173920Y-86209500D01*
X112173918Y-86209500D01*
X112026082Y-86209500D01*
X112026080Y-86209500D01*
X111881092Y-86238340D01*
X111881082Y-86238343D01*
X111744511Y-86294912D01*
X111744498Y-86294919D01*
X111621584Y-86377048D01*
X111621580Y-86377051D01*
X111517051Y-86481580D01*
X111517048Y-86481584D01*
X111434919Y-86604498D01*
X111434912Y-86604511D01*
X111378343Y-86741082D01*
X111378340Y-86741092D01*
X111349500Y-86886079D01*
X111349500Y-86886082D01*
X111349500Y-87033918D01*
X111349500Y-87033920D01*
X111349499Y-87033920D01*
X96156658Y-87033920D01*
X96221167Y-86945132D01*
X96302309Y-86785881D01*
X96316862Y-86741092D01*
X96357539Y-86615901D01*
X96357539Y-86615900D01*
X96357540Y-86615897D01*
X96385500Y-86439366D01*
X96385500Y-86260634D01*
X96357540Y-86084103D01*
X96357539Y-86084099D01*
X96357539Y-86084098D01*
X96302310Y-85914121D01*
X96302308Y-85914118D01*
X96266286Y-85843419D01*
X96221167Y-85754868D01*
X96116111Y-85610272D01*
X95989728Y-85483889D01*
X95927834Y-85438920D01*
X97694499Y-85438920D01*
X97723340Y-85583907D01*
X97723343Y-85583917D01*
X97779912Y-85720488D01*
X97779919Y-85720501D01*
X97862048Y-85843415D01*
X97862051Y-85843419D01*
X97966580Y-85947948D01*
X97966584Y-85947951D01*
X98089498Y-86030080D01*
X98089511Y-86030087D01*
X98226082Y-86086656D01*
X98226087Y-86086658D01*
X98226091Y-86086658D01*
X98226092Y-86086659D01*
X98371079Y-86115500D01*
X98371082Y-86115500D01*
X98518920Y-86115500D01*
X98616462Y-86096096D01*
X98663913Y-86086658D01*
X98800495Y-86030084D01*
X98923416Y-85947951D01*
X99027951Y-85843416D01*
X99110084Y-85720495D01*
X99166658Y-85583913D01*
X99184245Y-85495500D01*
X99195500Y-85438920D01*
X99195500Y-85291079D01*
X99166659Y-85146092D01*
X99166658Y-85146091D01*
X99166658Y-85146087D01*
X99147773Y-85100495D01*
X99110087Y-85009511D01*
X99110080Y-85009498D01*
X99027951Y-84886584D01*
X99027948Y-84886580D01*
X98923419Y-84782051D01*
X98923415Y-84782048D01*
X98800501Y-84699919D01*
X98800488Y-84699912D01*
X98663917Y-84643343D01*
X98663907Y-84643340D01*
X98535187Y-84617735D01*
X98535181Y-84617735D01*
X98518918Y-84614500D01*
X98371082Y-84614500D01*
X98328598Y-84622950D01*
X98328590Y-84622951D01*
X98226092Y-84643340D01*
X98226082Y-84643343D01*
X98089511Y-84699912D01*
X98089498Y-84699919D01*
X97966584Y-84782048D01*
X97966580Y-84782051D01*
X97862051Y-84886580D01*
X97862048Y-84886584D01*
X97779919Y-85009498D01*
X97779912Y-85009511D01*
X97723343Y-85146082D01*
X97723340Y-85146092D01*
X97694500Y-85291079D01*
X97694500Y-85291082D01*
X97694500Y-85438918D01*
X97694500Y-85438920D01*
X97694499Y-85438920D01*
X95927834Y-85438920D01*
X95845132Y-85378833D01*
X95685881Y-85297691D01*
X95685878Y-85297689D01*
X95515899Y-85242460D01*
X95374091Y-85220000D01*
X95339366Y-85214500D01*
X95160634Y-85214500D01*
X95125909Y-85220000D01*
X94984101Y-85242460D01*
X94984098Y-85242460D01*
X94814121Y-85297689D01*
X94814118Y-85297691D01*
X94654867Y-85378833D01*
X94510270Y-85483890D01*
X94383890Y-85610270D01*
X94278833Y-85754867D01*
X94197691Y-85914118D01*
X94197689Y-85914121D01*
X94142460Y-86084098D01*
X94142460Y-86084101D01*
X94122473Y-86210295D01*
X94092544Y-86273430D01*
X94033232Y-86310361D01*
X93963370Y-86309363D01*
X93905137Y-86270753D01*
X93877527Y-86210295D01*
X93871129Y-86169901D01*
X93857540Y-86084103D01*
X93857539Y-86084099D01*
X93857539Y-86084098D01*
X93802310Y-85914121D01*
X93802308Y-85914118D01*
X93766286Y-85843419D01*
X93721167Y-85754868D01*
X93616111Y-85610272D01*
X93489728Y-85483889D01*
X93345132Y-85378833D01*
X93185881Y-85297691D01*
X93185878Y-85297689D01*
X93015899Y-85242460D01*
X92874091Y-85220000D01*
X92839366Y-85214500D01*
X92660634Y-85214500D01*
X92625909Y-85220000D01*
X92484101Y-85242460D01*
X92484098Y-85242460D01*
X92314121Y-85297689D01*
X92314118Y-85297691D01*
X92154867Y-85378833D01*
X92010270Y-85483890D01*
X91883890Y-85610270D01*
X91778833Y-85754867D01*
X91697691Y-85914118D01*
X91697689Y-85914121D01*
X91642460Y-86084098D01*
X91642460Y-86084101D01*
X91614500Y-86260634D01*
X90100000Y-86260634D01*
X90100000Y-84703530D01*
X90119685Y-84636491D01*
X90172489Y-84590736D01*
X90220868Y-84579570D01*
X99190934Y-84353103D01*
X99240852Y-84362234D01*
X99290888Y-84382629D01*
X99434029Y-84397201D01*
X99434031Y-84397200D01*
X99434032Y-84397201D01*
X99435474Y-84397141D01*
X99437824Y-84397044D01*
X99453314Y-84396165D01*
X100509423Y-84319949D01*
X100515110Y-84319671D01*
X101909673Y-84284462D01*
X101910000Y-84340000D01*
X104030000Y-84790000D01*
X103819946Y-84236688D01*
X103856087Y-84251658D01*
X103856091Y-84251658D01*
X103856092Y-84251659D01*
X104001079Y-84280500D01*
X104001082Y-84280500D01*
X104148920Y-84280500D01*
X104293908Y-84251659D01*
X104293908Y-84251658D01*
X104293913Y-84251658D01*
X104343041Y-84231308D01*
X104387361Y-84221909D01*
X105010284Y-84206182D01*
X105077798Y-84224168D01*
X105101091Y-84242458D01*
X105119968Y-84261335D01*
X105131585Y-84272952D01*
X105254498Y-84355080D01*
X105254502Y-84355082D01*
X105254505Y-84355084D01*
X105357139Y-84397596D01*
X105411538Y-84441434D01*
X105433604Y-84507728D01*
X105431300Y-84536346D01*
X105404500Y-84671077D01*
X105404500Y-84671082D01*
X105404500Y-84818918D01*
X105404500Y-84818920D01*
X105404499Y-84818920D01*
X105433340Y-84963907D01*
X105433343Y-84963917D01*
X105489912Y-85100488D01*
X105489919Y-85100501D01*
X105572048Y-85223415D01*
X105572051Y-85223419D01*
X105676580Y-85327948D01*
X105676584Y-85327951D01*
X105799498Y-85410080D01*
X105799511Y-85410087D01*
X105869121Y-85438920D01*
X105936087Y-85466658D01*
X105936091Y-85466658D01*
X105936092Y-85466659D01*
X106081079Y-85495500D01*
X106081082Y-85495500D01*
X106228920Y-85495500D01*
X106326462Y-85476096D01*
X106373913Y-85466658D01*
X106510495Y-85410084D01*
X106633416Y-85327951D01*
X106737951Y-85223416D01*
X106820084Y-85100495D01*
X106876658Y-84963913D01*
X106905500Y-84818918D01*
X106905500Y-84671082D01*
X106905500Y-84671079D01*
X106876659Y-84526093D01*
X106876658Y-84526087D01*
X106872814Y-84516807D01*
X106865343Y-84447344D01*
X106896615Y-84384863D01*
X106899666Y-84381700D01*
X106992951Y-84288416D01*
X107047149Y-84207301D01*
X107100760Y-84162498D01*
X107147116Y-84152233D01*
X126413205Y-83665823D01*
X126480719Y-83683809D01*
G37*
%TD.AperFunction*%
%TD*%
%TA.AperFunction,Conductor*%
%TO.N,Vdc*%
G36*
X119542331Y-59420075D02*
G01*
X119588443Y-59472568D01*
X119600000Y-59524843D01*
X119600000Y-63944899D01*
X119580315Y-64011938D01*
X119527511Y-64057693D01*
X119479168Y-64068859D01*
X113487450Y-64222003D01*
X113426500Y-64227265D01*
X113426486Y-64227267D01*
X113396859Y-64231644D01*
X113337006Y-64244227D01*
X113205090Y-64301647D01*
X113205071Y-64301657D01*
X113186040Y-64313412D01*
X113169648Y-64318109D01*
X113156398Y-64326718D01*
X113121489Y-64331912D01*
X112902854Y-64332989D01*
X112853629Y-64323064D01*
X112754712Y-64280909D01*
X112754702Y-64280906D01*
X112687190Y-64262942D01*
X112687184Y-64262941D01*
X112544290Y-64246110D01*
X111543280Y-64271695D01*
X111507386Y-64275895D01*
X111452076Y-64282368D01*
X111408186Y-64291607D01*
X111408181Y-64291608D01*
X111408178Y-64291609D01*
X111408164Y-64291613D01*
X111408158Y-64291615D01*
X111320429Y-64318598D01*
X111320419Y-64318602D01*
X111311256Y-64323997D01*
X111248961Y-64341136D01*
X105714113Y-64368402D01*
X105661990Y-64357198D01*
X105612649Y-64334664D01*
X105612644Y-64334662D01*
X105612643Y-64334662D01*
X105557949Y-64318602D01*
X105545601Y-64314976D01*
X105484964Y-64306258D01*
X105403184Y-64294500D01*
X103636924Y-64294500D01*
X103636922Y-64294500D01*
X103496993Y-64314253D01*
X103431027Y-64333256D01*
X103431010Y-64333263D01*
X103350067Y-64369481D01*
X103300033Y-64380293D01*
X101368451Y-64389808D01*
X101317193Y-64378995D01*
X101214992Y-64333263D01*
X101214974Y-64333256D01*
X101149012Y-64314254D01*
X101149008Y-64314253D01*
X101009077Y-64294500D01*
X101009076Y-64294500D01*
X100124470Y-64294500D01*
X100016078Y-64306258D01*
X100016071Y-64306259D01*
X100016067Y-64306260D01*
X99964146Y-64317657D01*
X99860802Y-64352380D01*
X99860801Y-64352381D01*
X99821538Y-64377823D01*
X99754719Y-64397758D01*
X99500005Y-64399013D01*
X99500004Y-64399014D01*
X99497778Y-64898255D01*
X99496584Y-64914875D01*
X99494975Y-64926378D01*
X99494974Y-64926387D01*
X99496202Y-65250752D01*
X99496202Y-65251774D01*
X99457529Y-73929856D01*
X99457530Y-73929855D01*
X99457530Y-73929856D01*
X99457529Y-73929857D01*
X99440000Y-73930000D01*
X99413134Y-73930000D01*
X99413134Y-77170469D01*
X99392460Y-77234098D01*
X99392460Y-77234101D01*
X99364500Y-77410634D01*
X99364500Y-77589365D01*
X99392460Y-77765898D01*
X99392460Y-77765901D01*
X99413134Y-77829528D01*
X99413134Y-83886769D01*
X99392976Y-83882836D01*
X99331826Y-83864988D01*
X99331812Y-83864984D01*
X99331809Y-83864984D01*
X99319329Y-83862701D01*
X99281894Y-83855853D01*
X99178165Y-83847763D01*
X95907348Y-83930342D01*
X95905566Y-83930375D01*
X90125348Y-83993203D01*
X90058098Y-83974248D01*
X90011772Y-83921944D01*
X90000000Y-83869210D01*
X90000000Y-78360634D01*
X91814500Y-78360634D01*
X91814500Y-78539365D01*
X91842460Y-78715898D01*
X91842460Y-78715901D01*
X91897689Y-78885878D01*
X91897691Y-78885881D01*
X91978833Y-79045132D01*
X92083889Y-79189728D01*
X92210272Y-79316111D01*
X92354868Y-79421167D01*
X92514119Y-79502309D01*
X92514121Y-79502310D01*
X92672670Y-79553825D01*
X92684103Y-79557540D01*
X92860634Y-79585500D01*
X92860635Y-79585500D01*
X93039365Y-79585500D01*
X93039366Y-79585500D01*
X93215897Y-79557540D01*
X93215900Y-79557539D01*
X93215901Y-79557539D01*
X93385878Y-79502310D01*
X93385878Y-79502309D01*
X93385881Y-79502309D01*
X93545132Y-79421167D01*
X93689728Y-79316111D01*
X93816111Y-79189728D01*
X93921167Y-79045132D01*
X94002309Y-78885881D01*
X94057540Y-78715897D01*
X94077779Y-78588107D01*
X94107708Y-78524975D01*
X94167019Y-78488043D01*
X94236882Y-78489041D01*
X94295114Y-78527650D01*
X94322725Y-78588108D01*
X94342947Y-78715781D01*
X94398155Y-78885693D01*
X94479260Y-79044869D01*
X94488651Y-79057793D01*
X94488652Y-79057794D01*
X95069000Y-78477446D01*
X95069000Y-78500160D01*
X95094964Y-78597061D01*
X95145124Y-78683940D01*
X95216060Y-78754876D01*
X95302939Y-78805036D01*
X95399840Y-78831000D01*
X95422554Y-78831000D01*
X94842205Y-79411347D01*
X94842205Y-79411348D01*
X94855129Y-79420738D01*
X95014306Y-79501844D01*
X95184219Y-79557053D01*
X95360669Y-79585000D01*
X95539331Y-79585000D01*
X95715780Y-79557053D01*
X95885693Y-79501844D01*
X96044867Y-79420739D01*
X96044872Y-79420737D01*
X96057794Y-79411347D01*
X95477447Y-78831000D01*
X95500160Y-78831000D01*
X95597061Y-78805036D01*
X95683940Y-78754876D01*
X95754876Y-78683940D01*
X95805036Y-78597061D01*
X95831000Y-78500160D01*
X95831000Y-78477446D01*
X96411347Y-79057794D01*
X96420737Y-79044872D01*
X96420739Y-79044867D01*
X96501844Y-78885693D01*
X96557053Y-78715780D01*
X96585000Y-78539331D01*
X96585000Y-78360668D01*
X96557053Y-78184219D01*
X96501844Y-78014306D01*
X96420738Y-77855129D01*
X96411347Y-77842205D01*
X95831000Y-78422552D01*
X95831000Y-78399840D01*
X95805036Y-78302939D01*
X95754876Y-78216060D01*
X95683940Y-78145124D01*
X95597061Y-78094964D01*
X95500160Y-78069000D01*
X95477447Y-78069000D01*
X96057794Y-77488652D01*
X96057793Y-77488651D01*
X96044869Y-77479260D01*
X95885693Y-77398155D01*
X95715780Y-77342946D01*
X95539331Y-77315000D01*
X95360669Y-77315000D01*
X95184219Y-77342946D01*
X95014306Y-77398155D01*
X94855127Y-77479262D01*
X94842205Y-77488651D01*
X94842204Y-77488651D01*
X95422554Y-78069000D01*
X95399840Y-78069000D01*
X95302939Y-78094964D01*
X95216060Y-78145124D01*
X95145124Y-78216060D01*
X95094964Y-78302939D01*
X95069000Y-78399840D01*
X95069000Y-78422553D01*
X94488651Y-77842204D01*
X94488651Y-77842205D01*
X94479262Y-77855127D01*
X94398155Y-78014306D01*
X94342947Y-78184218D01*
X94322725Y-78311891D01*
X94292795Y-78375025D01*
X94233484Y-78411956D01*
X94163621Y-78410958D01*
X94105389Y-78372348D01*
X94077779Y-78311889D01*
X94076361Y-78302939D01*
X94057540Y-78184103D01*
X94057539Y-78184098D01*
X94002310Y-78014121D01*
X94002308Y-78014118D01*
X93962445Y-77935881D01*
X93921167Y-77854868D01*
X93816111Y-77710272D01*
X93689728Y-77583889D01*
X93545132Y-77478833D01*
X93385881Y-77397691D01*
X93385878Y-77397689D01*
X93215899Y-77342460D01*
X93098209Y-77323820D01*
X93039366Y-77314500D01*
X92860634Y-77314500D01*
X92801790Y-77323820D01*
X92684101Y-77342460D01*
X92684098Y-77342460D01*
X92514121Y-77397689D01*
X92514118Y-77397691D01*
X92354867Y-77478833D01*
X92210270Y-77583890D01*
X92083890Y-77710270D01*
X91978833Y-77854867D01*
X91897691Y-78014118D01*
X91897689Y-78014121D01*
X91842460Y-78184098D01*
X91842460Y-78184101D01*
X91814500Y-78360634D01*
X90000000Y-78360634D01*
X90000000Y-71158192D01*
X90019685Y-71091153D01*
X90072489Y-71045398D01*
X90141647Y-71035454D01*
X90205203Y-71064479D01*
X90234484Y-71101897D01*
X90243769Y-71120119D01*
X90374675Y-71300295D01*
X90532155Y-71457775D01*
X90712331Y-71588681D01*
X90872657Y-71670371D01*
X90910769Y-71689790D01*
X91122573Y-71758609D01*
X91122574Y-71758609D01*
X91122577Y-71758610D01*
X91342545Y-71793450D01*
X91342546Y-71793450D01*
X91565254Y-71793450D01*
X91565255Y-71793450D01*
X91785223Y-71758610D01*
X91785226Y-71758609D01*
X91785227Y-71758609D01*
X91997030Y-71689790D01*
X91997030Y-71689789D01*
X91997033Y-71689789D01*
X92195469Y-71588681D01*
X92375645Y-71457775D01*
X92533125Y-71300295D01*
X92664031Y-71120119D01*
X92765139Y-70921683D01*
X92818946Y-70756082D01*
X92833959Y-70709877D01*
X92833959Y-70709876D01*
X92833960Y-70709873D01*
X92868800Y-70489905D01*
X92868800Y-70267195D01*
X95119000Y-70267195D01*
X95119000Y-70489904D01*
X95153840Y-70709874D01*
X95153840Y-70709877D01*
X95222659Y-70921680D01*
X95222661Y-70921683D01*
X95323769Y-71120119D01*
X95454675Y-71300295D01*
X95612155Y-71457775D01*
X95792331Y-71588681D01*
X95952657Y-71670371D01*
X95990769Y-71689790D01*
X96202573Y-71758609D01*
X96202574Y-71758609D01*
X96202577Y-71758610D01*
X96422545Y-71793450D01*
X96422546Y-71793450D01*
X96645254Y-71793450D01*
X96645255Y-71793450D01*
X96865223Y-71758610D01*
X96865226Y-71758609D01*
X96865227Y-71758609D01*
X97077030Y-71689790D01*
X97077030Y-71689789D01*
X97077033Y-71689789D01*
X97275469Y-71588681D01*
X97455645Y-71457775D01*
X97613125Y-71300295D01*
X97744031Y-71120119D01*
X97845139Y-70921683D01*
X97898946Y-70756082D01*
X97913959Y-70709877D01*
X97913959Y-70709876D01*
X97913960Y-70709873D01*
X97948800Y-70489905D01*
X97948800Y-70267195D01*
X97913960Y-70047227D01*
X97913959Y-70047223D01*
X97913959Y-70047222D01*
X97845140Y-69835419D01*
X97820953Y-69787949D01*
X97744031Y-69636981D01*
X97613125Y-69456805D01*
X97455645Y-69299325D01*
X97275469Y-69168419D01*
X97077030Y-69067309D01*
X96865226Y-68998490D01*
X96700247Y-68972360D01*
X96645255Y-68963650D01*
X96422545Y-68963650D01*
X96364390Y-68972861D01*
X96202575Y-68998490D01*
X96202572Y-68998490D01*
X95990769Y-69067309D01*
X95792330Y-69168419D01*
X95709854Y-69228342D01*
X95612155Y-69299325D01*
X95612153Y-69299327D01*
X95612152Y-69299327D01*
X95454677Y-69456802D01*
X95454677Y-69456803D01*
X95454675Y-69456805D01*
X95398456Y-69534183D01*
X95323769Y-69636980D01*
X95222659Y-69835419D01*
X95153840Y-70047222D01*
X95153840Y-70047225D01*
X95119000Y-70267195D01*
X92868800Y-70267195D01*
X92833960Y-70047227D01*
X92833959Y-70047223D01*
X92833959Y-70047222D01*
X92765140Y-69835419D01*
X92740953Y-69787949D01*
X92664031Y-69636981D01*
X92533125Y-69456805D01*
X92375645Y-69299325D01*
X92195469Y-69168419D01*
X91997030Y-69067309D01*
X91785226Y-68998490D01*
X91620247Y-68972360D01*
X91565255Y-68963650D01*
X91342545Y-68963650D01*
X91284390Y-68972861D01*
X91122575Y-68998490D01*
X91122572Y-68998490D01*
X90910769Y-69067309D01*
X90712330Y-69168419D01*
X90629854Y-69228342D01*
X90532155Y-69299325D01*
X90532153Y-69299327D01*
X90532152Y-69299327D01*
X90374677Y-69456802D01*
X90374677Y-69456803D01*
X90374675Y-69456805D01*
X90318456Y-69534183D01*
X90243769Y-69636980D01*
X90234485Y-69655202D01*
X90186510Y-69705998D01*
X90118689Y-69722793D01*
X90052554Y-69700255D01*
X90009103Y-69645540D01*
X90000000Y-69598907D01*
X90000000Y-66607840D01*
X90019685Y-66540801D01*
X90072489Y-66495046D01*
X90141647Y-66485102D01*
X90205203Y-66514127D01*
X90234485Y-66551546D01*
X90264194Y-66609855D01*
X90312523Y-66676372D01*
X90312523Y-66676373D01*
X90864898Y-66123998D01*
X90888661Y-66181367D01*
X90960934Y-66289530D01*
X91052920Y-66381516D01*
X91161083Y-66453789D01*
X91218450Y-66477551D01*
X90666075Y-67029925D01*
X90732592Y-67078253D01*
X90930954Y-67179324D01*
X91142693Y-67248123D01*
X91362579Y-67282950D01*
X91585221Y-67282950D01*
X91805106Y-67248123D01*
X92016845Y-67179324D01*
X92215207Y-67078253D01*
X92281722Y-67029925D01*
X91729348Y-66477551D01*
X91786717Y-66453789D01*
X91894880Y-66381516D01*
X91986866Y-66289530D01*
X92059139Y-66181367D01*
X92082901Y-66123999D01*
X92635275Y-66676373D01*
X92635275Y-66676372D01*
X92683603Y-66609857D01*
X92784674Y-66411495D01*
X92853473Y-66199756D01*
X92888300Y-65979871D01*
X92888300Y-65757228D01*
X95139500Y-65757228D01*
X95139500Y-65979871D01*
X95174326Y-66199756D01*
X95243125Y-66411495D01*
X95344196Y-66609857D01*
X95392523Y-66676372D01*
X95392523Y-66676373D01*
X95944898Y-66123998D01*
X95968661Y-66181367D01*
X96040934Y-66289530D01*
X96132920Y-66381516D01*
X96241083Y-66453789D01*
X96298450Y-66477551D01*
X95746075Y-67029925D01*
X95812592Y-67078253D01*
X96010954Y-67179324D01*
X96222693Y-67248123D01*
X96442579Y-67282950D01*
X96665221Y-67282950D01*
X96885106Y-67248123D01*
X97096845Y-67179324D01*
X97295207Y-67078253D01*
X97361722Y-67029925D01*
X96809348Y-66477551D01*
X96866717Y-66453789D01*
X96974880Y-66381516D01*
X97066866Y-66289530D01*
X97139139Y-66181367D01*
X97162901Y-66123998D01*
X97715275Y-66676372D01*
X97763603Y-66609857D01*
X97864674Y-66411495D01*
X97933473Y-66199756D01*
X97968300Y-65979871D01*
X97968300Y-65757228D01*
X97933473Y-65537343D01*
X97864674Y-65325604D01*
X97763603Y-65127242D01*
X97715275Y-65060726D01*
X97715275Y-65060725D01*
X97162901Y-65613100D01*
X97139139Y-65555733D01*
X97066866Y-65447570D01*
X96974880Y-65355584D01*
X96866717Y-65283311D01*
X96809347Y-65259548D01*
X97361723Y-64707173D01*
X97295207Y-64658846D01*
X97096845Y-64557775D01*
X96885106Y-64488976D01*
X96665221Y-64454150D01*
X96442579Y-64454150D01*
X96222693Y-64488976D01*
X96010954Y-64557775D01*
X95812591Y-64658847D01*
X95746076Y-64707172D01*
X95746075Y-64707173D01*
X96298451Y-65259548D01*
X96241083Y-65283311D01*
X96132920Y-65355584D01*
X96040934Y-65447570D01*
X95968661Y-65555733D01*
X95944898Y-65613101D01*
X95392523Y-65060725D01*
X95392522Y-65060726D01*
X95344197Y-65127241D01*
X95243125Y-65325604D01*
X95174326Y-65537343D01*
X95139500Y-65757228D01*
X92888300Y-65757228D01*
X92853473Y-65537343D01*
X92784674Y-65325604D01*
X92683603Y-65127242D01*
X92635275Y-65060726D01*
X92635275Y-65060725D01*
X92082901Y-65613100D01*
X92059139Y-65555733D01*
X91986866Y-65447570D01*
X91894880Y-65355584D01*
X91786717Y-65283311D01*
X91729347Y-65259548D01*
X92281723Y-64707173D01*
X92215207Y-64658846D01*
X92016845Y-64557775D01*
X91805106Y-64488976D01*
X91585221Y-64454150D01*
X91362579Y-64454150D01*
X91142693Y-64488976D01*
X90930954Y-64557775D01*
X90732591Y-64658847D01*
X90666076Y-64707172D01*
X90666075Y-64707173D01*
X91218451Y-65259548D01*
X91161083Y-65283311D01*
X91052920Y-65355584D01*
X90960934Y-65447570D01*
X90888661Y-65555733D01*
X90864898Y-65613101D01*
X90312523Y-65060725D01*
X90312522Y-65060726D01*
X90264197Y-65127241D01*
X90234485Y-65185555D01*
X90186510Y-65236351D01*
X90118689Y-65253146D01*
X90052554Y-65230608D01*
X90009103Y-65175893D01*
X90000000Y-65129260D01*
X90000000Y-60510221D01*
X90000753Y-60496578D01*
X90030021Y-60232179D01*
X90087867Y-59709605D01*
X90114808Y-59645139D01*
X90172325Y-59605472D01*
X90210270Y-59599252D01*
X92587488Y-59583135D01*
X92654658Y-59602364D01*
X92700770Y-59654857D01*
X92711182Y-59723947D01*
X92682588Y-59787698D01*
X92661212Y-59807450D01*
X92520214Y-59909890D01*
X92520209Y-59909894D01*
X92369890Y-60060213D01*
X92244951Y-60232179D01*
X92148444Y-60421585D01*
X92082753Y-60623760D01*
X92049500Y-60833713D01*
X92049500Y-61046286D01*
X92082753Y-61256239D01*
X92148444Y-61458414D01*
X92244951Y-61647820D01*
X92369890Y-61819786D01*
X92520213Y-61970109D01*
X92692179Y-62095048D01*
X92692181Y-62095049D01*
X92692184Y-62095051D01*
X92881588Y-62191557D01*
X93083757Y-62257246D01*
X93293713Y-62290500D01*
X93293714Y-62290500D01*
X93506286Y-62290500D01*
X93506287Y-62290500D01*
X93716243Y-62257246D01*
X93918412Y-62191557D01*
X94107816Y-62095051D01*
X94129789Y-62079086D01*
X94279786Y-61970109D01*
X94279788Y-61970106D01*
X94279792Y-61970104D01*
X94430104Y-61819792D01*
X94430106Y-61819788D01*
X94430109Y-61819786D01*
X94555048Y-61647820D01*
X94555047Y-61647820D01*
X94555051Y-61647816D01*
X94651557Y-61458412D01*
X94717246Y-61256243D01*
X94750500Y-61046287D01*
X94750500Y-60833713D01*
X94717246Y-60623757D01*
X94651557Y-60421588D01*
X94555051Y-60232184D01*
X94555049Y-60232181D01*
X94555048Y-60232179D01*
X94430109Y-60060213D01*
X94279786Y-59909890D01*
X94123779Y-59796546D01*
X94081113Y-59741217D01*
X94075134Y-59671603D01*
X94107739Y-59609808D01*
X94168578Y-59575451D01*
X94195816Y-59572231D01*
X119475160Y-59400846D01*
X119542331Y-59420075D01*
G37*
%TD.AperFunction*%
%TD*%
%TA.AperFunction,Conductor*%
%TO.N,Vdc*%
G36*
X109749423Y-72009618D02*
G01*
X109765506Y-72021826D01*
X112885129Y-74818073D01*
X112921911Y-74877477D01*
X112920738Y-74947337D01*
X112881982Y-75005472D01*
X112866398Y-75016596D01*
X101800000Y-81690000D01*
X101800000Y-82098617D01*
X101798340Y-82104266D01*
X101799472Y-82110045D01*
X101788609Y-82137409D01*
X101780315Y-82165656D01*
X101775303Y-82170926D01*
X101773693Y-82174985D01*
X101756149Y-82191074D01*
X101748220Y-82199415D01*
X101745960Y-82201034D01*
X101639282Y-82270482D01*
X101595721Y-82308677D01*
X101590762Y-82312231D01*
X101590305Y-82312390D01*
X101493167Y-82425834D01*
X101434163Y-82557068D01*
X101415598Y-82621699D01*
X101415052Y-82623460D01*
X101414875Y-82624218D01*
X101414875Y-82624219D01*
X101398961Y-82739728D01*
X101395237Y-82766755D01*
X101400330Y-83632739D01*
X101381040Y-83699893D01*
X101328506Y-83745957D01*
X101285257Y-83757146D01*
X99416929Y-83891976D01*
X99413134Y-83892133D01*
X99413134Y-77829527D01*
X99447689Y-77935878D01*
X99447691Y-77935881D01*
X99528833Y-78095132D01*
X99633889Y-78239728D01*
X99760272Y-78366111D01*
X99904868Y-78471167D01*
X100064119Y-78552309D01*
X100064121Y-78552310D01*
X100222670Y-78603825D01*
X100234103Y-78607540D01*
X100410634Y-78635500D01*
X100410635Y-78635500D01*
X100589365Y-78635500D01*
X100589366Y-78635500D01*
X100765897Y-78607540D01*
X100765900Y-78607539D01*
X100765901Y-78607539D01*
X100935878Y-78552310D01*
X100935878Y-78552309D01*
X100935881Y-78552309D01*
X101095132Y-78471167D01*
X101239728Y-78366111D01*
X101366111Y-78239728D01*
X101471167Y-78095132D01*
X101552309Y-77935881D01*
X101570141Y-77881000D01*
X101607539Y-77765901D01*
X101607540Y-77765897D01*
X101607559Y-77765780D01*
X101627779Y-77638107D01*
X101657708Y-77574975D01*
X101717019Y-77538043D01*
X101786882Y-77539041D01*
X101845114Y-77577650D01*
X101872725Y-77638108D01*
X101892947Y-77765781D01*
X101948155Y-77935693D01*
X102029260Y-78094869D01*
X102038651Y-78107793D01*
X102038652Y-78107794D01*
X102619000Y-77527446D01*
X102619000Y-77550160D01*
X102644964Y-77647061D01*
X102695124Y-77733940D01*
X102766060Y-77804876D01*
X102852939Y-77855036D01*
X102949840Y-77881000D01*
X102972554Y-77881000D01*
X102392205Y-78461347D01*
X102392205Y-78461348D01*
X102405129Y-78470738D01*
X102564306Y-78551844D01*
X102734219Y-78607053D01*
X102910669Y-78635000D01*
X103089331Y-78635000D01*
X103265780Y-78607053D01*
X103435693Y-78551844D01*
X103594867Y-78470739D01*
X103594872Y-78470737D01*
X103607794Y-78461347D01*
X103027447Y-77881000D01*
X103050160Y-77881000D01*
X103147061Y-77855036D01*
X103233940Y-77804876D01*
X103304876Y-77733940D01*
X103355036Y-77647061D01*
X103381000Y-77550160D01*
X103381000Y-77527446D01*
X103961347Y-78107794D01*
X103970737Y-78094872D01*
X103970739Y-78094867D01*
X104051844Y-77935693D01*
X104107053Y-77765780D01*
X104135000Y-77589331D01*
X104135000Y-77410668D01*
X104107053Y-77234219D01*
X104051844Y-77064306D01*
X103970738Y-76905129D01*
X103961347Y-76892205D01*
X103381000Y-77472552D01*
X103381000Y-77449840D01*
X103355036Y-77352939D01*
X103304876Y-77266060D01*
X103233940Y-77195124D01*
X103147061Y-77144964D01*
X103050160Y-77119000D01*
X103027447Y-77119000D01*
X103607794Y-76538652D01*
X103607793Y-76538651D01*
X103594869Y-76529260D01*
X103435693Y-76448155D01*
X103265780Y-76392946D01*
X103089331Y-76365000D01*
X102910669Y-76365000D01*
X102734219Y-76392946D01*
X102564306Y-76448155D01*
X102405127Y-76529262D01*
X102392205Y-76538651D01*
X102392204Y-76538651D01*
X102972554Y-77119000D01*
X102949840Y-77119000D01*
X102852939Y-77144964D01*
X102766060Y-77195124D01*
X102695124Y-77266060D01*
X102644964Y-77352939D01*
X102619000Y-77449840D01*
X102619000Y-77472553D01*
X102038651Y-76892204D01*
X102038651Y-76892205D01*
X102029262Y-76905127D01*
X101948155Y-77064306D01*
X101892947Y-77234218D01*
X101872725Y-77361891D01*
X101842795Y-77425025D01*
X101783484Y-77461956D01*
X101713621Y-77460958D01*
X101655389Y-77422348D01*
X101627779Y-77361889D01*
X101626361Y-77352939D01*
X101607540Y-77234103D01*
X101607539Y-77234098D01*
X101552310Y-77064121D01*
X101552308Y-77064118D01*
X101527893Y-77016199D01*
X101471167Y-76904868D01*
X101366111Y-76760272D01*
X101239728Y-76633889D01*
X101095132Y-76528833D01*
X100935881Y-76447691D01*
X100935878Y-76447689D01*
X100765899Y-76392460D01*
X100648209Y-76373820D01*
X100589366Y-76364500D01*
X100410634Y-76364500D01*
X100351790Y-76373820D01*
X100234101Y-76392460D01*
X100234098Y-76392460D01*
X100064121Y-76447689D01*
X100064118Y-76447691D01*
X99904867Y-76528833D01*
X99760270Y-76633890D01*
X99633890Y-76760270D01*
X99528833Y-76904867D01*
X99447691Y-77064118D01*
X99447689Y-77064121D01*
X99413134Y-77170471D01*
X99413134Y-73930000D01*
X99440000Y-73930000D01*
X106810000Y-73870000D01*
X106810000Y-73773920D01*
X107459499Y-73773920D01*
X107488340Y-73918907D01*
X107488343Y-73918917D01*
X107544912Y-74055488D01*
X107544919Y-74055501D01*
X107627048Y-74178415D01*
X107627051Y-74178419D01*
X107731580Y-74282948D01*
X107731584Y-74282951D01*
X107854498Y-74365080D01*
X107854511Y-74365087D01*
X107991082Y-74421656D01*
X107991087Y-74421658D01*
X107991091Y-74421658D01*
X107991092Y-74421659D01*
X108136079Y-74450500D01*
X108136082Y-74450500D01*
X108283920Y-74450500D01*
X108381462Y-74431096D01*
X108428913Y-74421658D01*
X108565495Y-74365084D01*
X108688416Y-74282951D01*
X108792951Y-74178416D01*
X108875084Y-74055495D01*
X108931658Y-73918913D01*
X108960500Y-73773918D01*
X108960500Y-73626082D01*
X108960500Y-73626079D01*
X108931659Y-73481092D01*
X108931658Y-73481091D01*
X108931658Y-73481087D01*
X108931656Y-73481082D01*
X108875087Y-73344511D01*
X108875080Y-73344498D01*
X108792951Y-73221584D01*
X108792948Y-73221580D01*
X108688419Y-73117051D01*
X108688415Y-73117048D01*
X108565501Y-73034919D01*
X108565488Y-73034912D01*
X108428917Y-72978343D01*
X108428907Y-72978340D01*
X108283920Y-72949500D01*
X108283918Y-72949500D01*
X108136082Y-72949500D01*
X108136080Y-72949500D01*
X107991092Y-72978340D01*
X107991082Y-72978343D01*
X107854511Y-73034912D01*
X107854498Y-73034919D01*
X107731584Y-73117048D01*
X107731580Y-73117051D01*
X107627051Y-73221580D01*
X107627048Y-73221584D01*
X107544919Y-73344498D01*
X107544912Y-73344511D01*
X107488343Y-73481082D01*
X107488340Y-73481092D01*
X107459500Y-73626079D01*
X107459500Y-73626082D01*
X107459500Y-73773918D01*
X107459500Y-73773920D01*
X107459499Y-73773920D01*
X106810000Y-73773920D01*
X106810000Y-72123575D01*
X106812486Y-72115105D01*
X106811199Y-72106372D01*
X106822179Y-72082095D01*
X106829685Y-72056536D01*
X106836355Y-72050755D01*
X106839994Y-72042712D01*
X106862357Y-72028225D01*
X106882489Y-72010781D01*
X106892768Y-72008525D01*
X106898635Y-72004725D01*
X106933544Y-71999576D01*
X106934936Y-71999572D01*
X107002044Y-72019013D01*
X107016688Y-72030770D01*
X107016874Y-72030544D01*
X107021584Y-72034409D01*
X107144498Y-72116538D01*
X107144511Y-72116545D01*
X107277562Y-72171656D01*
X107281087Y-72173116D01*
X107281091Y-72173116D01*
X107281092Y-72173117D01*
X107426079Y-72201958D01*
X107426082Y-72201958D01*
X107573920Y-72201958D01*
X107671462Y-72182554D01*
X107718913Y-72173116D01*
X107855495Y-72116542D01*
X107978416Y-72034409D01*
X107980805Y-72032019D01*
X107982367Y-72031166D01*
X107983126Y-72030544D01*
X107983243Y-72030687D01*
X108007556Y-72017407D01*
X108033155Y-72000832D01*
X108039653Y-71999875D01*
X108042121Y-71998527D01*
X108068057Y-71995691D01*
X108122353Y-71995505D01*
X108189455Y-72014958D01*
X108210454Y-72031822D01*
X108211580Y-72032948D01*
X108211584Y-72032951D01*
X108334498Y-72115080D01*
X108334511Y-72115087D01*
X108471082Y-72171656D01*
X108471087Y-72171658D01*
X108471091Y-72171658D01*
X108471092Y-72171659D01*
X108616079Y-72200500D01*
X108616082Y-72200500D01*
X108763920Y-72200500D01*
X108861462Y-72181096D01*
X108908913Y-72171658D01*
X109041985Y-72116538D01*
X109045488Y-72115087D01*
X109045488Y-72115086D01*
X109045495Y-72115084D01*
X109168416Y-72032951D01*
X109173436Y-72027930D01*
X109234752Y-71994442D01*
X109260687Y-71991607D01*
X109682318Y-71990163D01*
X109749423Y-72009618D01*
G37*
%TD.AperFunction*%
%TD*%
%TA.AperFunction,Conductor*%
%TO.N,Vbatt*%
G36*
X101075047Y-64819005D02*
G01*
X101111555Y-64841945D01*
X101364592Y-64963801D01*
X101563680Y-65033465D01*
X101629670Y-65056556D01*
X101629682Y-65056560D01*
X101903491Y-65119055D01*
X101903497Y-65119055D01*
X101903505Y-65119057D01*
X102089547Y-65140018D01*
X102182569Y-65150499D01*
X102182572Y-65150500D01*
X102182575Y-65150500D01*
X102463428Y-65150500D01*
X102463429Y-65150499D01*
X102606055Y-65134429D01*
X102742494Y-65119057D01*
X102742499Y-65119056D01*
X102742509Y-65119055D01*
X103016318Y-65056560D01*
X103281408Y-64963801D01*
X103534445Y-64841945D01*
X103570952Y-64819005D01*
X103636924Y-64800000D01*
X105403184Y-64800000D01*
X105470223Y-64819685D01*
X105515978Y-64872489D01*
X105523480Y-64893921D01*
X106590000Y-69160000D01*
X107783438Y-69164536D01*
X107850402Y-69184475D01*
X107895956Y-69237453D01*
X107906935Y-69285716D01*
X107923092Y-69996246D01*
X107904937Y-70063716D01*
X107853186Y-70110659D01*
X107784272Y-70122172D01*
X107751675Y-70113628D01*
X107746573Y-70111515D01*
X107738913Y-70108342D01*
X107738911Y-70108341D01*
X107738907Y-70108340D01*
X107593920Y-70079500D01*
X107593918Y-70079500D01*
X107446082Y-70079500D01*
X107446080Y-70079500D01*
X107301092Y-70108340D01*
X107301082Y-70108343D01*
X107164511Y-70164912D01*
X107164498Y-70164919D01*
X107050134Y-70241336D01*
X106983457Y-70262214D01*
X106976324Y-70262136D01*
X103900009Y-70139999D01*
X102057993Y-70111515D01*
X101991266Y-70090796D01*
X101946333Y-70037291D01*
X101937460Y-69967987D01*
X101967464Y-69904888D01*
X102003615Y-69877045D01*
X102074868Y-69840739D01*
X102074872Y-69840737D01*
X102087794Y-69831347D01*
X101507447Y-69251000D01*
X101530160Y-69251000D01*
X101627061Y-69225036D01*
X101713940Y-69174876D01*
X101784876Y-69103940D01*
X101835036Y-69017061D01*
X101861000Y-68920160D01*
X101861000Y-68897446D01*
X102441347Y-69477794D01*
X102450737Y-69464872D01*
X102450739Y-69464867D01*
X102531844Y-69305693D01*
X102587053Y-69135780D01*
X102615000Y-68959331D01*
X102615000Y-68780668D01*
X102587053Y-68604219D01*
X102531844Y-68434306D01*
X102450738Y-68275129D01*
X102441347Y-68262205D01*
X101861000Y-68842552D01*
X101861000Y-68819840D01*
X101835036Y-68722939D01*
X101784876Y-68636060D01*
X101713940Y-68565124D01*
X101627061Y-68514964D01*
X101530160Y-68489000D01*
X101507447Y-68489000D01*
X102087794Y-67908652D01*
X102087793Y-67908651D01*
X102074869Y-67899260D01*
X101915693Y-67818155D01*
X101745780Y-67762946D01*
X101569331Y-67735000D01*
X101390669Y-67735000D01*
X101214219Y-67762946D01*
X101044306Y-67818155D01*
X100885127Y-67899262D01*
X100872205Y-67908651D01*
X100872204Y-67908651D01*
X101452554Y-68489000D01*
X101429840Y-68489000D01*
X101332939Y-68514964D01*
X101246060Y-68565124D01*
X101175124Y-68636060D01*
X101124964Y-68722939D01*
X101099000Y-68819840D01*
X101099000Y-68842553D01*
X100518651Y-68262204D01*
X100518651Y-68262205D01*
X100509262Y-68275127D01*
X100428155Y-68434306D01*
X100372946Y-68604219D01*
X100345000Y-68780668D01*
X100345000Y-68959331D01*
X100372946Y-69135780D01*
X100428155Y-69305693D01*
X100509260Y-69464869D01*
X100518651Y-69477793D01*
X100518652Y-69477794D01*
X101099000Y-68897446D01*
X101099000Y-68920160D01*
X101124964Y-69017061D01*
X101175124Y-69103940D01*
X101246060Y-69174876D01*
X101332939Y-69225036D01*
X101429840Y-69251000D01*
X101452554Y-69251000D01*
X100872205Y-69831347D01*
X100872205Y-69831348D01*
X100885130Y-69840739D01*
X100885132Y-69840740D01*
X100920082Y-69858548D01*
X100970878Y-69906522D01*
X100987674Y-69974343D01*
X100965137Y-70040478D01*
X100910422Y-70083930D01*
X100861871Y-70093018D01*
X100141621Y-70081880D01*
X100074894Y-70061161D01*
X100029961Y-70007656D01*
X100019539Y-69958365D01*
X100019343Y-69906522D01*
X100000471Y-64924468D01*
X100019901Y-64857356D01*
X100072532Y-64811402D01*
X100124470Y-64800000D01*
X101009076Y-64800000D01*
X101075047Y-64819005D01*
G37*
%TD.AperFunction*%
%TD*%
%TA.AperFunction,Conductor*%
%TO.N,+5V*%
G36*
X126442758Y-52821187D02*
G01*
X126488655Y-52873868D01*
X126500000Y-52925683D01*
X126500000Y-82787781D01*
X126480315Y-82854820D01*
X126427511Y-82900575D01*
X126375878Y-82911781D01*
X125469717Y-82910890D01*
X125402697Y-82891139D01*
X125356994Y-82838291D01*
X125347119Y-82769122D01*
X125376206Y-82705595D01*
X125382159Y-82699208D01*
X125432948Y-82648419D01*
X125432951Y-82648416D01*
X125515084Y-82525495D01*
X125571658Y-82388913D01*
X125590356Y-82294916D01*
X125600500Y-82243920D01*
X125600500Y-82096079D01*
X125571659Y-81951092D01*
X125571658Y-81951091D01*
X125571658Y-81951087D01*
X125554902Y-81910634D01*
X125515087Y-81814511D01*
X125515080Y-81814498D01*
X125432951Y-81691584D01*
X125432948Y-81691580D01*
X125328419Y-81587051D01*
X125328415Y-81587048D01*
X125205501Y-81504919D01*
X125205488Y-81504912D01*
X125068917Y-81448343D01*
X125068907Y-81448340D01*
X124923920Y-81419500D01*
X124923918Y-81419500D01*
X124776082Y-81419500D01*
X124776080Y-81419500D01*
X124631092Y-81448340D01*
X124631082Y-81448343D01*
X124494511Y-81504912D01*
X124494498Y-81504919D01*
X124371584Y-81587048D01*
X124371580Y-81587051D01*
X124267051Y-81691580D01*
X124267048Y-81691584D01*
X124184919Y-81814498D01*
X124184912Y-81814511D01*
X124128343Y-81951082D01*
X124128340Y-81951092D01*
X124099500Y-82096079D01*
X124099500Y-82096082D01*
X124099500Y-82243918D01*
X124099500Y-82243920D01*
X124099499Y-82243920D01*
X124128340Y-82388907D01*
X124128343Y-82388917D01*
X124184912Y-82525488D01*
X124184919Y-82525501D01*
X124267048Y-82648415D01*
X124267051Y-82648419D01*
X124316619Y-82697987D01*
X124350104Y-82759310D01*
X124345120Y-82829002D01*
X124303248Y-82884935D01*
X124237784Y-82909352D01*
X124228816Y-82909668D01*
X114522928Y-82900120D01*
X114455908Y-82880369D01*
X114410205Y-82827520D01*
X114399054Y-82777074D01*
X114398993Y-82769122D01*
X114391926Y-81850476D01*
X114411094Y-81783290D01*
X114463544Y-81737130D01*
X114474967Y-81732484D01*
X114511738Y-81719616D01*
X114728408Y-81643801D01*
X114981445Y-81521945D01*
X115219248Y-81372523D01*
X115438825Y-81197416D01*
X115637416Y-80998825D01*
X115812523Y-80779248D01*
X115961945Y-80541445D01*
X116083801Y-80288408D01*
X116176560Y-80023318D01*
X116239055Y-79749509D01*
X116270500Y-79470425D01*
X116270500Y-79189575D01*
X116239055Y-78910491D01*
X116176560Y-78636682D01*
X116176146Y-78635500D01*
X116138822Y-78528833D01*
X116083801Y-78371592D01*
X115961945Y-78118555D01*
X115812523Y-77880752D01*
X115637416Y-77661175D01*
X115438825Y-77462584D01*
X115219248Y-77287477D01*
X114981445Y-77138055D01*
X114981442Y-77138053D01*
X114728411Y-77016200D01*
X114463329Y-76923443D01*
X114463320Y-76923440D01*
X114449482Y-76920282D01*
X114388504Y-76886173D01*
X114355646Y-76824512D01*
X114353079Y-76800350D01*
X114350651Y-76484641D01*
X114369818Y-76417456D01*
X114422268Y-76371296D01*
X114491348Y-76360821D01*
X114528798Y-76372940D01*
X114528876Y-76372753D01*
X114531227Y-76373726D01*
X114533100Y-76374333D01*
X114534509Y-76375086D01*
X114576454Y-76392460D01*
X114671087Y-76431658D01*
X114671091Y-76431658D01*
X114671092Y-76431659D01*
X114816079Y-76460500D01*
X114816082Y-76460500D01*
X114963920Y-76460500D01*
X115061462Y-76441096D01*
X115108913Y-76431658D01*
X115245495Y-76375084D01*
X115368416Y-76292951D01*
X115472951Y-76188416D01*
X115555084Y-76065495D01*
X115611658Y-75928913D01*
X115640500Y-75783918D01*
X115640500Y-75636082D01*
X115640500Y-75636079D01*
X115611659Y-75491092D01*
X115611658Y-75491091D01*
X115611658Y-75491087D01*
X115611656Y-75491082D01*
X115555087Y-75354511D01*
X115555080Y-75354498D01*
X115472951Y-75231584D01*
X115472948Y-75231580D01*
X115368419Y-75127051D01*
X115368415Y-75127048D01*
X115245501Y-75044919D01*
X115245488Y-75044912D01*
X115108917Y-74988343D01*
X115108907Y-74988340D01*
X114963920Y-74959500D01*
X114963918Y-74959500D01*
X114816082Y-74959500D01*
X114816080Y-74959500D01*
X114671092Y-74988340D01*
X114671082Y-74988343D01*
X114534511Y-75044912D01*
X114534495Y-75044921D01*
X114531685Y-75046799D01*
X114529988Y-75047330D01*
X114529130Y-75047789D01*
X114529042Y-75047626D01*
X114465007Y-75067673D01*
X114397628Y-75049185D01*
X114350940Y-74997204D01*
X114338805Y-74944651D01*
X114328260Y-73573920D01*
X121609499Y-73573920D01*
X121638340Y-73718907D01*
X121638343Y-73718917D01*
X121694912Y-73855488D01*
X121694919Y-73855501D01*
X121777048Y-73978415D01*
X121777051Y-73978419D01*
X121881580Y-74082948D01*
X121881584Y-74082951D01*
X122004498Y-74165080D01*
X122004511Y-74165087D01*
X122133562Y-74218541D01*
X122141087Y-74221658D01*
X122141091Y-74221658D01*
X122141092Y-74221659D01*
X122286079Y-74250500D01*
X122286082Y-74250500D01*
X122433920Y-74250500D01*
X122531462Y-74231096D01*
X122578913Y-74221658D01*
X122715495Y-74165084D01*
X122838416Y-74082951D01*
X122942951Y-73978416D01*
X123025084Y-73855495D01*
X123081658Y-73718913D01*
X123110500Y-73573918D01*
X123110500Y-73426082D01*
X123110500Y-73426079D01*
X123081659Y-73281092D01*
X123081658Y-73281091D01*
X123081658Y-73281087D01*
X123026912Y-73148918D01*
X123025087Y-73144511D01*
X123025080Y-73144498D01*
X122942951Y-73021584D01*
X122942948Y-73021580D01*
X122838419Y-72917051D01*
X122838415Y-72917048D01*
X122715501Y-72834919D01*
X122715488Y-72834912D01*
X122578917Y-72778343D01*
X122578907Y-72778340D01*
X122433920Y-72749500D01*
X122433918Y-72749500D01*
X122286082Y-72749500D01*
X122286080Y-72749500D01*
X122141092Y-72778340D01*
X122141082Y-72778343D01*
X122004511Y-72834912D01*
X122004498Y-72834919D01*
X121881584Y-72917048D01*
X121881580Y-72917051D01*
X121777051Y-73021580D01*
X121777048Y-73021584D01*
X121694919Y-73144498D01*
X121694912Y-73144511D01*
X121638343Y-73281082D01*
X121638340Y-73281092D01*
X121609500Y-73426079D01*
X121609500Y-73426082D01*
X121609500Y-73573918D01*
X121609500Y-73573920D01*
X121609499Y-73573920D01*
X114328260Y-73573920D01*
X114322199Y-72785964D01*
X114341366Y-72718782D01*
X114393816Y-72672622D01*
X114462896Y-72662147D01*
X114470386Y-72663400D01*
X114506079Y-72670500D01*
X114506082Y-72670500D01*
X114653920Y-72670500D01*
X114751462Y-72651096D01*
X114798913Y-72641658D01*
X114904547Y-72597902D01*
X114935488Y-72585087D01*
X114935488Y-72585086D01*
X114935495Y-72585084D01*
X115058416Y-72502951D01*
X115162951Y-72398416D01*
X115245084Y-72275495D01*
X115301658Y-72138913D01*
X115324532Y-72023920D01*
X115330500Y-71993920D01*
X115330500Y-71874500D01*
X115350185Y-71807461D01*
X115402989Y-71761706D01*
X115454500Y-71750500D01*
X115475543Y-71750500D01*
X115618572Y-71722049D01*
X115668835Y-71712051D01*
X115822163Y-71648541D01*
X115850907Y-71636635D01*
X115850907Y-71636634D01*
X115850914Y-71636632D01*
X116014782Y-71527139D01*
X116018003Y-71523918D01*
X116100819Y-71441103D01*
X116162142Y-71407618D01*
X116231834Y-71412602D01*
X116276181Y-71441103D01*
X116372214Y-71537136D01*
X116372218Y-71537139D01*
X116536079Y-71646628D01*
X116536092Y-71646635D01*
X116694025Y-71712052D01*
X116718165Y-71722051D01*
X116718169Y-71722051D01*
X116718170Y-71722052D01*
X116911456Y-71760500D01*
X116911459Y-71760500D01*
X117108543Y-71760500D01*
X117238582Y-71734632D01*
X117301835Y-71722051D01*
X117442655Y-71663721D01*
X117479300Y-71648543D01*
X119019499Y-71648543D01*
X119057947Y-71841829D01*
X119057950Y-71841839D01*
X119133364Y-72023907D01*
X119133371Y-72023920D01*
X119242860Y-72187781D01*
X119242863Y-72187785D01*
X119382214Y-72327136D01*
X119382218Y-72327139D01*
X119546079Y-72436628D01*
X119546092Y-72436635D01*
X119706188Y-72502948D01*
X119728165Y-72512051D01*
X119728169Y-72512051D01*
X119728170Y-72512052D01*
X119921456Y-72550500D01*
X119921459Y-72550500D01*
X120118543Y-72550500D01*
X120248582Y-72524632D01*
X120311835Y-72512051D01*
X120493914Y-72436632D01*
X120657782Y-72327139D01*
X120797139Y-72187782D01*
X120906632Y-72023914D01*
X120982051Y-71841835D01*
X121007867Y-71712051D01*
X121020500Y-71648543D01*
X121020500Y-71451456D01*
X120982052Y-71258170D01*
X120982051Y-71258169D01*
X120982051Y-71258165D01*
X120980705Y-71254916D01*
X120906635Y-71076092D01*
X120906628Y-71076079D01*
X120797139Y-70912218D01*
X120797136Y-70912214D01*
X120657785Y-70772863D01*
X120657781Y-70772860D01*
X120493920Y-70663371D01*
X120493907Y-70663364D01*
X120311839Y-70587950D01*
X120311829Y-70587947D01*
X120118543Y-70549500D01*
X120118541Y-70549500D01*
X119921459Y-70549500D01*
X119921457Y-70549500D01*
X119728170Y-70587947D01*
X119728160Y-70587950D01*
X119546092Y-70663364D01*
X119546079Y-70663371D01*
X119382218Y-70772860D01*
X119382214Y-70772863D01*
X119242863Y-70912214D01*
X119242860Y-70912218D01*
X119133371Y-71076079D01*
X119133364Y-71076092D01*
X119057950Y-71258160D01*
X119057947Y-71258170D01*
X119019500Y-71451456D01*
X119019500Y-71451459D01*
X119019500Y-71648541D01*
X119019500Y-71648543D01*
X119019499Y-71648543D01*
X117479300Y-71648543D01*
X117483907Y-71646635D01*
X117483907Y-71646634D01*
X117483914Y-71646632D01*
X117647782Y-71537139D01*
X117787139Y-71397782D01*
X117793821Y-71387782D01*
X117801377Y-71376475D01*
X117896628Y-71233920D01*
X117896628Y-71233919D01*
X117896632Y-71233914D01*
X117972051Y-71051835D01*
X117984632Y-70988582D01*
X118010500Y-70858543D01*
X118010500Y-70661456D01*
X117972052Y-70468170D01*
X117972051Y-70468169D01*
X117972051Y-70468165D01*
X117938756Y-70387782D01*
X117896635Y-70286092D01*
X117896628Y-70286079D01*
X117787139Y-70122218D01*
X117787136Y-70122214D01*
X117721782Y-70056860D01*
X117688297Y-69995537D01*
X117693281Y-69925845D01*
X117735153Y-69869912D01*
X117800617Y-69845495D01*
X117807493Y-69845195D01*
X120700000Y-69800000D01*
X120684766Y-67850000D01*
X113633057Y-67850000D01*
X113566018Y-67830315D01*
X113520263Y-67777511D01*
X113518496Y-67773453D01*
X113465085Y-67644507D01*
X113465080Y-67644498D01*
X113382951Y-67521584D01*
X113382948Y-67521580D01*
X113278419Y-67417051D01*
X113278415Y-67417048D01*
X113155501Y-67334919D01*
X113155488Y-67334912D01*
X113018917Y-67278343D01*
X113018907Y-67278340D01*
X112873920Y-67249500D01*
X112873918Y-67249500D01*
X112726082Y-67249500D01*
X112726080Y-67249500D01*
X112581092Y-67278340D01*
X112581082Y-67278343D01*
X112444511Y-67334912D01*
X112444498Y-67334919D01*
X112321584Y-67417048D01*
X112321580Y-67417051D01*
X112217051Y-67521580D01*
X112217048Y-67521584D01*
X112134919Y-67644498D01*
X112134914Y-67644507D01*
X112081504Y-67773453D01*
X112037663Y-67827856D01*
X111971369Y-67849921D01*
X111966943Y-67850000D01*
X111672729Y-67850000D01*
X111605690Y-67830315D01*
X111585047Y-67813680D01*
X111533419Y-67762051D01*
X111533415Y-67762048D01*
X111410501Y-67679919D01*
X111410487Y-67679912D01*
X111407803Y-67678800D01*
X111406614Y-67677842D01*
X111405125Y-67677046D01*
X111405276Y-67676763D01*
X111353402Y-67634955D01*
X111331342Y-67568660D01*
X111331357Y-67559425D01*
X111435460Y-64896146D01*
X111457748Y-64829927D01*
X111512298Y-64786270D01*
X111556196Y-64777030D01*
X112557206Y-64751445D01*
X112624726Y-64769411D01*
X112671815Y-64821028D01*
X112683523Y-64889910D01*
X112656131Y-64954187D01*
X112629265Y-64978507D01*
X112571584Y-65017048D01*
X112571580Y-65017051D01*
X112467051Y-65121580D01*
X112467048Y-65121584D01*
X112384919Y-65244498D01*
X112384912Y-65244511D01*
X112328343Y-65381082D01*
X112328340Y-65381092D01*
X112299500Y-65526079D01*
X112299500Y-65526082D01*
X112299500Y-65673918D01*
X112299500Y-65673920D01*
X112299499Y-65673920D01*
X112328340Y-65818907D01*
X112328343Y-65818917D01*
X112384912Y-65955488D01*
X112384919Y-65955501D01*
X112467048Y-66078415D01*
X112467051Y-66078419D01*
X112571580Y-66182948D01*
X112571584Y-66182951D01*
X112694498Y-66265080D01*
X112694511Y-66265087D01*
X112831082Y-66321656D01*
X112831087Y-66321658D01*
X112831091Y-66321658D01*
X112831092Y-66321659D01*
X112976079Y-66350500D01*
X112976082Y-66350500D01*
X113123920Y-66350500D01*
X113221462Y-66331096D01*
X113268913Y-66321658D01*
X113405495Y-66265084D01*
X113528416Y-66182951D01*
X113632951Y-66078416D01*
X113715084Y-65955495D01*
X113771658Y-65818913D01*
X113800500Y-65673918D01*
X113800500Y-65533713D01*
X121749500Y-65533713D01*
X121749500Y-65746286D01*
X121782635Y-65955495D01*
X121782754Y-65956243D01*
X121822450Y-66078415D01*
X121848444Y-66158414D01*
X121944951Y-66347820D01*
X122069890Y-66519786D01*
X122220213Y-66670109D01*
X122392182Y-66795050D01*
X122400946Y-66799516D01*
X122451742Y-66847491D01*
X122468536Y-66915312D01*
X122445998Y-66981447D01*
X122400946Y-67020484D01*
X122392182Y-67024949D01*
X122220213Y-67149890D01*
X122069890Y-67300213D01*
X121944951Y-67472179D01*
X121848444Y-67661585D01*
X121782753Y-67863760D01*
X121749500Y-68073713D01*
X121749500Y-68286287D01*
X121782754Y-68496243D01*
X121810927Y-68582951D01*
X121848444Y-68698414D01*
X121944951Y-68887820D01*
X122069890Y-69059786D01*
X122220213Y-69210109D01*
X122392179Y-69335048D01*
X122392181Y-69335049D01*
X122392184Y-69335051D01*
X122581588Y-69431557D01*
X122783757Y-69497246D01*
X122993713Y-69530500D01*
X122993714Y-69530500D01*
X123206286Y-69530500D01*
X123206287Y-69530500D01*
X123416243Y-69497246D01*
X123618412Y-69431557D01*
X123807816Y-69335051D01*
X123859113Y-69297782D01*
X123979786Y-69210109D01*
X123979788Y-69210106D01*
X123979792Y-69210104D01*
X124130104Y-69059792D01*
X124130106Y-69059788D01*
X124130109Y-69059786D01*
X124255048Y-68887820D01*
X124255047Y-68887820D01*
X124255051Y-68887816D01*
X124351557Y-68698412D01*
X124417246Y-68496243D01*
X124450500Y-68286287D01*
X124450500Y-68073713D01*
X124417246Y-67863757D01*
X124351557Y-67661588D01*
X124255051Y-67472184D01*
X124255049Y-67472181D01*
X124255048Y-67472179D01*
X124130109Y-67300213D01*
X123979786Y-67149890D01*
X123807820Y-67024951D01*
X123807115Y-67024591D01*
X123799054Y-67020485D01*
X123748259Y-66972512D01*
X123731463Y-66904692D01*
X123753999Y-66838556D01*
X123799054Y-66799515D01*
X123807816Y-66795051D01*
X123829789Y-66779086D01*
X123979786Y-66670109D01*
X123979788Y-66670106D01*
X123979792Y-66670104D01*
X124130104Y-66519792D01*
X124130106Y-66519788D01*
X124130109Y-66519786D01*
X124255048Y-66347820D01*
X124255047Y-66347820D01*
X124255051Y-66347816D01*
X124351557Y-66158412D01*
X124417246Y-65956243D01*
X124450500Y-65746287D01*
X124450500Y-65533713D01*
X124417246Y-65323757D01*
X124351557Y-65121588D01*
X124255051Y-64932184D01*
X124255049Y-64932181D01*
X124255048Y-64932179D01*
X124130109Y-64760213D01*
X124016181Y-64646285D01*
X123982696Y-64584962D01*
X123987680Y-64515270D01*
X124029552Y-64459337D01*
X124060529Y-64442422D01*
X124192086Y-64393354D01*
X124192093Y-64393350D01*
X124307187Y-64307190D01*
X124307190Y-64307187D01*
X124393350Y-64192093D01*
X124393354Y-64192086D01*
X124443596Y-64057379D01*
X124443598Y-64057372D01*
X124449999Y-63997844D01*
X124450000Y-63997827D01*
X124450000Y-63350000D01*
X123533012Y-63350000D01*
X123565925Y-63292993D01*
X123600000Y-63165826D01*
X123600000Y-63034174D01*
X123565925Y-62907007D01*
X123533012Y-62850000D01*
X124450000Y-62850000D01*
X124450000Y-62202172D01*
X124449999Y-62202155D01*
X124443598Y-62142627D01*
X124443596Y-62142620D01*
X124393354Y-62007913D01*
X124393350Y-62007906D01*
X124307190Y-61892812D01*
X124307187Y-61892809D01*
X124192093Y-61806649D01*
X124192086Y-61806645D01*
X124057379Y-61756403D01*
X124057372Y-61756401D01*
X123997844Y-61750000D01*
X123350000Y-61750000D01*
X123350000Y-62666988D01*
X123292993Y-62634075D01*
X123165826Y-62600000D01*
X123034174Y-62600000D01*
X122907007Y-62634075D01*
X122850000Y-62666988D01*
X122850000Y-61750000D01*
X122202155Y-61750000D01*
X122142627Y-61756401D01*
X122142620Y-61756403D01*
X122007913Y-61806645D01*
X122007906Y-61806649D01*
X121892812Y-61892809D01*
X121892809Y-61892812D01*
X121806649Y-62007906D01*
X121806645Y-62007913D01*
X121756403Y-62142620D01*
X121756401Y-62142627D01*
X121750000Y-62202155D01*
X121750000Y-62850000D01*
X122666988Y-62850000D01*
X122634075Y-62907007D01*
X122600000Y-63034174D01*
X122600000Y-63165826D01*
X122634075Y-63292993D01*
X122666988Y-63350000D01*
X121750000Y-63350000D01*
X121750000Y-63997844D01*
X121756401Y-64057372D01*
X121756403Y-64057379D01*
X121806645Y-64192086D01*
X121806649Y-64192093D01*
X121892809Y-64307187D01*
X121892812Y-64307190D01*
X122007906Y-64393350D01*
X122007913Y-64393354D01*
X122139470Y-64442422D01*
X122195404Y-64484293D01*
X122219821Y-64549758D01*
X122204969Y-64618031D01*
X122183819Y-64646285D01*
X122069889Y-64760215D01*
X121944951Y-64932179D01*
X121848444Y-65121585D01*
X121782753Y-65323760D01*
X121749500Y-65533713D01*
X113800500Y-65533713D01*
X113800500Y-65526082D01*
X113800500Y-65526079D01*
X113771659Y-65381092D01*
X113771658Y-65381091D01*
X113771658Y-65381087D01*
X113748599Y-65325417D01*
X113715087Y-65244511D01*
X113715080Y-65244498D01*
X113632951Y-65121584D01*
X113632948Y-65121580D01*
X113528419Y-65017051D01*
X113528415Y-65017048D01*
X113434656Y-64954400D01*
X113389851Y-64900788D01*
X113381144Y-64831463D01*
X113411299Y-64768435D01*
X113470742Y-64731716D01*
X113500374Y-64727338D01*
X120658940Y-64544372D01*
X120615248Y-58951814D01*
X120634408Y-58884625D01*
X120686853Y-58838458D01*
X120755932Y-58827975D01*
X120819712Y-58856503D01*
X120826925Y-58863166D01*
X120831175Y-58867416D01*
X121050752Y-59042523D01*
X121288555Y-59191945D01*
X121541592Y-59313801D01*
X121740680Y-59383465D01*
X121806670Y-59406556D01*
X121806682Y-59406560D01*
X122080491Y-59469055D01*
X122080497Y-59469055D01*
X122080505Y-59469057D01*
X122266547Y-59490018D01*
X122359569Y-59500499D01*
X122359572Y-59500500D01*
X122359575Y-59500500D01*
X122640428Y-59500500D01*
X122640429Y-59500499D01*
X122783055Y-59484429D01*
X122919494Y-59469057D01*
X122919499Y-59469056D01*
X122919509Y-59469055D01*
X123193318Y-59406560D01*
X123458408Y-59313801D01*
X123711445Y-59191945D01*
X123949248Y-59042523D01*
X124168825Y-58867416D01*
X124367416Y-58668825D01*
X124542523Y-58449248D01*
X124691945Y-58211445D01*
X124813801Y-57958408D01*
X124906560Y-57693318D01*
X124969055Y-57419509D01*
X125000500Y-57140425D01*
X125000500Y-56859575D01*
X124969056Y-56580503D01*
X124969054Y-56580487D01*
X124906560Y-56306682D01*
X124906556Y-56306670D01*
X124883465Y-56240680D01*
X124813801Y-56041592D01*
X124691945Y-55788555D01*
X124542523Y-55550752D01*
X124367416Y-55331175D01*
X124168825Y-55132584D01*
X123949248Y-54957477D01*
X123711445Y-54808055D01*
X123711442Y-54808053D01*
X123458411Y-54686200D01*
X123193329Y-54593443D01*
X123193317Y-54593439D01*
X122919512Y-54530945D01*
X122919494Y-54530942D01*
X122640431Y-54499500D01*
X122640425Y-54499500D01*
X122359575Y-54499500D01*
X122359568Y-54499500D01*
X122080505Y-54530942D01*
X122080487Y-54530945D01*
X121806682Y-54593439D01*
X121806670Y-54593443D01*
X121541588Y-54686200D01*
X121288557Y-54808053D01*
X121050753Y-54957476D01*
X120831175Y-55132583D01*
X120632583Y-55331175D01*
X120457476Y-55550753D01*
X120308053Y-55788557D01*
X120186200Y-56041588D01*
X120093443Y-56306670D01*
X120093439Y-56306682D01*
X120030945Y-56580487D01*
X120030942Y-56580505D01*
X119999500Y-56859568D01*
X119999500Y-56873638D01*
X119979815Y-56940677D01*
X119927011Y-56986432D01*
X119875096Y-56997637D01*
X113623937Y-56977276D01*
X113556962Y-56957374D01*
X113511379Y-56904421D01*
X113501219Y-56862994D01*
X113500890Y-56863032D01*
X113500602Y-56860480D01*
X113500535Y-56860205D01*
X113500499Y-56859561D01*
X113469057Y-56580505D01*
X113469054Y-56580487D01*
X113406560Y-56306682D01*
X113406556Y-56306670D01*
X113383465Y-56240680D01*
X113313801Y-56041592D01*
X113191945Y-55788555D01*
X113042523Y-55550752D01*
X112867416Y-55331175D01*
X112668825Y-55132584D01*
X112449248Y-54957477D01*
X112211445Y-54808055D01*
X112211442Y-54808053D01*
X111958411Y-54686200D01*
X111693329Y-54593443D01*
X111693317Y-54593439D01*
X111419512Y-54530945D01*
X111419494Y-54530942D01*
X111140431Y-54499500D01*
X111140425Y-54499500D01*
X110859575Y-54499500D01*
X110859568Y-54499500D01*
X110580505Y-54530942D01*
X110580487Y-54530945D01*
X110306682Y-54593439D01*
X110306670Y-54593443D01*
X110041588Y-54686200D01*
X109788557Y-54808053D01*
X109550753Y-54957476D01*
X109331175Y-55132583D01*
X109132583Y-55331175D01*
X108957476Y-55550753D01*
X108808053Y-55788557D01*
X108686200Y-56041588D01*
X108593443Y-56306670D01*
X108593439Y-56306682D01*
X108530945Y-56580487D01*
X108530943Y-56580503D01*
X108500570Y-56850069D01*
X108473503Y-56914483D01*
X108415908Y-56954038D01*
X108376946Y-56960184D01*
X102119949Y-56939804D01*
X102052974Y-56919902D01*
X102007391Y-56866949D01*
X101997133Y-56829688D01*
X101969057Y-56580505D01*
X101969054Y-56580487D01*
X101906560Y-56306682D01*
X101906556Y-56306670D01*
X101883465Y-56240680D01*
X101813801Y-56041592D01*
X101691945Y-55788555D01*
X101542523Y-55550752D01*
X101367416Y-55331175D01*
X101168825Y-55132584D01*
X100949248Y-54957477D01*
X100711445Y-54808055D01*
X100711442Y-54808053D01*
X100458411Y-54686200D01*
X100193329Y-54593443D01*
X100193317Y-54593439D01*
X99919512Y-54530945D01*
X99919494Y-54530942D01*
X99640431Y-54499500D01*
X99640425Y-54499500D01*
X99359575Y-54499500D01*
X99359568Y-54499500D01*
X99080505Y-54530942D01*
X99080487Y-54530945D01*
X98806682Y-54593439D01*
X98806670Y-54593443D01*
X98541588Y-54686200D01*
X98288557Y-54808053D01*
X98050753Y-54957476D01*
X97831175Y-55132583D01*
X97632583Y-55331175D01*
X97457476Y-55550753D01*
X97308053Y-55788557D01*
X97186200Y-56041588D01*
X97093443Y-56306670D01*
X97093439Y-56306682D01*
X97030945Y-56580487D01*
X97030943Y-56580503D01*
X97004789Y-56812624D01*
X96977722Y-56877038D01*
X96920127Y-56916593D01*
X96881165Y-56922739D01*
X94870616Y-56916191D01*
X94803641Y-56896289D01*
X94758058Y-56843336D01*
X94747731Y-56778934D01*
X94749999Y-56757839D01*
X94750000Y-56757827D01*
X94750000Y-56110000D01*
X93833012Y-56110000D01*
X93865925Y-56052993D01*
X93900000Y-55925826D01*
X93900000Y-55794174D01*
X93865925Y-55667007D01*
X93833012Y-55610000D01*
X94750000Y-55610000D01*
X94750000Y-54962172D01*
X94749999Y-54962155D01*
X94743598Y-54902627D01*
X94743596Y-54902620D01*
X94693354Y-54767913D01*
X94693350Y-54767906D01*
X94607190Y-54652812D01*
X94607187Y-54652809D01*
X94492093Y-54566649D01*
X94492086Y-54566645D01*
X94357379Y-54516403D01*
X94357372Y-54516401D01*
X94297844Y-54510000D01*
X93650000Y-54510000D01*
X93650000Y-55426988D01*
X93592993Y-55394075D01*
X93465826Y-55360000D01*
X93334174Y-55360000D01*
X93207007Y-55394075D01*
X93150000Y-55426988D01*
X93150000Y-54510000D01*
X92502155Y-54510000D01*
X92442627Y-54516401D01*
X92442620Y-54516403D01*
X92307913Y-54566645D01*
X92307906Y-54566649D01*
X92192812Y-54652809D01*
X92192809Y-54652812D01*
X92106649Y-54767906D01*
X92106645Y-54767913D01*
X92056403Y-54902620D01*
X92056401Y-54902627D01*
X92050000Y-54962155D01*
X92050000Y-55610000D01*
X92966988Y-55610000D01*
X92934075Y-55667007D01*
X92900000Y-55794174D01*
X92900000Y-55925826D01*
X92934075Y-56052993D01*
X92966988Y-56110000D01*
X92050000Y-56110000D01*
X92050000Y-56757843D01*
X92051238Y-56769356D01*
X92038829Y-56838115D01*
X91991216Y-56889250D01*
X91927544Y-56906604D01*
X91743596Y-56906005D01*
X91676621Y-56886103D01*
X91631038Y-56833150D01*
X91620000Y-56782006D01*
X91620000Y-53019030D01*
X91639685Y-52951991D01*
X91692489Y-52906236D01*
X91743662Y-52895030D01*
X126375666Y-52801683D01*
X126442758Y-52821187D01*
G37*
%TD.AperFunction*%
%TD*%
%TA.AperFunction,Conductor*%
%TO.N,+3.3V*%
G36*
X103190929Y-82649830D02*
G01*
X103237086Y-82702283D01*
X103240615Y-82710645D01*
X103395997Y-83119945D01*
X103401388Y-83189606D01*
X103394631Y-83211407D01*
X103353342Y-83311086D01*
X103353340Y-83311092D01*
X103324500Y-83456079D01*
X103324500Y-83456082D01*
X103324500Y-83603918D01*
X103324500Y-83603920D01*
X103324499Y-83603920D01*
X103353340Y-83748907D01*
X103353343Y-83748917D01*
X103409912Y-83885488D01*
X103409919Y-83885501D01*
X103492048Y-84008415D01*
X103492051Y-84008419D01*
X103596580Y-84112948D01*
X103596584Y-84112951D01*
X103719498Y-84195080D01*
X103719511Y-84195087D01*
X103819945Y-84236688D01*
X104030000Y-84790000D01*
X101910000Y-84340000D01*
X101900728Y-82763779D01*
X101920018Y-82696626D01*
X101972552Y-82650562D01*
X102023778Y-82639055D01*
X103123742Y-82630658D01*
X103190929Y-82649830D01*
G37*
%TD.AperFunction*%
%TD*%
M02*
