%TF.GenerationSoftware,KiCad,Pcbnew,9.0.2*%
%TF.CreationDate,2025-08-16T18:35:03-07:00*%
%TF.ProjectId,Transmitter,5472616e-736d-4697-9474-65722e6b6963,rev?*%
%TF.SameCoordinates,Original*%
%TF.FileFunction,Copper,L4,Bot*%
%TF.FilePolarity,Positive*%
%FSLAX46Y46*%
G04 Gerber Fmt 4.6, Leading zero omitted, Abs format (unit mm)*
G04 Created by KiCad (PCBNEW 9.0.2) date 2025-08-16 18:35:03*
%MOMM*%
%LPD*%
G01*
G04 APERTURE LIST*
%TA.AperFunction,ComponentPad*%
%ADD10C,1.828800*%
%TD*%
%TA.AperFunction,ComponentPad*%
%ADD11C,2.362200*%
%TD*%
%TA.AperFunction,ComponentPad*%
%ADD12C,1.524000*%
%TD*%
%TA.AperFunction,ComponentPad*%
%ADD13R,1.700000X1.700000*%
%TD*%
%TA.AperFunction,ComponentPad*%
%ADD14C,1.700000*%
%TD*%
%TA.AperFunction,ComponentPad*%
%ADD15C,1.270000*%
%TD*%
%TA.AperFunction,ComponentPad*%
%ADD16C,1.574800*%
%TD*%
%TA.AperFunction,ViaPad*%
%ADD17C,0.500000*%
%TD*%
%TA.AperFunction,ViaPad*%
%ADD18C,1.000000*%
%TD*%
%TA.AperFunction,ViaPad*%
%ADD19C,4.000000*%
%TD*%
%TA.AperFunction,Conductor*%
%ADD20C,0.500000*%
%TD*%
%TA.AperFunction,Conductor*%
%ADD21C,0.300000*%
%TD*%
%TA.AperFunction,Conductor*%
%ADD22C,2.000000*%
%TD*%
G04 APERTURE END LIST*
D10*
%TO.P,J6,1,1*%
%TO.N,Vbatt*%
X117800000Y-119556100D03*
%TO.P,J6,2,2*%
X117800000Y-114476100D03*
%TD*%
%TO.P,J7,1,1*%
%TO.N,GND*%
X122200000Y-119600000D03*
%TO.P,J7,2,2*%
X122200000Y-114520000D03*
%TD*%
%TO.P,J2,1,1*%
%TO.N,LoadA*%
X99480000Y-31370000D03*
%TO.P,J2,2,2*%
X99480000Y-26290000D03*
%TD*%
D11*
%TO.P,U1,1,1*%
%TO.N,Vbatt*%
X113300000Y-110221100D03*
%TO.P,U1,2,2*%
%TO.N,V_in*%
X113300000Y-105395100D03*
%TO.P,U1,3,3*%
%TO.N,unconnected-(U1-Pad3)*%
X113300000Y-100569100D03*
%TD*%
D10*
%TO.P,J9,1,1*%
%TO.N,Vdc*%
X91473900Y-65868550D03*
%TO.P,J9,2,2*%
X96553900Y-65868550D03*
%TD*%
D12*
%TO.P,J1,1,1*%
%TO.N,+3.3V*%
X102900000Y-118900000D03*
%TO.P,J1,2,2*%
%TO.N,GND*%
X102900000Y-116360000D03*
%TO.P,J1,3,3*%
%TO.N,SPI1_CSN*%
X100360000Y-118900000D03*
%TO.P,J1,4,4*%
%TO.N,NRF_CE*%
X100360000Y-116360000D03*
%TO.P,J1,5,5*%
%TO.N,SPI1_MOSI*%
X97820000Y-118900000D03*
%TO.P,J1,6,6*%
%TO.N,SPI1_SCK*%
X97820000Y-116360000D03*
%TO.P,J1,7,7*%
%TO.N,NRF_IRQ*%
X95280000Y-118900000D03*
%TO.P,J1,8,8*%
%TO.N,SPI1_MISO*%
X95280000Y-116360000D03*
%TD*%
D13*
%TO.P,J12,1,Pin_1*%
%TO.N,+5V*%
X106600000Y-119000000D03*
D14*
%TO.P,J12,2,Pin_2*%
%TO.N,GND*%
X106600000Y-116460000D03*
%TO.P,J12,3,Pin_3*%
%TO.N,LElevator*%
X106600000Y-113920000D03*
%TD*%
D10*
%TO.P,J4,1,1*%
%TO.N,LoadB*%
X111120000Y-31380000D03*
%TO.P,J4,2,2*%
X111120000Y-26300000D03*
%TD*%
%TO.P,J8,1,1*%
%TO.N,Vbatt*%
X91453900Y-70378550D03*
%TO.P,J8,2,2*%
X96533900Y-70378550D03*
%TD*%
D13*
%TO.P,J14,1,Pin_1*%
%TO.N,+5V*%
X110200000Y-119000000D03*
D14*
%TO.P,J14,2,Pin_2*%
%TO.N,GND*%
X110200000Y-116460000D03*
%TO.P,J14,3,Pin_3*%
%TO.N,Rudder*%
X110200000Y-113920000D03*
%TD*%
D13*
%TO.P,J13,1,Pin_1*%
%TO.N,+5V*%
X113800000Y-119000000D03*
D14*
%TO.P,J13,2,Pin_2*%
%TO.N,GND*%
X113800000Y-116460000D03*
%TO.P,J13,3,Pin_3*%
%TO.N,RElevator*%
X113800000Y-113920000D03*
%TD*%
D15*
%TO.P,C15,1*%
%TO.N,GND*%
X92750000Y-86350000D03*
%TO.P,C15,2*%
%TO.N,Vdc*%
X95250000Y-86350000D03*
%TD*%
%TO.P,C20,1*%
%TO.N,Vbatt*%
X101480000Y-68870000D03*
%TO.P,C20,2*%
%TO.N,GND*%
X101480000Y-71370000D03*
%TD*%
D16*
%TO.P,SW1,1,1*%
%TO.N,+3.3V*%
X94600000Y-106500000D03*
%TO.P,SW1,2,2*%
%TO.N,Net-(U2-BOOT0)*%
X94600000Y-101500000D03*
%TO.P,SW1,3,3*%
X99599990Y-101500000D03*
%TO.P,SW1,4,4*%
%TO.N,+3.3V*%
X99599990Y-106500000D03*
%TD*%
D15*
%TO.P,C18,1*%
%TO.N,GND*%
X100500000Y-77500000D03*
%TO.P,C18,2*%
%TO.N,Vdc*%
X103000000Y-77500000D03*
%TD*%
D13*
%TO.P,J11,1,Pin_1*%
%TO.N,+5V*%
X123100000Y-63100000D03*
D14*
%TO.P,J11,2,Pin_2*%
%TO.N,GND*%
X123100000Y-65640000D03*
%TO.P,J11,3,Pin_3*%
%TO.N,RFlap*%
X123100000Y-68180000D03*
%TD*%
D10*
%TO.P,J5,1,1*%
%TO.N,LoadC*%
X122560000Y-31350000D03*
%TO.P,J5,2,2*%
X122560000Y-26270000D03*
%TD*%
D15*
%TO.P,C17,1*%
%TO.N,GND*%
X92950000Y-78450000D03*
%TO.P,C17,2*%
%TO.N,Vdc*%
X95450000Y-78450000D03*
%TD*%
D13*
%TO.P,J3,1,Pin_1*%
%TO.N,+3.3V*%
X119440000Y-86570000D03*
D14*
%TO.P,J3,2,Pin_2*%
%TO.N,SWCLK*%
X119440000Y-89110000D03*
%TO.P,J3,3,Pin_3*%
%TO.N,GND*%
X119440000Y-91650000D03*
%TO.P,J3,4,Pin_4*%
%TO.N,SWDIO*%
X119440000Y-94190000D03*
%TO.P,J3,5,Pin_5*%
%TO.N,NRST*%
X119440000Y-96730000D03*
%TO.P,J3,6,Pin_6*%
%TO.N,unconnected-(J3-Pin_6-Pad6)*%
X119440000Y-99270000D03*
%TD*%
D13*
%TO.P,J10,1,Pin_1*%
%TO.N,+5V*%
X93400000Y-55860000D03*
D14*
%TO.P,J10,2,Pin_2*%
%TO.N,GND*%
X93400000Y-58400000D03*
%TO.P,J10,3,Pin_3*%
%TO.N,LFlap*%
X93400000Y-60940000D03*
%TD*%
D15*
%TO.P,C16,1*%
%TO.N,GND*%
X109000000Y-82000000D03*
%TO.P,C16,2*%
%TO.N,Vdc*%
X109000000Y-79500000D03*
%TD*%
D17*
%TO.N,GND*%
X122360000Y-73500000D03*
X116887500Y-95190000D03*
D18*
%TO.N,+3.3V*%
X113450000Y-85890000D03*
X120020000Y-71550000D03*
D17*
X97775000Y-93965000D03*
X97710000Y-93390000D03*
D19*
%TO.N,LoadA*%
X99500000Y-37000000D03*
%TO.N,LoadB*%
X111000000Y-36800000D03*
%TO.N,Vdc*%
X122500000Y-57000000D03*
X111000000Y-57000000D03*
X99500000Y-57000000D03*
%TO.N,LoadC*%
X122530000Y-36820000D03*
D17*
%TO.N,GND*%
X124850000Y-82170000D03*
D18*
%TO.N,Vbatt*%
X105520000Y-68660000D03*
X107565400Y-69738000D03*
X105520000Y-67560000D03*
D19*
X113770000Y-79330000D03*
%TO.N,Vdc*%
X98000000Y-81600000D03*
D18*
X96830000Y-74120000D03*
D19*
X102323000Y-62650000D03*
X116530000Y-61700000D03*
D17*
X110915000Y-73075000D03*
X111055000Y-68345000D03*
D18*
%TO.N,GND*%
X92920000Y-50910000D03*
D17*
X107520000Y-70830000D03*
D18*
X93980000Y-50910000D03*
D19*
X114700000Y-43300000D03*
D17*
X108660000Y-70830000D03*
D18*
X103280000Y-88160000D03*
D17*
X121565500Y-107302860D03*
X121659393Y-106589393D03*
D18*
X115377000Y-70750000D03*
D17*
X107500000Y-71451458D03*
D18*
X100810000Y-93500000D03*
D19*
X103340000Y-43160000D03*
D17*
X114890000Y-75710000D03*
X113660000Y-75710000D03*
D19*
X125260000Y-43000000D03*
D18*
X117010000Y-70760000D03*
D17*
X114580000Y-71920000D03*
X114600000Y-69950000D03*
X98445000Y-85365000D03*
X122100000Y-104550000D03*
D18*
X108400000Y-100360000D03*
X109167400Y-69750000D03*
D17*
X108690000Y-71450000D03*
X111223000Y-71102000D03*
D18*
%TO.N,+3.3V*%
X121810000Y-101524156D03*
X122275000Y-102785000D03*
X110500000Y-97600000D03*
X101300000Y-88300000D03*
D17*
X102500000Y-83140000D03*
D18*
X100500000Y-87900000D03*
X108900000Y-99100000D03*
X123110000Y-101950000D03*
D17*
%TO.N,S1*%
X104075000Y-83530000D03*
X104500000Y-50500000D03*
%TO.N,S2*%
X104575000Y-82625000D03*
X99325000Y-43525000D03*
%TO.N,S3*%
X116000000Y-50480000D03*
X105300000Y-82960000D03*
%TO.N,S4*%
X105610000Y-83690000D03*
X110585000Y-43315000D03*
%TO.N,S5*%
X126400000Y-51110000D03*
X106155000Y-84745000D03*
%TO.N,S6*%
X106410000Y-83810000D03*
X122300000Y-43000000D03*
D18*
%TO.N,+5V*%
X125000000Y-63100000D03*
X125183552Y-75816448D03*
X125223552Y-77423552D03*
X124900000Y-61600000D03*
X123723552Y-78923552D03*
X95300000Y-55700000D03*
D17*
X112900000Y-66743464D03*
D18*
X95300000Y-54500000D03*
D17*
%TO.N,Vdd*%
X113670000Y-70030000D03*
X113050000Y-65600000D03*
%TO.N,LFlap*%
X97800000Y-88500000D03*
%TO.N,RFlap*%
X112100000Y-86960000D03*
%TO.N,Vfb*%
X108210000Y-73700000D03*
X112800000Y-68000000D03*
%TD*%
D20*
%TO.N,+3.3V*%
X120020000Y-79320000D02*
X113450000Y-85890000D01*
X120020000Y-71550000D02*
X120020000Y-79320000D01*
D21*
%TO.N,S5*%
X106228000Y-84728000D02*
X106200000Y-84700000D01*
X113312000Y-84728000D02*
X106228000Y-84728000D01*
X119230000Y-78810000D02*
X113312000Y-84728000D01*
X119236000Y-60579138D02*
X119236000Y-62820863D01*
X119236000Y-62820863D02*
X119230000Y-62826862D01*
X118978000Y-60321138D02*
X119236000Y-60579138D01*
X118978000Y-54062000D02*
X118978000Y-60321138D01*
X121930000Y-51110000D02*
X118978000Y-54062000D01*
X126400000Y-51110000D02*
X121930000Y-51110000D01*
X119230000Y-62826862D02*
X119230000Y-78810000D01*
%TO.N,S6*%
X106800000Y-84200000D02*
X106400000Y-83800000D01*
X113120000Y-84200000D02*
X106800000Y-84200000D01*
X118550000Y-62901579D02*
X118550000Y-78770000D01*
X118808000Y-60756421D02*
X118808000Y-62643579D01*
X118808000Y-62643579D02*
X118550000Y-62901579D01*
X118550000Y-60498421D02*
X118808000Y-60756421D01*
X118550000Y-46750000D02*
X118550000Y-60498421D01*
X122300000Y-43000000D02*
X118550000Y-46750000D01*
X118550000Y-78770000D02*
X113120000Y-84200000D01*
D22*
%TO.N,Vbatt*%
X111891213Y-79330000D02*
X113770000Y-79330000D01*
X105520000Y-67560000D02*
X105520000Y-72958787D01*
X105520000Y-72958787D02*
X111891213Y-79330000D01*
D21*
%TO.N,Vdc*%
X112060000Y-71930000D02*
X110915000Y-73075000D01*
X112060000Y-69350000D02*
X112060000Y-71930000D01*
X111055000Y-68345000D02*
X112060000Y-69350000D01*
X110915000Y-73075000D02*
X110800000Y-73190000D01*
%TO.N,S1*%
X103510000Y-60615421D02*
X104601000Y-61706421D01*
X102790000Y-65404579D02*
X102790000Y-73906148D01*
X104601000Y-61706421D02*
X104601000Y-63593579D01*
X104601000Y-63593579D02*
X102790000Y-65404579D01*
X102790000Y-73906148D02*
X104047000Y-75163148D01*
X103510000Y-51490000D02*
X103510000Y-60615421D01*
X104047000Y-75163148D02*
X104047000Y-83502000D01*
X104500000Y-50500000D02*
X103510000Y-51490000D01*
X104100000Y-83475000D02*
X104075000Y-83500000D01*
X104047000Y-83502000D02*
X104075000Y-83530000D01*
%TO.N,S2*%
X104577284Y-51028000D02*
X103950000Y-51655284D01*
X105022000Y-49222000D02*
X105022000Y-50275295D01*
X99325000Y-43525000D02*
X105022000Y-49222000D01*
X99300000Y-43500000D02*
X99325000Y-43525000D01*
X104528003Y-82176016D02*
X104528000Y-82530573D01*
X104527996Y-82530577D02*
X104527996Y-82530583D01*
X104504290Y-82554290D02*
X104575000Y-82625000D01*
X103950000Y-51655284D02*
X103950000Y-60450137D01*
X104528000Y-82530573D02*
X104527996Y-82530577D01*
X105022000Y-50275295D02*
X105028000Y-50281295D01*
X104475000Y-75605300D02*
X104528000Y-75658300D01*
X105029000Y-63770863D02*
X103300000Y-65499863D01*
X104528000Y-75658300D02*
X104528000Y-82176013D01*
X105029000Y-61529138D02*
X105029000Y-63770863D01*
X103300000Y-73810865D02*
X104475000Y-74985865D01*
X105028000Y-50718705D02*
X104718705Y-51028000D01*
X103300000Y-65499863D02*
X103300000Y-73810865D01*
X104527996Y-82530583D02*
X104504290Y-82554290D01*
X104528000Y-82176013D02*
X104528003Y-82176016D01*
X103950000Y-60450137D02*
X105029000Y-61529138D01*
X105028000Y-50281295D02*
X105028000Y-50718705D01*
X104475000Y-74985865D02*
X104475000Y-75605300D01*
X104718705Y-51028000D02*
X104577284Y-51028000D01*
%TO.N,S3*%
X104580000Y-51630568D02*
X104580000Y-60474853D01*
X105457000Y-61351855D02*
X105457000Y-63948147D01*
X116000000Y-47953294D02*
X110818706Y-42772000D01*
X103770000Y-65635147D02*
X103770000Y-73675582D01*
X104956000Y-77838000D02*
X105210000Y-78092000D01*
X103770000Y-73675582D02*
X104903000Y-74808582D01*
X105456000Y-50895989D02*
X104895988Y-51456000D01*
X105456000Y-50104012D02*
X105456000Y-50895989D01*
X104956000Y-75481017D02*
X104956000Y-77838000D01*
X116000000Y-50480000D02*
X116000000Y-47953294D01*
X104903000Y-75428016D02*
X104956000Y-75481017D01*
X104754568Y-51456000D02*
X104580000Y-51630568D01*
X104895988Y-51456000D02*
X104754568Y-51456000D01*
X110381295Y-42772000D02*
X105450000Y-47703295D01*
X104580000Y-60474853D02*
X105457000Y-61351855D01*
X105210000Y-78092000D02*
X105210000Y-82810000D01*
X104903000Y-74808582D02*
X104903000Y-75428016D01*
X105450000Y-50098011D02*
X105456000Y-50104012D01*
X105457000Y-63948147D02*
X103770000Y-65635147D01*
X116000000Y-50500000D02*
X116000000Y-50480000D01*
X110818706Y-42772000D02*
X110381295Y-42772000D01*
X105450000Y-47703295D02*
X105450000Y-50098011D01*
X105210000Y-82810000D02*
X105300000Y-82900000D01*
%TO.N,S4*%
X105884000Y-49926729D02*
X105883999Y-51073273D01*
X105008000Y-51949272D02*
X105008000Y-60297570D01*
X110600000Y-43300000D02*
X110585000Y-43315000D01*
X105883999Y-51073273D02*
X105008000Y-51949272D01*
X105331000Y-74631299D02*
X105331000Y-75250734D01*
X105890000Y-48010000D02*
X105890000Y-49920729D01*
X105885000Y-64125431D02*
X104230000Y-65780431D01*
X104230000Y-73530299D02*
X105331000Y-74631299D01*
X105384000Y-77660716D02*
X105880000Y-78156716D01*
X105008000Y-60297570D02*
X105885000Y-61174572D01*
X105384002Y-75303737D02*
X105384000Y-77660716D01*
X105880000Y-78156716D02*
X105880000Y-83420000D01*
X104230000Y-65780431D02*
X104230000Y-73530299D01*
X105610000Y-83690000D02*
X105600000Y-83700000D01*
X105885000Y-61174572D02*
X105885000Y-64125431D01*
X105331000Y-75250734D02*
X105384002Y-75303737D01*
X110585000Y-43315000D02*
X105890000Y-48010000D01*
X105880000Y-83420000D02*
X105610000Y-83690000D01*
%TO.N,S5*%
X126400000Y-51100000D02*
X126400000Y-51110000D01*
D22*
%TO.N,+5V*%
X120157600Y-113674010D02*
X120157600Y-115006890D01*
X118645990Y-116518500D02*
X116954010Y-116518500D01*
X124738000Y-101275660D02*
X124738000Y-109093610D01*
X122910184Y-100322000D02*
X123784340Y-100322000D01*
X124738000Y-109093610D02*
X120157600Y-113674010D01*
X116954010Y-116518500D02*
X114472510Y-119000000D01*
X120157600Y-115006890D02*
X118645990Y-116518500D01*
X122390000Y-99896156D02*
X122484340Y-99896156D01*
X114472510Y-119000000D02*
X113800000Y-119000000D01*
X123723552Y-78923552D02*
X125223552Y-77423552D01*
X123784340Y-100322000D02*
X124738000Y-101275660D01*
X123723552Y-80897661D02*
X122390000Y-82231213D01*
X122390000Y-82231213D02*
X122390000Y-99896156D01*
X122484340Y-99896156D02*
X122910184Y-100322000D01*
X123723552Y-78923552D02*
X123723552Y-80897661D01*
D21*
%TO.N,Vdd*%
X113050000Y-66140000D02*
X113670000Y-66760000D01*
X113670000Y-66760000D02*
X113670000Y-70030000D01*
X113050000Y-65600000D02*
X113050000Y-66140000D01*
%TO.N,LFlap*%
X100600000Y-85330000D02*
X100600000Y-78891177D01*
X100100000Y-76608823D02*
X100100000Y-71310000D01*
X99587000Y-77878177D02*
X99587000Y-77121823D01*
X97800000Y-88500000D02*
X97800000Y-88130000D01*
X100100000Y-71310000D02*
X93400000Y-64610000D01*
X99587000Y-77121823D02*
X100100000Y-76608823D01*
X97800000Y-88130000D02*
X100600000Y-85330000D01*
X100600000Y-78891177D02*
X99587000Y-77878177D01*
X93400000Y-64610000D02*
X93400000Y-60940000D01*
%TO.N,RFlap*%
X112100000Y-86960000D02*
X112100000Y-87000000D01*
X123100000Y-77739740D02*
X123100000Y-68180000D01*
X112100000Y-86960000D02*
X113920000Y-86960000D01*
X122445552Y-78434448D02*
X122445552Y-78394188D01*
X122445552Y-78394188D02*
X123100000Y-77739740D01*
X113920000Y-86960000D02*
X122445552Y-78434448D01*
%TO.N,Vfb*%
X108210000Y-73700000D02*
X112800000Y-73700000D01*
X112800000Y-73700000D02*
X112800000Y-68000000D01*
%TD*%
%TA.AperFunction,Conductor*%
%TO.N,LoadC*%
G36*
X125473039Y-34089685D02*
G01*
X125518794Y-34142489D01*
X125530000Y-34194000D01*
X125530000Y-39446000D01*
X125510315Y-39513039D01*
X125457511Y-39558794D01*
X125406000Y-39570000D01*
X119653775Y-39570000D01*
X119586736Y-39550315D01*
X119540981Y-39497511D01*
X119529775Y-39446225D01*
X119520226Y-34194225D01*
X119539789Y-34127150D01*
X119592510Y-34081299D01*
X119644226Y-34070000D01*
X125406000Y-34070000D01*
X125473039Y-34089685D01*
G37*
%TD.AperFunction*%
%TD*%
%TA.AperFunction,Conductor*%
%TO.N,LoadB*%
G36*
X113943039Y-34069685D02*
G01*
X113988794Y-34122489D01*
X114000000Y-34174000D01*
X114000000Y-39416000D01*
X113980315Y-39483039D01*
X113927511Y-39528794D01*
X113876000Y-39540000D01*
X108134000Y-39540000D01*
X108066961Y-39520315D01*
X108021206Y-39467511D01*
X108010000Y-39416000D01*
X108010000Y-34174000D01*
X108029685Y-34106961D01*
X108082489Y-34061206D01*
X108134000Y-34050000D01*
X113876000Y-34050000D01*
X113943039Y-34069685D01*
G37*
%TD.AperFunction*%
%TD*%
%TA.AperFunction,Conductor*%
%TO.N,LoadA*%
G36*
X102443263Y-34269685D02*
G01*
X102489018Y-34322489D01*
X102500224Y-34373775D01*
X102509774Y-39645568D01*
X102490211Y-39712643D01*
X102437490Y-39758494D01*
X102385568Y-39769793D01*
X96604019Y-39760205D01*
X96537013Y-39740409D01*
X96491345Y-39687529D01*
X96480225Y-39635980D01*
X96489775Y-34373775D01*
X96509581Y-34306771D01*
X96562468Y-34261112D01*
X96613775Y-34250000D01*
X102376224Y-34250000D01*
X102443263Y-34269685D01*
G37*
%TD.AperFunction*%
%TD*%
%TA.AperFunction,Conductor*%
%TO.N,Vdc*%
G36*
X125442640Y-54269780D02*
G01*
X125488483Y-54322508D01*
X125499774Y-54374432D01*
X125490225Y-59636018D01*
X125470419Y-59703022D01*
X125417532Y-59748681D01*
X125366018Y-59759793D01*
X119752293Y-59750436D01*
X119685287Y-59730640D01*
X119639620Y-59677759D01*
X119628500Y-59626436D01*
X119628500Y-54383563D01*
X119648185Y-54316524D01*
X119700989Y-54270769D01*
X119752291Y-54259563D01*
X125375568Y-54250207D01*
X125442640Y-54269780D01*
G37*
%TD.AperFunction*%
%TD*%
%TA.AperFunction,Conductor*%
%TO.N,Vdc*%
G36*
X113942464Y-54269876D02*
G01*
X113988395Y-54322527D01*
X113999773Y-54374639D01*
X113990225Y-59626018D01*
X113970418Y-59693022D01*
X113917531Y-59738681D01*
X113866018Y-59749793D01*
X108123793Y-59740206D01*
X108056786Y-59720409D01*
X108011120Y-59667529D01*
X108000000Y-59616206D01*
X108000000Y-54393587D01*
X108019685Y-54326548D01*
X108072489Y-54280793D01*
X108123586Y-54269588D01*
X113875361Y-54250415D01*
X113942464Y-54269876D01*
G37*
%TD.AperFunction*%
%TD*%
%TA.AperFunction,Conductor*%
%TO.N,Vdc*%
G36*
X102442866Y-54269779D02*
G01*
X102488708Y-54322507D01*
X102500000Y-54374206D01*
X102500000Y-59616000D01*
X102480315Y-59683039D01*
X102427511Y-59728794D01*
X102376000Y-59740000D01*
X96614000Y-59740000D01*
X96546961Y-59720315D01*
X96501206Y-59667511D01*
X96490000Y-59616000D01*
X96490000Y-54383794D01*
X96509685Y-54316755D01*
X96562489Y-54271000D01*
X96613793Y-54259794D01*
X102375796Y-54250206D01*
X102442866Y-54269779D01*
G37*
%TD.AperFunction*%
%TD*%
M02*
