%TF.GenerationSoftware,KiCad,Pcbnew,9.0.2*%
%TF.CreationDate,2025-08-16T18:35:03-07:00*%
%TF.ProjectId,Transmitter,5472616e-736d-4697-9474-65722e6b6963,rev?*%
%TF.SameCoordinates,Original*%
%TF.FileFunction,Paste,Top*%
%TF.FilePolarity,Positive*%
%FSLAX46Y46*%
G04 Gerber Fmt 4.6, Leading zero omitted, Abs format (unit mm)*
G04 Created by KiCad (PCBNEW 9.0.2) date 2025-08-16 18:35:03*
%MOMM*%
%LPD*%
G01*
G04 APERTURE LIST*
G04 Aperture macros list*
%AMRoundRect*
0 Rectangle with rounded corners*
0 $1 Rounding radius*
0 $2 $3 $4 $5 $6 $7 $8 $9 X,Y pos of 4 corners*
0 Add a 4 corners polygon primitive as box body*
4,1,4,$2,$3,$4,$5,$6,$7,$8,$9,$2,$3,0*
0 Add four circle primitives for the rounded corners*
1,1,$1+$1,$2,$3*
1,1,$1+$1,$4,$5*
1,1,$1+$1,$6,$7*
1,1,$1+$1,$8,$9*
0 Add four rect primitives between the rounded corners*
20,1,$1+$1,$2,$3,$4,$5,0*
20,1,$1+$1,$4,$5,$6,$7,0*
20,1,$1+$1,$6,$7,$8,$9,0*
20,1,$1+$1,$8,$9,$2,$3,0*%
G04 Aperture macros list end*
%ADD10C,0.000000*%
%ADD11RoundRect,0.218750X0.218750X0.256250X-0.218750X0.256250X-0.218750X-0.256250X0.218750X-0.256250X0*%
%ADD12RoundRect,0.073750X-0.651250X-0.221250X0.651250X-0.221250X0.651250X0.221250X-0.651250X0.221250X0*%
%ADD13RoundRect,0.250000X-0.625000X0.312500X-0.625000X-0.312500X0.625000X-0.312500X0.625000X0.312500X0*%
%ADD14RoundRect,0.250000X-0.312500X-0.625000X0.312500X-0.625000X0.312500X0.625000X-0.312500X0.625000X0*%
%ADD15RoundRect,0.250000X0.312500X0.625000X-0.312500X0.625000X-0.312500X-0.625000X0.312500X-0.625000X0*%
%ADD16RoundRect,0.225000X-0.225000X-0.250000X0.225000X-0.250000X0.225000X0.250000X-0.225000X0.250000X0*%
%ADD17RoundRect,0.225000X0.250000X-0.225000X0.250000X0.225000X-0.250000X0.225000X-0.250000X-0.225000X0*%
%ADD18RoundRect,0.225000X0.225000X0.250000X-0.225000X0.250000X-0.225000X-0.250000X0.225000X-0.250000X0*%
%ADD19RoundRect,0.140000X0.170000X-0.140000X0.170000X0.140000X-0.170000X0.140000X-0.170000X-0.140000X0*%
%ADD20RoundRect,0.140000X0.140000X0.170000X-0.140000X0.170000X-0.140000X-0.170000X0.140000X-0.170000X0*%
%ADD21R,2.000000X2.500000*%
%ADD22R,6.000000X5.500000*%
%ADD23RoundRect,0.225000X-0.250000X0.225000X-0.250000X-0.225000X0.250000X-0.225000X0.250000X0.225000X0*%
%ADD24RoundRect,0.200000X-0.275000X0.200000X-0.275000X-0.200000X0.275000X-0.200000X0.275000X0.200000X0*%
%ADD25RoundRect,0.135000X-0.185000X0.135000X-0.185000X-0.135000X0.185000X-0.135000X0.185000X0.135000X0*%
%ADD26RoundRect,0.135000X0.185000X-0.135000X0.185000X0.135000X-0.185000X0.135000X-0.185000X-0.135000X0*%
%ADD27RoundRect,0.200000X-0.200000X-0.275000X0.200000X-0.275000X0.200000X0.275000X-0.200000X0.275000X0*%
%ADD28RoundRect,0.075000X-0.700000X-0.075000X0.700000X-0.075000X0.700000X0.075000X-0.700000X0.075000X0*%
%ADD29RoundRect,0.075000X-0.075000X-0.700000X0.075000X-0.700000X0.075000X0.700000X-0.075000X0.700000X0*%
%ADD30RoundRect,0.250000X0.275000X0.700000X-0.275000X0.700000X-0.275000X-0.700000X0.275000X-0.700000X0*%
%ADD31RoundRect,0.150000X-0.512500X-0.150000X0.512500X-0.150000X0.512500X0.150000X-0.512500X0.150000X0*%
%ADD32RoundRect,0.135000X0.135000X0.185000X-0.135000X0.185000X-0.135000X-0.185000X0.135000X-0.185000X0*%
%ADD33R,1.900000X5.100000*%
%ADD34R,0.254000X0.304800*%
%ADD35R,0.304800X0.152400*%
%ADD36R,0.304800X0.457200*%
%ADD37R,0.457200X0.304800*%
%ADD38R,1.574800X1.050000*%
%ADD39C,0.127000*%
%ADD40R,0.580009X0.380009*%
G04 APERTURE END LIST*
D10*
%TO.C,U5*%
G36*
X108112411Y-70275005D02*
G01*
X106708407Y-70277401D01*
X106708407Y-69972601D01*
X106962407Y-69972601D01*
X106962407Y-69827399D01*
X106708407Y-69827399D01*
X106708407Y-69522599D01*
X106962407Y-69522599D01*
X106962401Y-69224995D01*
X108112411Y-69224995D01*
X108112411Y-70275005D01*
G37*
G36*
X109787405Y-70575501D02*
G01*
X109787405Y-71030492D01*
X109137393Y-71030492D01*
X109137406Y-71775490D01*
X106962404Y-71775490D01*
X106962407Y-71627401D01*
X106708407Y-71627401D01*
X106708407Y-71322601D01*
X106962407Y-71322601D01*
X106962407Y-71177399D01*
X106708407Y-71177399D01*
X106708407Y-70872599D01*
X106962407Y-70872599D01*
X106962404Y-70575492D01*
X109787405Y-70575501D01*
G37*
G36*
X109435976Y-72499993D02*
G01*
X109131176Y-72499993D01*
X109131176Y-72347593D01*
X108985888Y-72347593D01*
X108985888Y-72499993D01*
X108681088Y-72499993D01*
X108681088Y-72347593D01*
X108285712Y-72347593D01*
X108285712Y-72499993D01*
X107980912Y-72499993D01*
X107980912Y-72347593D01*
X107835624Y-72347593D01*
X107835624Y-72499993D01*
X107530824Y-72499993D01*
X107530824Y-72347593D01*
X107385536Y-72347593D01*
X107385536Y-72499993D01*
X107080736Y-72499993D01*
X107080736Y-72046400D01*
X109435976Y-72046400D01*
X109435976Y-72499993D01*
G37*
%TD*%
D11*
%TO.C,R20*%
X116887500Y-93960000D03*
X115312500Y-93960000D03*
%TD*%
%TO.C,D1*%
X113834500Y-93955000D03*
X112259500Y-93955000D03*
%TD*%
D12*
%TO.C,U4*%
X118400000Y-72100000D03*
X118400000Y-73050000D03*
X118400000Y-74000000D03*
X116090000Y-74000000D03*
X116090000Y-73050000D03*
X116090000Y-72100000D03*
%TD*%
D13*
%TO.C,R16*%
X110060000Y-61685000D03*
X110060000Y-64610000D03*
%TD*%
%TO.C,R15*%
X107750000Y-61690000D03*
X107750000Y-64615000D03*
%TD*%
D14*
%TO.C,R13*%
X93162500Y-73650000D03*
X96087500Y-73650000D03*
%TD*%
D15*
%TO.C,R11*%
X123192500Y-75160000D03*
X120267500Y-75160000D03*
%TD*%
D16*
%TO.C,C11*%
X124930000Y-81370000D03*
X123380000Y-81370000D03*
%TD*%
%TO.C,C12*%
X123360000Y-82900000D03*
X124910000Y-82900000D03*
%TD*%
D17*
%TO.C,C6*%
X114300000Y-76730000D03*
X114300000Y-75180000D03*
%TD*%
%TO.C,C5*%
X112790000Y-76730000D03*
X112790000Y-75180000D03*
%TD*%
D18*
%TO.C,C1*%
X123335000Y-105326000D03*
X121785000Y-105326000D03*
%TD*%
D19*
%TO.C,C3*%
X117820000Y-110220000D03*
X117820000Y-109260000D03*
%TD*%
D20*
%TO.C,C13*%
X119400000Y-70600000D03*
X118440000Y-70600000D03*
%TD*%
D21*
%TO.C,Q5*%
X113300000Y-50500000D03*
D22*
X111000000Y-57000000D03*
D21*
X108700000Y-50500000D03*
%TD*%
D23*
%TO.C,C9*%
X116200000Y-39425000D03*
X116200000Y-40975000D03*
%TD*%
D24*
%TO.C,R19*%
X112000000Y-65350000D03*
X112000000Y-67000000D03*
%TD*%
D16*
%TO.C,C19*%
X113950000Y-66000000D03*
X115500000Y-66000000D03*
%TD*%
D21*
%TO.C,Q6*%
X108700000Y-43300000D03*
D22*
X111000000Y-36800000D03*
D21*
X113300000Y-43300000D03*
%TD*%
D23*
%TO.C,C8*%
X104700000Y-39950000D03*
X104700000Y-41500000D03*
%TD*%
D25*
%TO.C,R1*%
X121730000Y-93080000D03*
X121730000Y-94100000D03*
%TD*%
D21*
%TO.C,Q3*%
X97200000Y-43500000D03*
D22*
X99500000Y-37000000D03*
D21*
X101800000Y-43500000D03*
%TD*%
D20*
%TO.C,C2*%
X123060000Y-103826000D03*
X122100000Y-103826000D03*
%TD*%
D26*
%TO.C,R3*%
X101200000Y-84140000D03*
X101200000Y-83120000D03*
%TD*%
%TO.C,R4*%
X101990000Y-47510000D03*
X101990000Y-46490000D03*
%TD*%
D27*
%TO.C,R17*%
X112000000Y-71000000D03*
X113650000Y-71000000D03*
%TD*%
D28*
%TO.C,U2*%
X99150000Y-88000000D03*
X99150000Y-88500000D03*
X99150000Y-89000000D03*
X99150000Y-89500000D03*
X99150000Y-90000000D03*
X99150000Y-90500000D03*
X99150000Y-91000000D03*
X99150000Y-91500000D03*
X99150000Y-92000000D03*
X99150000Y-92500000D03*
X99150000Y-93000000D03*
X99150000Y-93500000D03*
X99150000Y-94000000D03*
X99150000Y-94500000D03*
X99150000Y-95000000D03*
X99150000Y-95500000D03*
D29*
X101075000Y-97425000D03*
X101575000Y-97425000D03*
X102075000Y-97425000D03*
X102575000Y-97425000D03*
X103075000Y-97425000D03*
X103575000Y-97425000D03*
X104075000Y-97425000D03*
X104575000Y-97425000D03*
X105075000Y-97425000D03*
X105575000Y-97425000D03*
X106075000Y-97425000D03*
X106575000Y-97425000D03*
X107075000Y-97425000D03*
X107575000Y-97425000D03*
X108075000Y-97425000D03*
X108575000Y-97425000D03*
D28*
X110500000Y-95500000D03*
X110500000Y-95000000D03*
X110500000Y-94500000D03*
X110500000Y-94000000D03*
X110500000Y-93500000D03*
X110500000Y-93000000D03*
X110500000Y-92500000D03*
X110500000Y-92000000D03*
X110500000Y-91500000D03*
X110500000Y-91000000D03*
X110500000Y-90500000D03*
X110500000Y-90000000D03*
X110500000Y-89500000D03*
X110500000Y-89000000D03*
X110500000Y-88500000D03*
X110500000Y-88000000D03*
D29*
X108575000Y-86075000D03*
X108075000Y-86075000D03*
X107575000Y-86075000D03*
X107075000Y-86075000D03*
X106575000Y-86075000D03*
X106075000Y-86075000D03*
X105575000Y-86075000D03*
X105075000Y-86075000D03*
X104575000Y-86075000D03*
X104075000Y-86075000D03*
X103575000Y-86075000D03*
X103075000Y-86075000D03*
X102575000Y-86075000D03*
X102075000Y-86075000D03*
X101575000Y-86075000D03*
X101075000Y-86075000D03*
%TD*%
D30*
%TO.C,L2*%
X111150000Y-75500000D03*
X108000000Y-75500000D03*
%TD*%
D21*
%TO.C,Q9*%
X124800000Y-50500000D03*
D22*
X122500000Y-57000000D03*
D21*
X120200000Y-50500000D03*
%TD*%
D31*
%TO.C,U3*%
X120525000Y-106930000D03*
X120525000Y-107880000D03*
X120525000Y-108830000D03*
X122800000Y-108830000D03*
X122800000Y-106930000D03*
%TD*%
D26*
%TO.C,R8*%
X113500000Y-47520000D03*
X113500000Y-46500000D03*
%TD*%
D21*
%TO.C,Q1*%
X101800000Y-50500000D03*
D22*
X99500000Y-57000000D03*
D21*
X97200000Y-50500000D03*
%TD*%
D32*
%TO.C,R7*%
X121660000Y-72530000D03*
X120640000Y-72530000D03*
%TD*%
D16*
%TO.C,C21*%
X111950000Y-73000000D03*
X113500000Y-73000000D03*
%TD*%
D19*
%TO.C,C22*%
X106520000Y-66980000D03*
X106520000Y-66020000D03*
%TD*%
D33*
%TO.C,L1*%
X117200000Y-79600000D03*
X121400000Y-79600000D03*
%TD*%
D19*
%TO.C,C14*%
X123900000Y-77680000D03*
X123900000Y-76720000D03*
%TD*%
D25*
%TO.C,R9*%
X108500000Y-46500000D03*
X108500000Y-47520000D03*
%TD*%
D32*
%TO.C,R10*%
X121650000Y-73500000D03*
X120630000Y-73500000D03*
%TD*%
D34*
%TO.C,U5*%
X106835407Y-69674999D03*
X106835407Y-70125001D03*
X106835407Y-71024999D03*
X106835407Y-71475001D03*
D35*
X107233136Y-72423793D03*
X107683224Y-72423793D03*
X108133312Y-72423793D03*
X108833488Y-72423793D03*
X109283576Y-72423793D03*
D36*
X109733664Y-72275000D03*
D37*
X110483400Y-71925000D03*
X110483400Y-71475001D03*
X110483400Y-71024999D03*
X110483400Y-70575000D03*
X110483400Y-70125001D03*
X110483400Y-69674999D03*
X110483400Y-69225000D03*
D36*
X110183664Y-68725000D03*
X109733576Y-68725000D03*
X109283488Y-68725000D03*
X108833400Y-68725000D03*
X108133312Y-68725000D03*
X107683224Y-68725000D03*
X107233136Y-68725000D03*
D38*
X109167400Y-69750000D03*
D39*
X107565400Y-69738000D03*
X108073400Y-71135000D03*
D40*
X109664786Y-71490000D03*
%TD*%
D25*
%TO.C,R5*%
X120000000Y-46200000D03*
X120000000Y-47220000D03*
%TD*%
D23*
%TO.C,C10*%
X127700000Y-39195000D03*
X127700000Y-40745000D03*
%TD*%
D32*
%TO.C,R2*%
X92420000Y-117000000D03*
X91400000Y-117000000D03*
%TD*%
D25*
%TO.C,R6*%
X96990000Y-46490000D03*
X96990000Y-47510000D03*
%TD*%
D19*
%TO.C,C4*%
X102500000Y-84100000D03*
X102500000Y-83140000D03*
%TD*%
D26*
%TO.C,R12*%
X124490000Y-47220000D03*
X124490000Y-46200000D03*
%TD*%
D25*
%TO.C,R18*%
X107500000Y-65990000D03*
X107500000Y-67010000D03*
%TD*%
D27*
%TO.C,R14*%
X112000000Y-69000000D03*
X113650000Y-69000000D03*
%TD*%
D19*
%TO.C,C7*%
X115520000Y-76680000D03*
X115520000Y-75720000D03*
%TD*%
D21*
%TO.C,Q10*%
X120230000Y-43320000D03*
D22*
X122530000Y-36820000D03*
D21*
X124830000Y-43320000D03*
%TD*%
M02*
