M48
; DRILL file {KiCad 9.0.2} date 2025-08-16T18:34:40-0700
; FORMAT={-:-/ absolute / metric / decimal}
; #@! TF.CreationDate,2025-08-16T18:34:40-07:00
; #@! TF.GenerationSoftware,Kicad,Pcbnew,9.0.2
; #@! TF.FileFunction,Plated,1,4,PTH
FMAT,2
METRIC
; #@! TA.AperFunction,Plated,PTH,ViaDrill
T1C0.270
; #@! TA.AperFunction,Plated,PTH,ViaDrill
T2C0.500
; #@! TA.AperFunction,Plated,PTH,ComponentDrill
T3C0.762
; #@! TA.AperFunction,Plated,PTH,ComponentDrill
T4C1.000
; #@! TA.AperFunction,Plated,PTH,ComponentDrill
T5C1.016
; #@! TA.AperFunction,Plated,PTH,ComponentDrill
T6C1.067
; #@! TA.AperFunction,Plated,PTH,ComponentDrill
T7C1.321
; #@! TA.AperFunction,Plated,PTH,ComponentDrill
T8C1.854
; #@! TA.AperFunction,Plated,PTH,ViaDrill
T9C2.000
%
G90
G05
T1
X97.71Y-93.39
X97.775Y-93.965
X97.8Y-88.5
X98.445Y-85.365
X99.325Y-43.525
X102.5Y-83.14
X104.075Y-83.53
X104.5Y-50.5
X104.575Y-82.625
X105.3Y-82.96
X105.61Y-83.69
X106.155Y-84.745
X106.41Y-83.81
X107.5Y-71.451
X107.52Y-70.83
X108.21Y-73.7
X108.66Y-70.83
X108.69Y-71.45
X110.585Y-43.315
X110.915Y-73.075
X111.055Y-68.345
X111.223Y-71.102
X112.1Y-86.96
X112.8Y-68.0
X112.9Y-66.743
X113.05Y-65.6
X113.66Y-75.71
X113.67Y-70.03
X114.58Y-71.92
X114.6Y-69.95
X114.89Y-75.71
X116.0Y-50.48
X116.887Y-95.19
X121.566Y-107.303
X121.659Y-106.589
X122.1Y-104.55
X122.3Y-43.0
X122.36Y-73.5
X124.85Y-82.17
X126.4Y-51.11
T2
X92.92Y-50.91
X93.98Y-50.91
X95.3Y-54.5
X95.3Y-55.7
X96.83Y-74.12
X100.5Y-87.9
X100.81Y-93.5
X101.3Y-88.3
X103.28Y-88.16
X105.52Y-67.56
X105.52Y-68.66
X107.565Y-69.738
X108.4Y-100.36
X108.9Y-99.1
X109.167Y-69.75
X110.5Y-97.6
X113.45Y-85.89
X115.377Y-70.75
X117.01Y-70.76
X120.02Y-71.55
X121.81Y-101.524
X122.275Y-102.785
X123.11Y-101.95
X123.724Y-78.924
X124.9Y-61.6
X125.0Y-63.1
X125.184Y-75.816
X125.224Y-77.424
T3
X92.75Y-86.35
X92.95Y-78.45
X95.25Y-86.35
X95.45Y-78.45
X100.5Y-77.5
X101.48Y-68.87
X101.48Y-71.37
X103.0Y-77.5
X109.0Y-79.5
X109.0Y-82.0
T4
X93.4Y-55.86
X93.4Y-58.4
X93.4Y-60.94
X106.6Y-113.92
X106.6Y-116.46
X106.6Y-119.0
X110.2Y-113.92
X110.2Y-116.46
X110.2Y-119.0
X113.8Y-113.92
X113.8Y-116.46
X113.8Y-119.0
X119.44Y-86.57
X119.44Y-89.11
X119.44Y-91.65
X119.44Y-94.19
X119.44Y-96.73
X119.44Y-99.27
X123.1Y-63.1
X123.1Y-65.64
X123.1Y-68.18
T5
X95.28Y-116.36
X95.28Y-118.9
X97.82Y-116.36
X97.82Y-118.9
X100.36Y-116.36
X100.36Y-118.9
X102.9Y-116.36
X102.9Y-118.9
T6
X94.6Y-101.5
X94.6Y-106.5
X99.6Y-101.5
X99.6Y-106.5
T7
X91.454Y-70.379
X91.474Y-65.869
X96.534Y-70.379
X96.554Y-65.869
X99.48Y-26.29
X99.48Y-31.37
X111.12Y-26.3
X111.12Y-31.38
X117.8Y-114.476
X117.8Y-119.556
X122.2Y-114.52
X122.2Y-119.6
X122.56Y-26.27
X122.56Y-31.35
T8
X113.3Y-100.569
X113.3Y-105.395
X113.3Y-110.221
T9
X98.0Y-81.6
X99.5Y-37.0
X99.5Y-57.0
X102.323Y-62.65
X103.34Y-43.16
X111.0Y-36.8
X111.0Y-57.0
X113.77Y-79.33
X114.7Y-43.3
X116.53Y-61.7
X122.5Y-57.0
X122.53Y-36.82
X125.26Y-43.0
M30
